G04 Layer_Color=255*
%FSLAX42Y42*%
%MOMM*%
G71*
G01*
G75*
%ADD12C,0.10*%
%ADD13C,0.05*%
%ADD14R,4.00X19.16*%
%ADD15R,4.00X7.26*%
%ADD18R,0.80X1.60*%
%ADD19R,2.10X3.00*%
%ADD20R,1.20X0.90*%
D12*
X11551Y6809D02*
X12072D01*
X11551Y6604D02*
X12072D01*
X11551D02*
Y6809D01*
X12072Y6604D02*
Y6809D01*
X11501Y6820D02*
Y7177D01*
X11234Y6820D02*
Y7177D01*
Y6820D02*
X11501D01*
X11234Y7177D02*
X11501D01*
X12110D02*
X12377D01*
X12110Y6820D02*
X12377D01*
X12110D02*
Y7177D01*
X12377Y6820D02*
Y7177D01*
X7262Y6773D02*
X7782D01*
X7262Y6568D02*
X7782D01*
X7262D02*
Y6773D01*
X7782Y6568D02*
Y6773D01*
X7211Y6784D02*
Y7141D01*
X6944Y6784D02*
Y7141D01*
Y6784D02*
X7211D01*
X6944Y7141D02*
X7211D01*
X7821D02*
X8087D01*
X7821Y6784D02*
X8087D01*
X7821D02*
Y7141D01*
X8087Y6784D02*
Y7141D01*
X3987Y4280D02*
Y4560D01*
X3807Y4280D02*
Y4560D01*
Y4280D02*
X3987D01*
X3807Y4560D02*
X3987D01*
X9753Y2997D02*
Y3277D01*
X9573Y2997D02*
Y3277D01*
Y2997D02*
X9753D01*
X9573Y3277D02*
X9753D01*
X18986Y3670D02*
Y3950D01*
X18806Y3670D02*
Y3950D01*
Y3670D02*
X18986D01*
X18806Y3950D02*
X18986D01*
X11807Y6657D02*
Y6757D01*
X11757Y6707D02*
X11857D01*
X7517Y6621D02*
Y6721D01*
X7467Y6671D02*
X7567D01*
X3847Y4420D02*
X3947D01*
X3897Y4370D02*
Y4470D01*
X9613Y3137D02*
X9713D01*
X9663Y3087D02*
Y3187D01*
X18846Y3810D02*
X18946D01*
X18896Y3760D02*
Y3860D01*
D13*
X11208Y7341D02*
X12402D01*
X11208Y6566D02*
X12402D01*
X11208D02*
Y7341D01*
X12402Y6566D02*
Y7341D01*
X6919Y7305D02*
X8113D01*
X6919Y6530D02*
X8113D01*
X6919D02*
Y7305D01*
X8113Y6530D02*
Y7305D01*
X4002Y4187D02*
Y4652D01*
X3792Y4187D02*
Y4652D01*
Y4187D02*
X4002D01*
X3792Y4652D02*
X4002D01*
X9768Y2904D02*
Y3369D01*
X9558Y2904D02*
Y3369D01*
Y2904D02*
X9768D01*
X9558Y3369D02*
X9768D01*
X19001Y3578D02*
Y4042D01*
X18791Y3578D02*
Y4042D01*
Y3578D02*
X19001D01*
X18791Y4042D02*
X19001D01*
D14*
X4477Y6095D02*
D03*
X9093Y6065D02*
D03*
X32207Y6141D02*
D03*
X27540Y6146D02*
D03*
X22917Y6171D02*
D03*
X18301Y6090D02*
D03*
X13714Y6147D02*
D03*
D15*
X4477Y2053D02*
D03*
X9093Y2023D02*
D03*
X32207Y2099D02*
D03*
X27540Y2104D02*
D03*
X22917Y2129D02*
D03*
X18301Y2048D02*
D03*
X13714Y2105D02*
D03*
D18*
X11621Y6706D02*
D03*
X11746D02*
D03*
X11871D02*
D03*
X11996D02*
D03*
X7331Y6670D02*
D03*
X7456D02*
D03*
X7581D02*
D03*
X7706D02*
D03*
D19*
X11366Y6996D02*
D03*
X12251D02*
D03*
X7076Y6960D02*
D03*
X7961D02*
D03*
D20*
X3897Y4260D02*
D03*
Y4580D02*
D03*
X9663Y2977D02*
D03*
Y3297D02*
D03*
X18896Y3650D02*
D03*
Y3970D02*
D03*
M02*
