G04 Layer_Color=65535*
%FSLAX42Y42*%
%MOMM*%
G71*
G01*
G75*
%ADD11C,0.25*%
D11*
X32080Y3594D02*
Y3442D01*
X32156D01*
X32182Y3467D01*
Y3569D01*
X32156Y3594D01*
X32080D01*
X32233Y3442D02*
X32283D01*
X32258D01*
Y3594D01*
X32233Y3569D01*
X4254Y2997D02*
Y3150D01*
X4331D01*
X4356Y3124D01*
Y3073D01*
X4331Y3048D01*
X4254D01*
X4407Y3124D02*
X4432Y3150D01*
X4483D01*
X4508Y3124D01*
Y3099D01*
X4483Y3073D01*
X4458D01*
X4483D01*
X4508Y3048D01*
Y3023D01*
X4483Y2997D01*
X4432D01*
X4407Y3023D01*
X13576Y3162D02*
Y3315D01*
X13652D01*
X13678Y3289D01*
Y3238D01*
X13652Y3213D01*
X13576D01*
X13830Y3162D02*
X13729D01*
X13830Y3264D01*
Y3289D01*
X13805Y3315D01*
X13754D01*
X13729Y3289D01*
X22771Y3340D02*
Y3492D01*
X22847D01*
X22873Y3467D01*
Y3416D01*
X22847Y3391D01*
X22771D01*
X22923Y3340D02*
X22974D01*
X22949D01*
Y3492D01*
X22923Y3467D01*
X8992Y2921D02*
Y2769D01*
X9068D01*
X9093Y2794D01*
Y2896D01*
X9068Y2921D01*
X8992D01*
X9144D02*
X9246D01*
Y2896D01*
X9144Y2794D01*
Y2769D01*
X18161Y3416D02*
Y3264D01*
X18237D01*
X18263Y3289D01*
Y3391D01*
X18237Y3416D01*
X18161D01*
X18415D02*
X18313D01*
Y3340D01*
X18364Y3365D01*
X18390D01*
X18415Y3340D01*
Y3289D01*
X18390Y3264D01*
X18339D01*
X18313Y3289D01*
X27407Y3429D02*
Y3277D01*
X27483D01*
X27508Y3302D01*
Y3404D01*
X27483Y3429D01*
X27407D01*
X27559Y3404D02*
X27584Y3429D01*
X27635D01*
X27661Y3404D01*
Y3378D01*
X27635Y3353D01*
X27610D01*
X27635D01*
X27661Y3327D01*
Y3302D01*
X27635Y3277D01*
X27584D01*
X27559Y3302D01*
M02*
