G04 Layer_Color=16711935*
%FSLAX42Y42*%
%MOMM*%
G71*
G01*
G75*
%ADD20R,4.20X19.36*%
%ADD21R,4.20X7.46*%
%ADD22C,1.70*%
%ADD23C,4.20*%
%ADD24R,1.00X1.80*%
%ADD25R,2.30X3.20*%
%ADD26R,1.40X1.10*%
D20*
X4477Y6095D02*
D03*
X9093Y6065D02*
D03*
X32207Y6141D02*
D03*
X27540Y6146D02*
D03*
X22917Y6171D02*
D03*
X18301Y6090D02*
D03*
X13714Y6147D02*
D03*
D21*
X4477Y2053D02*
D03*
X9093Y2023D02*
D03*
X32207Y2099D02*
D03*
X27540Y2104D02*
D03*
X22917Y2129D02*
D03*
X18301Y2048D02*
D03*
X13714Y2105D02*
D03*
D22*
X28154Y4280D02*
D03*
X19277Y3619D02*
D03*
X3656Y4267D02*
D03*
X9917Y2959D02*
D03*
D23*
X32220Y521D02*
D03*
X4077Y406D02*
D03*
X4458Y4839D02*
D03*
X18059Y483D02*
D03*
X13665Y4521D02*
D03*
X22885Y4547D02*
D03*
X32233Y4890D02*
D03*
D24*
X11621Y6706D02*
D03*
X11746D02*
D03*
X11871D02*
D03*
X11996D02*
D03*
X7331Y6670D02*
D03*
X7456D02*
D03*
X7581D02*
D03*
X7706D02*
D03*
D25*
X11366Y6996D02*
D03*
X12251D02*
D03*
X7076Y6960D02*
D03*
X7961D02*
D03*
D26*
X3897Y4260D02*
D03*
Y4580D02*
D03*
X9663Y2977D02*
D03*
Y3297D02*
D03*
X18896Y3650D02*
D03*
Y3970D02*
D03*
M02*
