G04 Layer_Physical_Order=2*
G04 Layer_Color=16711680*
%FSLAX42Y42*%
%MOMM*%
G71*
G01*
G75*
%ADD11C,0.25*%
%ADD12C,0.10*%
%ADD13C,0.05*%
%ADD14R,4.00X19.16*%
%ADD15R,4.00X7.26*%
%ADD16C,1.50*%
%ADD17C,4.00*%
%ADD18R,0.80X1.60*%
%ADD19R,2.10X3.00*%
%ADD20R,1.20X0.90*%
G36*
X32512Y7214D02*
Y305D01*
X32499D01*
X32296Y102D01*
X267D01*
X89Y279D01*
Y7226D01*
X292Y7429D01*
X32296D01*
X32512Y7214D01*
D02*
G37*
%LPC*%
G36*
X18526Y2437D02*
X18313D01*
Y2061D01*
X18526D01*
Y2437D01*
D02*
G37*
G36*
X27527Y2492D02*
X27315D01*
Y2117D01*
X27527D01*
Y2492D01*
D02*
G37*
G36*
X18288Y2437D02*
X18075D01*
Y2061D01*
X18288D01*
Y2437D01*
D02*
G37*
G36*
X9080Y2411D02*
X8868D01*
Y2036D01*
X9080D01*
Y2411D01*
D02*
G37*
G36*
X9318D02*
X9106D01*
Y2036D01*
X9318D01*
Y2411D01*
D02*
G37*
G36*
X27766Y2492D02*
X27553D01*
Y2117D01*
X27766D01*
Y2492D01*
D02*
G37*
G36*
X3656Y4368D02*
X3630Y4365D01*
X3605Y4355D01*
X3584Y4339D01*
X3568Y4318D01*
X3558Y4293D01*
X3555Y4267D01*
X3558Y4241D01*
X3568Y4217D01*
X3584Y4196D01*
X3605Y4180D01*
X3630Y4169D01*
X3656Y4166D01*
X3682Y4169D01*
X3707Y4180D01*
X3728Y4196D01*
X3744Y4217D01*
X3749Y4228D01*
X3812D01*
Y4189D01*
X3983D01*
Y4330D01*
X3812D01*
Y4306D01*
X3749D01*
X3744Y4318D01*
X3728Y4339D01*
X3707Y4355D01*
X3682Y4365D01*
X3656Y4368D01*
D02*
G37*
G36*
X32233Y5116D02*
X32188Y5112D01*
X32146Y5099D01*
X32107Y5078D01*
X32072Y5050D01*
X32044Y5015D01*
X32023Y4976D01*
X32010Y4934D01*
X32006Y4890D01*
X32010Y4845D01*
X32023Y4803D01*
X32044Y4764D01*
X32072Y4729D01*
X32107Y4701D01*
X32146Y4680D01*
X32188Y4667D01*
X32233Y4663D01*
X32277Y4667D01*
X32319Y4680D01*
X32358Y4701D01*
X32393Y4729D01*
X32421Y4764D01*
X32442Y4803D01*
X32455Y4845D01*
X32459Y4890D01*
X32455Y4934D01*
X32442Y4976D01*
X32421Y5015D01*
X32393Y5050D01*
X32358Y5078D01*
X32319Y5099D01*
X32277Y5112D01*
X32233Y5116D01*
D02*
G37*
G36*
X7772Y6775D02*
X7344D01*
Y6670D01*
Y6564D01*
X7417D01*
Y6420D01*
X5616Y4618D01*
X4551D01*
X4548Y4631D01*
X4584Y4650D01*
X4618Y4679D01*
X4646Y4713D01*
X4667Y4752D01*
X4680Y4795D01*
X4684Y4839D01*
X4680Y4883D01*
X4667Y4925D01*
X4646Y4965D01*
X4618Y4999D01*
X4584Y5027D01*
X4544Y5048D01*
X4502Y5061D01*
X4458Y5065D01*
X4414Y5061D01*
X4371Y5048D01*
X4332Y5027D01*
X4298Y4999D01*
X4269Y4965D01*
X4248Y4925D01*
X4236Y4883D01*
X4231Y4839D01*
X4236Y4795D01*
X4248Y4752D01*
X4269Y4713D01*
X4298Y4679D01*
X4332Y4650D01*
X4368Y4631D01*
X4365Y4618D01*
X3983D01*
Y4650D01*
X3812D01*
Y4509D01*
X3983D01*
Y4541D01*
X5632D01*
X5647Y4544D01*
X5660Y4552D01*
X7484Y6376D01*
X7492Y6389D01*
X7495Y6404D01*
Y6564D01*
X7542D01*
Y4317D01*
X7545Y4302D01*
X7554Y4290D01*
X8574Y3269D01*
X8587Y3261D01*
X8601Y3258D01*
X9578D01*
Y3226D01*
X9749D01*
Y3367D01*
X9578D01*
Y3336D01*
X8617D01*
X7620Y4333D01*
Y6564D01*
X7667D01*
Y4916D01*
X7670Y4901D01*
X7679Y4888D01*
X8625Y3943D01*
X8637Y3934D01*
X8652Y3931D01*
X18811D01*
Y3900D01*
X18981D01*
Y4040D01*
X18811D01*
Y4009D01*
X8668D01*
X7745Y4932D01*
Y6564D01*
X7772D01*
Y6775D01*
D02*
G37*
G36*
X9917Y3060D02*
X9891Y3057D01*
X9866Y3047D01*
X9845Y3031D01*
X9829Y3010D01*
X9825Y2998D01*
X9749D01*
Y3047D01*
X9578D01*
Y2907D01*
X9749D01*
Y2920D01*
X9825D01*
X9829Y2908D01*
X9845Y2887D01*
X9866Y2871D01*
X9891Y2861D01*
X9917Y2858D01*
X9943Y2861D01*
X9968Y2871D01*
X9989Y2887D01*
X10005Y2908D01*
X10015Y2933D01*
X10018Y2959D01*
X10015Y2985D01*
X10005Y3010D01*
X9989Y3031D01*
X9968Y3047D01*
X9943Y3057D01*
X9917Y3060D01*
D02*
G37*
G36*
X19277Y3721D02*
X19251Y3717D01*
X19226Y3707D01*
X19205Y3691D01*
X19204Y3689D01*
X18981D01*
Y3720D01*
X18811D01*
Y3580D01*
X18981D01*
Y3611D01*
X19177D01*
X19179Y3593D01*
X19189Y3569D01*
X19205Y3548D01*
X19226Y3532D01*
X19251Y3522D01*
X19277Y3518D01*
X19303Y3522D01*
X19328Y3532D01*
X19349Y3548D01*
X19365Y3569D01*
X19375Y3593D01*
X19378Y3619D01*
X19375Y3646D01*
X19365Y3670D01*
X19349Y3691D01*
X19328Y3707D01*
X19303Y3717D01*
X19277Y3721D01*
D02*
G37*
G36*
X23143Y2518D02*
X22692D01*
Y1741D01*
X23143D01*
Y2518D01*
D02*
G37*
G36*
X9080Y2010D02*
X8868D01*
Y1634D01*
X9080D01*
Y2010D01*
D02*
G37*
G36*
X9318D02*
X9106D01*
Y1634D01*
X9318D01*
Y2010D01*
D02*
G37*
G36*
X32220Y747D02*
X32176Y743D01*
X32133Y730D01*
X32094Y709D01*
X32060Y681D01*
X32032Y647D01*
X32011Y607D01*
X31998Y565D01*
X31993Y521D01*
X31998Y477D01*
X32011Y434D01*
X32032Y395D01*
X32060Y361D01*
X32094Y332D01*
X32133Y311D01*
X32176Y299D01*
X32220Y294D01*
X32264Y299D01*
X32307Y311D01*
X32346Y332D01*
X32380Y361D01*
X32408Y395D01*
X32429Y434D01*
X32442Y477D01*
X32446Y521D01*
X32442Y565D01*
X32429Y607D01*
X32408Y647D01*
X32380Y681D01*
X32346Y709D01*
X32307Y730D01*
X32264Y743D01*
X32220Y747D01*
D02*
G37*
G36*
X4077Y633D02*
X4033Y629D01*
X3990Y616D01*
X3951Y595D01*
X3917Y567D01*
X3888Y532D01*
X3867Y493D01*
X3855Y451D01*
X3850Y406D01*
X3855Y362D01*
X3867Y320D01*
X3888Y281D01*
X3917Y246D01*
X3951Y218D01*
X3990Y197D01*
X4033Y184D01*
X4077Y180D01*
X4121Y184D01*
X4163Y197D01*
X4203Y218D01*
X4237Y246D01*
X4265Y281D01*
X4286Y320D01*
X4299Y362D01*
X4303Y406D01*
X4299Y451D01*
X4286Y493D01*
X4265Y532D01*
X4237Y567D01*
X4203Y595D01*
X4163Y616D01*
X4121Y629D01*
X4077Y633D01*
D02*
G37*
G36*
X18059Y709D02*
X18015Y705D01*
X17973Y692D01*
X17934Y671D01*
X17899Y643D01*
X17871Y608D01*
X17850Y569D01*
X17837Y527D01*
X17833Y483D01*
X17837Y438D01*
X17850Y396D01*
X17871Y357D01*
X17899Y322D01*
X17934Y294D01*
X17973Y273D01*
X18015Y260D01*
X18059Y256D01*
X18104Y260D01*
X18146Y273D01*
X18185Y294D01*
X18220Y322D01*
X18248Y357D01*
X18269Y396D01*
X18282Y438D01*
X18286Y483D01*
X18282Y527D01*
X18269Y569D01*
X18248Y608D01*
X18220Y643D01*
X18185Y671D01*
X18146Y692D01*
X18104Y705D01*
X18059Y709D01*
D02*
G37*
G36*
X18288Y2036D02*
X18075D01*
Y1660D01*
X18288D01*
Y2036D01*
D02*
G37*
G36*
X27766Y2091D02*
X27553D01*
Y1716D01*
X27766D01*
Y2091D01*
D02*
G37*
G36*
X13940Y2493D02*
X13489D01*
Y1716D01*
X13940D01*
Y2493D01*
D02*
G37*
G36*
X27527Y2091D02*
X27315D01*
Y1716D01*
X27527D01*
Y2091D01*
D02*
G37*
G36*
X18526Y2036D02*
X18313D01*
Y1660D01*
X18526D01*
Y2036D01*
D02*
G37*
G36*
X4702Y2442D02*
X4252D01*
Y1665D01*
X4702D01*
Y2442D01*
D02*
G37*
G36*
X27527Y7129D02*
X27315D01*
Y6159D01*
X27527D01*
Y7129D01*
D02*
G37*
G36*
X27766D02*
X27553D01*
Y6159D01*
X27766D01*
Y7129D01*
D02*
G37*
G36*
X7319Y6657D02*
X7266D01*
Y6564D01*
X7319D01*
Y6657D01*
D02*
G37*
G36*
X9318Y7048D02*
X9106D01*
Y6078D01*
X9318D01*
Y7048D01*
D02*
G37*
G36*
X18288Y7074D02*
X18075D01*
Y6103D01*
X18288D01*
Y7074D01*
D02*
G37*
G36*
X18526D02*
X18313D01*
Y6103D01*
X18526D01*
Y7074D01*
D02*
G37*
G36*
X11608Y6693D02*
X11556D01*
Y6600D01*
X11608D01*
Y6693D01*
D02*
G37*
G36*
X8092Y7135D02*
X7831D01*
Y6784D01*
X8092D01*
Y7135D01*
D02*
G37*
G36*
X11496Y7171D02*
X11236D01*
Y6820D01*
X11496D01*
Y7171D01*
D02*
G37*
G36*
X12381D02*
X12121D01*
Y6820D01*
X12381D01*
Y7171D01*
D02*
G37*
G36*
X7319Y6775D02*
X7266D01*
Y6682D01*
X7319D01*
Y6775D01*
D02*
G37*
G36*
X11608Y6811D02*
X11556D01*
Y6718D01*
X11608D01*
Y6811D01*
D02*
G37*
G36*
X7207Y7135D02*
X6946D01*
Y6784D01*
X7207D01*
Y7135D01*
D02*
G37*
G36*
X18288Y6078D02*
X18075D01*
Y5107D01*
X18288D01*
Y6078D01*
D02*
G37*
G36*
X18526D02*
X18313D01*
Y5107D01*
X18526D01*
Y6078D01*
D02*
G37*
G36*
X9318Y6052D02*
X9106D01*
Y5081D01*
X9318D01*
Y6052D01*
D02*
G37*
G36*
X32432Y7125D02*
X31982D01*
Y5971D01*
X31469Y5458D01*
X31460Y5445D01*
X31457Y5430D01*
Y4827D01*
X12994D01*
X11910Y5911D01*
Y6600D01*
X12061D01*
Y6811D01*
X11634D01*
Y6706D01*
Y6600D01*
X11707D01*
Y5677D01*
X11710Y5662D01*
X11718Y5649D01*
X13115Y4252D01*
X13128Y4244D01*
X13143Y4241D01*
X28062D01*
X28067Y4229D01*
X28083Y4208D01*
X28104Y4192D01*
X28128Y4182D01*
X28154Y4179D01*
X28181Y4182D01*
X28205Y4192D01*
X28226Y4208D01*
X28242Y4229D01*
X28252Y4254D01*
X28256Y4280D01*
X28252Y4306D01*
X28242Y4331D01*
X28226Y4352D01*
X28205Y4368D01*
X28181Y4378D01*
X28154Y4381D01*
X28128Y4378D01*
X28104Y4368D01*
X28083Y4352D01*
X28067Y4331D01*
X28062Y4319D01*
X22954D01*
X22953Y4331D01*
X22972Y4337D01*
X23011Y4358D01*
X23046Y4386D01*
X23074Y4421D01*
X23095Y4460D01*
X23108Y4502D01*
X23112Y4547D01*
X23108Y4591D01*
X23095Y4633D01*
X23074Y4672D01*
X23046Y4707D01*
X23011Y4735D01*
X23008Y4737D01*
X23011Y4749D01*
X31457D01*
Y2810D01*
X31460Y2795D01*
X31469Y2783D01*
X31982Y2270D01*
Y1711D01*
X32432D01*
Y2488D01*
X31982D01*
Y2396D01*
X31970Y2391D01*
X31535Y2826D01*
Y4788D01*
Y5414D01*
X31970Y5849D01*
X31982Y5844D01*
Y5158D01*
X32432D01*
Y7125D01*
D02*
G37*
G36*
X9080Y6052D02*
X8868D01*
Y5081D01*
X9080D01*
Y6052D01*
D02*
G37*
G36*
X4702Y7079D02*
X4252D01*
Y5112D01*
X4702D01*
Y7079D01*
D02*
G37*
G36*
X23143Y7155D02*
X22692D01*
Y5188D01*
X23143D01*
Y7155D01*
D02*
G37*
G36*
X9080Y7048D02*
X8868D01*
Y6078D01*
X9080D01*
Y7048D01*
D02*
G37*
G36*
X13940Y7130D02*
X13489D01*
Y5163D01*
X13940D01*
Y7130D01*
D02*
G37*
G36*
X27527Y6133D02*
X27315D01*
Y5163D01*
X27527D01*
Y6133D01*
D02*
G37*
G36*
X27766D02*
X27553D01*
Y5163D01*
X27766D01*
Y6133D01*
D02*
G37*
%LPD*%
G36*
X22763Y4737D02*
X22760Y4735D01*
X22725Y4707D01*
X22697Y4672D01*
X22676Y4633D01*
X22663Y4591D01*
X22659Y4547D01*
X22663Y4502D01*
X22676Y4460D01*
X22697Y4421D01*
X22725Y4386D01*
X22760Y4358D01*
X22799Y4337D01*
X22818Y4331D01*
X22816Y4319D01*
X13791D01*
X13788Y4331D01*
X13791Y4333D01*
X13825Y4361D01*
X13854Y4395D01*
X13874Y4435D01*
X13887Y4477D01*
X13892Y4521D01*
X13887Y4565D01*
X13874Y4608D01*
X13854Y4647D01*
X13825Y4681D01*
X13791Y4710D01*
X13752Y4730D01*
X13732Y4736D01*
X13734Y4749D01*
X22760D01*
X22763Y4737D01*
D02*
G37*
G36*
X11832Y5895D02*
X11835Y5880D01*
X11843Y5867D01*
X12950Y4760D01*
X12963Y4752D01*
X12978Y4749D01*
X13596D01*
X13598Y4736D01*
X13579Y4730D01*
X13539Y4710D01*
X13505Y4681D01*
X13477Y4647D01*
X13456Y4608D01*
X13443Y4565D01*
X13439Y4521D01*
X13443Y4477D01*
X13456Y4435D01*
X13477Y4395D01*
X13505Y4361D01*
X13539Y4333D01*
X13543Y4331D01*
X13540Y4319D01*
X13159D01*
X11785Y5693D01*
Y6600D01*
X11832D01*
Y5895D01*
D02*
G37*
D11*
X8652Y3970D02*
X18896D01*
X7706Y4916D02*
X8652Y3970D01*
X7706Y4916D02*
Y6670D01*
X8601Y3297D02*
X9663D01*
X7581Y4317D02*
X8601Y3297D01*
X7581Y4317D02*
Y6670D01*
X19246Y3650D02*
X19277Y3619D01*
X18896Y3650D02*
X19246D01*
X7456Y6404D02*
Y6670D01*
X5632Y4580D02*
X7456Y6404D01*
X3897Y4580D02*
X5632D01*
X9681Y2959D02*
X9917D01*
X3656Y4267D02*
X3890D01*
X3897Y4260D01*
X13143Y4280D02*
X28154D01*
X11746Y5677D02*
X13143Y4280D01*
X11746Y5677D02*
Y6706D01*
X11871Y5895D02*
X12978Y4788D01*
X11871Y5895D02*
Y6706D01*
X31496Y5430D02*
X32207Y6141D01*
X31496Y2810D02*
X32207Y2099D01*
X31496Y2810D02*
Y4788D01*
Y5430D01*
X12978Y4788D02*
X31496D01*
D12*
X11551Y6809D02*
X12072D01*
X11551Y6604D02*
X12072D01*
X11551D02*
Y6809D01*
X12072Y6604D02*
Y6809D01*
X11501Y6820D02*
Y7177D01*
X11234Y6820D02*
Y7177D01*
Y6820D02*
X11501D01*
X11234Y7177D02*
X11501D01*
X12110D02*
X12377D01*
X12110Y6820D02*
X12377D01*
X12110D02*
Y7177D01*
X12377Y6820D02*
Y7177D01*
X7262Y6773D02*
X7782D01*
X7262Y6568D02*
X7782D01*
X7262D02*
Y6773D01*
X7782Y6568D02*
Y6773D01*
X7211Y6784D02*
Y7141D01*
X6944Y6784D02*
Y7141D01*
Y6784D02*
X7211D01*
X6944Y7141D02*
X7211D01*
X7821D02*
X8087D01*
X7821Y6784D02*
X8087D01*
X7821D02*
Y7141D01*
X8087Y6784D02*
Y7141D01*
X3987Y4280D02*
Y4560D01*
X3807Y4280D02*
Y4560D01*
Y4280D02*
X3987D01*
X3807Y4560D02*
X3987D01*
X9753Y2997D02*
Y3277D01*
X9573Y2997D02*
Y3277D01*
Y2997D02*
X9753D01*
X9573Y3277D02*
X9753D01*
X18986Y3670D02*
Y3950D01*
X18806Y3670D02*
Y3950D01*
Y3670D02*
X18986D01*
X18806Y3950D02*
X18986D01*
X11807Y6657D02*
Y6757D01*
X11757Y6707D02*
X11857D01*
X7517Y6621D02*
Y6721D01*
X7467Y6671D02*
X7567D01*
X3847Y4420D02*
X3947D01*
X3897Y4370D02*
Y4470D01*
X9613Y3137D02*
X9713D01*
X9663Y3087D02*
Y3187D01*
X18846Y3810D02*
X18946D01*
X18896Y3760D02*
Y3860D01*
D13*
X11208Y7341D02*
X12402D01*
X11208Y6566D02*
X12402D01*
X11208D02*
Y7341D01*
X12402Y6566D02*
Y7341D01*
X6919Y7305D02*
X8113D01*
X6919Y6530D02*
X8113D01*
X6919D02*
Y7305D01*
X8113Y6530D02*
Y7305D01*
X4002Y4187D02*
Y4652D01*
X3792Y4187D02*
Y4652D01*
Y4187D02*
X4002D01*
X3792Y4652D02*
X4002D01*
X9768Y2904D02*
Y3369D01*
X9558Y2904D02*
Y3369D01*
Y2904D02*
X9768D01*
X9558Y3369D02*
X9768D01*
X19001Y3578D02*
Y4042D01*
X18791Y3578D02*
Y4042D01*
Y3578D02*
X19001D01*
X18791Y4042D02*
X19001D01*
D14*
X4477Y6095D02*
D03*
X9093Y6065D02*
D03*
X32207Y6141D02*
D03*
X27540Y6146D02*
D03*
X22917Y6171D02*
D03*
X18301Y6090D02*
D03*
X13714Y6147D02*
D03*
D15*
X4477Y2053D02*
D03*
X9093Y2023D02*
D03*
X32207Y2099D02*
D03*
X27540Y2104D02*
D03*
X22917Y2129D02*
D03*
X18301Y2048D02*
D03*
X13714Y2105D02*
D03*
D16*
X28154Y4280D02*
D03*
X19277Y3619D02*
D03*
X3656Y4267D02*
D03*
X9917Y2959D02*
D03*
D17*
X32220Y521D02*
D03*
X4077Y406D02*
D03*
X4458Y4839D02*
D03*
X18059Y483D02*
D03*
X13665Y4521D02*
D03*
X22885Y4547D02*
D03*
X32233Y4890D02*
D03*
D18*
X11621Y6706D02*
D03*
X11746D02*
D03*
X11871D02*
D03*
X11996D02*
D03*
X7331Y6670D02*
D03*
X7456D02*
D03*
X7581D02*
D03*
X7706D02*
D03*
D19*
X11366Y6996D02*
D03*
X12251D02*
D03*
X7076Y6960D02*
D03*
X7961D02*
D03*
D20*
X3897Y4260D02*
D03*
Y4580D02*
D03*
X9663Y2977D02*
D03*
Y3297D02*
D03*
X18896Y3650D02*
D03*
Y3970D02*
D03*
M02*
