G04 Layer_Color=32896*
%FSLAX42Y42*%
%MOMM*%
G71*
G01*
G75*
%ADD11C,0.25*%
%ADD12C,0.10*%
%ADD13C,0.05*%
D11*
X19380Y4013D02*
Y3886D01*
X19355Y3861D01*
X19304D01*
X19279Y3886D01*
Y4013D01*
X19228Y3988D02*
X19202Y4013D01*
X19152D01*
X19126Y3988D01*
Y3962D01*
X19152Y3937D01*
X19177D01*
X19152D01*
X19126Y3912D01*
Y3886D01*
X19152Y3861D01*
X19202D01*
X19228Y3886D01*
X9746Y3600D02*
Y3473D01*
X9720Y3448D01*
X9669D01*
X9644Y3473D01*
Y3600D01*
X9492Y3448D02*
X9593D01*
X9492Y3550D01*
Y3575D01*
X9517Y3600D01*
X9568D01*
X9593Y3575D01*
X3980Y4883D02*
Y4756D01*
X3954Y4731D01*
X3904D01*
X3878Y4756D01*
Y4883D01*
X3827Y4731D02*
X3777D01*
X3802D01*
Y4883D01*
X3827Y4858D01*
X7987Y7366D02*
X8088D01*
Y7290D01*
X8038Y7315D01*
X8012D01*
X7987Y7290D01*
Y7239D01*
X8012Y7214D01*
X8063D01*
X8088Y7239D01*
X7936Y7341D02*
X7911Y7366D01*
X7860D01*
X7834Y7341D01*
Y7315D01*
X7860Y7290D01*
X7885D01*
X7860D01*
X7834Y7264D01*
Y7239D01*
X7860Y7214D01*
X7911D01*
X7936Y7239D01*
X7682Y7214D02*
X7784D01*
X7682Y7315D01*
Y7341D01*
X7707Y7366D01*
X7758D01*
X7784Y7341D01*
X7530Y7366D02*
X7580Y7341D01*
X7631Y7290D01*
Y7239D01*
X7606Y7214D01*
X7555D01*
X7530Y7239D01*
Y7264D01*
X7555Y7290D01*
X7631D01*
X7479Y7214D02*
X7428D01*
X7454D01*
Y7366D01*
X7479Y7341D01*
X7352D02*
X7327Y7366D01*
X7276D01*
X7250Y7341D01*
Y7239D01*
X7276Y7214D01*
X7327D01*
X7352Y7239D01*
Y7341D01*
X7123Y7214D02*
Y7366D01*
X7200Y7290D01*
X7098D01*
X7047Y7366D02*
X6946D01*
Y7341D01*
X7047Y7239D01*
Y7214D01*
X6895D02*
X6844D01*
X6869D01*
Y7366D01*
X6895Y7341D01*
X6768Y7290D02*
X6666D01*
X6514Y7214D02*
X6616D01*
X6514Y7315D01*
Y7341D01*
X6539Y7366D01*
X6590D01*
X6616Y7341D01*
X12292Y7404D02*
X12394D01*
Y7328D01*
X12343Y7353D01*
X12317D01*
X12292Y7328D01*
Y7277D01*
X12317Y7252D01*
X12368D01*
X12394Y7277D01*
X12241Y7379D02*
X12216Y7404D01*
X12165D01*
X12140Y7379D01*
Y7353D01*
X12165Y7328D01*
X12190D01*
X12165D01*
X12140Y7302D01*
Y7277D01*
X12165Y7252D01*
X12216D01*
X12241Y7277D01*
X11987Y7252D02*
X12089D01*
X11987Y7353D01*
Y7379D01*
X12013Y7404D01*
X12064D01*
X12089Y7379D01*
X11835Y7404D02*
X11886Y7379D01*
X11937Y7328D01*
Y7277D01*
X11911Y7252D01*
X11860D01*
X11835Y7277D01*
Y7302D01*
X11860Y7328D01*
X11937D01*
X11784Y7252D02*
X11733D01*
X11759D01*
Y7404D01*
X11784Y7379D01*
X11657D02*
X11632Y7404D01*
X11581D01*
X11556Y7379D01*
Y7277D01*
X11581Y7252D01*
X11632D01*
X11657Y7277D01*
Y7379D01*
X11429Y7252D02*
Y7404D01*
X11505Y7328D01*
X11403D01*
X11353Y7404D02*
X11251D01*
Y7379D01*
X11353Y7277D01*
Y7252D01*
X11200D02*
X11149D01*
X11175D01*
Y7404D01*
X11200Y7379D01*
X11073Y7328D02*
X10972D01*
X10921Y7252D02*
X10870D01*
X10895D01*
Y7404D01*
X10921Y7379D01*
D12*
X11789Y6853D02*
G03*
X11789Y6853I-5J0D01*
G01*
X7500Y6817D02*
G03*
X7500Y6817I-5J0D01*
G01*
X3812Y4615D02*
G03*
X3812Y4615I-5J0D01*
G01*
X9578Y3332D02*
G03*
X9578Y3332I-5J0D01*
G01*
X18811Y4005D02*
G03*
X18811Y4005I-5J0D01*
G01*
X11551Y6809D02*
X12072D01*
X11551Y6604D02*
X12072D01*
X11551D02*
Y6809D01*
X12072Y6604D02*
Y6809D01*
X11501Y6820D02*
Y7177D01*
X11234Y6820D02*
Y7177D01*
Y6820D02*
X11501D01*
X11234Y7177D02*
X11501D01*
X12110D02*
X12377D01*
X12110Y6820D02*
X12377D01*
X12110D02*
Y7177D01*
X12377Y6820D02*
Y7177D01*
X7262Y6773D02*
X7782D01*
X7262Y6568D02*
X7782D01*
X7262D02*
Y6773D01*
X7782Y6568D02*
Y6773D01*
X7211Y6784D02*
Y7141D01*
X6944Y6784D02*
Y7141D01*
Y6784D02*
X7211D01*
X6944Y7141D02*
X7211D01*
X7821D02*
X8087D01*
X7821Y6784D02*
X8087D01*
X7821D02*
Y7141D01*
X8087Y6784D02*
Y7141D01*
X3987Y4280D02*
Y4560D01*
X3807Y4280D02*
Y4560D01*
Y4280D02*
X3987D01*
X3807Y4560D02*
X3987D01*
X9753Y2997D02*
Y3277D01*
X9573Y2997D02*
Y3277D01*
Y2997D02*
X9753D01*
X9573Y3277D02*
X9753D01*
X18986Y3670D02*
Y3950D01*
X18806Y3670D02*
Y3950D01*
Y3670D02*
X18986D01*
X18806Y3950D02*
X18986D01*
X11807Y6657D02*
Y6757D01*
X11757Y6707D02*
X11857D01*
X7517Y6621D02*
Y6721D01*
X7467Y6671D02*
X7567D01*
X3847Y4420D02*
X3947D01*
X3897Y4370D02*
Y4470D01*
X9613Y3137D02*
X9713D01*
X9663Y3087D02*
Y3187D01*
X18846Y3810D02*
X18946D01*
X18896Y3760D02*
Y3860D01*
D13*
X11208Y7341D02*
X12402D01*
X11208Y6566D02*
X12402D01*
X11208D02*
Y7341D01*
X12402Y6566D02*
Y7341D01*
X6919Y7305D02*
X8113D01*
X6919Y6530D02*
X8113D01*
X6919D02*
Y7305D01*
X8113Y6530D02*
Y7305D01*
X4002Y4187D02*
Y4652D01*
X3792Y4187D02*
Y4652D01*
Y4187D02*
X4002D01*
X3792Y4652D02*
X4002D01*
X9768Y2904D02*
Y3369D01*
X9558Y2904D02*
Y3369D01*
Y2904D02*
X9768D01*
X9558Y3369D02*
X9768D01*
X19001Y3578D02*
Y4042D01*
X18791Y3578D02*
Y4042D01*
Y3578D02*
X19001D01*
X18791Y4042D02*
X19001D01*
M02*
