G04 Layer_Color=32896*
%FSLAX42Y42*%
%MOMM*%
G71*
G01*
G75*
%ADD11C,0.25*%
%ADD27C,0.10*%
D11*
X19380Y4013D02*
Y3886D01*
X19355Y3861D01*
X19304D01*
X19279Y3886D01*
Y4013D01*
X19228Y3988D02*
X19202Y4013D01*
X19152D01*
X19126Y3988D01*
Y3962D01*
X19152Y3937D01*
X19177D01*
X19152D01*
X19126Y3912D01*
Y3886D01*
X19152Y3861D01*
X19202D01*
X19228Y3886D01*
X9746Y3600D02*
Y3473D01*
X9720Y3448D01*
X9669D01*
X9644Y3473D01*
Y3600D01*
X9492Y3448D02*
X9593D01*
X9492Y3550D01*
Y3575D01*
X9517Y3600D01*
X9568D01*
X9593Y3575D01*
X3980Y4883D02*
Y4756D01*
X3954Y4731D01*
X3904D01*
X3878Y4756D01*
Y4883D01*
X3827Y4731D02*
X3777D01*
X3802D01*
Y4883D01*
X3827Y4858D01*
X7987Y7366D02*
X8088D01*
Y7290D01*
X8038Y7315D01*
X8012D01*
X7987Y7290D01*
Y7239D01*
X8012Y7214D01*
X8063D01*
X8088Y7239D01*
X7936Y7341D02*
X7911Y7366D01*
X7860D01*
X7834Y7341D01*
Y7315D01*
X7860Y7290D01*
X7885D01*
X7860D01*
X7834Y7264D01*
Y7239D01*
X7860Y7214D01*
X7911D01*
X7936Y7239D01*
X7682Y7214D02*
X7784D01*
X7682Y7315D01*
Y7341D01*
X7707Y7366D01*
X7758D01*
X7784Y7341D01*
X7530Y7366D02*
X7580Y7341D01*
X7631Y7290D01*
Y7239D01*
X7606Y7214D01*
X7555D01*
X7530Y7239D01*
Y7264D01*
X7555Y7290D01*
X7631D01*
X7479Y7214D02*
X7428D01*
X7454D01*
Y7366D01*
X7479Y7341D01*
X7352D02*
X7327Y7366D01*
X7276D01*
X7250Y7341D01*
Y7239D01*
X7276Y7214D01*
X7327D01*
X7352Y7239D01*
Y7341D01*
X7123Y7214D02*
Y7366D01*
X7200Y7290D01*
X7098D01*
X7047Y7366D02*
X6946D01*
Y7341D01*
X7047Y7239D01*
Y7214D01*
X6895D02*
X6844D01*
X6869D01*
Y7366D01*
X6895Y7341D01*
X6768Y7290D02*
X6666D01*
X6514Y7214D02*
X6616D01*
X6514Y7315D01*
Y7341D01*
X6539Y7366D01*
X6590D01*
X6616Y7341D01*
X12292Y7404D02*
X12394D01*
Y7328D01*
X12343Y7353D01*
X12317D01*
X12292Y7328D01*
Y7277D01*
X12317Y7252D01*
X12368D01*
X12394Y7277D01*
X12241Y7379D02*
X12216Y7404D01*
X12165D01*
X12140Y7379D01*
Y7353D01*
X12165Y7328D01*
X12190D01*
X12165D01*
X12140Y7302D01*
Y7277D01*
X12165Y7252D01*
X12216D01*
X12241Y7277D01*
X11987Y7252D02*
X12089D01*
X11987Y7353D01*
Y7379D01*
X12013Y7404D01*
X12064D01*
X12089Y7379D01*
X11835Y7404D02*
X11886Y7379D01*
X11937Y7328D01*
Y7277D01*
X11911Y7252D01*
X11860D01*
X11835Y7277D01*
Y7302D01*
X11860Y7328D01*
X11937D01*
X11784Y7252D02*
X11733D01*
X11759D01*
Y7404D01*
X11784Y7379D01*
X11657D02*
X11632Y7404D01*
X11581D01*
X11556Y7379D01*
Y7277D01*
X11581Y7252D01*
X11632D01*
X11657Y7277D01*
Y7379D01*
X11429Y7252D02*
Y7404D01*
X11505Y7328D01*
X11403D01*
X11353Y7404D02*
X11251D01*
Y7379D01*
X11353Y7277D01*
Y7252D01*
X11200D02*
X11149D01*
X11175D01*
Y7404D01*
X11200Y7379D01*
X11073Y7328D02*
X10972D01*
X10921Y7252D02*
X10870D01*
X10895D01*
Y7404D01*
X10921Y7379D01*
D27*
X11789Y6853D02*
G03*
X11789Y6853I-5J0D01*
G01*
X7500Y6817D02*
G03*
X7500Y6817I-5J0D01*
G01*
X3812Y4615D02*
G03*
X3812Y4615I-5J0D01*
G01*
X9578Y3332D02*
G03*
X9578Y3332I-5J0D01*
G01*
X18811Y4005D02*
G03*
X18811Y4005I-5J0D01*
G01*
M02*
