G04 Layer_Color=65535*
%FSLAX42Y42*%
%MOMM*%
G71*
G01*
G75*
%ADD13C,0.25*%
D13*
X9357Y7836D02*
Y7683D01*
X9434D01*
X9459Y7709D01*
Y7810D01*
X9434Y7836D01*
X9357D01*
X9586Y7683D02*
Y7836D01*
X9510Y7760D01*
X9611D01*
X109Y7836D02*
Y7683D01*
X185D01*
X211Y7709D01*
Y7810D01*
X185Y7836D01*
X109D01*
X363D02*
X312Y7810D01*
X262Y7760D01*
Y7709D01*
X287Y7683D01*
X338D01*
X363Y7709D01*
Y7734D01*
X338Y7760D01*
X262D01*
X3454Y7849D02*
Y7696D01*
X3531D01*
X3556Y7722D01*
Y7823D01*
X3531Y7849D01*
X3454D01*
X3708D02*
X3607D01*
Y7772D01*
X3658Y7798D01*
X3683D01*
X3708Y7772D01*
Y7722D01*
X3683Y7696D01*
X3632D01*
X3607Y7722D01*
X13957Y7836D02*
Y7683D01*
X14033D01*
X14059Y7709D01*
Y7810D01*
X14033Y7836D01*
X13957D01*
X14110Y7810D02*
X14135Y7836D01*
X14186D01*
X14211Y7810D01*
Y7785D01*
X14186Y7760D01*
X14160D01*
X14186D01*
X14211Y7734D01*
Y7709D01*
X14186Y7683D01*
X14135D01*
X14110Y7709D01*
X18557Y7836D02*
Y7683D01*
X18633D01*
X18659Y7709D01*
Y7810D01*
X18633Y7836D01*
X18557D01*
X18811Y7683D02*
X18710D01*
X18811Y7785D01*
Y7810D01*
X18786Y7836D01*
X18735D01*
X18710Y7810D01*
X23157Y7836D02*
Y7683D01*
X23233D01*
X23259Y7709D01*
Y7810D01*
X23233Y7836D01*
X23157D01*
X23310Y7683D02*
X23360D01*
X23335D01*
Y7836D01*
X23310Y7810D01*
M02*
