G04 Layer_Physical_Order=2*
G04 Layer_Color=16711680*
%FSLAX42Y42*%
%MOMM*%
G71*
G01*
G75*
%ADD10R,4.00X19.16*%
%ADD11R,4.00X7.26*%
%ADD13C,0.25*%
%ADD14C,1.27*%
%ADD15C,4.00*%
%ADD16C,1.50*%
%ADD17R,0.90X1.20*%
%ADD18R,1.60X0.80*%
%ADD19R,3.00X2.10*%
%ADD20R,2.10X3.00*%
%ADD21R,0.80X1.60*%
%ADD22R,1.20X0.90*%
G36*
X6671Y7353D02*
X5685Y6366D01*
X5673Y6371D01*
Y6406D01*
X6632Y7364D01*
X6666D01*
X6671Y7353D01*
D02*
G37*
G36*
X27661Y7950D02*
Y279D01*
X27483Y102D01*
X279D01*
X245Y136D01*
X252Y147D01*
X263Y141D01*
X306Y128D01*
X350Y124D01*
X394Y128D01*
X437Y141D01*
X476Y162D01*
X510Y190D01*
X538Y224D01*
X559Y263D01*
X572Y306D01*
X576Y350D01*
X572Y394D01*
X559Y437D01*
X538Y476D01*
X510Y510D01*
X476Y538D01*
X437Y559D01*
X394Y572D01*
X350Y576D01*
X306Y572D01*
X263Y559D01*
X224Y538D01*
X190Y510D01*
X162Y476D01*
X141Y437D01*
X128Y394D01*
X124Y350D01*
X128Y306D01*
X141Y263D01*
X147Y252D01*
X136Y245D01*
X63Y317D01*
X65Y853D01*
X68Y853D01*
Y853D01*
X280D01*
Y1836D01*
Y2819D01*
X81D01*
X72Y2828D01*
X81Y5490D01*
X280D01*
Y5878D01*
Y6266D01*
X92D01*
X84Y6275D01*
X89Y7874D01*
X368Y8153D01*
X1351D01*
X1356Y8142D01*
X709Y7495D01*
X701Y7482D01*
X698Y7468D01*
Y6033D01*
X701Y6018D01*
X709Y6005D01*
X1026Y5689D01*
X1038Y5680D01*
X1053Y5677D01*
X1264D01*
Y5604D01*
X1370D01*
X1475D01*
Y5651D01*
Y5776D01*
Y5906D01*
X1264D01*
Y5755D01*
X1069D01*
X775Y6049D01*
Y7452D01*
X1416Y8092D01*
X2231D01*
X2236Y8080D01*
X1661Y7506D01*
X1546D01*
Y7375D01*
Y7250D01*
Y7203D01*
X1651D01*
X1756D01*
Y7250D01*
Y7375D01*
Y7491D01*
X2291Y8026D01*
X6410D01*
X6568Y7868D01*
Y7575D01*
X6495D01*
Y7470D01*
Y7364D01*
X6505D01*
X6510Y7353D01*
X5603Y6446D01*
X5503D01*
Y6305D01*
X5607D01*
X5612Y6293D01*
X2723Y3404D01*
X1464D01*
Y3530D01*
X2667D01*
X2682Y3533D01*
X2694Y3541D01*
X5217Y6064D01*
X5225Y6076D01*
X5228Y6091D01*
Y7390D01*
X5255D01*
Y7600D01*
X5154D01*
X5146Y7613D01*
X5151Y7627D01*
X5154Y7650D01*
X5151Y7674D01*
X5142Y7695D01*
X5128Y7714D01*
X5110Y7728D01*
X5088Y7737D01*
X5065Y7740D01*
X5042Y7737D01*
X5020Y7728D01*
X5001Y7714D01*
X4991Y7700D01*
X4978Y7704D01*
Y7743D01*
X4985Y7746D01*
X5004Y7760D01*
X5018Y7778D01*
X5027Y7800D01*
X5030Y7823D01*
X5027Y7846D01*
X5018Y7868D01*
X5004Y7887D01*
X4985Y7901D01*
X4964Y7910D01*
X4940Y7913D01*
X4917Y7910D01*
X4895Y7901D01*
X4877Y7887D01*
X4863Y7868D01*
X4854Y7846D01*
X4851Y7823D01*
X4854Y7800D01*
X4863Y7778D01*
X4877Y7760D01*
X4895Y7746D01*
X4900Y7743D01*
Y7600D01*
X4827D01*
Y7495D01*
Y7390D01*
X4900D01*
Y7303D01*
X3999Y6402D01*
X3230D01*
Y6553D01*
X3019D01*
Y6422D01*
Y6297D01*
Y6250D01*
X3124D01*
X3230D01*
Y6324D01*
X4015D01*
X4030Y6327D01*
X4042Y6335D01*
X4967Y7260D01*
X4975Y7272D01*
X4978Y7287D01*
Y7390D01*
X5025D01*
Y6287D01*
X3436Y4698D01*
X1464D01*
Y4724D01*
X1253D01*
Y4594D01*
Y4469D01*
Y4422D01*
X1359D01*
X1464D01*
Y4469D01*
Y4620D01*
X3452D01*
X3467Y4623D01*
X3480Y4631D01*
X5092Y6243D01*
X5100Y6256D01*
X5103Y6271D01*
Y7390D01*
X5150D01*
Y6107D01*
X2651Y3608D01*
X1254D01*
X1244Y3615D01*
X1244Y3620D01*
Y3876D01*
X893D01*
Y3615D01*
X1197D01*
X1201Y3602D01*
X1192Y3596D01*
X684Y3088D01*
X675Y3076D01*
X672Y3061D01*
Y2527D01*
X675Y2512D01*
X684Y2500D01*
X889Y2295D01*
X902Y2286D01*
X916Y2283D01*
X1241D01*
Y2132D01*
Y2085D01*
X1346D01*
X1452D01*
Y2158D01*
X1508D01*
X2064Y1602D01*
Y974D01*
X2033D01*
Y871D01*
X2021Y866D01*
X1844Y1043D01*
X1831Y1052D01*
X1816Y1055D01*
X1452D01*
Y1206D01*
X1241D01*
Y1076D01*
Y951D01*
Y826D01*
Y779D01*
X1346D01*
X1452D01*
Y850D01*
X1713D01*
Y804D01*
X1853D01*
Y907D01*
X1865Y912D01*
X2584Y194D01*
X2596Y185D01*
X2611Y182D01*
X9797D01*
X9812Y185D01*
X9824Y194D01*
X10441Y811D01*
X10450Y823D01*
X10453Y838D01*
Y7413D01*
X10526D01*
Y7518D01*
Y7624D01*
X10302D01*
Y7518D01*
Y7413D01*
X10375D01*
Y854D01*
X9781Y260D01*
X8932D01*
X8927Y272D01*
X9118Y462D01*
X9126Y475D01*
X9129Y490D01*
Y7428D01*
X9281D01*
Y7639D01*
X8853D01*
Y7533D01*
Y7428D01*
X8922D01*
Y1355D01*
X8891D01*
Y1185D01*
X9031D01*
Y1355D01*
X9000D01*
Y7428D01*
X9051D01*
Y506D01*
X8861Y316D01*
X6597D01*
X6403Y510D01*
Y845D01*
X6476D01*
Y950D01*
Y1056D01*
X6251D01*
Y950D01*
Y845D01*
X6325D01*
Y494D01*
X6328Y479D01*
X6336Y467D01*
X6532Y272D01*
X6527Y260D01*
X2627D01*
X2095Y792D01*
X2100Y804D01*
X2174D01*
Y974D01*
X2142D01*
Y1618D01*
X2139Y1633D01*
X2131Y1645D01*
X1630Y2147D01*
X1634Y2158D01*
X6273D01*
X7458Y974D01*
Y858D01*
X7610D01*
Y624D01*
X7604Y621D01*
X7585Y607D01*
X7571Y588D01*
X7562Y567D01*
X7559Y544D01*
X7562Y520D01*
X7571Y499D01*
X7585Y480D01*
X7604Y466D01*
X7625Y457D01*
X7648Y454D01*
X7672Y457D01*
X7693Y466D01*
X7712Y480D01*
X7726Y499D01*
X7735Y520D01*
X7738Y544D01*
X7735Y567D01*
X7726Y588D01*
X7712Y607D01*
X7693Y621D01*
X7687Y624D01*
Y858D01*
X7886D01*
Y963D01*
X7898D01*
Y976D01*
X7964D01*
Y1042D01*
X8148D01*
X8556Y635D01*
X8551Y623D01*
X8547Y597D01*
X8551Y571D01*
X8561Y546D01*
X8577Y525D01*
X8598Y509D01*
X8622Y499D01*
X8649Y496D01*
X8675Y499D01*
X8699Y509D01*
X8720Y525D01*
X8736Y546D01*
X8747Y571D01*
X8750Y597D01*
X8747Y623D01*
X8736Y648D01*
X8720Y669D01*
X8699Y685D01*
X8675Y695D01*
X8649Y698D01*
X8622Y695D01*
X8611Y690D01*
X8192Y1109D01*
X8179Y1117D01*
X8164Y1120D01*
X7820D01*
X7805Y1117D01*
X7793Y1109D01*
X7753Y1069D01*
X7687D01*
Y1105D01*
X7814Y1231D01*
X8571D01*
Y1185D01*
X8711D01*
Y1355D01*
X8571D01*
Y1309D01*
X7798D01*
X7783Y1306D01*
X7770Y1297D01*
X7621Y1148D01*
X7613Y1135D01*
X7610Y1121D01*
Y1069D01*
X7473D01*
X6317Y2225D01*
X6304Y2233D01*
X6289Y2236D01*
X1452D01*
Y2388D01*
X1241D01*
Y2361D01*
X932D01*
X750Y2543D01*
Y3045D01*
X1235Y3530D01*
X1253D01*
Y3425D01*
Y3300D01*
Y3253D01*
X1359D01*
X1464D01*
Y3327D01*
X2739D01*
X2754Y3330D01*
X2767Y3338D01*
X5491Y6062D01*
X5503Y6057D01*
Y5985D01*
X5673D01*
Y6017D01*
X5941D01*
X5942Y6013D01*
X5956Y5994D01*
X5975Y5980D01*
X5997Y5971D01*
X6020Y5968D01*
X6043Y5971D01*
X6065Y5980D01*
X6083Y5994D01*
X6097Y6013D01*
X6106Y6035D01*
X6109Y6058D01*
X6106Y6081D01*
X6097Y6103D01*
X6083Y6121D01*
X6065Y6136D01*
X6043Y6145D01*
X6020Y6148D01*
X5997Y6145D01*
X5975Y6136D01*
X5956Y6121D01*
X5942Y6103D01*
X5939Y6094D01*
X5673D01*
Y6126D01*
X5571D01*
X5566Y6138D01*
X6741Y7313D01*
X6791D01*
X6806Y7316D01*
X6818Y7324D01*
X6858Y7364D01*
X6922D01*
Y7487D01*
X7582D01*
X7597Y7490D01*
X7609Y7499D01*
X8142Y8031D01*
X11942D01*
X13361Y6612D01*
X13373Y6604D01*
X13388Y6601D01*
X24234D01*
X24249Y6604D01*
X24262Y6612D01*
X25042Y7392D01*
X25143D01*
Y7533D01*
X24972D01*
Y7432D01*
X24218Y6678D01*
X14944D01*
Y6796D01*
X14774D01*
Y6765D01*
X13610D01*
X12233Y8142D01*
X12238Y8153D01*
X27457D01*
X27661Y7950D01*
D02*
G37*
G36*
X8081Y8080D02*
X7566Y7565D01*
X6922D01*
Y7575D01*
X6771D01*
Y7962D01*
X6900Y8092D01*
X8076D01*
X8081Y8080D01*
D02*
G37*
G36*
X6779D02*
X6727Y8028D01*
X6717Y8026D01*
X6705Y8018D01*
X6696Y8005D01*
X6693Y7990D01*
Y7978D01*
Y7575D01*
X6646D01*
Y7884D01*
X6643Y7899D01*
X6634Y7911D01*
X6466Y8080D01*
X6471Y8092D01*
X6774D01*
X6779Y8080D01*
D02*
G37*
G36*
X13567Y6698D02*
X13578Y6691D01*
X13578Y6685D01*
X13575Y6678D01*
X13404D01*
X12003Y8080D01*
X12008Y8092D01*
X12173D01*
X13567Y6698D01*
D02*
G37*
%LPC*%
G36*
X518Y2819D02*
X306D01*
Y1849D01*
X518D01*
Y2819D01*
D02*
G37*
G36*
X9768D02*
X9556D01*
Y1849D01*
X9768D01*
Y2819D01*
D02*
G37*
G36*
X1244Y2991D02*
X893D01*
Y2730D01*
X1244D01*
Y2991D01*
D02*
G37*
G36*
X1346Y3103D02*
X1253D01*
Y3050D01*
X1346D01*
Y3103D01*
D02*
G37*
G36*
X1452Y1934D02*
X1359D01*
Y1882D01*
X1452D01*
Y1934D01*
D02*
G37*
G36*
X1334D02*
X1241D01*
Y1882D01*
X1334D01*
Y1934D01*
D02*
G37*
G36*
X1232Y2708D02*
X881D01*
Y2447D01*
X1232D01*
Y2708D01*
D02*
G37*
G36*
X1452Y2059D02*
X1346D01*
X1241D01*
Y2007D01*
Y1960D01*
X1346D01*
X1452D01*
Y2007D01*
Y2059D01*
D02*
G37*
G36*
X1255Y5341D02*
X904D01*
Y5081D01*
X1255D01*
Y5341D01*
D02*
G37*
G36*
X1244Y5044D02*
X894D01*
Y4783D01*
X1244D01*
Y5044D01*
D02*
G37*
G36*
X1357Y5453D02*
X1264D01*
Y5401D01*
X1357D01*
Y5453D01*
D02*
G37*
G36*
X1475Y5578D02*
X1370D01*
X1264D01*
Y5526D01*
Y5479D01*
X1370D01*
X1475D01*
Y5526D01*
Y5578D01*
D02*
G37*
G36*
Y5453D02*
X1382D01*
Y5401D01*
X1475D01*
Y5453D01*
D02*
G37*
G36*
X1464Y4396D02*
X1359D01*
X1253D01*
Y4344D01*
Y4297D01*
X1359D01*
X1464D01*
Y4344D01*
Y4396D01*
D02*
G37*
G36*
Y3228D02*
X1359D01*
X1253D01*
Y3175D01*
Y3128D01*
X1359D01*
X1464D01*
Y3175D01*
Y3228D01*
D02*
G37*
G36*
Y3103D02*
X1372D01*
Y3050D01*
X1464D01*
Y3103D01*
D02*
G37*
G36*
X1244Y4159D02*
X894D01*
Y3899D01*
X1244D01*
Y4159D01*
D02*
G37*
G36*
X1464Y4271D02*
X1372D01*
Y4219D01*
X1464D01*
Y4271D01*
D02*
G37*
G36*
X1346D02*
X1253D01*
Y4219D01*
X1346D01*
Y4271D01*
D02*
G37*
G36*
X1452Y753D02*
X1359D01*
Y701D01*
X1452D01*
Y753D01*
D02*
G37*
G36*
X1334D02*
X1241D01*
Y701D01*
X1334D01*
Y753D01*
D02*
G37*
G36*
X6226Y1056D02*
X6048D01*
Y845D01*
X6226D01*
Y950D01*
Y1056D01*
D02*
G37*
G36*
X518Y1823D02*
X306D01*
Y853D01*
X518D01*
Y1823D01*
D02*
G37*
G36*
X6554Y938D02*
X6501D01*
Y845D01*
X6554D01*
Y938D01*
D02*
G37*
G36*
X8284Y848D02*
X8023D01*
Y498D01*
X8284D01*
Y848D01*
D02*
G37*
G36*
X1232Y641D02*
X881D01*
Y381D01*
X1232D01*
Y641D01*
D02*
G37*
G36*
X27350Y576D02*
X27306Y572D01*
X27263Y559D01*
X27224Y538D01*
X27190Y510D01*
X27162Y476D01*
X27141Y437D01*
X27128Y394D01*
X27124Y350D01*
X27128Y306D01*
X27141Y263D01*
X27162Y224D01*
X27190Y190D01*
X27224Y162D01*
X27263Y141D01*
X27306Y128D01*
X27350Y124D01*
X27394Y128D01*
X27437Y141D01*
X27476Y162D01*
X27510Y190D01*
X27538Y224D01*
X27559Y263D01*
X27572Y306D01*
X27576Y350D01*
X27572Y394D01*
X27559Y437D01*
X27538Y476D01*
X27510Y510D01*
X27476Y538D01*
X27437Y559D01*
X27394Y572D01*
X27350Y576D01*
D02*
G37*
G36*
X5989Y836D02*
X5728D01*
Y485D01*
X5989D01*
Y836D01*
D02*
G37*
G36*
X7399Y848D02*
X7138D01*
Y498D01*
X7399D01*
Y848D01*
D02*
G37*
G36*
X6874Y836D02*
X6613D01*
Y485D01*
X6874D01*
Y836D01*
D02*
G37*
G36*
X1232Y1823D02*
X881D01*
Y1562D01*
X1232D01*
Y1823D01*
D02*
G37*
G36*
X1232Y1526D02*
X881D01*
Y1266D01*
X1232D01*
Y1526D01*
D02*
G37*
G36*
X18730Y2819D02*
X18518D01*
Y1849D01*
X18730D01*
Y2819D01*
D02*
G37*
G36*
X9530D02*
X9318D01*
Y1849D01*
X9530D01*
Y2819D01*
D02*
G37*
G36*
X18968D02*
X18756D01*
Y1849D01*
X18968D01*
Y2819D01*
D02*
G37*
G36*
X6554Y1056D02*
X6501D01*
Y963D01*
X6554D01*
Y1056D01*
D02*
G37*
G36*
X9768Y1823D02*
X9556D01*
Y853D01*
X9768D01*
Y1823D01*
D02*
G37*
G36*
X9530D02*
X9318D01*
Y853D01*
X9530D01*
Y1823D01*
D02*
G37*
G36*
X18730Y1823D02*
X18518D01*
Y853D01*
X18730D01*
Y1823D01*
D02*
G37*
G36*
X7964Y950D02*
X7911D01*
Y858D01*
X7964D01*
Y950D01*
D02*
G37*
G36*
X18968Y1823D02*
X18756D01*
Y853D01*
X18968D01*
Y1823D01*
D02*
G37*
G36*
X518Y5865D02*
X306D01*
Y5490D01*
X518D01*
Y5865D01*
D02*
G37*
G36*
X4802Y7600D02*
X4749D01*
Y7508D01*
X4802D01*
Y7600D01*
D02*
G37*
G36*
X6469Y7575D02*
X6417D01*
Y7482D01*
X6469D01*
Y7575D01*
D02*
G37*
G36*
X600Y7976D02*
X556Y7972D01*
X513Y7959D01*
X474Y7938D01*
X440Y7910D01*
X412Y7876D01*
X391Y7837D01*
X378Y7794D01*
X374Y7750D01*
X378Y7706D01*
X391Y7663D01*
X412Y7624D01*
X440Y7590D01*
X474Y7562D01*
X513Y7541D01*
X556Y7528D01*
X600Y7524D01*
X644Y7528D01*
X687Y7541D01*
X726Y7562D01*
X760Y7590D01*
X788Y7624D01*
X809Y7663D01*
X822Y7706D01*
X826Y7750D01*
X822Y7794D01*
X809Y7837D01*
X788Y7876D01*
X760Y7910D01*
X726Y7938D01*
X687Y7959D01*
X644Y7972D01*
X600Y7976D01*
D02*
G37*
G36*
X8828Y7639D02*
X8775D01*
Y7546D01*
X8828D01*
Y7639D01*
D02*
G37*
G36*
X10276Y7624D02*
X10224D01*
Y7531D01*
X10276D01*
Y7624D01*
D02*
G37*
G36*
X4802Y7482D02*
X4749D01*
Y7390D01*
X4802D01*
Y7482D01*
D02*
G37*
G36*
X6469Y7457D02*
X6417D01*
Y7364D01*
X6469D01*
Y7457D01*
D02*
G37*
G36*
X10276Y7506D02*
X10224D01*
Y7413D01*
X10276D01*
Y7506D01*
D02*
G37*
G36*
X8828Y7520D02*
X8775D01*
Y7428D01*
X8828D01*
Y7520D01*
D02*
G37*
G36*
X10729Y7624D02*
X10552D01*
Y7518D01*
Y7413D01*
X10729D01*
Y7624D01*
D02*
G37*
G36*
X11049Y7984D02*
X10789D01*
Y7633D01*
X11049D01*
Y7984D01*
D02*
G37*
G36*
X10164D02*
X9904D01*
Y7633D01*
X10164D01*
Y7984D01*
D02*
G37*
G36*
X8716Y7999D02*
X8455D01*
Y7648D01*
X8716D01*
Y7999D01*
D02*
G37*
G36*
X27350Y8126D02*
X27306Y8122D01*
X27263Y8109D01*
X27224Y8088D01*
X27190Y8060D01*
X27162Y8026D01*
X27141Y7987D01*
X27128Y7944D01*
X27124Y7900D01*
X27128Y7856D01*
X27141Y7813D01*
X27162Y7774D01*
X27190Y7740D01*
X27224Y7712D01*
X27263Y7691D01*
X27306Y7678D01*
X27350Y7674D01*
X27394Y7678D01*
X27437Y7691D01*
X27476Y7712D01*
X27510Y7740D01*
X27538Y7774D01*
X27559Y7813D01*
X27572Y7856D01*
X27576Y7900D01*
X27572Y7944D01*
X27559Y7987D01*
X27538Y8026D01*
X27510Y8060D01*
X27476Y8088D01*
X27437Y8109D01*
X27394Y8122D01*
X27350Y8126D01*
D02*
G37*
G36*
X9601Y7999D02*
X9340D01*
Y7648D01*
X9601D01*
Y7999D01*
D02*
G37*
G36*
X6357Y7935D02*
X6097D01*
Y7584D01*
X6357D01*
Y7935D01*
D02*
G37*
G36*
X1536Y7826D02*
X1186D01*
Y7565D01*
X1536D01*
Y7826D01*
D02*
G37*
G36*
X5575Y7961D02*
X5314D01*
Y7610D01*
X5575D01*
Y7961D01*
D02*
G37*
G36*
X4690D02*
X4429D01*
Y7610D01*
X4690D01*
Y7961D01*
D02*
G37*
G36*
X1756Y7178D02*
X1651D01*
X1546D01*
Y7125D01*
Y7078D01*
X1651D01*
X1756D01*
Y7125D01*
Y7178D01*
D02*
G37*
G36*
X18730Y6266D02*
X18518D01*
Y5891D01*
X18730D01*
Y6266D01*
D02*
G37*
G36*
X14944Y6476D02*
X14774D01*
Y6335D01*
X14820D01*
Y5957D01*
X14814Y5955D01*
X14796Y5941D01*
X14781Y5922D01*
X14772Y5900D01*
X14769Y5877D01*
X14772Y5854D01*
X14781Y5832D01*
X14796Y5814D01*
X14814Y5800D01*
X14836Y5791D01*
X14859Y5788D01*
X14882Y5791D01*
X14904Y5800D01*
X14922Y5814D01*
X14937Y5832D01*
X14946Y5854D01*
X14949Y5877D01*
X14946Y5900D01*
X14937Y5922D01*
X14922Y5941D01*
X14904Y5955D01*
X14898Y5957D01*
Y6335D01*
X14944D01*
Y6476D01*
D02*
G37*
G36*
X18968Y6266D02*
X18756D01*
Y5891D01*
X18968D01*
Y6266D01*
D02*
G37*
G36*
X518D02*
X306D01*
Y5891D01*
X518D01*
Y6266D01*
D02*
G37*
G36*
X9530D02*
X9318D01*
Y5891D01*
X9530D01*
Y6266D01*
D02*
G37*
G36*
X9768Y5865D02*
X9556D01*
Y5490D01*
X9768D01*
Y5865D01*
D02*
G37*
G36*
X9530D02*
X9318D01*
Y5490D01*
X9530D01*
Y5865D01*
D02*
G37*
G36*
X18730Y5865D02*
X18518D01*
Y5490D01*
X18730D01*
Y5865D01*
D02*
G37*
G36*
X3010Y5988D02*
X2659D01*
Y5727D01*
X3010D01*
Y5988D01*
D02*
G37*
G36*
X18968Y5865D02*
X18756D01*
Y5490D01*
X18968D01*
Y5865D01*
D02*
G37*
G36*
X3010Y6873D02*
X2659D01*
Y6612D01*
X3010D01*
Y6873D01*
D02*
G37*
G36*
X25143Y7213D02*
X24972D01*
Y7072D01*
X25006D01*
Y6664D01*
X25000Y6661D01*
X24981Y6647D01*
X24967Y6629D01*
X24958Y6607D01*
X24955Y6584D01*
X24958Y6560D01*
X24967Y6539D01*
X24981Y6520D01*
X25000Y6506D01*
X25021Y6497D01*
X25044Y6494D01*
X25068Y6497D01*
X25089Y6506D01*
X25108Y6520D01*
X25122Y6539D01*
X25131Y6560D01*
X25134Y6584D01*
X25131Y6607D01*
X25122Y6629D01*
X25108Y6647D01*
X25089Y6661D01*
X25083Y6664D01*
Y7072D01*
X25143D01*
Y7213D01*
D02*
G37*
G36*
X1536Y6941D02*
X1186D01*
Y6680D01*
X1536D01*
Y6941D01*
D02*
G37*
G36*
X1756Y7052D02*
X1664D01*
Y7000D01*
X1756D01*
Y7052D01*
D02*
G37*
G36*
X1638D02*
X1546D01*
Y7000D01*
X1638D01*
Y7052D01*
D02*
G37*
G36*
X1255Y6226D02*
X904D01*
Y5966D01*
X1255D01*
Y6226D01*
D02*
G37*
G36*
X9768Y6266D02*
X9556D01*
Y5891D01*
X9768D01*
Y6266D01*
D02*
G37*
G36*
X3111Y6100D02*
X3019D01*
Y6047D01*
X3111D01*
Y6100D01*
D02*
G37*
G36*
X3230Y6225D02*
X3124D01*
X3019D01*
Y6172D01*
Y6125D01*
X3124D01*
X3230D01*
Y6172D01*
Y6225D01*
D02*
G37*
G36*
Y6100D02*
X3137D01*
Y6047D01*
X3230D01*
Y6100D01*
D02*
G37*
G36*
X7242Y7935D02*
X6982D01*
Y7584D01*
X7242D01*
Y7935D01*
D02*
G37*
%LPD*%
D10*
X9543Y1836D02*
D03*
X293D02*
D03*
X18743D02*
D03*
D11*
X9543Y5878D02*
D03*
X293D02*
D03*
X18743D02*
D03*
D13*
X6857Y7526D02*
X7582D01*
X1524Y2197D02*
X6289D01*
X1346D02*
X1524D01*
X2103Y1618D01*
Y889D02*
Y1618D01*
X293Y1077D02*
Y1836D01*
Y2283D01*
X1053Y5716D02*
X1370D01*
X737Y6033D02*
X1053Y5716D01*
X737Y6033D02*
Y7468D01*
X1400Y8131D01*
X6884D01*
X1370Y5716D02*
Y5841D01*
X1651Y7440D02*
X2275Y8064D01*
X6426D01*
X6607Y7884D01*
Y7470D02*
Y7884D01*
X6732Y7978D02*
Y7990D01*
X1651Y7315D02*
Y7440D01*
X3124Y6363D02*
Y6488D01*
Y6363D02*
X4015D01*
X4939Y7287D01*
X1359Y4534D02*
Y4659D01*
X3452D01*
X5064Y6271D01*
X916Y2322D02*
X1346D01*
X711Y2527D02*
X916Y2322D01*
X711Y2527D02*
Y3061D01*
X1219Y3569D01*
X2667D01*
X1359Y3365D02*
Y3491D01*
Y3365D02*
X2739D01*
X2667Y3569D02*
X5189Y6091D01*
X6289Y2197D02*
X7523Y963D01*
X1346Y2197D02*
Y2322D01*
Y891D02*
X1348Y889D01*
X1783D01*
X1346Y1016D02*
X1816D01*
X5189Y6091D02*
Y7495D01*
X5064Y6271D02*
Y7495D01*
X4939Y7287D02*
Y7495D01*
X7582Y7526D02*
X8125Y8070D01*
X11958D01*
X6725Y7352D02*
X6791D01*
X6857Y7418D01*
Y7470D01*
X2739Y3365D02*
X6725Y7352D01*
X5588Y6375D02*
X6607Y7394D01*
Y7470D01*
X10414Y838D02*
Y7518D01*
X6579Y277D02*
Y279D01*
X6364Y494D02*
X6579Y279D01*
X6364Y494D02*
Y950D01*
X9090Y490D02*
Y7533D01*
X6884Y8131D02*
X12189D01*
X11958Y8070D02*
X13388Y6640D01*
X6732Y7978D02*
X6884Y8131D01*
X12189D02*
X13594Y6726D01*
X8961Y7529D02*
X8965Y7533D01*
X8961Y1270D02*
Y7529D01*
X7798Y1270D02*
X8641D01*
X7648Y1121D02*
X7798Y1270D01*
X7648Y963D02*
Y1121D01*
X13388Y6640D02*
X24234D01*
X25057Y7462D01*
X4939Y7822D02*
X4940Y7823D01*
X4939Y7495D02*
Y7822D01*
X7648Y544D02*
Y963D01*
X6017Y6055D02*
X6020Y6058D01*
X5588Y6055D02*
X6017D01*
X25044Y6584D02*
Y7143D01*
X6732Y7470D02*
Y7978D01*
X13594Y6726D02*
X14859D01*
X6857Y7470D02*
Y7526D01*
X14859Y5877D02*
Y6406D01*
X6482Y7429D02*
Y7470D01*
X25044Y7143D02*
X25057D01*
X4814Y7495D02*
Y7496D01*
X5064Y7495D02*
Y7650D01*
X5065Y7650D01*
X9797Y221D02*
X10414Y838D01*
X1816Y1016D02*
X2611Y221D01*
X8877Y277D02*
X9090Y490D01*
X2611Y221D02*
X9797D01*
X6579Y277D02*
X8877D01*
X7820Y1081D02*
X8164D01*
X8649Y597D01*
X7773Y1034D02*
X7820Y1081D01*
X7773Y963D02*
Y1034D01*
D14*
X4940Y7823D02*
D03*
X7648Y544D02*
D03*
X6020Y6058D02*
D03*
X14859Y5877D02*
D03*
X25044Y6584D02*
D03*
X5065Y7650D02*
D03*
D15*
X27350Y350D02*
D03*
Y7900D02*
D03*
X350Y350D02*
D03*
X600Y7750D02*
D03*
D16*
X8649Y597D02*
D03*
D17*
X8641Y1270D02*
D03*
X8961D02*
D03*
X2103Y889D02*
D03*
X1783D02*
D03*
D18*
X3124Y6113D02*
D03*
Y6238D02*
D03*
Y6363D02*
D03*
Y6488D02*
D03*
X1370Y5466D02*
D03*
Y5591D02*
D03*
Y5716D02*
D03*
Y5841D02*
D03*
X1651Y7065D02*
D03*
Y7190D02*
D03*
Y7315D02*
D03*
Y7440D02*
D03*
X1346Y1947D02*
D03*
Y2072D02*
D03*
Y2197D02*
D03*
Y2322D02*
D03*
X1359Y3491D02*
D03*
Y3365D02*
D03*
Y3241D02*
D03*
Y3116D02*
D03*
Y4284D02*
D03*
Y4409D02*
D03*
Y4534D02*
D03*
Y4659D02*
D03*
X1346Y1141D02*
D03*
Y1016D02*
D03*
Y891D02*
D03*
Y766D02*
D03*
D19*
X2834Y5858D02*
D03*
Y6743D02*
D03*
X1080Y5211D02*
D03*
Y6096D02*
D03*
X1361Y6810D02*
D03*
Y7695D02*
D03*
X1056Y1692D02*
D03*
Y2577D02*
D03*
X1069Y3745D02*
D03*
Y2861D02*
D03*
X1069Y4029D02*
D03*
Y4914D02*
D03*
X1056Y1396D02*
D03*
Y511D02*
D03*
D20*
X5444Y7785D02*
D03*
X4559D02*
D03*
X7112Y7760D02*
D03*
X6227D02*
D03*
X9470Y7823D02*
D03*
X8585D02*
D03*
X10919Y7808D02*
D03*
X10034D02*
D03*
X5859Y660D02*
D03*
X6744D02*
D03*
X7268Y673D02*
D03*
X8153D02*
D03*
D21*
X5189Y7495D02*
D03*
X5064D02*
D03*
X4939D02*
D03*
X4814D02*
D03*
X6857Y7470D02*
D03*
X6732D02*
D03*
X6607D02*
D03*
X6482D02*
D03*
X9215Y7533D02*
D03*
X9090D02*
D03*
X8965D02*
D03*
X8840D02*
D03*
X10664Y7518D02*
D03*
X10539D02*
D03*
X10414D02*
D03*
X10289D02*
D03*
X6114Y950D02*
D03*
X6239D02*
D03*
X6364D02*
D03*
X6489D02*
D03*
X7523Y963D02*
D03*
X7648D02*
D03*
X7773D02*
D03*
X7898D02*
D03*
D22*
X25057Y7143D02*
D03*
Y7462D02*
D03*
X14859Y6406D02*
D03*
Y6726D02*
D03*
X5588Y6055D02*
D03*
Y6375D02*
D03*
M02*
