G04 Layer_Color=255*
%FSLAX42Y42*%
%MOMM*%
G71*
G01*
G75*
%ADD10R,4.00X19.16*%
%ADD11R,4.00X7.26*%
%ADD17R,0.90X1.20*%
%ADD18R,1.60X0.80*%
%ADD19R,3.00X2.10*%
%ADD20R,2.10X3.00*%
%ADD21R,0.80X1.60*%
%ADD22R,1.20X0.90*%
D10*
X9543Y1836D02*
D03*
X293D02*
D03*
X18743D02*
D03*
D11*
X9543Y5878D02*
D03*
X293D02*
D03*
X18743D02*
D03*
D17*
X8641Y1270D02*
D03*
X8961D02*
D03*
X2103Y889D02*
D03*
X1783D02*
D03*
D18*
X3124Y6113D02*
D03*
Y6238D02*
D03*
Y6363D02*
D03*
Y6488D02*
D03*
X1370Y5466D02*
D03*
Y5591D02*
D03*
Y5716D02*
D03*
Y5841D02*
D03*
X1651Y7065D02*
D03*
Y7190D02*
D03*
Y7315D02*
D03*
Y7440D02*
D03*
X1346Y1947D02*
D03*
Y2072D02*
D03*
Y2197D02*
D03*
Y2322D02*
D03*
X1359Y3491D02*
D03*
Y3365D02*
D03*
Y3241D02*
D03*
Y3116D02*
D03*
Y4284D02*
D03*
Y4409D02*
D03*
Y4534D02*
D03*
Y4659D02*
D03*
X1346Y1141D02*
D03*
Y1016D02*
D03*
Y891D02*
D03*
Y766D02*
D03*
D19*
X2834Y5858D02*
D03*
Y6743D02*
D03*
X1080Y5211D02*
D03*
Y6096D02*
D03*
X1361Y6810D02*
D03*
Y7695D02*
D03*
X1056Y1692D02*
D03*
Y2577D02*
D03*
X1069Y3745D02*
D03*
Y2861D02*
D03*
X1069Y4029D02*
D03*
Y4914D02*
D03*
X1056Y1396D02*
D03*
Y511D02*
D03*
D20*
X5444Y7785D02*
D03*
X4559D02*
D03*
X7112Y7760D02*
D03*
X6227D02*
D03*
X9470Y7823D02*
D03*
X8585D02*
D03*
X10919Y7808D02*
D03*
X10034D02*
D03*
X5859Y660D02*
D03*
X6744D02*
D03*
X7268Y673D02*
D03*
X8153D02*
D03*
D21*
X5189Y7495D02*
D03*
X5064D02*
D03*
X4939D02*
D03*
X4814D02*
D03*
X6857Y7470D02*
D03*
X6732D02*
D03*
X6607D02*
D03*
X6482D02*
D03*
X9215Y7533D02*
D03*
X9090D02*
D03*
X8965D02*
D03*
X8840D02*
D03*
X10664Y7518D02*
D03*
X10539D02*
D03*
X10414D02*
D03*
X10289D02*
D03*
X6114Y950D02*
D03*
X6239D02*
D03*
X6364D02*
D03*
X6489D02*
D03*
X7523Y963D02*
D03*
X7648D02*
D03*
X7773D02*
D03*
X7898D02*
D03*
D22*
X25057Y7143D02*
D03*
Y7462D02*
D03*
X14859Y6406D02*
D03*
Y6726D02*
D03*
X5588Y6055D02*
D03*
Y6375D02*
D03*
M02*
