G04 Layer_Physical_Order=1*
G04 Layer_Color=255*
%FSLAX42Y42*%
%MOMM*%
G71*
G01*
G75*
%ADD10R,4.00X19.16*%
%ADD11R,4.00X7.26*%
%ADD12C,1.52*%
%ADD13C,0.25*%
%ADD14C,1.27*%
%ADD15C,4.00*%
%ADD16C,1.50*%
G36*
X13864Y704D02*
X9896D01*
Y6894D01*
X9894Y6896D01*
X10605Y7607D01*
X10606D01*
X13864Y7607D01*
Y704D01*
D02*
G37*
G36*
X9214D02*
X5246D01*
Y6894D01*
X5244Y6896D01*
X5955Y7607D01*
X5956D01*
X9214Y7607D01*
Y704D01*
D02*
G37*
G36*
X4614D02*
X646D01*
Y6894D01*
X644Y6896D01*
X1355Y7607D01*
X1356D01*
X4614Y7607D01*
Y704D01*
D02*
G37*
G36*
X27664D02*
X23696D01*
Y6894D01*
X23694Y6896D01*
X24405Y7607D01*
X24406D01*
X27664Y7607D01*
Y704D01*
D02*
G37*
G36*
X23064D02*
X19096D01*
Y6894D01*
X19094Y6896D01*
X19805Y7607D01*
X19806D01*
X23064Y7607D01*
Y704D01*
D02*
G37*
G36*
X18464D02*
X14496D01*
Y6894D01*
X14494Y6896D01*
X15205Y7607D01*
X15206D01*
X18464Y7607D01*
Y704D01*
D02*
G37*
D10*
X4893Y1836D02*
D03*
X23343D02*
D03*
X14143D02*
D03*
X9543D02*
D03*
X293D02*
D03*
X18743D02*
D03*
D11*
X4893Y5878D02*
D03*
X23343D02*
D03*
X14143D02*
D03*
X9543D02*
D03*
X293D02*
D03*
X18743D02*
D03*
D12*
X7289Y4197D02*
D03*
X11939D02*
D03*
X2689D02*
D03*
X16539D02*
D03*
X25739D02*
D03*
X21139D02*
D03*
D13*
X7633Y559D02*
X7648Y544D01*
X5271Y559D02*
X7633D01*
X5171Y658D02*
X5271Y559D01*
X21139Y4039D02*
Y4197D01*
Y2737D02*
Y4039D01*
X23031Y5931D01*
X23290D01*
X23343Y5878D01*
X11939Y3405D02*
Y4197D01*
Y3405D02*
X13507Y1836D01*
X14143D01*
X2769Y4277D02*
X4369Y5878D01*
X2689Y4197D02*
X2769Y4277D01*
X4262Y2784D01*
Y1836D02*
Y2784D01*
Y1836D02*
X4893D01*
X21139Y2737D02*
X22040Y1836D01*
X23343D01*
X9543Y1232D02*
Y1836D01*
X9119Y7823D02*
X9284Y7658D01*
X4940Y7823D02*
X9119D01*
X5171Y658D02*
Y7544D01*
X6020Y6058D02*
X6160D01*
X7289Y4929D01*
X14859Y5877D02*
X16539Y4197D01*
X25044Y4892D02*
X25739Y4197D01*
X25044Y4892D02*
Y6584D01*
X11939Y4197D02*
X13619Y5878D01*
X14143D01*
X7289Y4197D02*
Y4929D01*
X4369Y5878D02*
X4893D01*
X5065Y7650D02*
X5171Y7544D01*
X0Y0D02*
Y8300D01*
Y0D02*
X27750D01*
Y8300D01*
X0D02*
X27750D01*
X8649Y597D02*
X9207D01*
X9284Y673D01*
Y7658D01*
D14*
X4940Y7823D02*
D03*
X7648Y544D02*
D03*
X6020Y6058D02*
D03*
X14859Y5877D02*
D03*
X25044Y6584D02*
D03*
X5065Y7650D02*
D03*
D15*
X27350Y350D02*
D03*
Y7900D02*
D03*
X350Y350D02*
D03*
X600Y7750D02*
D03*
D16*
X8649Y597D02*
D03*
M02*
