G04 Layer_Color=32768*
%FSLAX42Y42*%
%MOMM*%
G71*
G01*
G75*
%ADD35C,0.10*%
%ADD36C,0.05*%
D35*
X8751Y1270D02*
X8851D01*
X8801Y1220D02*
Y1320D01*
X3073Y6298D02*
X3173D01*
X3123Y6248D02*
Y6348D01*
X1319Y5652D02*
X1419D01*
X1369Y5602D02*
Y5702D01*
X1600Y7251D02*
X1700D01*
X1650Y7201D02*
Y7301D01*
X1295Y2133D02*
X1395D01*
X1345Y2083D02*
Y2183D01*
X1358Y3251D02*
Y3351D01*
X1308Y3301D02*
X1408D01*
X1308Y4470D02*
X1408D01*
X1358Y4420D02*
Y4520D01*
X4950Y7496D02*
X5050D01*
X5000Y7446D02*
Y7546D01*
X6618Y7471D02*
X6718D01*
X6668Y7421D02*
Y7521D01*
X8976Y7534D02*
X9076D01*
X9026Y7484D02*
Y7584D01*
X10425Y7519D02*
X10525D01*
X10475Y7469D02*
Y7569D01*
X6253Y949D02*
X6353D01*
X6303Y899D02*
Y999D01*
X25007Y7303D02*
X25107D01*
X25057Y7252D02*
Y7353D01*
X14809Y6566D02*
X14909D01*
X14859Y6516D02*
Y6616D01*
X5538Y6215D02*
X5638D01*
X5588Y6165D02*
Y6265D01*
X1893Y889D02*
X1993D01*
X1943Y839D02*
Y939D01*
X7663Y962D02*
X7763D01*
X7713Y912D02*
Y1012D01*
X1345Y902D02*
Y1002D01*
X1295Y952D02*
X1395D01*
D36*
X8569Y1165D02*
Y1375D01*
X9034Y1165D02*
Y1375D01*
X8569Y1165D02*
X9034D01*
X8569Y1375D02*
X9034D01*
X2489Y5700D02*
Y6894D01*
X3264Y5700D02*
Y6894D01*
X2489Y5700D02*
X3264D01*
X2489Y6894D02*
X3264D01*
X735Y5054D02*
Y6247D01*
X1509Y5054D02*
Y6247D01*
X735Y5054D02*
X1509D01*
X735Y6247D02*
X1509D01*
X1016Y6653D02*
Y7847D01*
X1791Y6653D02*
Y7847D01*
X1016Y6653D02*
X1791D01*
X1016Y7847D02*
X1791D01*
X711Y1535D02*
Y2728D01*
X1486Y1535D02*
Y2728D01*
X711Y1535D02*
X1486D01*
X711Y2728D02*
X1486D01*
X724Y3897D02*
X1499D01*
X724Y2703D02*
X1499D01*
Y3897D01*
X724Y2703D02*
Y3897D01*
Y3872D02*
Y5065D01*
X1499Y3872D02*
Y5065D01*
X724Y3872D02*
X1499D01*
X724Y5065D02*
X1499D01*
X5596Y7355D02*
Y8130D01*
X4402Y7355D02*
Y8130D01*
Y7355D02*
X5596D01*
X4402Y8130D02*
X5596D01*
X7263Y7330D02*
Y8105D01*
X6070Y7330D02*
Y8105D01*
Y7330D02*
X7263D01*
X6070Y8105D02*
X7263D01*
X9622Y7393D02*
Y8168D01*
X8428Y7393D02*
Y8168D01*
Y7393D02*
X9622D01*
X8428Y8168D02*
X9622D01*
X11070Y7379D02*
Y8153D01*
X9877Y7379D02*
Y8153D01*
Y7379D02*
X11070D01*
X9877Y8153D02*
X11070D01*
X5707Y315D02*
Y1090D01*
X6901Y315D02*
Y1090D01*
X5707D02*
X6901D01*
X5707Y315D02*
X6901D01*
X25162Y7070D02*
Y7535D01*
X24952Y7070D02*
Y7535D01*
Y7070D02*
X25162D01*
X24952Y7535D02*
X25162D01*
X14964Y6333D02*
Y6798D01*
X14754Y6333D02*
Y6798D01*
Y6333D02*
X14964D01*
X14754Y6798D02*
X14964D01*
X5693Y5983D02*
Y6448D01*
X5483Y5983D02*
Y6448D01*
Y5983D02*
X5693D01*
X5483Y6448D02*
X5693D01*
X2176Y784D02*
Y994D01*
X1711Y784D02*
Y994D01*
X2176D01*
X1711Y784D02*
X2176D01*
X7117Y328D02*
Y1103D01*
X8311Y328D02*
Y1103D01*
X7117D02*
X8311D01*
X7117Y328D02*
X8311D01*
X711Y1547D02*
X1486D01*
X711Y354D02*
X1486D01*
Y1547D01*
X711Y354D02*
Y1547D01*
M02*
