G04 Layer_Color=16711935*
%FSLAX42Y42*%
%MOMM*%
G71*
G01*
G75*
%ADD35C,0.10*%
D35*
X8661Y1180D02*
Y1360D01*
X8941Y1180D02*
Y1360D01*
X8661Y1180D02*
X8941D01*
X8661Y1360D02*
X8941D01*
X3021Y6043D02*
Y6564D01*
X3226Y6043D02*
Y6564D01*
X3021Y6043D02*
X3226D01*
X3021Y6564D02*
X3226D01*
X2652Y5992D02*
X3010D01*
X2652Y5726D02*
X3010D01*
Y5992D01*
X2652Y5726D02*
Y5992D01*
Y6602D02*
Y6869D01*
X3010Y6602D02*
Y6869D01*
X2652Y6602D02*
X3010D01*
X2652Y6869D02*
X3010D01*
X1266Y5396D02*
Y5917D01*
X1471Y5396D02*
Y5917D01*
X1266Y5396D02*
X1471D01*
X1266Y5917D02*
X1471D01*
X898Y5346D02*
X1255D01*
X898Y5079D02*
X1255D01*
Y5346D01*
X898Y5079D02*
Y5346D01*
Y5955D02*
Y6222D01*
X1255Y5955D02*
Y6222D01*
X898Y5955D02*
X1255D01*
X898Y6222D02*
X1255D01*
X1548Y6996D02*
Y7516D01*
X1753Y6996D02*
Y7516D01*
X1548Y6996D02*
X1753D01*
X1548Y7516D02*
X1753D01*
X1179Y6945D02*
X1537D01*
X1179Y6678D02*
X1537D01*
Y6945D01*
X1179Y6678D02*
Y6945D01*
Y7554D02*
Y7821D01*
X1537Y7554D02*
Y7821D01*
X1179Y7554D02*
X1537D01*
X1179Y7821D02*
X1537D01*
X1243Y1878D02*
Y2398D01*
X1448Y1878D02*
Y2398D01*
X1243Y1878D02*
X1448D01*
X1243Y2398D02*
X1448D01*
X874Y1827D02*
X1232D01*
X874Y1560D02*
X1232D01*
Y1827D01*
X874Y1560D02*
Y1827D01*
Y2436D02*
Y2703D01*
X1232Y2436D02*
Y2703D01*
X874Y2436D02*
X1232D01*
X874Y2703D02*
X1232D01*
X887Y3872D02*
X1245D01*
X887Y3605D02*
X1245D01*
Y3872D01*
X887Y3605D02*
Y3872D01*
Y2729D02*
Y2995D01*
X1245Y2729D02*
Y2995D01*
X887Y2729D02*
X1245D01*
X887Y2995D02*
X1245D01*
X1256Y3567D02*
X1460D01*
X1256Y3046D02*
X1460D01*
Y3567D01*
X1256Y3046D02*
Y3567D01*
X1256Y4214D02*
Y4735D01*
X1460Y4214D02*
Y4735D01*
X1256Y4214D02*
X1460D01*
X1256Y4735D02*
X1460D01*
X887Y4164D02*
X1245D01*
X887Y3897D02*
X1245D01*
Y4164D01*
X887Y3897D02*
Y4164D01*
Y4773D02*
Y5040D01*
X1245Y4773D02*
Y5040D01*
X887Y4773D02*
X1245D01*
X887Y5040D02*
X1245D01*
X5570Y7609D02*
Y7967D01*
X5304Y7609D02*
Y7967D01*
Y7609D02*
X5570D01*
X5304Y7967D02*
X5570D01*
X4427D02*
X4694D01*
X4427Y7609D02*
X4694D01*
X4427D02*
Y7967D01*
X4694Y7609D02*
Y7967D01*
X5266Y7393D02*
Y7599D01*
X4745Y7393D02*
Y7599D01*
Y7393D02*
X5266D01*
X4745Y7599D02*
X5266D01*
X7238Y7584D02*
Y7941D01*
X6971Y7584D02*
Y7941D01*
Y7584D02*
X7238D01*
X6971Y7941D02*
X7238D01*
X6095D02*
X6362D01*
X6095Y7584D02*
X6362D01*
X6095D02*
Y7941D01*
X6362Y7584D02*
Y7941D01*
X6933Y7368D02*
Y7573D01*
X6412Y7368D02*
Y7573D01*
Y7368D02*
X6933D01*
X6412Y7573D02*
X6933D01*
X9596Y7647D02*
Y8005D01*
X9330Y7647D02*
Y8005D01*
Y7647D02*
X9596D01*
X9330Y8005D02*
X9596D01*
X8453D02*
X8720D01*
X8453Y7647D02*
X8720D01*
X8453D02*
Y8005D01*
X8720Y7647D02*
Y8005D01*
X9291Y7432D02*
Y7637D01*
X8771Y7432D02*
Y7637D01*
Y7432D02*
X9291D01*
X8771Y7637D02*
X9291D01*
X11045Y7633D02*
Y7990D01*
X10778Y7633D02*
Y7990D01*
Y7633D02*
X11045D01*
X10778Y7990D02*
X11045D01*
X9902D02*
X10169D01*
X9902Y7633D02*
X10169D01*
X9902D02*
Y7990D01*
X10169Y7633D02*
Y7990D01*
X10740Y7417D02*
Y7622D01*
X10220Y7417D02*
Y7622D01*
Y7417D02*
X10740D01*
X10220Y7622D02*
X10740D01*
X5733Y479D02*
Y836D01*
X5999Y479D02*
Y836D01*
X5733D02*
X5999D01*
X5733Y479D02*
X5999D01*
X6609D02*
X6876D01*
X6609Y836D02*
X6876D01*
Y479D02*
Y836D01*
X6609Y479D02*
Y836D01*
X6037Y847D02*
Y1052D01*
X6558Y847D02*
Y1052D01*
X6037D02*
X6558D01*
X6037Y847D02*
X6558D01*
X25147Y7162D02*
Y7443D01*
X24967Y7162D02*
Y7443D01*
Y7162D02*
X25147D01*
X24967Y7443D02*
X25147D01*
X14949Y6426D02*
Y6706D01*
X14769Y6426D02*
Y6706D01*
Y6426D02*
X14949D01*
X14769Y6706D02*
X14949D01*
X5678Y6075D02*
Y6355D01*
X5498Y6075D02*
Y6355D01*
Y6075D02*
X5678D01*
X5498Y6355D02*
X5678D01*
X2083Y799D02*
Y979D01*
X1803Y799D02*
Y979D01*
X2083D01*
X1803Y799D02*
X2083D01*
X7142Y491D02*
Y849D01*
X7409Y491D02*
Y849D01*
X7142D02*
X7409D01*
X7142Y491D02*
X7409D01*
X8019D02*
X8285D01*
X8019Y849D02*
X8285D01*
Y491D02*
Y849D01*
X8019Y491D02*
Y849D01*
X7447Y860D02*
Y1065D01*
X7968Y860D02*
Y1065D01*
X7447D02*
X7968D01*
X7447Y860D02*
X7968D01*
X875Y1522D02*
X1232D01*
X875Y1255D02*
X1232D01*
Y1522D01*
X875Y1255D02*
Y1522D01*
Y379D02*
Y646D01*
X1232Y379D02*
Y646D01*
X875Y379D02*
X1232D01*
X875Y646D02*
X1232D01*
X1243Y1217D02*
X1448D01*
X1243Y696D02*
X1448D01*
Y1217D01*
X1243Y696D02*
Y1217D01*
M02*
