G04 Layer_Color=128*
%FSLAX43Y43*%
%MOMM*%
G71*
G01*
G75*
%ADD31C,0.254*%
%ADD41C,0.000*%
%ADD70C,0.051*%
D31*
X1056640Y551942D02*
Y768096D01*
X1056513Y767715D02*
X1056767Y767969D01*
X856869D02*
X1056767D01*
X856742Y767842D02*
X856869Y767969D01*
X856742Y551815D02*
Y767842D01*
Y551815D02*
X1056513D01*
D41*
X953770Y719455D02*
Y723265D01*
Y719455D02*
X958850D01*
X998220D02*
X1000760D01*
Y723265D01*
Y761365D02*
Y766445D01*
X999490D02*
X1000760D01*
X995680D02*
X999490D01*
X953770D02*
X960120D01*
X953770Y760095D02*
Y766445D01*
X958850Y719455D02*
X960120D01*
X995680D02*
X998220D01*
X953770Y723265D02*
Y760095D01*
X958850Y766445D02*
X960120D01*
X995680D01*
X1000760Y723265D02*
Y761365D01*
X960120Y719455D02*
X995680D01*
X958850D02*
X960120D01*
X906780D02*
Y723265D01*
Y719455D02*
X911860D01*
X951230D02*
X953770D01*
Y723265D01*
Y761365D02*
Y766445D01*
X952500D02*
X953770D01*
X948690D02*
X952500D01*
X906780D02*
X913130D01*
X906780Y760095D02*
Y766445D01*
X911860Y719455D02*
X913130D01*
X948690D02*
X951230D01*
X906780Y723265D02*
Y760095D01*
X911860Y766445D02*
X913130D01*
X948690D01*
X953770Y723265D02*
Y761365D01*
X913130Y719455D02*
X948690D01*
X911860D02*
X913130D01*
X859790D02*
Y723265D01*
Y719455D02*
X864870D01*
X904240D02*
X906780D01*
Y723265D01*
Y761365D02*
Y766445D01*
X905510D02*
X906780D01*
X901700D02*
X905510D01*
X859790D02*
X866140D01*
X859790Y760095D02*
Y766445D01*
X864870Y719455D02*
X866140D01*
X901700D02*
X904240D01*
X859790Y723265D02*
Y760095D01*
X864870Y766445D02*
X866140D01*
X901700D01*
X906780Y723265D02*
Y761365D01*
X866140Y719455D02*
X901700D01*
X864870D02*
X866140D01*
X1042296Y558887D02*
X1047274Y558876D01*
X1047249Y561300D02*
X1047263Y558800D01*
X1047249Y599288D02*
Y610433D01*
X1045522Y612151D02*
X1047249Y610433D01*
X1048385Y714121D02*
X1052195D01*
Y719201D01*
Y758571D02*
Y761111D01*
X1048385D02*
X1052195D01*
X1005205D02*
X1010285D01*
X1005205Y759841D02*
Y761111D01*
Y756031D02*
Y759841D01*
Y714121D02*
Y720471D01*
Y714121D02*
X1011555D01*
X1052195Y719201D02*
Y720471D01*
Y756031D02*
Y758571D01*
X1011555Y714121D02*
X1048385D01*
X1005205Y719201D02*
Y720471D01*
Y756031D01*
X1010285Y761111D02*
X1048385D01*
X1052195Y720471D02*
Y756031D01*
Y719201D02*
Y720471D01*
X1048385Y667131D02*
X1052195D01*
Y672211D01*
Y711581D02*
Y714121D01*
X1048385D02*
X1052195D01*
X1005205D02*
X1010285D01*
X1005205Y712851D02*
Y714121D01*
Y709041D02*
Y712851D01*
Y667131D02*
Y673481D01*
Y667131D02*
X1011555D01*
X1052195Y672211D02*
Y673481D01*
Y709041D02*
Y711581D01*
X1011555Y667131D02*
X1048385D01*
X1005205Y672211D02*
Y673481D01*
Y709041D01*
X1010285Y714121D02*
X1048385D01*
X1052195Y673481D02*
Y709041D01*
Y672211D02*
Y673481D01*
X1048385Y620141D02*
X1052195D01*
Y625221D01*
Y664591D02*
Y667131D01*
X1048385D02*
X1052195D01*
X1005205D02*
X1010285D01*
X1005205Y665861D02*
Y667131D01*
Y662051D02*
Y665861D01*
Y620141D02*
Y626491D01*
Y620141D02*
X1011555D01*
X1052195Y625221D02*
Y626491D01*
Y662051D02*
Y664591D01*
X1011555Y620141D02*
X1048385D01*
X1005205Y625221D02*
Y626491D01*
Y662051D01*
X1010285Y667131D02*
X1048385D01*
X1052195Y626491D02*
Y662051D01*
Y625221D02*
Y626491D01*
X954278Y670560D02*
Y674370D01*
Y670560D02*
X959358D01*
X998728D02*
X1001268D01*
Y674370D01*
Y712470D02*
Y717550D01*
X999998D02*
X1001268D01*
X996188D02*
X999998D01*
X954278D02*
X960628D01*
X954278Y711200D02*
Y717550D01*
X959358Y670560D02*
X960628D01*
X996188D02*
X998728D01*
X954278Y674370D02*
Y711200D01*
X959358Y717550D02*
X960628D01*
X996188D01*
X1001268Y674370D02*
Y712470D01*
X960628Y670560D02*
X996188D01*
X959358D02*
X960628D01*
X907288D02*
Y674370D01*
Y670560D02*
X912368D01*
X951738D02*
X954278D01*
Y674370D01*
Y712470D02*
Y717550D01*
X953008D02*
X954278D01*
X949198D02*
X953008D01*
X907288D02*
X913638D01*
X907288Y711200D02*
Y717550D01*
X912368Y670560D02*
X913638D01*
X949198D02*
X951738D01*
X907288Y674370D02*
Y711200D01*
X912368Y717550D02*
X913638D01*
X949198D01*
X954278Y674370D02*
Y712470D01*
X913638Y670560D02*
X949198D01*
X912368D02*
X913638D01*
X860298D02*
Y674370D01*
Y670560D02*
X865378D01*
X904748D02*
X907288D01*
Y674370D01*
Y712470D02*
Y717550D01*
X906018D02*
X907288D01*
X902208D02*
X906018D01*
X860298D02*
X866648D01*
X860298Y711200D02*
Y717550D01*
X865378Y670560D02*
X866648D01*
X902208D02*
X904748D01*
X860298Y674370D02*
Y711200D01*
X865378Y717550D02*
X866648D01*
X902208D01*
X907288Y674370D02*
Y712470D01*
X866648Y670560D02*
X902208D01*
X865378D02*
X866648D01*
X955167Y620649D02*
Y624459D01*
Y620649D02*
X960247D01*
X999617D02*
X1002157D01*
Y624459D01*
Y662559D02*
Y667639D01*
X1000887D02*
X1002157D01*
X997077D02*
X1000887D01*
X955167D02*
X961517D01*
X955167Y661289D02*
Y667639D01*
X960247Y620649D02*
X961517D01*
X997077D02*
X999617D01*
X955167Y624459D02*
Y661289D01*
X960247Y667639D02*
X961517D01*
X997077D01*
X1002157Y624459D02*
Y662559D01*
X961517Y620649D02*
X997077D01*
X960247D02*
X961517D01*
X908177D02*
Y624459D01*
Y620649D02*
X913257D01*
X952627D02*
X955167D01*
Y624459D01*
Y662559D02*
Y667639D01*
X953897D02*
X955167D01*
X950087D02*
X953897D01*
X908177D02*
X914527D01*
X908177Y661289D02*
Y667639D01*
X913257Y620649D02*
X914527D01*
X950087D02*
X952627D01*
X908177Y624459D02*
Y661289D01*
X913257Y667639D02*
X914527D01*
X950087D01*
X955167Y624459D02*
Y662559D01*
X914527Y620649D02*
X950087D01*
X913257D02*
X914527D01*
X861187D02*
Y624459D01*
Y620649D02*
X866267D01*
X905637D02*
X908177D01*
Y624459D01*
Y662559D02*
Y667639D01*
X906907D02*
X908177D01*
X903097D02*
X906907D01*
X861187D02*
X867537D01*
X861187Y661289D02*
Y667639D01*
X866267Y620649D02*
X867537D01*
X903097D02*
X905637D01*
X861187Y624459D02*
Y661289D01*
X866267Y667639D02*
X867537D01*
X903097D01*
X908177Y624459D02*
Y662559D01*
X867537Y620649D02*
X903097D01*
X866267D02*
X867537D01*
D70*
X988822Y741045D02*
X989838D01*
X989330Y740537D02*
Y741553D01*
X988822Y738505D02*
X989838D01*
X989330Y737997D02*
Y739013D01*
X959612Y756285D02*
X960628D01*
X960120Y755777D02*
Y756793D01*
X962152Y756285D02*
X963168D01*
X962660Y755777D02*
Y756793D01*
X996130Y733295D02*
X997030D01*
X996580Y732845D02*
Y733745D01*
X989330Y733295D02*
X990230D01*
X989780Y732845D02*
Y733745D01*
X959541Y744601D02*
X960191D01*
X959866Y744276D02*
Y744926D01*
X962081Y742061D02*
X962731D01*
X962406Y741736D02*
Y742386D01*
X957001Y742061D02*
X957651D01*
X957326Y741736D02*
Y742386D01*
X994085Y742315D02*
X994735D01*
X994410Y741990D02*
Y742640D01*
X996625Y739775D02*
X997275D01*
X996950Y739450D02*
Y740100D01*
X991545Y739775D02*
X992195D01*
X991870Y739450D02*
Y740100D01*
X994085Y752475D02*
X994735D01*
X994410Y752150D02*
Y752800D01*
X996625Y749935D02*
X997275D01*
X996950Y749610D02*
Y750260D01*
X991545Y749935D02*
X992195D01*
X991870Y749610D02*
Y750260D01*
X969333Y761870D02*
X970233D01*
X969783Y761420D02*
Y762320D01*
X962533Y761870D02*
X963433D01*
X962983Y761420D02*
Y762320D01*
X941832Y741045D02*
X942848D01*
X942340Y740537D02*
Y741553D01*
X941832Y738505D02*
X942848D01*
X942340Y737997D02*
Y739013D01*
X912622Y756285D02*
X913638D01*
X913130Y755777D02*
Y756793D01*
X915162Y756285D02*
X916178D01*
X915670Y755777D02*
Y756793D01*
X949140Y733295D02*
X950040D01*
X949590Y732845D02*
Y733745D01*
X942340Y733295D02*
X943240D01*
X942790Y732845D02*
Y733745D01*
X912551Y744601D02*
X913201D01*
X912876Y744276D02*
Y744926D01*
X915091Y742061D02*
X915741D01*
X915416Y741736D02*
Y742386D01*
X910011Y742061D02*
X910661D01*
X910336Y741736D02*
Y742386D01*
X947095Y742315D02*
X947745D01*
X947420Y741990D02*
Y742640D01*
X949635Y739775D02*
X950285D01*
X949960Y739450D02*
Y740100D01*
X944555Y739775D02*
X945205D01*
X944880Y739450D02*
Y740100D01*
X947095Y752475D02*
X947745D01*
X947420Y752150D02*
Y752800D01*
X949635Y749935D02*
X950285D01*
X949960Y749610D02*
Y750260D01*
X944555Y749935D02*
X945205D01*
X944880Y749610D02*
Y750260D01*
X922343Y761870D02*
X923243D01*
X922793Y761420D02*
Y762320D01*
X915543Y761870D02*
X916443D01*
X915993Y761420D02*
Y762320D01*
X894842Y741045D02*
X895858D01*
X895350Y740537D02*
Y741553D01*
X894842Y738505D02*
X895858D01*
X895350Y737997D02*
Y739013D01*
X865632Y756285D02*
X866648D01*
X866140Y755777D02*
Y756793D01*
X868172Y756285D02*
X869188D01*
X868680Y755777D02*
Y756793D01*
X902150Y733295D02*
X903050D01*
X902600Y732845D02*
Y733745D01*
X895350Y733295D02*
X896250D01*
X895800Y732845D02*
Y733745D01*
X865561Y744601D02*
X866211D01*
X865886Y744276D02*
Y744926D01*
X868101Y742061D02*
X868751D01*
X868426Y741736D02*
Y742386D01*
X863021Y742061D02*
X863671D01*
X863346Y741736D02*
Y742386D01*
X900105Y742315D02*
X900755D01*
X900430Y741990D02*
Y742640D01*
X902645Y739775D02*
X903295D01*
X902970Y739450D02*
Y740100D01*
X897565Y739775D02*
X898215D01*
X897890Y739450D02*
Y740100D01*
X900105Y752475D02*
X900755D01*
X900430Y752150D02*
Y752800D01*
X902645Y749935D02*
X903295D01*
X902970Y749610D02*
Y750260D01*
X897565Y749935D02*
X898215D01*
X897890Y749610D02*
Y750260D01*
X875353Y761870D02*
X876253D01*
X875803Y761420D02*
Y762320D01*
X868553Y761870D02*
X869453D01*
X869003Y761420D02*
Y762320D01*
X955205Y762635D02*
X959955D01*
X957580Y760260D02*
Y765010D01*
X994575Y762635D02*
X999325D01*
X996950Y760260D02*
Y765010D01*
X994575Y723265D02*
X999325D01*
X996950Y720890D02*
Y725640D01*
X955205Y723265D02*
X959955D01*
X957580Y720890D02*
Y725640D01*
X908215Y762635D02*
X912965D01*
X910590Y760260D02*
Y765010D01*
X947585Y762635D02*
X952335D01*
X949960Y760260D02*
Y765010D01*
X947585Y723265D02*
X952335D01*
X949960Y720890D02*
Y725640D01*
X908215Y723265D02*
X912965D01*
X910590Y720890D02*
Y725640D01*
X861225Y762635D02*
X865975D01*
X863600Y760260D02*
Y765010D01*
X900595Y762635D02*
X905345D01*
X902970Y760260D02*
Y765010D01*
X900595Y723265D02*
X905345D01*
X902970Y720890D02*
Y725640D01*
X861225Y723265D02*
X865975D01*
X863600Y720890D02*
Y725640D01*
X1023725Y592080D02*
X1024525D01*
X1024125Y591680D02*
Y592480D01*
X1018772Y569474D02*
X1019572D01*
X1019172Y569074D02*
Y569874D01*
X1018645Y573792D02*
X1019445D01*
X1019045Y573392D02*
Y574192D01*
X1014962Y592461D02*
X1015762D01*
X1015362Y592061D02*
Y592861D01*
X1008485Y596779D02*
X1009285D01*
X1008885Y596379D02*
Y597179D01*
X1029313Y573538D02*
X1030113D01*
X1029713Y573138D02*
Y573938D01*
X1009393Y562235D02*
X1010409D01*
X1009901Y561727D02*
Y562743D01*
X1006853Y562235D02*
X1007869D01*
X1007361Y561727D02*
Y562743D01*
X1004313Y562235D02*
X1005329D01*
X1004821Y561727D02*
Y562743D01*
X1024226Y594493D02*
X1025039D01*
X1024633Y594086D02*
Y594899D01*
X1026766Y594493D02*
X1027579D01*
X1027173Y594086D02*
Y594899D01*
X1021585Y597922D02*
X1022601D01*
X1022093Y597414D02*
Y598430D01*
X1024125Y597922D02*
X1025141D01*
X1024633Y597414D02*
Y598430D01*
X1026665Y597922D02*
X1027681D01*
X1027173Y597414D02*
Y598430D01*
X1023972Y570490D02*
X1024785D01*
X1024379Y570083D02*
Y570896D01*
X1026512Y570490D02*
X1027325D01*
X1026919Y570083D02*
Y570896D01*
X1021331Y573792D02*
X1022347D01*
X1021839Y573284D02*
Y574300D01*
X1023871Y573792D02*
X1024887D01*
X1024379Y573284D02*
Y574300D01*
X1026411Y573792D02*
X1027427D01*
X1026919Y573284D02*
Y574300D01*
X1003017Y596906D02*
X1003830D01*
X1003424Y596499D02*
Y597312D01*
X1005557Y596906D02*
X1006370D01*
X1005964Y596499D02*
Y597312D01*
X1000376Y600335D02*
X1001392D01*
X1000884Y599827D02*
Y600843D01*
X1002916Y600335D02*
X1003932D01*
X1003424Y599827D02*
Y600843D01*
X1005456Y600335D02*
X1006472D01*
X1005964Y599827D02*
Y600843D01*
X1002890Y580904D02*
X1003703D01*
X1003297Y580497D02*
Y581310D01*
X1005430Y580904D02*
X1006243D01*
X1005837Y580497D02*
Y581310D01*
X1000249Y584333D02*
X1001265D01*
X1000757Y583825D02*
Y584841D01*
X1002789Y584333D02*
X1003805D01*
X1003297Y583825D02*
Y584841D01*
X1005329Y584333D02*
X1006345D01*
X1005837Y583825D02*
Y584841D01*
X1002763Y566680D02*
X1003576D01*
X1003170Y566273D02*
Y567086D01*
X1005303Y566680D02*
X1006116D01*
X1005710Y566273D02*
Y567086D01*
X1000122Y570236D02*
X1001138D01*
X1000630Y569728D02*
Y570744D01*
X1002662Y570236D02*
X1003678D01*
X1003170Y569728D02*
Y570744D01*
X1005202Y570236D02*
X1006218D01*
X1005710Y569728D02*
Y570744D01*
X1012923Y596779D02*
X1013736D01*
X1013330Y596372D02*
Y597185D01*
X1015463Y596779D02*
X1016276D01*
X1015870Y596372D02*
Y597185D01*
X1010409Y600081D02*
X1011425D01*
X1010917Y599573D02*
Y600589D01*
X1012949Y600081D02*
X1013965D01*
X1013457Y599573D02*
Y600589D01*
X1015489Y600081D02*
X1016505D01*
X1015997Y599573D02*
Y600589D01*
X1013050Y570617D02*
X1013863D01*
X1013457Y570210D02*
Y571023D01*
X1015590Y570617D02*
X1016403D01*
X1015997Y570210D02*
Y571023D01*
X1010409Y574046D02*
X1011425D01*
X1010917Y573538D02*
Y574554D01*
X1012949Y574046D02*
X1013965D01*
X1013457Y573538D02*
Y574554D01*
X1015489Y574046D02*
X1016505D01*
X1015997Y573538D02*
Y574554D01*
X991968Y598811D02*
X992781D01*
X992375Y598404D02*
Y599217D01*
X994508Y598811D02*
X995321D01*
X994915Y598404D02*
Y599217D01*
X994407Y602621D02*
X995423D01*
X994915Y602113D02*
Y603129D01*
X991867Y602621D02*
X992883D01*
X992375Y602113D02*
Y603129D01*
X992730Y591826D02*
X993543D01*
X993137Y591419D02*
Y592232D01*
X995270Y591826D02*
X996083D01*
X995677Y591419D02*
Y592232D01*
X996693Y595255D02*
X997709D01*
X997201Y594747D02*
Y595763D01*
X994153Y595255D02*
X995169D01*
X994661Y594747D02*
Y595763D01*
X991613Y595255D02*
X992629D01*
X992121Y594747D02*
Y595763D01*
X992984Y582047D02*
X993797D01*
X993391Y581640D02*
Y582453D01*
X995524Y582047D02*
X996337D01*
X995931Y581640D02*
Y582453D01*
X996820Y585476D02*
X997836D01*
X997328Y584968D02*
Y585984D01*
X994280Y585476D02*
X995296D01*
X994788Y584968D02*
Y585984D01*
X991740Y585476D02*
X992756D01*
X992248Y584968D02*
Y585984D01*
X992984Y574681D02*
X993797D01*
X993391Y574274D02*
Y575087D01*
X995524Y574681D02*
X996337D01*
X995931Y574274D02*
Y575087D01*
X996566Y578237D02*
X997582D01*
X997074Y577729D02*
Y578745D01*
X994026Y578237D02*
X995042D01*
X994534Y577729D02*
Y578745D01*
X991486Y578237D02*
X992502D01*
X991994Y577729D02*
Y578745D01*
X992984Y561473D02*
X993797D01*
X993391Y561066D02*
Y561879D01*
X995524Y561473D02*
X996337D01*
X995931Y561066D02*
Y561879D01*
X996693Y564902D02*
X997709D01*
X997201Y564394D02*
Y565410D01*
X994153Y564902D02*
X995169D01*
X994661Y564394D02*
Y565410D01*
X991613Y564902D02*
X992629D01*
X992121Y564394D02*
Y565410D01*
X1044419Y565156D02*
X1045232D01*
X1044826Y564749D02*
Y565562D01*
X1044419Y570236D02*
X1045232D01*
X1044826Y569829D02*
Y570642D01*
X1043175Y584206D02*
X1044191D01*
X1043683Y583698D02*
Y584714D01*
X1043175Y586746D02*
X1044191D01*
X1043683Y586238D02*
Y587254D01*
X1043175Y589286D02*
X1044191D01*
X1043683Y588778D02*
Y589794D01*
X1043175Y591826D02*
X1044191D01*
X1043683Y591318D02*
Y592334D01*
X1043175Y594366D02*
X1044191D01*
X1043683Y593858D02*
Y594874D01*
X1043175Y596906D02*
X1044191D01*
X1043683Y596398D02*
Y597414D01*
X1043175Y599446D02*
X1044191D01*
X1043683Y598938D02*
Y599954D01*
X1043175Y601986D02*
X1044191D01*
X1043683Y601478D02*
Y602494D01*
X1033015Y581793D02*
X1034031D01*
X1033523Y581285D02*
Y582301D01*
X1033015Y584333D02*
X1034031D01*
X1033523Y583825D02*
Y584841D01*
X1033015Y586873D02*
X1034031D01*
X1033523Y586365D02*
Y587381D01*
X1033015Y589413D02*
X1034031D01*
X1033523Y588905D02*
Y589921D01*
X1033015Y591953D02*
X1034031D01*
X1033523Y591445D02*
Y592461D01*
X1033015Y594493D02*
X1034031D01*
X1033523Y593985D02*
Y595001D01*
X1033015Y597033D02*
X1034031D01*
X1033523Y596525D02*
Y597541D01*
X1033015Y599573D02*
X1034031D01*
X1033523Y599065D02*
Y600081D01*
X1021153Y584485D02*
X1022169D01*
X1021661Y583977D02*
Y584993D01*
X1021153Y589006D02*
X1022169D01*
X1021661Y588498D02*
Y589514D01*
X1014651Y584485D02*
X1015667D01*
X1015159Y583977D02*
Y584993D01*
X1014651Y589006D02*
X1015667D01*
X1015159Y588498D02*
Y589514D01*
X1015844Y582174D02*
X1016657D01*
X1016251Y581767D02*
Y582580D01*
X1020924Y582174D02*
X1021737D01*
X1021331Y581767D02*
Y582580D01*
X996547Y607828D02*
X997347D01*
X996947Y607428D02*
Y608228D01*
X1041879Y565156D02*
X1042692D01*
X1042286Y564749D02*
Y565562D01*
X1041879Y570236D02*
X1042692D01*
X1042286Y569829D02*
Y570642D01*
X1039339Y565156D02*
X1040152D01*
X1039746Y564749D02*
Y565562D01*
X1039339Y570236D02*
X1040152D01*
X1039746Y569829D02*
Y570642D01*
X1036799Y565156D02*
X1037612D01*
X1037206Y564749D02*
Y565562D01*
X1036799Y570236D02*
X1037612D01*
X1037206Y569829D02*
Y570642D01*
X1034259Y565156D02*
X1035072D01*
X1034666Y564749D02*
Y565562D01*
X1034259Y570236D02*
X1035072D01*
X1034666Y569829D02*
Y570642D01*
X1031592Y565156D02*
X1032405D01*
X1031999Y564749D02*
Y565562D01*
X1031592Y570236D02*
X1032405D01*
X1031999Y569829D02*
Y570642D01*
X1031618Y573030D02*
X1032634D01*
X1032126Y572522D02*
Y573538D01*
X1034158Y573030D02*
X1035174D01*
X1034666Y572522D02*
Y573538D01*
X1036698Y573030D02*
X1037714D01*
X1037206Y572522D02*
Y573538D01*
X1039238Y573030D02*
X1040254D01*
X1039746Y572522D02*
Y573538D01*
X1041778Y573030D02*
X1042794D01*
X1042286Y572522D02*
Y573538D01*
X1044318Y573030D02*
X1045334D01*
X1044826Y572522D02*
Y573538D01*
X1031491Y561346D02*
X1032507D01*
X1031999Y560838D02*
Y561854D01*
X1034031Y561346D02*
X1035047D01*
X1034539Y560838D02*
Y561854D01*
X1036571Y561346D02*
X1037587D01*
X1037079Y560838D02*
Y561854D01*
X1039111Y561346D02*
X1040127D01*
X1039619Y560838D02*
Y561854D01*
X1041651Y561346D02*
X1042667D01*
X1042159Y560838D02*
Y561854D01*
X1044191Y561346D02*
X1045207D01*
X1044699Y560838D02*
Y561854D01*
X1026284Y565156D02*
X1027300D01*
X1026792Y564648D02*
Y565664D01*
X1023744Y565156D02*
X1024760D01*
X1024252Y564648D02*
Y565664D01*
X1021204Y565156D02*
X1022220D01*
X1021712Y564648D02*
Y565664D01*
X1018664Y565156D02*
X1019680D01*
X1019172Y564648D02*
Y565664D01*
X1016124Y565156D02*
X1017140D01*
X1016632Y564648D02*
Y565664D01*
X1013584Y565156D02*
X1014600D01*
X1014092Y564648D02*
Y565664D01*
X1026284Y561473D02*
X1027300D01*
X1026792Y560965D02*
Y561981D01*
X1023744Y561473D02*
X1024760D01*
X1024252Y560965D02*
Y561981D01*
X1021204Y561473D02*
X1022220D01*
X1021712Y560965D02*
Y561981D01*
X1018664Y561473D02*
X1019680D01*
X1019172Y560965D02*
Y561981D01*
X1016124Y561473D02*
X1017140D01*
X1016632Y560965D02*
Y561981D01*
X1013584Y561473D02*
X1014600D01*
X1014092Y560965D02*
Y561981D01*
X1044064Y609606D02*
X1045080D01*
X1044572Y609098D02*
Y610114D01*
X1041524Y609606D02*
X1042540D01*
X1042032Y609098D02*
Y610114D01*
X1038984Y609606D02*
X1040000D01*
X1039492Y609098D02*
Y610114D01*
X1036444Y609606D02*
X1037460D01*
X1036952Y609098D02*
Y610114D01*
X1033904Y609606D02*
X1034920D01*
X1034412Y609098D02*
Y610114D01*
X1031364Y609606D02*
X1032380D01*
X1031872Y609098D02*
Y610114D01*
X1028824Y609606D02*
X1029840D01*
X1029332Y609098D02*
Y610114D01*
X1026284Y609606D02*
X1027300D01*
X1026792Y609098D02*
Y610114D01*
X1044064Y605796D02*
X1045080D01*
X1044572Y605288D02*
Y606304D01*
X1041524Y605796D02*
X1042540D01*
X1042032Y605288D02*
Y606304D01*
X1038984Y605796D02*
X1040000D01*
X1039492Y605288D02*
Y606304D01*
X1036444Y605796D02*
X1037460D01*
X1036952Y605288D02*
Y606304D01*
X1033904Y605796D02*
X1034920D01*
X1034412Y605288D02*
Y606304D01*
X1031364Y605796D02*
X1032380D01*
X1031872Y605288D02*
Y606304D01*
X1028824Y605796D02*
X1029840D01*
X1029332Y605288D02*
Y606304D01*
X1026284Y605796D02*
X1027300D01*
X1026792Y605288D02*
Y606304D01*
X1004567Y609606D02*
X1005583D01*
X1005075Y609098D02*
Y610114D01*
X1007107Y609606D02*
X1008123D01*
X1007615Y609098D02*
Y610114D01*
X1009647Y609606D02*
X1010663D01*
X1010155Y609098D02*
Y610114D01*
X1012187Y609606D02*
X1013203D01*
X1012695Y609098D02*
Y610114D01*
X1014727Y609606D02*
X1015743D01*
X1015235Y609098D02*
Y610114D01*
X1017267Y609606D02*
X1018283D01*
X1017775Y609098D02*
Y610114D01*
X1019807Y609606D02*
X1020823D01*
X1020315Y609098D02*
Y610114D01*
X1022347Y609606D02*
X1023363D01*
X1022855Y609098D02*
Y610114D01*
X1004567Y605796D02*
X1005583D01*
X1005075Y605288D02*
Y606304D01*
X1007107Y605796D02*
X1008123D01*
X1007615Y605288D02*
Y606304D01*
X1009647Y605796D02*
X1010663D01*
X1010155Y605288D02*
Y606304D01*
X1012187Y605796D02*
X1013203D01*
X1012695Y605288D02*
Y606304D01*
X1014727Y605796D02*
X1015743D01*
X1015235Y605288D02*
Y606304D01*
X1017267Y605796D02*
X1018283D01*
X1017775Y605288D02*
Y606304D01*
X1019807Y605796D02*
X1020823D01*
X1020315Y605288D02*
Y606304D01*
X1022347Y605796D02*
X1023363D01*
X1022855Y605288D02*
Y606304D01*
X1024470Y583997D02*
X1025283D01*
X1024877Y583591D02*
Y584404D01*
X1024470Y589077D02*
X1025283D01*
X1024877Y588671D02*
Y589484D01*
X1046657Y565110D02*
X1048857D01*
X1047757Y564010D02*
Y566210D01*
X982522Y609433D02*
X984722D01*
X983622Y608333D02*
Y610533D01*
X982395Y560792D02*
X984595D01*
X983495Y559692D02*
Y561892D01*
X1000175Y561808D02*
X1002375D01*
X1001275Y560708D02*
Y562908D01*
X999413Y609560D02*
X1001613D01*
X1000513Y608460D02*
Y610660D01*
X1046911Y593939D02*
X1049111D01*
X1048011Y592839D02*
Y595039D01*
X970661Y593725D02*
X971677D01*
X971169Y593217D02*
Y594233D01*
X970661Y596265D02*
X971677D01*
X971169Y595757D02*
Y596773D01*
X970661Y598805D02*
X971677D01*
X971169Y598297D02*
Y599313D01*
X958596Y612775D02*
X959612D01*
X959104Y612267D02*
Y613283D01*
X961136Y612775D02*
X962152D01*
X961644Y612267D02*
Y613283D01*
X963676Y612775D02*
X964692D01*
X964184Y612267D02*
Y613283D01*
X923036Y599440D02*
X924052D01*
X923544Y598932D02*
Y599948D01*
X923036Y596900D02*
X924052D01*
X923544Y596392D02*
Y597408D01*
X923036Y594360D02*
X924052D01*
X923544Y593852D02*
Y594868D01*
X963041Y560705D02*
X964057D01*
X963549Y560197D02*
Y561213D01*
X965581Y560705D02*
X966597D01*
X966089Y560197D02*
Y561213D01*
X968121Y560705D02*
X969137D01*
X968629Y560197D02*
Y561213D01*
X930339Y612775D02*
X931354D01*
X930846Y612267D02*
Y613283D01*
X932878Y612775D02*
X933894D01*
X933386Y612267D02*
Y613283D01*
X935419Y612775D02*
X936435D01*
X935927Y612267D02*
Y613283D01*
X937958Y612775D02*
X938974D01*
X938466Y612267D02*
Y613283D01*
X940498Y612775D02*
X941515D01*
X941006Y612267D02*
Y613283D01*
X943039Y612775D02*
X944055D01*
X943547Y612267D02*
Y613283D01*
X945578Y612775D02*
X946594D01*
X946086Y612267D02*
Y613283D01*
X948119Y612775D02*
X949135D01*
X948627Y612267D02*
Y613283D01*
X950659Y612775D02*
X951674D01*
X951167Y612267D02*
Y613283D01*
X953198Y612775D02*
X954214D01*
X953706Y612267D02*
Y613283D01*
X944728Y606425D02*
X945540D01*
X945134Y606019D02*
Y606831D01*
X944728Y603885D02*
X945540D01*
X945134Y603479D02*
Y604291D01*
X952348Y603885D02*
X953160D01*
X952754Y603479D02*
Y604291D01*
X952348Y606425D02*
X953160D01*
X952754Y606019D02*
Y606831D01*
X944728Y601345D02*
X945540D01*
X945134Y600939D02*
Y601751D01*
X944728Y598805D02*
X945540D01*
X945134Y598399D02*
Y599211D01*
X952348Y601345D02*
X953160D01*
X952754Y600939D02*
Y601751D01*
X952348Y598805D02*
X953160D01*
X952754Y598399D02*
Y599211D01*
X944728Y575945D02*
X945540D01*
X945134Y575539D02*
Y576351D01*
X944728Y573405D02*
X945540D01*
X945134Y572999D02*
Y573811D01*
X952348Y573405D02*
X953160D01*
X952754Y572999D02*
Y573811D01*
X952348Y575945D02*
X953160D01*
X952754Y575539D02*
Y576351D01*
X944728Y570865D02*
X945540D01*
X945134Y570459D02*
Y571271D01*
X944728Y568325D02*
X945540D01*
X945134Y567919D02*
Y568731D01*
X952348Y570865D02*
X953160D01*
X952754Y570459D02*
Y571271D01*
X952348Y568325D02*
X953160D01*
X952754Y567919D02*
Y568731D01*
X944347Y590550D02*
X945159D01*
X944753Y590144D02*
Y590956D01*
X944347Y588010D02*
X945159D01*
X944753Y587604D02*
Y588416D01*
X944347Y585470D02*
X945159D01*
X944753Y585064D02*
Y585876D01*
X944347Y582930D02*
X945159D01*
X944753Y582524D02*
Y583336D01*
X952729Y582930D02*
X953541D01*
X953135Y582524D02*
Y583336D01*
X952729Y585470D02*
X953541D01*
X953135Y585064D02*
Y585876D01*
X952729Y588010D02*
X953541D01*
X953135Y587604D02*
Y588416D01*
X952703Y590550D02*
X953567D01*
X953135Y590118D02*
Y590982D01*
X938334Y589915D02*
X939234D01*
X938784Y589465D02*
Y590365D01*
X930714Y589915D02*
X931614D01*
X931164Y589465D02*
Y590365D01*
X965004Y595630D02*
X965904D01*
X965454Y595180D02*
Y596080D01*
X957384Y595630D02*
X958284D01*
X957834Y595180D02*
Y596080D01*
X938334Y595630D02*
X939234D01*
X938784Y595180D02*
Y596080D01*
X930714Y595630D02*
X931614D01*
X931164Y595180D02*
Y596080D01*
X957702Y589915D02*
X958601D01*
X958151Y589465D02*
Y590365D01*
X965322Y589915D02*
X966221D01*
X965771Y589465D02*
Y590365D01*
X930714Y584518D02*
X931614D01*
X931164Y584068D02*
Y584967D01*
X938334Y584518D02*
X939234D01*
X938784Y584068D02*
Y584967D01*
X957702Y571818D02*
X958601D01*
X958151Y571368D02*
Y572267D01*
X965322Y571818D02*
X966221D01*
X965771Y571368D02*
Y572267D01*
X930714Y566420D02*
X931614D01*
X931164Y565970D02*
Y566870D01*
X938334Y566420D02*
X939234D01*
X938784Y565970D02*
Y566870D01*
X957702Y566420D02*
X958601D01*
X958151Y565970D02*
Y566870D01*
X965322Y566420D02*
X966221D01*
X965771Y565970D02*
Y566870D01*
X957384Y583883D02*
X958284D01*
X957834Y583433D02*
Y584332D01*
X965004Y583883D02*
X965904D01*
X965454Y583433D02*
Y584332D01*
X938334Y607060D02*
X939234D01*
X938784Y606610D02*
Y607510D01*
X930714Y607060D02*
X931614D01*
X931164Y606610D02*
Y607510D01*
X930714Y572453D02*
X931614D01*
X931164Y572003D02*
Y572902D01*
X938334Y572453D02*
X939234D01*
X938784Y572003D02*
Y572902D01*
X930714Y578485D02*
X931614D01*
X931164Y578035D02*
Y578935D01*
X938334Y578485D02*
X939234D01*
X938784Y578035D02*
Y578935D01*
X930714Y601028D02*
X931614D01*
X931164Y600578D02*
Y601477D01*
X938334Y601028D02*
X939234D01*
X938784Y600578D02*
Y601477D01*
X957702Y578167D02*
X958601D01*
X958151Y577718D02*
Y578617D01*
X965322Y578167D02*
X966221D01*
X965771Y577718D02*
Y578617D01*
X923036Y581343D02*
X924052D01*
X923544Y580834D02*
Y581851D01*
X923036Y578802D02*
X924052D01*
X923544Y578294D02*
Y579310D01*
X970661Y585470D02*
X971677D01*
X971169Y584962D02*
Y585978D01*
X970661Y582930D02*
X971677D01*
X971169Y582422D02*
Y583438D01*
X923036Y568008D02*
X924052D01*
X923544Y567500D02*
Y568516D01*
X923036Y570547D02*
X924052D01*
X923544Y570039D02*
Y571055D01*
X923036Y573088D02*
X924052D01*
X923544Y572580D02*
Y573596D01*
X970661Y569595D02*
X971677D01*
X971169Y569087D02*
Y570103D01*
X970661Y572135D02*
X971677D01*
X971169Y571627D02*
Y572643D01*
X970661Y574675D02*
X971677D01*
X971169Y574167D02*
Y575183D01*
X939546Y560705D02*
X940562D01*
X940054Y560197D02*
Y561213D01*
X937006Y560705D02*
X938022D01*
X937514Y560197D02*
Y561213D01*
X934466Y560705D02*
X935482D01*
X934974Y560197D02*
Y561213D01*
X945896Y560705D02*
X946912D01*
X946404Y560197D02*
Y561213D01*
X948436Y560705D02*
X949452D01*
X948944Y560197D02*
Y561213D01*
X950976Y560705D02*
X951992D01*
X951484Y560197D02*
Y561213D01*
X923036Y588645D02*
X924052D01*
X923544Y588137D02*
Y589153D01*
X923036Y586105D02*
X924052D01*
X923544Y585597D02*
Y586613D01*
X962533Y600710D02*
X963549D01*
X963041Y600202D02*
Y601218D01*
X959739Y600710D02*
X960755D01*
X960247Y600202D02*
Y601218D01*
X962533Y607060D02*
X963549D01*
X963041Y606552D02*
Y607568D01*
X959739Y607060D02*
X960755D01*
X960247Y606552D02*
Y607568D01*
X970216Y611505D02*
X973391D01*
X971804Y609917D02*
Y613093D01*
X921956Y612775D02*
X925131D01*
X923544Y611188D02*
Y614362D01*
X927036Y560705D02*
X930211D01*
X928624Y559117D02*
Y562292D01*
X954977Y560705D02*
X958151D01*
X956564Y559117D02*
Y562292D01*
X876402Y597027D02*
X877214D01*
X876808Y596621D02*
Y597433D01*
X876402Y589407D02*
X877214D01*
X876808Y589001D02*
Y589813D01*
X880212Y599567D02*
X881024D01*
X880618Y599161D02*
Y599973D01*
X887832Y599567D02*
X888644D01*
X888238Y599161D02*
Y599973D01*
X892912Y586867D02*
X893724D01*
X893318Y586461D02*
Y587273D01*
X892912Y594487D02*
X893724D01*
X893318Y594081D02*
Y594893D01*
X875132Y581787D02*
X875944D01*
X875538Y581381D02*
Y582193D01*
X875132Y574167D02*
X875944D01*
X875538Y573761D02*
Y574573D01*
X871322Y571627D02*
X872134D01*
X871728Y571221D02*
Y572033D01*
X871322Y579247D02*
X872134D01*
X871728Y578841D02*
Y579653D01*
X880212Y566547D02*
X881024D01*
X880618Y566141D02*
Y566953D01*
X887832Y566547D02*
X888644D01*
X888238Y566141D02*
Y566953D01*
X890372Y583057D02*
X891184D01*
X890778Y582651D02*
Y583463D01*
X882752Y583057D02*
X883564D01*
X883158Y582651D02*
Y583463D01*
X897992Y577977D02*
X898804D01*
X898398Y577571D02*
Y578383D01*
X897992Y570357D02*
X898804D01*
X898398Y569951D02*
Y570763D01*
X870052Y609727D02*
X870864D01*
X870458Y609321D02*
Y610133D01*
X877672Y609727D02*
X878484D01*
X878078Y609321D02*
Y610133D01*
X903072Y569087D02*
X903884D01*
X903478Y568681D02*
Y569493D01*
X903072Y576707D02*
X903884D01*
X903478Y576301D02*
Y577113D01*
X887832Y605917D02*
X888644D01*
X888238Y605511D02*
Y606323D01*
X880212Y605917D02*
X881024D01*
X880618Y605511D02*
Y606323D01*
X870052Y598297D02*
X870864D01*
X870458Y597891D02*
Y598703D01*
X870052Y590677D02*
X870864D01*
X870458Y590271D02*
Y591083D01*
X901802Y607187D02*
X902614D01*
X902208Y606781D02*
Y607593D01*
X894182Y607187D02*
X894994D01*
X894588Y606781D02*
Y607593D01*
X897890Y612267D02*
X898906D01*
X898398Y611759D02*
Y612775D01*
X900430Y612267D02*
X901446D01*
X900938Y611759D02*
Y612775D01*
X902970Y612267D02*
X903986D01*
X903478Y611759D02*
Y612775D01*
X867410Y561467D02*
X868426D01*
X867918Y560959D02*
Y561975D01*
X869950Y561467D02*
X870966D01*
X870458Y560959D02*
Y561975D01*
X906780Y561467D02*
X907796D01*
X907288Y560959D02*
Y561975D01*
X909320Y561467D02*
X910336D01*
X909828Y560959D02*
Y561975D01*
X905612Y584327D02*
X906424D01*
X906018Y583921D02*
Y584733D01*
X905612Y586867D02*
X906424D01*
X906018Y586461D02*
Y587273D01*
X897992Y586867D02*
X898804D01*
X898398Y586461D02*
Y587273D01*
X897992Y584327D02*
X898804D01*
X898398Y583921D02*
Y584733D01*
X905612Y589407D02*
X906424D01*
X906018Y589001D02*
Y589813D01*
X905612Y591947D02*
X906424D01*
X906018Y591541D02*
Y592353D01*
X897992Y589407D02*
X898804D01*
X898398Y589001D02*
Y589813D01*
X897992Y591947D02*
X898804D01*
X898398Y591541D02*
Y592353D01*
X882752Y575437D02*
X883564D01*
X883158Y575031D02*
Y575843D01*
X885292Y575437D02*
X886104D01*
X885698Y575031D02*
Y575843D01*
X892912Y600837D02*
X893724D01*
X893318Y600431D02*
Y601243D01*
X895452Y600837D02*
X896264D01*
X895858Y600431D02*
Y601243D01*
X885292Y593217D02*
X886104D01*
X885698Y592811D02*
Y593623D01*
X882752Y593217D02*
X883564D01*
X883158Y592811D02*
Y593623D01*
X896722Y565277D02*
X897534D01*
X897128Y564871D02*
Y565683D01*
X894182Y565277D02*
X894994D01*
X894588Y564871D02*
Y565683D01*
X905612Y605917D02*
X906424D01*
X906018Y605511D02*
Y606323D01*
X905612Y600837D02*
X906424D01*
X906018Y600431D02*
Y601243D01*
X911860Y581787D02*
X912876D01*
X912368Y581279D02*
Y582295D01*
X911860Y584327D02*
X912876D01*
X912368Y583819D02*
Y584835D01*
X911860Y586867D02*
X912876D01*
X912368Y586359D02*
Y587375D01*
X911860Y589407D02*
X912876D01*
X912368Y588899D02*
Y589915D01*
X911860Y591947D02*
X912876D01*
X912368Y591439D02*
Y592455D01*
X911860Y594487D02*
X912876D01*
X912368Y593979D02*
Y594995D01*
X911860Y599567D02*
X912876D01*
X912368Y599059D02*
Y600075D01*
X911860Y602107D02*
X912876D01*
X912368Y601599D02*
Y602615D01*
X911860Y604647D02*
X912876D01*
X912368Y604139D02*
Y605155D01*
X911860Y607187D02*
X912876D01*
X912368Y606679D02*
Y607695D01*
X911860Y609727D02*
X912876D01*
X912368Y609219D02*
Y610235D01*
X911860Y612267D02*
X912876D01*
X912368Y611759D02*
Y612775D01*
X863600Y612267D02*
X864616D01*
X864108Y611759D02*
Y612775D01*
X863600Y609727D02*
X864616D01*
X864108Y609219D02*
Y610235D01*
X863600Y607187D02*
X864616D01*
X864108Y606679D02*
Y607695D01*
X863600Y604647D02*
X864616D01*
X864108Y604139D02*
Y605155D01*
X863600Y602107D02*
X864616D01*
X864108Y601599D02*
Y602615D01*
X863600Y599567D02*
X864616D01*
X864108Y599059D02*
Y600075D01*
X863600Y597027D02*
X864616D01*
X864108Y596519D02*
Y597535D01*
X863600Y594487D02*
X864616D01*
X864108Y593979D02*
Y594995D01*
X863600Y590677D02*
X864616D01*
X864108Y590169D02*
Y591185D01*
X863600Y588137D02*
X864616D01*
X864108Y587629D02*
Y588645D01*
X863600Y585597D02*
X864616D01*
X864108Y585089D02*
Y586105D01*
X863600Y583057D02*
X864616D01*
X864108Y582549D02*
Y583565D01*
X863600Y580517D02*
X864616D01*
X864108Y580009D02*
Y581025D01*
X863600Y577977D02*
X864616D01*
X864108Y577469D02*
Y578485D01*
X863600Y575437D02*
X864616D01*
X864108Y574929D02*
Y575945D01*
X863600Y572897D02*
X864616D01*
X864108Y572389D02*
Y573405D01*
X863600Y570357D02*
X864616D01*
X864108Y569849D02*
Y570865D01*
X863600Y567817D02*
X864616D01*
X864108Y567309D02*
Y568325D01*
X911860Y579247D02*
X912876D01*
X912368Y578739D02*
Y579755D01*
X911860Y576707D02*
X912876D01*
X912368Y576199D02*
Y577215D01*
X1030097Y749681D02*
X1031113D01*
X1030605Y749173D02*
Y750189D01*
X1032637Y749681D02*
X1033653D01*
X1033145Y749173D02*
Y750189D01*
X1014857Y720471D02*
X1015873D01*
X1015365Y719963D02*
Y720979D01*
X1014857Y723011D02*
X1015873D01*
X1015365Y722503D02*
Y723519D01*
X1037905Y756931D02*
X1038805D01*
X1038355Y756481D02*
Y757381D01*
X1037905Y750131D02*
X1038805D01*
X1038355Y749681D02*
Y750581D01*
X1026724Y720217D02*
X1027374D01*
X1027049Y719892D02*
Y720542D01*
X1029264Y722757D02*
X1029914D01*
X1029589Y722432D02*
Y723082D01*
X1029264Y717677D02*
X1029914D01*
X1029589Y717352D02*
Y718002D01*
X1029010Y754761D02*
X1029660D01*
X1029335Y754436D02*
Y755086D01*
X1031550Y757301D02*
X1032200D01*
X1031875Y756976D02*
Y757626D01*
X1031550Y752221D02*
X1032200D01*
X1031875Y751896D02*
Y752546D01*
X1018850Y754761D02*
X1019500D01*
X1019175Y754436D02*
Y755086D01*
X1021390Y757301D02*
X1022040D01*
X1021715Y756976D02*
Y757626D01*
X1021390Y752221D02*
X1022040D01*
X1021715Y751896D02*
Y752546D01*
X1009330Y730134D02*
X1010230D01*
X1009780Y729684D02*
Y730584D01*
X1009330Y723334D02*
X1010230D01*
X1009780Y722884D02*
Y723784D01*
X1030097Y702691D02*
X1031113D01*
X1030605Y702183D02*
Y703199D01*
X1032637Y702691D02*
X1033653D01*
X1033145Y702183D02*
Y703199D01*
X1014857Y673481D02*
X1015873D01*
X1015365Y672973D02*
Y673989D01*
X1014857Y676021D02*
X1015873D01*
X1015365Y675513D02*
Y676529D01*
X1037905Y709941D02*
X1038805D01*
X1038355Y709491D02*
Y710391D01*
X1037905Y703141D02*
X1038805D01*
X1038355Y702691D02*
Y703591D01*
X1026724Y673227D02*
X1027374D01*
X1027049Y672902D02*
Y673552D01*
X1029264Y675767D02*
X1029914D01*
X1029589Y675442D02*
Y676092D01*
X1029264Y670687D02*
X1029914D01*
X1029589Y670362D02*
Y671012D01*
X1029010Y707771D02*
X1029660D01*
X1029335Y707446D02*
Y708096D01*
X1031550Y710311D02*
X1032200D01*
X1031875Y709986D02*
Y710636D01*
X1031550Y705231D02*
X1032200D01*
X1031875Y704906D02*
Y705556D01*
X1018850Y707771D02*
X1019500D01*
X1019175Y707446D02*
Y708096D01*
X1021390Y710311D02*
X1022040D01*
X1021715Y709986D02*
Y710636D01*
X1021390Y705231D02*
X1022040D01*
X1021715Y704906D02*
Y705556D01*
X1009330Y683144D02*
X1010230D01*
X1009780Y682694D02*
Y683594D01*
X1009330Y676344D02*
X1010230D01*
X1009780Y675894D02*
Y676794D01*
X1030097Y655701D02*
X1031113D01*
X1030605Y655193D02*
Y656209D01*
X1032637Y655701D02*
X1033653D01*
X1033145Y655193D02*
Y656209D01*
X1014857Y626491D02*
X1015873D01*
X1015365Y625983D02*
Y626999D01*
X1014857Y629031D02*
X1015873D01*
X1015365Y628523D02*
Y629539D01*
X1037905Y662951D02*
X1038805D01*
X1038355Y662501D02*
Y663401D01*
X1037905Y656151D02*
X1038805D01*
X1038355Y655701D02*
Y656601D01*
X1026724Y626237D02*
X1027374D01*
X1027049Y625912D02*
Y626562D01*
X1029264Y628777D02*
X1029914D01*
X1029589Y628452D02*
Y629102D01*
X1029264Y623697D02*
X1029914D01*
X1029589Y623372D02*
Y624022D01*
X1029010Y660781D02*
X1029660D01*
X1029335Y660456D02*
Y661106D01*
X1031550Y663321D02*
X1032200D01*
X1031875Y662996D02*
Y663646D01*
X1031550Y658241D02*
X1032200D01*
X1031875Y657916D02*
Y658566D01*
X1018850Y660781D02*
X1019500D01*
X1019175Y660456D02*
Y661106D01*
X1021390Y663321D02*
X1022040D01*
X1021715Y662996D02*
Y663646D01*
X1021390Y658241D02*
X1022040D01*
X1021715Y657916D02*
Y658566D01*
X1009330Y636154D02*
X1010230D01*
X1009780Y635704D02*
Y636604D01*
X1009330Y629354D02*
X1010230D01*
X1009780Y628904D02*
Y629804D01*
X1006640Y717931D02*
X1011390D01*
X1009015Y715556D02*
Y720306D01*
X1006640Y757301D02*
X1011390D01*
X1009015Y754926D02*
Y759676D01*
X1046010Y757301D02*
X1050760D01*
X1048385Y754926D02*
Y759676D01*
X1046010Y717931D02*
X1050760D01*
X1048385Y715556D02*
Y720306D01*
X1006640Y670941D02*
X1011390D01*
X1009015Y668566D02*
Y673316D01*
X1006640Y710311D02*
X1011390D01*
X1009015Y707936D02*
Y712686D01*
X1046010Y710311D02*
X1050760D01*
X1048385Y707936D02*
Y712686D01*
X1046010Y670941D02*
X1050760D01*
X1048385Y668566D02*
Y673316D01*
X1006640Y623951D02*
X1011390D01*
X1009015Y621576D02*
Y626326D01*
X1006640Y663321D02*
X1011390D01*
X1009015Y660946D02*
Y665696D01*
X1046010Y663321D02*
X1050760D01*
X1048385Y660946D02*
Y665696D01*
X1046010Y623951D02*
X1050760D01*
X1048385Y621576D02*
Y626326D01*
X989330Y692150D02*
X990346D01*
X989838Y691642D02*
Y692658D01*
X989330Y689610D02*
X990346D01*
X989838Y689102D02*
Y690118D01*
X960120Y707390D02*
X961136D01*
X960628Y706882D02*
Y707898D01*
X962660Y707390D02*
X963676D01*
X963168Y706882D02*
Y707898D01*
X996638Y684400D02*
X997538D01*
X997088Y683950D02*
Y684850D01*
X989838Y684400D02*
X990738D01*
X990288Y683950D02*
Y684850D01*
X960049Y695706D02*
X960699D01*
X960374Y695381D02*
Y696031D01*
X962589Y693166D02*
X963239D01*
X962914Y692841D02*
Y693491D01*
X957509Y693166D02*
X958159D01*
X957834Y692841D02*
Y693491D01*
X994593Y693420D02*
X995243D01*
X994918Y693095D02*
Y693745D01*
X997133Y690880D02*
X997783D01*
X997458Y690555D02*
Y691205D01*
X992053Y690880D02*
X992703D01*
X992378Y690555D02*
Y691205D01*
X994593Y703580D02*
X995243D01*
X994918Y703255D02*
Y703905D01*
X997133Y701040D02*
X997783D01*
X997458Y700715D02*
Y701365D01*
X992053Y701040D02*
X992703D01*
X992378Y700715D02*
Y701365D01*
X969841Y712975D02*
X970741D01*
X970291Y712525D02*
Y713425D01*
X963041Y712975D02*
X963941D01*
X963491Y712525D02*
Y713425D01*
X942340Y692150D02*
X943356D01*
X942848Y691642D02*
Y692658D01*
X942340Y689610D02*
X943356D01*
X942848Y689102D02*
Y690118D01*
X913130Y707390D02*
X914146D01*
X913638Y706882D02*
Y707898D01*
X915670Y707390D02*
X916686D01*
X916178Y706882D02*
Y707898D01*
X949648Y684400D02*
X950548D01*
X950098Y683950D02*
Y684850D01*
X942848Y684400D02*
X943748D01*
X943298Y683950D02*
Y684850D01*
X913059Y695706D02*
X913709D01*
X913384Y695381D02*
Y696031D01*
X915599Y693166D02*
X916249D01*
X915924Y692841D02*
Y693491D01*
X910519Y693166D02*
X911169D01*
X910844Y692841D02*
Y693491D01*
X947603Y693420D02*
X948253D01*
X947928Y693095D02*
Y693745D01*
X950143Y690880D02*
X950793D01*
X950468Y690555D02*
Y691205D01*
X945063Y690880D02*
X945713D01*
X945388Y690555D02*
Y691205D01*
X947603Y703580D02*
X948253D01*
X947928Y703255D02*
Y703905D01*
X950143Y701040D02*
X950793D01*
X950468Y700715D02*
Y701365D01*
X945063Y701040D02*
X945713D01*
X945388Y700715D02*
Y701365D01*
X922851Y712975D02*
X923751D01*
X923301Y712525D02*
Y713425D01*
X916051Y712975D02*
X916951D01*
X916501Y712525D02*
Y713425D01*
X895350Y692150D02*
X896366D01*
X895858Y691642D02*
Y692658D01*
X895350Y689610D02*
X896366D01*
X895858Y689102D02*
Y690118D01*
X866140Y707390D02*
X867156D01*
X866648Y706882D02*
Y707898D01*
X868680Y707390D02*
X869696D01*
X869188Y706882D02*
Y707898D01*
X902658Y684400D02*
X903558D01*
X903108Y683950D02*
Y684850D01*
X895858Y684400D02*
X896758D01*
X896308Y683950D02*
Y684850D01*
X866069Y695706D02*
X866719D01*
X866394Y695381D02*
Y696031D01*
X868609Y693166D02*
X869259D01*
X868934Y692841D02*
Y693491D01*
X863529Y693166D02*
X864179D01*
X863854Y692841D02*
Y693491D01*
X900613Y693420D02*
X901263D01*
X900938Y693095D02*
Y693745D01*
X903153Y690880D02*
X903803D01*
X903478Y690555D02*
Y691205D01*
X898073Y690880D02*
X898723D01*
X898398Y690555D02*
Y691205D01*
X900613Y703580D02*
X901263D01*
X900938Y703255D02*
Y703905D01*
X903153Y701040D02*
X903803D01*
X903478Y700715D02*
Y701365D01*
X898073Y701040D02*
X898723D01*
X898398Y700715D02*
Y701365D01*
X875861Y712975D02*
X876761D01*
X876311Y712525D02*
Y713425D01*
X869061Y712975D02*
X869961D01*
X869511Y712525D02*
Y713425D01*
X955713Y713740D02*
X960463D01*
X958088Y711365D02*
Y716115D01*
X995083Y713740D02*
X999833D01*
X997458Y711365D02*
Y716115D01*
X995083Y674370D02*
X999833D01*
X997458Y671995D02*
Y676745D01*
X955713Y674370D02*
X960463D01*
X958088Y671995D02*
Y676745D01*
X908723Y713740D02*
X913473D01*
X911098Y711365D02*
Y716115D01*
X948093Y713740D02*
X952843D01*
X950468Y711365D02*
Y716115D01*
X948093Y674370D02*
X952843D01*
X950468Y671995D02*
Y676745D01*
X908723Y674370D02*
X913473D01*
X911098Y671995D02*
Y676745D01*
X861733Y713740D02*
X866483D01*
X864108Y711365D02*
Y716115D01*
X901103Y713740D02*
X905853D01*
X903478Y711365D02*
Y716115D01*
X901103Y674370D02*
X905853D01*
X903478Y671995D02*
Y676745D01*
X861733Y674370D02*
X866483D01*
X864108Y671995D02*
Y676745D01*
X990219Y642239D02*
X991235D01*
X990727Y641731D02*
Y642747D01*
X990219Y639699D02*
X991235D01*
X990727Y639191D02*
Y640207D01*
X961009Y657479D02*
X962025D01*
X961517Y656971D02*
Y657987D01*
X963549Y657479D02*
X964565D01*
X964057Y656971D02*
Y657987D01*
X997527Y634489D02*
X998427D01*
X997977Y634039D02*
Y634939D01*
X990727Y634489D02*
X991627D01*
X991177Y634039D02*
Y634939D01*
X960938Y645795D02*
X961588D01*
X961263Y645470D02*
Y646120D01*
X963478Y643255D02*
X964128D01*
X963803Y642930D02*
Y643580D01*
X958398Y643255D02*
X959048D01*
X958723Y642930D02*
Y643580D01*
X995482Y643509D02*
X996132D01*
X995807Y643184D02*
Y643834D01*
X998022Y640969D02*
X998672D01*
X998347Y640644D02*
Y641294D01*
X992942Y640969D02*
X993592D01*
X993267Y640644D02*
Y641294D01*
X995482Y653669D02*
X996132D01*
X995807Y653344D02*
Y653994D01*
X998022Y651129D02*
X998672D01*
X998347Y650804D02*
Y651454D01*
X992942Y651129D02*
X993592D01*
X993267Y650804D02*
Y651454D01*
X970730Y663064D02*
X971630D01*
X971180Y662614D02*
Y663514D01*
X963930Y663064D02*
X964830D01*
X964380Y662614D02*
Y663514D01*
X943229Y642239D02*
X944245D01*
X943737Y641731D02*
Y642747D01*
X943229Y639699D02*
X944245D01*
X943737Y639191D02*
Y640207D01*
X914019Y657479D02*
X915035D01*
X914527Y656971D02*
Y657987D01*
X916559Y657479D02*
X917575D01*
X917067Y656971D02*
Y657987D01*
X950537Y634489D02*
X951437D01*
X950987Y634039D02*
Y634939D01*
X943737Y634489D02*
X944637D01*
X944187Y634039D02*
Y634939D01*
X913948Y645795D02*
X914598D01*
X914273Y645470D02*
Y646120D01*
X916488Y643255D02*
X917138D01*
X916813Y642930D02*
Y643580D01*
X911408Y643255D02*
X912058D01*
X911733Y642930D02*
Y643580D01*
X948492Y643509D02*
X949142D01*
X948817Y643184D02*
Y643834D01*
X951032Y640969D02*
X951682D01*
X951357Y640644D02*
Y641294D01*
X945952Y640969D02*
X946602D01*
X946277Y640644D02*
Y641294D01*
X948492Y653669D02*
X949142D01*
X948817Y653344D02*
Y653994D01*
X951032Y651129D02*
X951682D01*
X951357Y650804D02*
Y651454D01*
X945952Y651129D02*
X946602D01*
X946277Y650804D02*
Y651454D01*
X923740Y663064D02*
X924640D01*
X924190Y662614D02*
Y663514D01*
X916940Y663064D02*
X917840D01*
X917390Y662614D02*
Y663514D01*
X896239Y642239D02*
X897255D01*
X896747Y641731D02*
Y642747D01*
X896239Y639699D02*
X897255D01*
X896747Y639191D02*
Y640207D01*
X867029Y657479D02*
X868045D01*
X867537Y656971D02*
Y657987D01*
X869569Y657479D02*
X870585D01*
X870077Y656971D02*
Y657987D01*
X903547Y634489D02*
X904447D01*
X903997Y634039D02*
Y634939D01*
X896747Y634489D02*
X897647D01*
X897197Y634039D02*
Y634939D01*
X866958Y645795D02*
X867608D01*
X867283Y645470D02*
Y646120D01*
X869498Y643255D02*
X870148D01*
X869823Y642930D02*
Y643580D01*
X864418Y643255D02*
X865068D01*
X864743Y642930D02*
Y643580D01*
X901502Y643509D02*
X902152D01*
X901827Y643184D02*
Y643834D01*
X904042Y640969D02*
X904692D01*
X904367Y640644D02*
Y641294D01*
X898962Y640969D02*
X899612D01*
X899287Y640644D02*
Y641294D01*
X901502Y653669D02*
X902152D01*
X901827Y653344D02*
Y653994D01*
X904042Y651129D02*
X904692D01*
X904367Y650804D02*
Y651454D01*
X898962Y651129D02*
X899612D01*
X899287Y650804D02*
Y651454D01*
X876750Y663064D02*
X877650D01*
X877200Y662614D02*
Y663514D01*
X869950Y663064D02*
X870850D01*
X870400Y662614D02*
Y663514D01*
X956602Y663829D02*
X961352D01*
X958977Y661454D02*
Y666204D01*
X995972Y663829D02*
X1000722D01*
X998347Y661454D02*
Y666204D01*
X995972Y624459D02*
X1000722D01*
X998347Y622084D02*
Y626834D01*
X956602Y624459D02*
X961352D01*
X958977Y622084D02*
Y626834D01*
X909612Y663829D02*
X914362D01*
X911987Y661454D02*
Y666204D01*
X948982Y663829D02*
X953732D01*
X951357Y661454D02*
Y666204D01*
X948982Y624459D02*
X953732D01*
X951357Y622084D02*
Y626834D01*
X909612Y624459D02*
X914362D01*
X911987Y622084D02*
Y626834D01*
X862622Y663829D02*
X867372D01*
X864997Y661454D02*
Y666204D01*
X901992Y663829D02*
X906742D01*
X904367Y661454D02*
Y666204D01*
X901992Y624459D02*
X906742D01*
X904367Y622084D02*
Y626834D01*
X862622Y624459D02*
X867372D01*
X864997Y622084D02*
Y626834D01*
X968398Y763631D02*
X969048D01*
X968724Y763306D02*
Y763956D01*
X971452Y761354D02*
X972102D01*
X971777Y761029D02*
Y761679D01*
X966145Y757555D02*
X966795D01*
X966470Y757230D02*
Y757880D01*
X966145Y729615D02*
X966795D01*
X966470Y729290D02*
Y729940D01*
X987735Y728345D02*
X988385D01*
X988060Y728020D02*
Y728670D01*
X985195Y756285D02*
X985845D01*
X985520Y755960D02*
Y756610D01*
X974121Y758266D02*
X974771D01*
X974446Y757941D02*
Y758591D01*
X975954Y732282D02*
X976604D01*
X976279Y731957D02*
Y732607D01*
X957255Y735965D02*
X957905D01*
X957580Y735640D02*
Y736290D01*
X972495Y738505D02*
X973145D01*
X972820Y738180D02*
Y738830D01*
X985195Y739775D02*
X985845D01*
X985520Y739450D02*
Y740100D01*
X967415Y735965D02*
X968065D01*
X967740Y735640D02*
Y736290D01*
X981385Y728345D02*
X982035D01*
X981710Y728020D02*
Y728670D01*
X986465Y727075D02*
X987115D01*
X986790Y726750D02*
Y727400D01*
X921409Y763631D02*
X922058D01*
X921734Y763306D02*
Y763956D01*
X924462Y761354D02*
X925112D01*
X924787Y761029D02*
Y761679D01*
X919155Y757555D02*
X919805D01*
X919480Y757230D02*
Y757880D01*
X919155Y729615D02*
X919805D01*
X919480Y729290D02*
Y729940D01*
X940745Y728345D02*
X941395D01*
X941070Y728020D02*
Y728670D01*
X938205Y756285D02*
X938855D01*
X938530Y755960D02*
Y756610D01*
X927131Y758266D02*
X927781D01*
X927456Y757941D02*
Y758591D01*
X928964Y732282D02*
X929614D01*
X929289Y731957D02*
Y732607D01*
X910265Y735965D02*
X910915D01*
X910590Y735640D02*
Y736290D01*
X925505Y738505D02*
X926155D01*
X925830Y738180D02*
Y738830D01*
X938205Y739775D02*
X938855D01*
X938530Y739450D02*
Y740100D01*
X920425Y735965D02*
X921075D01*
X920750Y735640D02*
Y736290D01*
X934395Y728345D02*
X935045D01*
X934720Y728020D02*
Y728670D01*
X939475Y727075D02*
X940125D01*
X939800Y726750D02*
Y727400D01*
X874419Y763631D02*
X875068D01*
X874743Y763306D02*
Y763956D01*
X877472Y761354D02*
X878122D01*
X877797Y761029D02*
Y761679D01*
X872165Y757555D02*
X872815D01*
X872490Y757230D02*
Y757880D01*
X872165Y729615D02*
X872815D01*
X872490Y729290D02*
Y729940D01*
X893755Y728345D02*
X894405D01*
X894080Y728020D02*
Y728670D01*
X891215Y756285D02*
X891865D01*
X891540Y755960D02*
Y756610D01*
X880141Y758266D02*
X880791D01*
X880466Y757941D02*
Y758591D01*
X881974Y732282D02*
X882624D01*
X882299Y731957D02*
Y732607D01*
X863275Y735965D02*
X863925D01*
X863600Y735640D02*
Y736290D01*
X878515Y738505D02*
X879165D01*
X878840Y738180D02*
Y738830D01*
X891215Y739775D02*
X891865D01*
X891540Y739450D02*
Y740100D01*
X873435Y735965D02*
X874085D01*
X873760Y735640D02*
Y736290D01*
X887405Y728345D02*
X888055D01*
X887730Y728020D02*
Y728670D01*
X892485Y727075D02*
X893135D01*
X892810Y726750D02*
Y727400D01*
X987363Y602956D02*
X988263D01*
X987813Y602506D02*
Y603406D01*
X982283Y602956D02*
X983183D01*
X982733Y602506D02*
Y603406D01*
X984823Y602956D02*
X985723D01*
X985273Y602506D02*
Y603406D01*
X987363Y605369D02*
X988263D01*
X987813Y604919D02*
Y605819D01*
X982283Y605369D02*
X983183D01*
X982733Y604919D02*
Y605819D01*
X984823Y605369D02*
X985723D01*
X985273Y604919D02*
Y605819D01*
X987363Y607909D02*
X988263D01*
X987813Y607459D02*
Y608359D01*
X987363Y610449D02*
X988263D01*
X987813Y609999D02*
Y610899D01*
X989903Y607909D02*
X990803D01*
X990353Y607459D02*
Y608359D01*
X992443Y607909D02*
X993343D01*
X992893Y607459D02*
Y608359D01*
X989903Y610449D02*
X990803D01*
X990353Y609999D02*
Y610899D01*
X992443Y610449D02*
X993343D01*
X992893Y609999D02*
Y610899D01*
X962025Y570611D02*
X962533D01*
X962279Y570357D02*
Y570865D01*
X959739Y572897D02*
X960247D01*
X959993Y572643D02*
Y573151D01*
X950214Y585089D02*
X950722D01*
X950468Y584835D02*
Y585343D01*
X968121Y601472D02*
X968629D01*
X968375Y601218D02*
Y601726D01*
X967740Y582422D02*
X968248D01*
X967994Y582168D02*
Y582676D01*
X954405Y567944D02*
X954913D01*
X954659Y567690D02*
Y568198D01*
X957834Y593852D02*
X958342D01*
X958088Y593598D02*
Y594106D01*
X942594Y580136D02*
X943102D01*
X942848Y579882D02*
Y580390D01*
X933831Y581279D02*
X934339D01*
X934085Y581025D02*
Y581533D01*
X940308Y577850D02*
X940816D01*
X940562Y577596D02*
Y578104D01*
X954532Y572135D02*
X955040D01*
X954786Y571881D02*
Y572389D01*
X964311Y568325D02*
X964819D01*
X964565Y568071D02*
Y568579D01*
X968883Y570230D02*
X969391D01*
X969137Y569976D02*
Y570484D01*
X955167Y579374D02*
X955675D01*
X955421Y579120D02*
Y579628D01*
X948690Y572516D02*
X949198D01*
X948944Y572262D02*
Y572770D01*
X949452Y569468D02*
X949960D01*
X949706Y569214D02*
Y569722D01*
X947928Y565277D02*
X948436D01*
X948182Y565023D02*
Y565531D01*
X936879Y605663D02*
X937387D01*
X937133Y605409D02*
Y605917D01*
X940753Y609981D02*
X941260D01*
X941006Y609727D02*
Y610235D01*
X935736Y596900D02*
X936244D01*
X935990Y596646D02*
Y597154D01*
X933831Y605663D02*
X934339D01*
X934085Y605409D02*
Y605917D01*
X954786Y596519D02*
X955294D01*
X955040Y596265D02*
Y596773D01*
X932688Y602615D02*
X933196D01*
X932942Y602361D02*
Y602869D01*
X940308Y586994D02*
X940816D01*
X940562Y586740D02*
Y587248D01*
X928497Y601091D02*
X929005D01*
X928751Y600837D02*
Y601345D01*
X1007694Y729074D02*
X1008344D01*
X1008019Y728750D02*
Y729399D01*
X1009971Y732128D02*
X1010621D01*
X1010296Y731803D02*
Y732453D01*
X1013770Y726821D02*
X1014420D01*
X1014095Y726496D02*
Y727146D01*
X1041710Y726821D02*
X1042360D01*
X1042035Y726496D02*
Y727146D01*
X1042980Y748411D02*
X1043630D01*
X1043305Y748086D02*
Y748736D01*
X1015040Y745871D02*
X1015690D01*
X1015365Y745546D02*
Y746196D01*
X1013059Y734797D02*
X1013709D01*
X1013384Y734472D02*
Y735122D01*
X1039043Y736630D02*
X1039693D01*
X1039368Y736305D02*
Y736955D01*
X1035360Y717931D02*
X1036010D01*
X1035685Y717606D02*
Y718256D01*
X1032820Y733171D02*
X1033470D01*
X1033145Y732846D02*
Y733496D01*
X1031550Y745871D02*
X1032200D01*
X1031875Y745546D02*
Y746196D01*
X1035360Y728091D02*
X1036010D01*
X1035685Y727766D02*
Y728416D01*
X1042980Y742061D02*
X1043630D01*
X1043305Y741736D02*
Y742386D01*
X1044250Y747141D02*
X1044900D01*
X1044575Y746816D02*
Y747466D01*
X1007694Y682084D02*
X1008344D01*
X1008019Y681760D02*
Y682409D01*
X1009971Y685138D02*
X1010621D01*
X1010296Y684813D02*
Y685463D01*
X1013770Y679831D02*
X1014420D01*
X1014095Y679506D02*
Y680156D01*
X1041710Y679831D02*
X1042360D01*
X1042035Y679506D02*
Y680156D01*
X1042980Y701421D02*
X1043630D01*
X1043305Y701096D02*
Y701746D01*
X1015040Y698881D02*
X1015690D01*
X1015365Y698556D02*
Y699206D01*
X1013059Y687807D02*
X1013709D01*
X1013384Y687482D02*
Y688132D01*
X1039043Y689641D02*
X1039693D01*
X1039368Y689315D02*
Y689965D01*
X1035360Y670941D02*
X1036010D01*
X1035685Y670616D02*
Y671266D01*
X1032820Y686181D02*
X1033470D01*
X1033145Y685856D02*
Y686506D01*
X1031550Y698881D02*
X1032200D01*
X1031875Y698556D02*
Y699206D01*
X1035360Y681101D02*
X1036010D01*
X1035685Y680776D02*
Y681426D01*
X1042980Y695071D02*
X1043630D01*
X1043305Y694746D02*
Y695396D01*
X1044250Y700151D02*
X1044900D01*
X1044575Y699826D02*
Y700476D01*
X1007694Y635094D02*
X1008344D01*
X1008019Y634769D02*
Y635419D01*
X1009971Y638148D02*
X1010621D01*
X1010296Y637823D02*
Y638473D01*
X1013770Y632841D02*
X1014420D01*
X1014095Y632516D02*
Y633166D01*
X1041710Y632841D02*
X1042360D01*
X1042035Y632516D02*
Y633166D01*
X1042980Y654431D02*
X1043630D01*
X1043305Y654106D02*
Y654756D01*
X1015040Y651891D02*
X1015690D01*
X1015365Y651566D02*
Y652216D01*
X1013059Y640817D02*
X1013709D01*
X1013384Y640492D02*
Y641142D01*
X1039043Y642650D02*
X1039693D01*
X1039368Y642326D02*
Y642975D01*
X1035360Y623951D02*
X1036010D01*
X1035685Y623626D02*
Y624276D01*
X1032820Y639191D02*
X1033470D01*
X1033145Y638866D02*
Y639516D01*
X1031550Y651891D02*
X1032200D01*
X1031875Y651566D02*
Y652216D01*
X1035360Y634111D02*
X1036010D01*
X1035685Y633786D02*
Y634436D01*
X1042980Y648081D02*
X1043630D01*
X1043305Y647756D02*
Y648406D01*
X1044250Y653161D02*
X1044900D01*
X1044575Y652836D02*
Y653486D01*
X968906Y714736D02*
X969556D01*
X969232Y714411D02*
Y715061D01*
X971960Y712459D02*
X972610D01*
X972285Y712134D02*
Y712784D01*
X966653Y708660D02*
X967303D01*
X966978Y708335D02*
Y708985D01*
X966653Y680720D02*
X967303D01*
X966978Y680395D02*
Y681045D01*
X988243Y679450D02*
X988893D01*
X988568Y679125D02*
Y679775D01*
X985703Y707390D02*
X986353D01*
X986028Y707065D02*
Y707715D01*
X974629Y709371D02*
X975279D01*
X974954Y709046D02*
Y709696D01*
X976462Y683387D02*
X977112D01*
X976787Y683062D02*
Y683712D01*
X957763Y687070D02*
X958413D01*
X958088Y686745D02*
Y687395D01*
X973003Y689610D02*
X973653D01*
X973328Y689285D02*
Y689935D01*
X985703Y690880D02*
X986353D01*
X986028Y690555D02*
Y691205D01*
X967923Y687070D02*
X968573D01*
X968248Y686745D02*
Y687395D01*
X981893Y679450D02*
X982543D01*
X982218Y679125D02*
Y679775D01*
X986973Y678180D02*
X987623D01*
X987298Y677855D02*
Y678505D01*
X921917Y714736D02*
X922566D01*
X922242Y714411D02*
Y715061D01*
X924970Y712459D02*
X925620D01*
X925295Y712134D02*
Y712784D01*
X919663Y708660D02*
X920313D01*
X919988Y708335D02*
Y708985D01*
X919663Y680720D02*
X920313D01*
X919988Y680395D02*
Y681045D01*
X941253Y679450D02*
X941903D01*
X941578Y679125D02*
Y679775D01*
X938713Y707390D02*
X939363D01*
X939038Y707065D02*
Y707715D01*
X927639Y709371D02*
X928289D01*
X927964Y709046D02*
Y709696D01*
X929472Y683387D02*
X930122D01*
X929797Y683062D02*
Y683712D01*
X910773Y687070D02*
X911423D01*
X911098Y686745D02*
Y687395D01*
X926013Y689610D02*
X926663D01*
X926338Y689285D02*
Y689935D01*
X938713Y690880D02*
X939363D01*
X939038Y690555D02*
Y691205D01*
X920933Y687070D02*
X921583D01*
X921258Y686745D02*
Y687395D01*
X934903Y679450D02*
X935553D01*
X935228Y679125D02*
Y679775D01*
X939983Y678180D02*
X940633D01*
X940308Y677855D02*
Y678505D01*
X874927Y714736D02*
X875576D01*
X875251Y714411D02*
Y715061D01*
X877980Y712459D02*
X878630D01*
X878305Y712134D02*
Y712784D01*
X872673Y708660D02*
X873323D01*
X872998Y708335D02*
Y708985D01*
X872673Y680720D02*
X873323D01*
X872998Y680395D02*
Y681045D01*
X894263Y679450D02*
X894913D01*
X894588Y679125D02*
Y679775D01*
X891723Y707390D02*
X892373D01*
X892048Y707065D02*
Y707715D01*
X880649Y709371D02*
X881299D01*
X880974Y709046D02*
Y709696D01*
X882482Y683387D02*
X883132D01*
X882807Y683062D02*
Y683712D01*
X863783Y687070D02*
X864433D01*
X864108Y686745D02*
Y687395D01*
X879023Y689610D02*
X879673D01*
X879348Y689285D02*
Y689935D01*
X891723Y690880D02*
X892373D01*
X892048Y690555D02*
Y691205D01*
X873943Y687070D02*
X874593D01*
X874268Y686745D02*
Y687395D01*
X887913Y679450D02*
X888563D01*
X888238Y679125D02*
Y679775D01*
X892993Y678180D02*
X893643D01*
X893318Y677855D02*
Y678505D01*
X969795Y664825D02*
X970445D01*
X970120Y664500D02*
Y665150D01*
X972849Y662548D02*
X973499D01*
X973174Y662223D02*
Y662873D01*
X967542Y658749D02*
X968192D01*
X967867Y658424D02*
Y659074D01*
X967542Y630809D02*
X968192D01*
X967867Y630484D02*
Y631134D01*
X989132Y629539D02*
X989782D01*
X989457Y629214D02*
Y629864D01*
X986592Y657479D02*
X987242D01*
X986917Y657154D02*
Y657804D01*
X975518Y659460D02*
X976168D01*
X975843Y659135D02*
Y659785D01*
X977352Y633476D02*
X978001D01*
X977676Y633151D02*
Y633801D01*
X958652Y637159D02*
X959302D01*
X958977Y636834D02*
Y637484D01*
X973892Y639699D02*
X974542D01*
X974217Y639374D02*
Y640024D01*
X986592Y640969D02*
X987242D01*
X986917Y640644D02*
Y641294D01*
X968812Y637159D02*
X969462D01*
X969137Y636834D02*
Y637484D01*
X982782Y629539D02*
X983432D01*
X983107Y629214D02*
Y629864D01*
X987862Y628269D02*
X988512D01*
X988187Y627944D02*
Y628594D01*
X922805Y664825D02*
X923456D01*
X923130Y664500D02*
Y665150D01*
X925859Y662548D02*
X926509D01*
X926184Y662223D02*
Y662873D01*
X920552Y658749D02*
X921202D01*
X920877Y658424D02*
Y659074D01*
X920552Y630809D02*
X921202D01*
X920877Y630484D02*
Y631134D01*
X942142Y629539D02*
X942792D01*
X942467Y629214D02*
Y629864D01*
X939602Y657479D02*
X940252D01*
X939927Y657154D02*
Y657804D01*
X928528Y659460D02*
X929178D01*
X928853Y659135D02*
Y659785D01*
X930362Y633476D02*
X931011D01*
X930686Y633151D02*
Y633801D01*
X911662Y637159D02*
X912312D01*
X911987Y636834D02*
Y637484D01*
X926902Y639699D02*
X927552D01*
X927227Y639374D02*
Y640024D01*
X939602Y640969D02*
X940252D01*
X939927Y640644D02*
Y641294D01*
X921822Y637159D02*
X922472D01*
X922147Y636834D02*
Y637484D01*
X935792Y629539D02*
X936442D01*
X936117Y629214D02*
Y629864D01*
X940872Y628269D02*
X941522D01*
X941197Y627944D02*
Y628594D01*
X875815Y664825D02*
X876465D01*
X876141Y664500D02*
Y665150D01*
X878869Y662548D02*
X879519D01*
X879194Y662223D02*
Y662873D01*
X873562Y658749D02*
X874212D01*
X873887Y658424D02*
Y659074D01*
X873562Y630809D02*
X874212D01*
X873887Y630484D02*
Y631134D01*
X895152Y629539D02*
X895802D01*
X895477Y629214D02*
Y629864D01*
X892612Y657479D02*
X893262D01*
X892937Y657154D02*
Y657804D01*
X881538Y659460D02*
X882188D01*
X881863Y659135D02*
Y659785D01*
X883371Y633476D02*
X884021D01*
X883696Y633151D02*
Y633801D01*
X864672Y637159D02*
X865322D01*
X864997Y636834D02*
Y637484D01*
X879912Y639699D02*
X880562D01*
X880237Y639374D02*
Y640024D01*
X892612Y640969D02*
X893262D01*
X892937Y640644D02*
Y641294D01*
X874832Y637159D02*
X875482D01*
X875157Y636834D02*
Y637484D01*
X888802Y629539D02*
X889452D01*
X889127Y629214D02*
Y629864D01*
X893882Y628269D02*
X894532D01*
X894207Y627944D02*
Y628594D01*
M02*
