G04 Layer_Color=2752767*
%FSLAX43Y43*%
%MOMM*%
G71*
G01*
G75*
%ADD31C,0.254*%
%ADD41C,0.000*%
%ADD70C,0.051*%
%ADD71C,0.068*%
%ADD72C,0.034*%
D31*
X1056640Y551942D02*
Y768096D01*
X1056513Y767715D02*
X1056767Y767969D01*
X856869D02*
X1056767D01*
X856742Y767842D02*
X856869Y767969D01*
X856742Y551815D02*
Y767842D01*
Y551815D02*
X1056513D01*
D41*
X953770Y719455D02*
Y723265D01*
Y719455D02*
X958850D01*
X998220D02*
X1000760D01*
Y723265D01*
Y761365D02*
Y766445D01*
X999490D02*
X1000760D01*
X995680D02*
X999490D01*
X953770D02*
X960120D01*
X953770Y760095D02*
Y766445D01*
X958850Y719455D02*
X960120D01*
X995680D02*
X998220D01*
X953770Y723265D02*
Y760095D01*
X958850Y766445D02*
X960120D01*
X995680D01*
X1000760Y723265D02*
Y761365D01*
X960120Y719455D02*
X995680D01*
X958850D02*
X960120D01*
X906780D02*
Y723265D01*
Y719455D02*
X911860D01*
X951230D02*
X953770D01*
Y723265D01*
Y761365D02*
Y766445D01*
X952500D02*
X953770D01*
X948690D02*
X952500D01*
X906780D02*
X913130D01*
X906780Y760095D02*
Y766445D01*
X911860Y719455D02*
X913130D01*
X948690D02*
X951230D01*
X906780Y723265D02*
Y760095D01*
X911860Y766445D02*
X913130D01*
X948690D01*
X953770Y723265D02*
Y761365D01*
X913130Y719455D02*
X948690D01*
X911860D02*
X913130D01*
X859790D02*
Y723265D01*
Y719455D02*
X864870D01*
X904240D02*
X906780D01*
Y723265D01*
Y761365D02*
Y766445D01*
X905510D02*
X906780D01*
X901700D02*
X905510D01*
X859790D02*
X866140D01*
X859790Y760095D02*
Y766445D01*
X864870Y719455D02*
X866140D01*
X901700D02*
X904240D01*
X859790Y723265D02*
Y760095D01*
X864870Y766445D02*
X866140D01*
X901700D01*
X906780Y723265D02*
Y761365D01*
X866140Y719455D02*
X901700D01*
X864870D02*
X866140D01*
X1042296Y558887D02*
X1047274Y558876D01*
X1047249Y561300D02*
X1047263Y558800D01*
X1047249Y599288D02*
Y610433D01*
X1045522Y612151D02*
X1047249Y610433D01*
X1048385Y714121D02*
X1052195D01*
Y719201D01*
Y758571D02*
Y761111D01*
X1048385D02*
X1052195D01*
X1005205D02*
X1010285D01*
X1005205Y759841D02*
Y761111D01*
Y756031D02*
Y759841D01*
Y714121D02*
Y720471D01*
Y714121D02*
X1011555D01*
X1052195Y719201D02*
Y720471D01*
Y756031D02*
Y758571D01*
X1011555Y714121D02*
X1048385D01*
X1005205Y719201D02*
Y720471D01*
Y756031D01*
X1010285Y761111D02*
X1048385D01*
X1052195Y720471D02*
Y756031D01*
Y719201D02*
Y720471D01*
X1048385Y667131D02*
X1052195D01*
Y672211D01*
Y711581D02*
Y714121D01*
X1048385D02*
X1052195D01*
X1005205D02*
X1010285D01*
X1005205Y712851D02*
Y714121D01*
Y709041D02*
Y712851D01*
Y667131D02*
Y673481D01*
Y667131D02*
X1011555D01*
X1052195Y672211D02*
Y673481D01*
Y709041D02*
Y711581D01*
X1011555Y667131D02*
X1048385D01*
X1005205Y672211D02*
Y673481D01*
Y709041D01*
X1010285Y714121D02*
X1048385D01*
X1052195Y673481D02*
Y709041D01*
Y672211D02*
Y673481D01*
X1048385Y620141D02*
X1052195D01*
Y625221D01*
Y664591D02*
Y667131D01*
X1048385D02*
X1052195D01*
X1005205D02*
X1010285D01*
X1005205Y665861D02*
Y667131D01*
Y662051D02*
Y665861D01*
Y620141D02*
Y626491D01*
Y620141D02*
X1011555D01*
X1052195Y625221D02*
Y626491D01*
Y662051D02*
Y664591D01*
X1011555Y620141D02*
X1048385D01*
X1005205Y625221D02*
Y626491D01*
Y662051D01*
X1010285Y667131D02*
X1048385D01*
X1052195Y626491D02*
Y662051D01*
Y625221D02*
Y626491D01*
X954278Y670560D02*
Y674370D01*
Y670560D02*
X959358D01*
X998728D02*
X1001268D01*
Y674370D01*
Y712470D02*
Y717550D01*
X999998D02*
X1001268D01*
X996188D02*
X999998D01*
X954278D02*
X960628D01*
X954278Y711200D02*
Y717550D01*
X959358Y670560D02*
X960628D01*
X996188D02*
X998728D01*
X954278Y674370D02*
Y711200D01*
X959358Y717550D02*
X960628D01*
X996188D01*
X1001268Y674370D02*
Y712470D01*
X960628Y670560D02*
X996188D01*
X959358D02*
X960628D01*
X907288D02*
Y674370D01*
Y670560D02*
X912368D01*
X951738D02*
X954278D01*
Y674370D01*
Y712470D02*
Y717550D01*
X953008D02*
X954278D01*
X949198D02*
X953008D01*
X907288D02*
X913638D01*
X907288Y711200D02*
Y717550D01*
X912368Y670560D02*
X913638D01*
X949198D02*
X951738D01*
X907288Y674370D02*
Y711200D01*
X912368Y717550D02*
X913638D01*
X949198D01*
X954278Y674370D02*
Y712470D01*
X913638Y670560D02*
X949198D01*
X912368D02*
X913638D01*
X860298D02*
Y674370D01*
Y670560D02*
X865378D01*
X904748D02*
X907288D01*
Y674370D01*
Y712470D02*
Y717550D01*
X906018D02*
X907288D01*
X902208D02*
X906018D01*
X860298D02*
X866648D01*
X860298Y711200D02*
Y717550D01*
X865378Y670560D02*
X866648D01*
X902208D02*
X904748D01*
X860298Y674370D02*
Y711200D01*
X865378Y717550D02*
X866648D01*
X902208D01*
X907288Y674370D02*
Y712470D01*
X866648Y670560D02*
X902208D01*
X865378D02*
X866648D01*
X955167Y620649D02*
Y624459D01*
Y620649D02*
X960247D01*
X999617D02*
X1002157D01*
Y624459D01*
Y662559D02*
Y667639D01*
X1000887D02*
X1002157D01*
X997077D02*
X1000887D01*
X955167D02*
X961517D01*
X955167Y661289D02*
Y667639D01*
X960247Y620649D02*
X961517D01*
X997077D02*
X999617D01*
X955167Y624459D02*
Y661289D01*
X960247Y667639D02*
X961517D01*
X997077D01*
X1002157Y624459D02*
Y662559D01*
X961517Y620649D02*
X997077D01*
X960247D02*
X961517D01*
X908177D02*
Y624459D01*
Y620649D02*
X913257D01*
X952627D02*
X955167D01*
Y624459D01*
Y662559D02*
Y667639D01*
X953897D02*
X955167D01*
X950087D02*
X953897D01*
X908177D02*
X914527D01*
X908177Y661289D02*
Y667639D01*
X913257Y620649D02*
X914527D01*
X950087D02*
X952627D01*
X908177Y624459D02*
Y661289D01*
X913257Y667639D02*
X914527D01*
X950087D01*
X955167Y624459D02*
Y662559D01*
X914527Y620649D02*
X950087D01*
X913257D02*
X914527D01*
X861187D02*
Y624459D01*
Y620649D02*
X866267D01*
X905637D02*
X908177D01*
Y624459D01*
Y662559D02*
Y667639D01*
X906907D02*
X908177D01*
X903097D02*
X906907D01*
X861187D02*
X867537D01*
X861187Y661289D02*
Y667639D01*
X866267Y620649D02*
X867537D01*
X903097D02*
X905637D01*
X861187Y624459D02*
Y661289D01*
X866267Y667639D02*
X867537D01*
X903097D01*
X908177Y624459D02*
Y662559D01*
X867537Y620649D02*
X903097D01*
X866267D02*
X867537D01*
D70*
X989127Y740842D02*
Y741248D01*
X989533D01*
Y740842D01*
X989127D01*
Y738302D02*
Y738708D01*
X989533D01*
Y738302D01*
X989127D01*
X959917Y756082D02*
Y756488D01*
X960323D01*
Y756082D01*
X959917D01*
X962457D02*
Y756488D01*
X962863D01*
Y756082D01*
X962457D01*
X959866Y744398D02*
X959663Y744804D01*
X960069D01*
X959866Y744398D01*
X962406Y741858D02*
X962203Y742264D01*
X962609D01*
X962406Y741858D01*
X957326D02*
X957123Y742264D01*
X957529D01*
X957326Y741858D01*
X994410Y742112D02*
X994207Y742518D01*
X994613D01*
X994410Y742112D01*
X996950Y739572D02*
X996747Y739978D01*
X997153D01*
X996950Y739572D01*
X991870D02*
X991667Y739978D01*
X992073D01*
X991870Y739572D01*
X994410Y752272D02*
X994207Y752678D01*
X994613D01*
X994410Y752272D01*
X996950Y749732D02*
X996747Y750138D01*
X997153D01*
X996950Y749732D01*
X991870D02*
X991667Y750138D01*
X992073D01*
X991870Y749732D01*
X942137Y740842D02*
Y741248D01*
X942543D01*
Y740842D01*
X942137D01*
Y738302D02*
Y738708D01*
X942543D01*
Y738302D01*
X942137D01*
X912927Y756082D02*
Y756488D01*
X913333D01*
Y756082D01*
X912927D01*
X915467D02*
Y756488D01*
X915873D01*
Y756082D01*
X915467D01*
X912876Y744398D02*
X912673Y744804D01*
X913079D01*
X912876Y744398D01*
X915416Y741858D02*
X915213Y742264D01*
X915619D01*
X915416Y741858D01*
X910336D02*
X910133Y742264D01*
X910539D01*
X910336Y741858D01*
X947420Y742112D02*
X947217Y742518D01*
X947623D01*
X947420Y742112D01*
X949960Y739572D02*
X949757Y739978D01*
X950163D01*
X949960Y739572D01*
X944880D02*
X944677Y739978D01*
X945083D01*
X944880Y739572D01*
X947420Y752272D02*
X947217Y752678D01*
X947623D01*
X947420Y752272D01*
X949960Y749732D02*
X949757Y750138D01*
X950163D01*
X949960Y749732D01*
X944880D02*
X944677Y750138D01*
X945083D01*
X944880Y749732D01*
X895147Y740842D02*
Y741248D01*
X895553D01*
Y740842D01*
X895147D01*
Y738302D02*
Y738708D01*
X895553D01*
Y738302D01*
X895147D01*
X865937Y756082D02*
Y756488D01*
X866343D01*
Y756082D01*
X865937D01*
X868477D02*
Y756488D01*
X868883D01*
Y756082D01*
X868477D01*
X865886Y744398D02*
X865683Y744804D01*
X866089D01*
X865886Y744398D01*
X868426Y741858D02*
X868223Y742264D01*
X868629D01*
X868426Y741858D01*
X863346D02*
X863143Y742264D01*
X863549D01*
X863346Y741858D01*
X900430Y742112D02*
X900227Y742518D01*
X900633D01*
X900430Y742112D01*
X902970Y739572D02*
X902767Y739978D01*
X903173D01*
X902970Y739572D01*
X897890D02*
X897687Y739978D01*
X898093D01*
X897890Y739572D01*
X900430Y752272D02*
X900227Y752678D01*
X900633D01*
X900430Y752272D01*
X902970Y749732D02*
X902767Y750138D01*
X903173D01*
X902970Y749732D01*
X897890D02*
X897687Y750138D01*
X898093D01*
X897890Y749732D01*
X957580Y762432D02*
X957682Y762533D01*
X957783D01*
X957682Y762635D01*
X957783Y762737D01*
X957682D01*
X957580Y762838D01*
X957478Y762737D01*
X957377D01*
X957478Y762635D01*
X957377Y762533D01*
X957478D01*
X957580Y762432D01*
X996950D02*
X997052Y762533D01*
X997153D01*
X997052Y762635D01*
X997153Y762737D01*
X997052D01*
X996950Y762838D01*
X996848Y762737D01*
X996747D01*
X996848Y762635D01*
X996747Y762533D01*
X996848D01*
X996950Y762432D01*
Y723062D02*
X997052Y723163D01*
X997153D01*
X997052Y723265D01*
X997153Y723367D01*
X997052D01*
X996950Y723468D01*
X996848Y723367D01*
X996747D01*
X996848Y723265D01*
X996747Y723163D01*
X996848D01*
X996950Y723062D01*
X957580D02*
X957682Y723163D01*
X957783D01*
X957682Y723265D01*
X957783Y723367D01*
X957682D01*
X957580Y723468D01*
X957478Y723367D01*
X957377D01*
X957478Y723265D01*
X957377Y723163D01*
X957478D01*
X957580Y723062D01*
X910590Y762432D02*
X910692Y762533D01*
X910793D01*
X910692Y762635D01*
X910793Y762737D01*
X910692D01*
X910590Y762838D01*
X910488Y762737D01*
X910387D01*
X910488Y762635D01*
X910387Y762533D01*
X910488D01*
X910590Y762432D01*
X949960D02*
X950062Y762533D01*
X950163D01*
X950062Y762635D01*
X950163Y762737D01*
X950062D01*
X949960Y762838D01*
X949858Y762737D01*
X949757D01*
X949858Y762635D01*
X949757Y762533D01*
X949858D01*
X949960Y762432D01*
Y723062D02*
X950062Y723163D01*
X950163D01*
X950062Y723265D01*
X950163Y723367D01*
X950062D01*
X949960Y723468D01*
X949858Y723367D01*
X949757D01*
X949858Y723265D01*
X949757Y723163D01*
X949858D01*
X949960Y723062D01*
X910590D02*
X910692Y723163D01*
X910793D01*
X910692Y723265D01*
X910793Y723367D01*
X910692D01*
X910590Y723468D01*
X910488Y723367D01*
X910387D01*
X910488Y723265D01*
X910387Y723163D01*
X910488D01*
X910590Y723062D01*
X863600Y762432D02*
X863702Y762533D01*
X863803D01*
X863702Y762635D01*
X863803Y762737D01*
X863702D01*
X863600Y762838D01*
X863498Y762737D01*
X863397D01*
X863498Y762635D01*
X863397Y762533D01*
X863498D01*
X863600Y762432D01*
X902970D02*
X903072Y762533D01*
X903173D01*
X903072Y762635D01*
X903173Y762737D01*
X903072D01*
X902970Y762838D01*
X902868Y762737D01*
X902767D01*
X902868Y762635D01*
X902767Y762533D01*
X902868D01*
X902970Y762432D01*
Y723062D02*
X903072Y723163D01*
X903173D01*
X903072Y723265D01*
X903173Y723367D01*
X903072D01*
X902970Y723468D01*
X902868Y723367D01*
X902767D01*
X902868Y723265D01*
X902767Y723163D01*
X902868D01*
X902970Y723062D01*
X863600D02*
X863702Y723163D01*
X863803D01*
X863702Y723265D01*
X863803Y723367D01*
X863702D01*
X863600Y723468D01*
X863498Y723367D01*
X863397D01*
X863498Y723265D01*
X863397Y723163D01*
X863498D01*
X863600Y723062D01*
X1023922Y591876D02*
X1024023Y592080D01*
X1023922Y592283D01*
X1024125Y592181D01*
X1024328Y592283D01*
X1024226Y592080D01*
X1024328Y591876D01*
X1024125Y591978D01*
X1023922Y591876D01*
X1018969Y569270D02*
X1019070Y569474D01*
X1018969Y569677D01*
X1019172Y569575D01*
X1019375Y569677D01*
X1019273Y569474D01*
X1019375Y569270D01*
X1019172Y569372D01*
X1018969Y569270D01*
X1018841Y573588D02*
X1018943Y573792D01*
X1018841Y573995D01*
X1019045Y573893D01*
X1019248Y573995D01*
X1019146Y573792D01*
X1019248Y573588D01*
X1019045Y573690D01*
X1018841Y573588D01*
X1015159Y592257D02*
X1015260Y592461D01*
X1015159Y592664D01*
X1015362Y592562D01*
X1015565Y592664D01*
X1015463Y592461D01*
X1015565Y592257D01*
X1015362Y592359D01*
X1015159Y592257D01*
X1008682Y596575D02*
X1008783Y596779D01*
X1008682Y596982D01*
X1008885Y596880D01*
X1009088Y596982D01*
X1008986Y596779D01*
X1009088Y596575D01*
X1008885Y596677D01*
X1008682Y596575D01*
X1029510Y573334D02*
X1029611Y573538D01*
X1029510Y573741D01*
X1029713Y573639D01*
X1029916Y573741D01*
X1029814Y573538D01*
X1029916Y573334D01*
X1029713Y573436D01*
X1029510Y573334D01*
X1009698Y562031D02*
Y562438D01*
X1010104D01*
Y562031D01*
X1009698D01*
X1007157D02*
Y562438D01*
X1007564D01*
Y562031D01*
X1007157D01*
X1004617D02*
Y562438D01*
X1005024D01*
Y562031D01*
X1004617D01*
X1024531Y594391D02*
Y594289D01*
X1024734D01*
Y594391D01*
X1024836D01*
Y594594D01*
X1024734D01*
Y594696D01*
X1024531D01*
Y594594D01*
X1024429D01*
Y594391D01*
X1024531D01*
X1027071D02*
Y594289D01*
X1027274D01*
Y594391D01*
X1027376D01*
Y594594D01*
X1027274D01*
Y594696D01*
X1027071D01*
Y594594D01*
X1026969D01*
Y594391D01*
X1027071D01*
X1021890Y597718D02*
Y598125D01*
X1022296D01*
Y597718D01*
X1021890D01*
X1024429D02*
Y598125D01*
X1024836D01*
Y597718D01*
X1024429D01*
X1026969D02*
Y598125D01*
X1027376D01*
Y597718D01*
X1026969D01*
X1024277Y570388D02*
Y570286D01*
X1024480D01*
Y570388D01*
X1024582D01*
Y570591D01*
X1024480D01*
Y570693D01*
X1024277D01*
Y570591D01*
X1024176D01*
Y570388D01*
X1024277D01*
X1026817D02*
Y570286D01*
X1027020D01*
Y570388D01*
X1027122D01*
Y570591D01*
X1027020D01*
Y570693D01*
X1026817D01*
Y570591D01*
X1026715D01*
Y570388D01*
X1026817D01*
X1021635Y573588D02*
Y573995D01*
X1022042D01*
Y573588D01*
X1021635D01*
X1024176D02*
Y573995D01*
X1024582D01*
Y573588D01*
X1024176D01*
X1026715D02*
Y573995D01*
X1027122D01*
Y573588D01*
X1026715D01*
X1003322Y596804D02*
Y596702D01*
X1003525D01*
Y596804D01*
X1003627D01*
Y597007D01*
X1003525D01*
Y597109D01*
X1003322D01*
Y597007D01*
X1003221D01*
Y596804D01*
X1003322D01*
X1005862D02*
Y596702D01*
X1006065D01*
Y596804D01*
X1006167D01*
Y597007D01*
X1006065D01*
Y597109D01*
X1005862D01*
Y597007D01*
X1005760D01*
Y596804D01*
X1005862D01*
X1000680Y600131D02*
Y600538D01*
X1001087D01*
Y600131D01*
X1000680D01*
X1003221D02*
Y600538D01*
X1003627D01*
Y600131D01*
X1003221D01*
X1005760D02*
Y600538D01*
X1006167D01*
Y600131D01*
X1005760D01*
X1003195Y580802D02*
Y580700D01*
X1003398D01*
Y580802D01*
X1003500D01*
Y581005D01*
X1003398D01*
Y581107D01*
X1003195D01*
Y581005D01*
X1003094D01*
Y580802D01*
X1003195D01*
X1005735D02*
Y580700D01*
X1005938D01*
Y580802D01*
X1006040D01*
Y581005D01*
X1005938D01*
Y581107D01*
X1005735D01*
Y581005D01*
X1005633D01*
Y580802D01*
X1005735D01*
X1000554Y584129D02*
Y584536D01*
X1000960D01*
Y584129D01*
X1000554D01*
X1003094D02*
Y584536D01*
X1003500D01*
Y584129D01*
X1003094D01*
X1005633D02*
Y584536D01*
X1006040D01*
Y584129D01*
X1005633D01*
X1003068Y566578D02*
Y566476D01*
X1003271D01*
Y566578D01*
X1003373D01*
Y566781D01*
X1003271D01*
Y566883D01*
X1003068D01*
Y566781D01*
X1002966D01*
Y566578D01*
X1003068D01*
X1005608D02*
Y566476D01*
X1005811D01*
Y566578D01*
X1005913D01*
Y566781D01*
X1005811D01*
Y566883D01*
X1005608D01*
Y566781D01*
X1005506D01*
Y566578D01*
X1005608D01*
X1000427Y570032D02*
Y570439D01*
X1000833D01*
Y570032D01*
X1000427D01*
X1002966D02*
Y570439D01*
X1003373D01*
Y570032D01*
X1002966D01*
X1005506D02*
Y570439D01*
X1005913D01*
Y570032D01*
X1005506D01*
X1013228Y596677D02*
Y596575D01*
X1013431D01*
Y596677D01*
X1013533D01*
Y596880D01*
X1013431D01*
Y596982D01*
X1013228D01*
Y596880D01*
X1013127D01*
Y596677D01*
X1013228D01*
X1015768D02*
Y596575D01*
X1015971D01*
Y596677D01*
X1016073D01*
Y596880D01*
X1015971D01*
Y596982D01*
X1015768D01*
Y596880D01*
X1015667D01*
Y596677D01*
X1015768D01*
X1010714Y599877D02*
Y600284D01*
X1011120D01*
Y599877D01*
X1010714D01*
X1013253D02*
Y600284D01*
X1013660D01*
Y599877D01*
X1013253D01*
X1015794D02*
Y600284D01*
X1016200D01*
Y599877D01*
X1015794D01*
X1013355Y570515D02*
Y570413D01*
X1013558D01*
Y570515D01*
X1013660D01*
Y570718D01*
X1013558D01*
Y570820D01*
X1013355D01*
Y570718D01*
X1013253D01*
Y570515D01*
X1013355D01*
X1015895D02*
Y570413D01*
X1016098D01*
Y570515D01*
X1016200D01*
Y570718D01*
X1016098D01*
Y570820D01*
X1015895D01*
Y570718D01*
X1015794D01*
Y570515D01*
X1015895D01*
X1010714Y573842D02*
Y574249D01*
X1011120D01*
Y573842D01*
X1010714D01*
X1013253D02*
Y574249D01*
X1013660D01*
Y573842D01*
X1013253D01*
X1015794D02*
Y574249D01*
X1016200D01*
Y573842D01*
X1015794D01*
X992273Y598709D02*
Y598607D01*
X992476D01*
Y598709D01*
X992578D01*
Y598912D01*
X992476D01*
Y599014D01*
X992273D01*
Y598912D01*
X992172D01*
Y598709D01*
X992273D01*
X994813D02*
Y598607D01*
X995016D01*
Y598709D01*
X995118D01*
Y598912D01*
X995016D01*
Y599014D01*
X994813D01*
Y598912D01*
X994711D01*
Y598709D01*
X994813D01*
X994711Y602417D02*
Y602824D01*
X995118D01*
Y602417D01*
X994711D01*
X992172D02*
Y602824D01*
X992578D01*
Y602417D01*
X992172D01*
X993035Y591724D02*
Y591622D01*
X993238D01*
Y591724D01*
X993340D01*
Y591927D01*
X993238D01*
Y592029D01*
X993035D01*
Y591927D01*
X992933D01*
Y591724D01*
X993035D01*
X995575D02*
Y591622D01*
X995778D01*
Y591724D01*
X995880D01*
Y591927D01*
X995778D01*
Y592029D01*
X995575D01*
Y591927D01*
X995474D01*
Y591724D01*
X995575D01*
X996997Y595051D02*
Y595458D01*
X997404D01*
Y595051D01*
X996997D01*
X994458D02*
Y595458D01*
X994864D01*
Y595051D01*
X994458D01*
X991917D02*
Y595458D01*
X992324D01*
Y595051D01*
X991917D01*
X993289Y581945D02*
Y581843D01*
X993492D01*
Y581945D01*
X993594D01*
Y582148D01*
X993492D01*
Y582250D01*
X993289D01*
Y582148D01*
X993188D01*
Y581945D01*
X993289D01*
X995829D02*
Y581843D01*
X996032D01*
Y581945D01*
X996134D01*
Y582148D01*
X996032D01*
Y582250D01*
X995829D01*
Y582148D01*
X995727D01*
Y581945D01*
X995829D01*
X997125Y585272D02*
Y585679D01*
X997531D01*
Y585272D01*
X997125D01*
X994584D02*
Y585679D01*
X994991D01*
Y585272D01*
X994584D01*
X992044D02*
Y585679D01*
X992451D01*
Y585272D01*
X992044D01*
X993289Y574579D02*
Y574477D01*
X993492D01*
Y574579D01*
X993594D01*
Y574782D01*
X993492D01*
Y574884D01*
X993289D01*
Y574782D01*
X993188D01*
Y574579D01*
X993289D01*
X995829D02*
Y574477D01*
X996032D01*
Y574579D01*
X996134D01*
Y574782D01*
X996032D01*
Y574884D01*
X995829D01*
Y574782D01*
X995727D01*
Y574579D01*
X995829D01*
X996870Y578033D02*
Y578440D01*
X997277D01*
Y578033D01*
X996870D01*
X994331D02*
Y578440D01*
X994737D01*
Y578033D01*
X994331D01*
X991791D02*
Y578440D01*
X992197D01*
Y578033D01*
X991791D01*
X993289Y561371D02*
Y561269D01*
X993492D01*
Y561371D01*
X993594D01*
Y561574D01*
X993492D01*
Y561676D01*
X993289D01*
Y561574D01*
X993188D01*
Y561371D01*
X993289D01*
X995829D02*
Y561269D01*
X996032D01*
Y561371D01*
X996134D01*
Y561574D01*
X996032D01*
Y561676D01*
X995829D01*
Y561574D01*
X995727D01*
Y561371D01*
X995829D01*
X996997Y564698D02*
Y565105D01*
X997404D01*
Y564698D01*
X996997D01*
X994458D02*
Y565105D01*
X994864D01*
Y564698D01*
X994458D01*
X991917D02*
Y565105D01*
X992324D01*
Y564698D01*
X991917D01*
X1044724Y565054D02*
Y564952D01*
X1044927D01*
Y565054D01*
X1045029D01*
Y565257D01*
X1044927D01*
Y565359D01*
X1044724D01*
Y565257D01*
X1044623D01*
Y565054D01*
X1044724D01*
Y570134D02*
Y570032D01*
X1044927D01*
Y570134D01*
X1045029D01*
Y570337D01*
X1044927D01*
Y570439D01*
X1044724D01*
Y570337D01*
X1044623D01*
Y570134D01*
X1044724D01*
X1043479Y584002D02*
Y584409D01*
X1043886D01*
Y584002D01*
X1043479D01*
Y586542D02*
Y586949D01*
X1043886D01*
Y586542D01*
X1043479D01*
Y589082D02*
Y589489D01*
X1043886D01*
Y589082D01*
X1043479D01*
Y591622D02*
Y592029D01*
X1043886D01*
Y591622D01*
X1043479D01*
Y594162D02*
Y594569D01*
X1043886D01*
Y594162D01*
X1043479D01*
Y596702D02*
Y597109D01*
X1043886D01*
Y596702D01*
X1043479D01*
Y599242D02*
Y599649D01*
X1043886D01*
Y599242D01*
X1043479D01*
Y601782D02*
Y602189D01*
X1043886D01*
Y601782D01*
X1043479D01*
X1033319Y581589D02*
Y581996D01*
X1033726D01*
Y581589D01*
X1033319D01*
Y584129D02*
Y584536D01*
X1033726D01*
Y584129D01*
X1033319D01*
Y586669D02*
Y587076D01*
X1033726D01*
Y586669D01*
X1033319D01*
Y589209D02*
Y589616D01*
X1033726D01*
Y589209D01*
X1033319D01*
Y591749D02*
Y592156D01*
X1033726D01*
Y591749D01*
X1033319D01*
Y594289D02*
Y594696D01*
X1033726D01*
Y594289D01*
X1033319D01*
Y596829D02*
Y597236D01*
X1033726D01*
Y596829D01*
X1033319D01*
Y599369D02*
Y599776D01*
X1033726D01*
Y599369D01*
X1033319D01*
X1021458Y584282D02*
Y584688D01*
X1021864D01*
Y584282D01*
X1021458D01*
Y588803D02*
Y589209D01*
X1021864D01*
Y588803D01*
X1021458D01*
X1014955Y584282D02*
Y584688D01*
X1015362D01*
Y584282D01*
X1014955D01*
Y588803D02*
Y589209D01*
X1015362D01*
Y588803D01*
X1014955D01*
X1016149Y582072D02*
Y581970D01*
X1016352D01*
Y582072D01*
X1016454D01*
Y582275D01*
X1016352D01*
Y582377D01*
X1016149D01*
Y582275D01*
X1016047D01*
Y582072D01*
X1016149D01*
X1021229D02*
Y581970D01*
X1021432D01*
Y582072D01*
X1021534D01*
Y582275D01*
X1021432D01*
Y582377D01*
X1021229D01*
Y582275D01*
X1021128D01*
Y582072D01*
X1021229D01*
X996744Y607624D02*
X996845Y607828D01*
X996744Y608031D01*
X996947Y607929D01*
X997150Y608031D01*
X997048Y607828D01*
X997150Y607624D01*
X996947Y607726D01*
X996744Y607624D01*
X1042184Y565054D02*
Y564952D01*
X1042387D01*
Y565054D01*
X1042489D01*
Y565257D01*
X1042387D01*
Y565359D01*
X1042184D01*
Y565257D01*
X1042083D01*
Y565054D01*
X1042184D01*
Y570134D02*
Y570032D01*
X1042387D01*
Y570134D01*
X1042489D01*
Y570337D01*
X1042387D01*
Y570439D01*
X1042184D01*
Y570337D01*
X1042083D01*
Y570134D01*
X1042184D01*
X1039644Y565054D02*
Y564952D01*
X1039847D01*
Y565054D01*
X1039949D01*
Y565257D01*
X1039847D01*
Y565359D01*
X1039644D01*
Y565257D01*
X1039542D01*
Y565054D01*
X1039644D01*
Y570134D02*
Y570032D01*
X1039847D01*
Y570134D01*
X1039949D01*
Y570337D01*
X1039847D01*
Y570439D01*
X1039644D01*
Y570337D01*
X1039542D01*
Y570134D01*
X1039644D01*
X1037104Y565054D02*
Y564952D01*
X1037307D01*
Y565054D01*
X1037409D01*
Y565257D01*
X1037307D01*
Y565359D01*
X1037104D01*
Y565257D01*
X1037002D01*
Y565054D01*
X1037104D01*
Y570134D02*
Y570032D01*
X1037307D01*
Y570134D01*
X1037409D01*
Y570337D01*
X1037307D01*
Y570439D01*
X1037104D01*
Y570337D01*
X1037002D01*
Y570134D01*
X1037104D01*
X1034564Y565054D02*
Y564952D01*
X1034767D01*
Y565054D01*
X1034869D01*
Y565257D01*
X1034767D01*
Y565359D01*
X1034564D01*
Y565257D01*
X1034463D01*
Y565054D01*
X1034564D01*
Y570134D02*
Y570032D01*
X1034767D01*
Y570134D01*
X1034869D01*
Y570337D01*
X1034767D01*
Y570439D01*
X1034564D01*
Y570337D01*
X1034463D01*
Y570134D01*
X1034564D01*
X1031897Y565054D02*
Y564952D01*
X1032100D01*
Y565054D01*
X1032202D01*
Y565257D01*
X1032100D01*
Y565359D01*
X1031897D01*
Y565257D01*
X1031796D01*
Y565054D01*
X1031897D01*
Y570134D02*
Y570032D01*
X1032100D01*
Y570134D01*
X1032202D01*
Y570337D01*
X1032100D01*
Y570439D01*
X1031897D01*
Y570337D01*
X1031796D01*
Y570134D01*
X1031897D01*
X1031922Y572826D02*
Y573233D01*
X1032329D01*
Y572826D01*
X1031922D01*
X1034463D02*
Y573233D01*
X1034869D01*
Y572826D01*
X1034463D01*
X1037002D02*
Y573233D01*
X1037409D01*
Y572826D01*
X1037002D01*
X1039542D02*
Y573233D01*
X1039949D01*
Y572826D01*
X1039542D01*
X1042083D02*
Y573233D01*
X1042489D01*
Y572826D01*
X1042083D01*
X1044623D02*
Y573233D01*
X1045029D01*
Y572826D01*
X1044623D01*
X1031796Y561142D02*
Y561549D01*
X1032202D01*
Y561142D01*
X1031796D01*
X1034335D02*
Y561549D01*
X1034742D01*
Y561142D01*
X1034335D01*
X1036875D02*
Y561549D01*
X1037282D01*
Y561142D01*
X1036875D01*
X1039416D02*
Y561549D01*
X1039822D01*
Y561142D01*
X1039416D01*
X1041955D02*
Y561549D01*
X1042362D01*
Y561142D01*
X1041955D01*
X1044495D02*
Y561549D01*
X1044902D01*
Y561142D01*
X1044495D01*
X1026589Y564952D02*
Y565359D01*
X1026995D01*
Y564952D01*
X1026589D01*
X1024048D02*
Y565359D01*
X1024455D01*
Y564952D01*
X1024048D01*
X1021508D02*
Y565359D01*
X1021915D01*
Y564952D01*
X1021508D01*
X1018969D02*
Y565359D01*
X1019375D01*
Y564952D01*
X1018969D01*
X1016429D02*
Y565359D01*
X1016835D01*
Y564952D01*
X1016429D01*
X1013888D02*
Y565359D01*
X1014295D01*
Y564952D01*
X1013888D01*
X1026589Y561269D02*
Y561676D01*
X1026995D01*
Y561269D01*
X1026589D01*
X1024048D02*
Y561676D01*
X1024455D01*
Y561269D01*
X1024048D01*
X1021508D02*
Y561676D01*
X1021915D01*
Y561269D01*
X1021508D01*
X1018969D02*
Y561676D01*
X1019375D01*
Y561269D01*
X1018969D01*
X1016429D02*
Y561676D01*
X1016835D01*
Y561269D01*
X1016429D01*
X1013888D02*
Y561676D01*
X1014295D01*
Y561269D01*
X1013888D01*
X1044369Y609402D02*
Y609809D01*
X1044775D01*
Y609402D01*
X1044369D01*
X1041828D02*
Y609809D01*
X1042235D01*
Y609402D01*
X1041828D01*
X1039288D02*
Y609809D01*
X1039695D01*
Y609402D01*
X1039288D01*
X1036749D02*
Y609809D01*
X1037155D01*
Y609402D01*
X1036749D01*
X1034208D02*
Y609809D01*
X1034615D01*
Y609402D01*
X1034208D01*
X1031668D02*
Y609809D01*
X1032075D01*
Y609402D01*
X1031668D01*
X1029129D02*
Y609809D01*
X1029535D01*
Y609402D01*
X1029129D01*
X1026589D02*
Y609809D01*
X1026995D01*
Y609402D01*
X1026589D01*
X1044369Y605592D02*
Y605999D01*
X1044775D01*
Y605592D01*
X1044369D01*
X1041828D02*
Y605999D01*
X1042235D01*
Y605592D01*
X1041828D01*
X1039288D02*
Y605999D01*
X1039695D01*
Y605592D01*
X1039288D01*
X1036749D02*
Y605999D01*
X1037155D01*
Y605592D01*
X1036749D01*
X1034208D02*
Y605999D01*
X1034615D01*
Y605592D01*
X1034208D01*
X1031668D02*
Y605999D01*
X1032075D01*
Y605592D01*
X1031668D01*
X1029129D02*
Y605999D01*
X1029535D01*
Y605592D01*
X1029129D01*
X1026589D02*
Y605999D01*
X1026995D01*
Y605592D01*
X1026589D01*
X1004872Y609402D02*
Y609809D01*
X1005278D01*
Y609402D01*
X1004872D01*
X1007411D02*
Y609809D01*
X1007818D01*
Y609402D01*
X1007411D01*
X1009951D02*
Y609809D01*
X1010358D01*
Y609402D01*
X1009951D01*
X1012492D02*
Y609809D01*
X1012898D01*
Y609402D01*
X1012492D01*
X1015031D02*
Y609809D01*
X1015438D01*
Y609402D01*
X1015031D01*
X1017571D02*
Y609809D01*
X1017978D01*
Y609402D01*
X1017571D01*
X1020112D02*
Y609809D01*
X1020518D01*
Y609402D01*
X1020112D01*
X1022651D02*
Y609809D01*
X1023058D01*
Y609402D01*
X1022651D01*
X1004872Y605592D02*
Y605999D01*
X1005278D01*
Y605592D01*
X1004872D01*
X1007411D02*
Y605999D01*
X1007818D01*
Y605592D01*
X1007411D01*
X1009951D02*
Y605999D01*
X1010358D01*
Y605592D01*
X1009951D01*
X1012492D02*
Y605999D01*
X1012898D01*
Y605592D01*
X1012492D01*
X1015031D02*
Y605999D01*
X1015438D01*
Y605592D01*
X1015031D01*
X1017571D02*
Y605999D01*
X1017978D01*
Y605592D01*
X1017571D01*
X1020112D02*
Y605999D01*
X1020518D01*
Y605592D01*
X1020112D01*
X1022651D02*
Y605999D01*
X1023058D01*
Y605592D01*
X1022651D01*
X1024775Y583896D02*
Y583794D01*
X1024978D01*
Y583896D01*
X1025080D01*
Y584099D01*
X1024978D01*
Y584201D01*
X1024775D01*
Y584099D01*
X1024673D01*
Y583896D01*
X1024775D01*
Y588976D02*
Y588874D01*
X1024978D01*
Y588976D01*
X1025080D01*
Y589179D01*
X1024978D01*
Y589281D01*
X1024775D01*
Y589179D01*
X1024673D01*
Y588976D01*
X1024775D01*
X1047554Y564907D02*
X1047655D01*
X1047757Y565008D01*
X1047859Y564907D01*
X1047960D01*
Y565008D01*
X1047859Y565110D01*
X1047960Y565211D01*
Y565313D01*
X1047859D01*
X1047757Y565211D01*
X1047655Y565313D01*
X1047554D01*
Y565211D01*
X1047655Y565110D01*
X1047554Y565008D01*
Y564907D01*
X983419Y609230D02*
X983520D01*
X983622Y609331D01*
X983723Y609230D01*
X983825D01*
Y609331D01*
X983723Y609433D01*
X983825Y609534D01*
Y609636D01*
X983723D01*
X983622Y609534D01*
X983520Y609636D01*
X983419D01*
Y609534D01*
X983520Y609433D01*
X983419Y609331D01*
Y609230D01*
X983292Y560589D02*
X983393D01*
X983495Y560690D01*
X983596Y560589D01*
X983698D01*
Y560690D01*
X983596Y560792D01*
X983698Y560893D01*
Y560995D01*
X983596D01*
X983495Y560893D01*
X983393Y560995D01*
X983292D01*
Y560893D01*
X983393Y560792D01*
X983292Y560690D01*
Y560589D01*
X1001072Y561605D02*
X1001173D01*
X1001275Y561706D01*
X1001376Y561605D01*
X1001478D01*
Y561706D01*
X1001376Y561808D01*
X1001478Y561909D01*
Y562011D01*
X1001376D01*
X1001275Y561909D01*
X1001173Y562011D01*
X1001072D01*
Y561909D01*
X1001173Y561808D01*
X1001072Y561706D01*
Y561605D01*
X1000310Y609357D02*
X1000411D01*
X1000513Y609458D01*
X1000614Y609357D01*
X1000716D01*
Y609458D01*
X1000614Y609560D01*
X1000716Y609661D01*
Y609763D01*
X1000614D01*
X1000513Y609661D01*
X1000411Y609763D01*
X1000310D01*
Y609661D01*
X1000411Y609560D01*
X1000310Y609458D01*
Y609357D01*
X1047808Y593736D02*
X1047909D01*
X1048011Y593837D01*
X1048112Y593736D01*
X1048214D01*
Y593837D01*
X1048112Y593939D01*
X1048214Y594040D01*
Y594142D01*
X1048112D01*
X1048011Y594040D01*
X1047909Y594142D01*
X1047808D01*
Y594040D01*
X1047909Y593939D01*
X1047808Y593837D01*
Y593736D01*
X970966Y593522D02*
Y593928D01*
X971372D01*
Y593522D01*
X970966D01*
Y596062D02*
Y596468D01*
X971372D01*
Y596062D01*
X970966D01*
Y598602D02*
Y599008D01*
X971372D01*
Y598602D01*
X970966D01*
X958901Y612572D02*
Y612978D01*
X959307D01*
Y612572D01*
X958901D01*
X961441D02*
Y612978D01*
X961847D01*
Y612572D01*
X961441D01*
X963981D02*
Y612978D01*
X964387D01*
Y612572D01*
X963981D01*
X923341Y599237D02*
Y599643D01*
X923747D01*
Y599237D01*
X923341D01*
Y596697D02*
Y597103D01*
X923747D01*
Y596697D01*
X923341D01*
Y594157D02*
Y594563D01*
X923747D01*
Y594157D01*
X923341D01*
X963346Y560502D02*
Y560908D01*
X963752D01*
Y560502D01*
X963346D01*
X965886D02*
Y560908D01*
X966292D01*
Y560502D01*
X965886D01*
X968426D02*
Y560908D01*
X968832D01*
Y560502D01*
X968426D01*
X930643Y612572D02*
Y612978D01*
X931050D01*
Y612572D01*
X930643D01*
X933183D02*
Y612978D01*
X933590D01*
Y612572D01*
X933183D01*
X935723D02*
Y612978D01*
X936130D01*
Y612572D01*
X935723D01*
X938263D02*
Y612978D01*
X938670D01*
Y612572D01*
X938263D01*
X940803D02*
Y612978D01*
X941210D01*
Y612572D01*
X940803D01*
X943343D02*
Y612978D01*
X943750D01*
Y612572D01*
X943343D01*
X945883D02*
Y612978D01*
X946290D01*
Y612572D01*
X945883D01*
X948423D02*
Y612978D01*
X948830D01*
Y612572D01*
X948423D01*
X950963D02*
Y612978D01*
X951370D01*
Y612572D01*
X950963D01*
X953503D02*
Y612978D01*
X953910D01*
Y612572D01*
X953503D01*
X945032Y606323D02*
Y606222D01*
X945236D01*
Y606323D01*
X945337D01*
Y606527D01*
X945236D01*
Y606628D01*
X945032D01*
Y606527D01*
X944931D01*
Y606323D01*
X945032D01*
Y603783D02*
Y603682D01*
X945236D01*
Y603783D01*
X945337D01*
Y603987D01*
X945236D01*
Y604088D01*
X945032D01*
Y603987D01*
X944931D01*
Y603783D01*
X945032D01*
X952652D02*
Y603682D01*
X952856D01*
Y603783D01*
X952957D01*
Y603987D01*
X952856D01*
Y604088D01*
X952652D01*
Y603987D01*
X952551D01*
Y603783D01*
X952652D01*
Y606323D02*
Y606222D01*
X952856D01*
Y606323D01*
X952957D01*
Y606527D01*
X952856D01*
Y606628D01*
X952652D01*
Y606527D01*
X952551D01*
Y606323D01*
X952652D01*
X945032Y601243D02*
Y601142D01*
X945236D01*
Y601243D01*
X945337D01*
Y601447D01*
X945236D01*
Y601548D01*
X945032D01*
Y601447D01*
X944931D01*
Y601243D01*
X945032D01*
Y598703D02*
Y598602D01*
X945236D01*
Y598703D01*
X945337D01*
Y598907D01*
X945236D01*
Y599008D01*
X945032D01*
Y598907D01*
X944931D01*
Y598703D01*
X945032D01*
X952652Y601243D02*
Y601142D01*
X952856D01*
Y601243D01*
X952957D01*
Y601447D01*
X952856D01*
Y601548D01*
X952652D01*
Y601447D01*
X952551D01*
Y601243D01*
X952652D01*
Y598703D02*
Y598602D01*
X952856D01*
Y598703D01*
X952957D01*
Y598907D01*
X952856D01*
Y599008D01*
X952652D01*
Y598907D01*
X952551D01*
Y598703D01*
X952652D01*
X945032Y575843D02*
Y575742D01*
X945236D01*
Y575843D01*
X945337D01*
Y576047D01*
X945236D01*
Y576148D01*
X945032D01*
Y576047D01*
X944931D01*
Y575843D01*
X945032D01*
Y573303D02*
Y573202D01*
X945236D01*
Y573303D01*
X945337D01*
Y573507D01*
X945236D01*
Y573608D01*
X945032D01*
Y573507D01*
X944931D01*
Y573303D01*
X945032D01*
X952652D02*
Y573202D01*
X952856D01*
Y573303D01*
X952957D01*
Y573507D01*
X952856D01*
Y573608D01*
X952652D01*
Y573507D01*
X952551D01*
Y573303D01*
X952652D01*
Y575843D02*
Y575742D01*
X952856D01*
Y575843D01*
X952957D01*
Y576047D01*
X952856D01*
Y576148D01*
X952652D01*
Y576047D01*
X952551D01*
Y575843D01*
X952652D01*
X945032Y570763D02*
Y570662D01*
X945236D01*
Y570763D01*
X945337D01*
Y570967D01*
X945236D01*
Y571068D01*
X945032D01*
Y570967D01*
X944931D01*
Y570763D01*
X945032D01*
Y568223D02*
Y568122D01*
X945236D01*
Y568223D01*
X945337D01*
Y568427D01*
X945236D01*
Y568528D01*
X945032D01*
Y568427D01*
X944931D01*
Y568223D01*
X945032D01*
X952652Y570763D02*
Y570662D01*
X952856D01*
Y570763D01*
X952957D01*
Y570967D01*
X952856D01*
Y571068D01*
X952652D01*
Y570967D01*
X952551D01*
Y570763D01*
X952652D01*
Y568223D02*
Y568122D01*
X952856D01*
Y568223D01*
X952957D01*
Y568427D01*
X952856D01*
Y568528D01*
X952652D01*
Y568427D01*
X952551D01*
Y568223D01*
X952652D01*
X944651Y590448D02*
Y590347D01*
X944855D01*
Y590448D01*
X944956D01*
Y590652D01*
X944855D01*
Y590753D01*
X944651D01*
Y590652D01*
X944550D01*
Y590448D01*
X944651D01*
Y587908D02*
Y587807D01*
X944855D01*
Y587908D01*
X944956D01*
Y588112D01*
X944855D01*
Y588213D01*
X944651D01*
Y588112D01*
X944550D01*
Y587908D01*
X944651D01*
Y585368D02*
Y585267D01*
X944855D01*
Y585368D01*
X944956D01*
Y585572D01*
X944855D01*
Y585673D01*
X944651D01*
Y585572D01*
X944550D01*
Y585368D01*
X944651D01*
Y582828D02*
Y582727D01*
X944855D01*
Y582828D01*
X944956D01*
Y583032D01*
X944855D01*
Y583133D01*
X944651D01*
Y583032D01*
X944550D01*
Y582828D01*
X944651D01*
X953033D02*
Y582727D01*
X953237D01*
Y582828D01*
X953338D01*
Y583032D01*
X953237D01*
Y583133D01*
X953033D01*
Y583032D01*
X952932D01*
Y582828D01*
X953033D01*
Y585368D02*
Y585267D01*
X953237D01*
Y585368D01*
X953338D01*
Y585572D01*
X953237D01*
Y585673D01*
X953033D01*
Y585572D01*
X952932D01*
Y585368D01*
X953033D01*
Y587908D02*
Y587807D01*
X953237D01*
Y587908D01*
X953338D01*
Y588112D01*
X953237D01*
Y588213D01*
X953033D01*
Y588112D01*
X952932D01*
Y587908D01*
X953033D01*
X952932Y590550D02*
X953135Y590753D01*
X953338Y590550D01*
X953135Y590347D01*
X952932Y590550D01*
X923341Y581139D02*
Y581546D01*
X923747D01*
Y581139D01*
X923341D01*
Y578599D02*
Y579006D01*
X923747D01*
Y578599D01*
X923341D01*
X970966Y585267D02*
Y585673D01*
X971372D01*
Y585267D01*
X970966D01*
Y582727D02*
Y583133D01*
X971372D01*
Y582727D01*
X970966D01*
X923341Y567804D02*
Y568211D01*
X923747D01*
Y567804D01*
X923341D01*
Y570344D02*
Y570751D01*
X923747D01*
Y570344D01*
X923341D01*
Y572884D02*
Y573291D01*
X923747D01*
Y572884D01*
X923341D01*
X970966Y569392D02*
Y569798D01*
X971372D01*
Y569392D01*
X970966D01*
Y571932D02*
Y572338D01*
X971372D01*
Y571932D01*
X970966D01*
Y574472D02*
Y574878D01*
X971372D01*
Y574472D01*
X970966D01*
X939851Y560502D02*
Y560908D01*
X940257D01*
Y560502D01*
X939851D01*
X937311D02*
Y560908D01*
X937717D01*
Y560502D01*
X937311D01*
X934771D02*
Y560908D01*
X935177D01*
Y560502D01*
X934771D01*
X946201D02*
Y560908D01*
X946607D01*
Y560502D01*
X946201D01*
X948741D02*
Y560908D01*
X949147D01*
Y560502D01*
X948741D01*
X951281D02*
Y560908D01*
X951687D01*
Y560502D01*
X951281D01*
X923341Y588442D02*
Y588848D01*
X923747D01*
Y588442D01*
X923341D01*
Y585902D02*
Y586308D01*
X923747D01*
Y585902D01*
X923341D01*
X962838Y600507D02*
Y600913D01*
X963244D01*
Y600507D01*
X962838D01*
X960044D02*
Y600913D01*
X960450D01*
Y600507D01*
X960044D01*
X962838Y606857D02*
Y607263D01*
X963244D01*
Y606857D01*
X962838D01*
X960044D02*
Y607263D01*
X960450D01*
Y606857D01*
X960044D01*
X971601Y611302D02*
Y611708D01*
X972007D01*
Y611302D01*
X971601D01*
X971702Y611403D02*
Y611607D01*
X971906D01*
Y611403D01*
X971702D01*
X923341Y612572D02*
Y612978D01*
X923747D01*
Y612572D01*
X923341D01*
X923442Y612673D02*
Y612877D01*
X923646D01*
Y612673D01*
X923442D01*
X928421Y560502D02*
Y560908D01*
X928827D01*
Y560502D01*
X928421D01*
X928522Y560603D02*
Y560807D01*
X928726D01*
Y560603D01*
X928522D01*
X956361Y560502D02*
Y560908D01*
X956767D01*
Y560502D01*
X956361D01*
X956462Y560603D02*
Y560807D01*
X956666D01*
Y560603D01*
X956462D01*
X876706Y596925D02*
Y596824D01*
X876910D01*
Y596925D01*
X877011D01*
Y597129D01*
X876910D01*
Y597230D01*
X876706D01*
Y597129D01*
X876605D01*
Y596925D01*
X876706D01*
Y589305D02*
Y589204D01*
X876910D01*
Y589305D01*
X877011D01*
Y589509D01*
X876910D01*
Y589610D01*
X876706D01*
Y589509D01*
X876605D01*
Y589305D01*
X876706D01*
X880516Y599465D02*
Y599364D01*
X880720D01*
Y599465D01*
X880821D01*
Y599669D01*
X880720D01*
Y599770D01*
X880516D01*
Y599669D01*
X880415D01*
Y599465D01*
X880516D01*
X888136D02*
Y599364D01*
X888340D01*
Y599465D01*
X888441D01*
Y599669D01*
X888340D01*
Y599770D01*
X888136D01*
Y599669D01*
X888035D01*
Y599465D01*
X888136D01*
X893216Y586765D02*
Y586664D01*
X893420D01*
Y586765D01*
X893521D01*
Y586969D01*
X893420D01*
Y587070D01*
X893216D01*
Y586969D01*
X893115D01*
Y586765D01*
X893216D01*
Y594385D02*
Y594284D01*
X893420D01*
Y594385D01*
X893521D01*
Y594589D01*
X893420D01*
Y594690D01*
X893216D01*
Y594589D01*
X893115D01*
Y594385D01*
X893216D01*
X875436Y581685D02*
Y581584D01*
X875640D01*
Y581685D01*
X875741D01*
Y581889D01*
X875640D01*
Y581990D01*
X875436D01*
Y581889D01*
X875335D01*
Y581685D01*
X875436D01*
Y574065D02*
Y573964D01*
X875640D01*
Y574065D01*
X875741D01*
Y574269D01*
X875640D01*
Y574370D01*
X875436D01*
Y574269D01*
X875335D01*
Y574065D01*
X875436D01*
X871626Y571525D02*
Y571424D01*
X871830D01*
Y571525D01*
X871931D01*
Y571729D01*
X871830D01*
Y571830D01*
X871626D01*
Y571729D01*
X871525D01*
Y571525D01*
X871626D01*
Y579145D02*
Y579044D01*
X871830D01*
Y579145D01*
X871931D01*
Y579349D01*
X871830D01*
Y579450D01*
X871626D01*
Y579349D01*
X871525D01*
Y579145D01*
X871626D01*
X880516Y566445D02*
Y566344D01*
X880720D01*
Y566445D01*
X880821D01*
Y566649D01*
X880720D01*
Y566750D01*
X880516D01*
Y566649D01*
X880415D01*
Y566445D01*
X880516D01*
X888136D02*
Y566344D01*
X888340D01*
Y566445D01*
X888441D01*
Y566649D01*
X888340D01*
Y566750D01*
X888136D01*
Y566649D01*
X888035D01*
Y566445D01*
X888136D01*
X890676Y582955D02*
Y582854D01*
X890880D01*
Y582955D01*
X890981D01*
Y583159D01*
X890880D01*
Y583260D01*
X890676D01*
Y583159D01*
X890575D01*
Y582955D01*
X890676D01*
X883056D02*
Y582854D01*
X883260D01*
Y582955D01*
X883361D01*
Y583159D01*
X883260D01*
Y583260D01*
X883056D01*
Y583159D01*
X882955D01*
Y582955D01*
X883056D01*
X898296Y577875D02*
Y577774D01*
X898500D01*
Y577875D01*
X898601D01*
Y578079D01*
X898500D01*
Y578180D01*
X898296D01*
Y578079D01*
X898195D01*
Y577875D01*
X898296D01*
Y570255D02*
Y570154D01*
X898500D01*
Y570255D01*
X898601D01*
Y570459D01*
X898500D01*
Y570560D01*
X898296D01*
Y570459D01*
X898195D01*
Y570255D01*
X898296D01*
X870356Y609625D02*
Y609524D01*
X870560D01*
Y609625D01*
X870661D01*
Y609829D01*
X870560D01*
Y609930D01*
X870356D01*
Y609829D01*
X870255D01*
Y609625D01*
X870356D01*
X877976D02*
Y609524D01*
X878180D01*
Y609625D01*
X878281D01*
Y609829D01*
X878180D01*
Y609930D01*
X877976D01*
Y609829D01*
X877875D01*
Y609625D01*
X877976D01*
X903376Y568985D02*
Y568884D01*
X903580D01*
Y568985D01*
X903681D01*
Y569189D01*
X903580D01*
Y569290D01*
X903376D01*
Y569189D01*
X903275D01*
Y568985D01*
X903376D01*
Y576605D02*
Y576504D01*
X903580D01*
Y576605D01*
X903681D01*
Y576809D01*
X903580D01*
Y576910D01*
X903376D01*
Y576809D01*
X903275D01*
Y576605D01*
X903376D01*
X888136Y605815D02*
Y605714D01*
X888340D01*
Y605815D01*
X888441D01*
Y606019D01*
X888340D01*
Y606120D01*
X888136D01*
Y606019D01*
X888035D01*
Y605815D01*
X888136D01*
X880516D02*
Y605714D01*
X880720D01*
Y605815D01*
X880821D01*
Y606019D01*
X880720D01*
Y606120D01*
X880516D01*
Y606019D01*
X880415D01*
Y605815D01*
X880516D01*
X870356Y598195D02*
Y598094D01*
X870560D01*
Y598195D01*
X870661D01*
Y598399D01*
X870560D01*
Y598500D01*
X870356D01*
Y598399D01*
X870255D01*
Y598195D01*
X870356D01*
Y590575D02*
Y590474D01*
X870560D01*
Y590575D01*
X870661D01*
Y590779D01*
X870560D01*
Y590880D01*
X870356D01*
Y590779D01*
X870255D01*
Y590575D01*
X870356D01*
X902106Y607085D02*
Y606984D01*
X902310D01*
Y607085D01*
X902411D01*
Y607289D01*
X902310D01*
Y607390D01*
X902106D01*
Y607289D01*
X902005D01*
Y607085D01*
X902106D01*
X894486D02*
Y606984D01*
X894690D01*
Y607085D01*
X894791D01*
Y607289D01*
X894690D01*
Y607390D01*
X894486D01*
Y607289D01*
X894385D01*
Y607085D01*
X894486D01*
X898195Y612064D02*
Y612470D01*
X898601D01*
Y612064D01*
X898195D01*
X900735D02*
Y612470D01*
X901141D01*
Y612064D01*
X900735D01*
X903275D02*
Y612470D01*
X903681D01*
Y612064D01*
X903275D01*
X867715Y561264D02*
Y561670D01*
X868121D01*
Y561264D01*
X867715D01*
X870255D02*
Y561670D01*
X870661D01*
Y561264D01*
X870255D01*
X907085D02*
Y561670D01*
X907491D01*
Y561264D01*
X907085D01*
X909625D02*
Y561670D01*
X910031D01*
Y561264D01*
X909625D01*
X905916Y584225D02*
Y584124D01*
X906120D01*
Y584225D01*
X906221D01*
Y584429D01*
X906120D01*
Y584530D01*
X905916D01*
Y584429D01*
X905815D01*
Y584225D01*
X905916D01*
Y586765D02*
Y586664D01*
X906120D01*
Y586765D01*
X906221D01*
Y586969D01*
X906120D01*
Y587070D01*
X905916D01*
Y586969D01*
X905815D01*
Y586765D01*
X905916D01*
X898296D02*
Y586664D01*
X898500D01*
Y586765D01*
X898601D01*
Y586969D01*
X898500D01*
Y587070D01*
X898296D01*
Y586969D01*
X898195D01*
Y586765D01*
X898296D01*
Y584225D02*
Y584124D01*
X898500D01*
Y584225D01*
X898601D01*
Y584429D01*
X898500D01*
Y584530D01*
X898296D01*
Y584429D01*
X898195D01*
Y584225D01*
X898296D01*
X905916Y589305D02*
Y589204D01*
X906120D01*
Y589305D01*
X906221D01*
Y589509D01*
X906120D01*
Y589610D01*
X905916D01*
Y589509D01*
X905815D01*
Y589305D01*
X905916D01*
Y591845D02*
Y591744D01*
X906120D01*
Y591845D01*
X906221D01*
Y592049D01*
X906120D01*
Y592150D01*
X905916D01*
Y592049D01*
X905815D01*
Y591845D01*
X905916D01*
X898296Y589305D02*
Y589204D01*
X898500D01*
Y589305D01*
X898601D01*
Y589509D01*
X898500D01*
Y589610D01*
X898296D01*
Y589509D01*
X898195D01*
Y589305D01*
X898296D01*
Y591845D02*
Y591744D01*
X898500D01*
Y591845D01*
X898601D01*
Y592049D01*
X898500D01*
Y592150D01*
X898296D01*
Y592049D01*
X898195D01*
Y591845D01*
X898296D01*
X883056Y575335D02*
Y575234D01*
X883260D01*
Y575335D01*
X883361D01*
Y575539D01*
X883260D01*
Y575640D01*
X883056D01*
Y575539D01*
X882955D01*
Y575335D01*
X883056D01*
X885596D02*
Y575234D01*
X885800D01*
Y575335D01*
X885901D01*
Y575539D01*
X885800D01*
Y575640D01*
X885596D01*
Y575539D01*
X885495D01*
Y575335D01*
X885596D01*
X893216Y600735D02*
Y600634D01*
X893420D01*
Y600735D01*
X893521D01*
Y600939D01*
X893420D01*
Y601040D01*
X893216D01*
Y600939D01*
X893115D01*
Y600735D01*
X893216D01*
X895756D02*
Y600634D01*
X895960D01*
Y600735D01*
X896061D01*
Y600939D01*
X895960D01*
Y601040D01*
X895756D01*
Y600939D01*
X895655D01*
Y600735D01*
X895756D01*
X885596Y593115D02*
Y593014D01*
X885800D01*
Y593115D01*
X885901D01*
Y593319D01*
X885800D01*
Y593420D01*
X885596D01*
Y593319D01*
X885495D01*
Y593115D01*
X885596D01*
X883056D02*
Y593014D01*
X883260D01*
Y593115D01*
X883361D01*
Y593319D01*
X883260D01*
Y593420D01*
X883056D01*
Y593319D01*
X882955D01*
Y593115D01*
X883056D01*
X897026Y565175D02*
Y565074D01*
X897230D01*
Y565175D01*
X897331D01*
Y565379D01*
X897230D01*
Y565480D01*
X897026D01*
Y565379D01*
X896925D01*
Y565175D01*
X897026D01*
X894486D02*
Y565074D01*
X894690D01*
Y565175D01*
X894791D01*
Y565379D01*
X894690D01*
Y565480D01*
X894486D01*
Y565379D01*
X894385D01*
Y565175D01*
X894486D01*
X905916Y605815D02*
Y605714D01*
X906120D01*
Y605815D01*
X906221D01*
Y606019D01*
X906120D01*
Y606120D01*
X905916D01*
Y606019D01*
X905815D01*
Y605815D01*
X905916D01*
Y600735D02*
Y600634D01*
X906120D01*
Y600735D01*
X906221D01*
Y600939D01*
X906120D01*
Y601040D01*
X905916D01*
Y600939D01*
X905815D01*
Y600735D01*
X905916D01*
X912165Y581584D02*
Y581990D01*
X912571D01*
Y581584D01*
X912165D01*
Y584124D02*
Y584530D01*
X912571D01*
Y584124D01*
X912165D01*
Y586664D02*
Y587070D01*
X912571D01*
Y586664D01*
X912165D01*
Y589204D02*
Y589610D01*
X912571D01*
Y589204D01*
X912165D01*
Y591744D02*
Y592150D01*
X912571D01*
Y591744D01*
X912165D01*
Y594284D02*
Y594690D01*
X912571D01*
Y594284D01*
X912165D01*
Y599364D02*
Y599770D01*
X912571D01*
Y599364D01*
X912165D01*
Y601904D02*
Y602310D01*
X912571D01*
Y601904D01*
X912165D01*
Y604444D02*
Y604850D01*
X912571D01*
Y604444D01*
X912165D01*
Y606984D02*
Y607390D01*
X912571D01*
Y606984D01*
X912165D01*
Y609524D02*
Y609930D01*
X912571D01*
Y609524D01*
X912165D01*
Y612064D02*
Y612470D01*
X912571D01*
Y612064D01*
X912165D01*
X863905D02*
Y612470D01*
X864311D01*
Y612064D01*
X863905D01*
Y609524D02*
Y609930D01*
X864311D01*
Y609524D01*
X863905D01*
Y606984D02*
Y607390D01*
X864311D01*
Y606984D01*
X863905D01*
Y604444D02*
Y604850D01*
X864311D01*
Y604444D01*
X863905D01*
Y601904D02*
Y602310D01*
X864311D01*
Y601904D01*
X863905D01*
Y599364D02*
Y599770D01*
X864311D01*
Y599364D01*
X863905D01*
Y596824D02*
Y597230D01*
X864311D01*
Y596824D01*
X863905D01*
Y594284D02*
Y594690D01*
X864311D01*
Y594284D01*
X863905D01*
Y590474D02*
Y590880D01*
X864311D01*
Y590474D01*
X863905D01*
Y587934D02*
Y588340D01*
X864311D01*
Y587934D01*
X863905D01*
Y585394D02*
Y585800D01*
X864311D01*
Y585394D01*
X863905D01*
Y582854D02*
Y583260D01*
X864311D01*
Y582854D01*
X863905D01*
Y580314D02*
Y580720D01*
X864311D01*
Y580314D01*
X863905D01*
Y577774D02*
Y578180D01*
X864311D01*
Y577774D01*
X863905D01*
Y575234D02*
Y575640D01*
X864311D01*
Y575234D01*
X863905D01*
Y572694D02*
Y573100D01*
X864311D01*
Y572694D01*
X863905D01*
Y570154D02*
Y570560D01*
X864311D01*
Y570154D01*
X863905D01*
Y567614D02*
Y568020D01*
X864311D01*
Y567614D01*
X863905D01*
X912165Y579044D02*
Y579450D01*
X912571D01*
Y579044D01*
X912165D01*
Y576504D02*
Y576910D01*
X912571D01*
Y576504D01*
X912165D01*
X1030402Y749478D02*
Y749884D01*
X1030808D01*
Y749478D01*
X1030402D01*
X1032942D02*
Y749884D01*
X1033348D01*
Y749478D01*
X1032942D01*
X1015162Y720268D02*
Y720674D01*
X1015568D01*
Y720268D01*
X1015162D01*
Y722808D02*
Y723214D01*
X1015568D01*
Y722808D01*
X1015162D01*
X1027049Y720014D02*
X1026846Y720420D01*
X1027252D01*
X1027049Y720014D01*
X1029589Y722554D02*
X1029386Y722960D01*
X1029792D01*
X1029589Y722554D01*
Y717474D02*
X1029386Y717880D01*
X1029792D01*
X1029589Y717474D01*
X1029335Y754558D02*
X1029132Y754964D01*
X1029538D01*
X1029335Y754558D01*
X1031875Y757098D02*
X1031672Y757504D01*
X1032078D01*
X1031875Y757098D01*
Y752018D02*
X1031672Y752424D01*
X1032078D01*
X1031875Y752018D01*
X1019175Y754558D02*
X1018972Y754964D01*
X1019378D01*
X1019175Y754558D01*
X1021715Y757098D02*
X1021512Y757504D01*
X1021918D01*
X1021715Y757098D01*
Y752018D02*
X1021512Y752424D01*
X1021918D01*
X1021715Y752018D01*
X1030402Y702488D02*
Y702894D01*
X1030808D01*
Y702488D01*
X1030402D01*
X1032942D02*
Y702894D01*
X1033348D01*
Y702488D01*
X1032942D01*
X1015162Y673278D02*
Y673684D01*
X1015568D01*
Y673278D01*
X1015162D01*
Y675818D02*
Y676224D01*
X1015568D01*
Y675818D01*
X1015162D01*
X1027049Y673024D02*
X1026846Y673430D01*
X1027252D01*
X1027049Y673024D01*
X1029589Y675564D02*
X1029386Y675970D01*
X1029792D01*
X1029589Y675564D01*
Y670484D02*
X1029386Y670890D01*
X1029792D01*
X1029589Y670484D01*
X1029335Y707568D02*
X1029132Y707974D01*
X1029538D01*
X1029335Y707568D01*
X1031875Y710108D02*
X1031672Y710514D01*
X1032078D01*
X1031875Y710108D01*
Y705028D02*
X1031672Y705434D01*
X1032078D01*
X1031875Y705028D01*
X1019175Y707568D02*
X1018972Y707974D01*
X1019378D01*
X1019175Y707568D01*
X1021715Y710108D02*
X1021512Y710514D01*
X1021918D01*
X1021715Y710108D01*
Y705028D02*
X1021512Y705434D01*
X1021918D01*
X1021715Y705028D01*
X1030402Y655498D02*
Y655904D01*
X1030808D01*
Y655498D01*
X1030402D01*
X1032942D02*
Y655904D01*
X1033348D01*
Y655498D01*
X1032942D01*
X1015162Y626288D02*
Y626694D01*
X1015568D01*
Y626288D01*
X1015162D01*
Y628828D02*
Y629234D01*
X1015568D01*
Y628828D01*
X1015162D01*
X1027049Y626034D02*
X1026846Y626440D01*
X1027252D01*
X1027049Y626034D01*
X1029589Y628574D02*
X1029386Y628980D01*
X1029792D01*
X1029589Y628574D01*
Y623494D02*
X1029386Y623900D01*
X1029792D01*
X1029589Y623494D01*
X1029335Y660578D02*
X1029132Y660984D01*
X1029538D01*
X1029335Y660578D01*
X1031875Y663118D02*
X1031672Y663524D01*
X1032078D01*
X1031875Y663118D01*
Y658038D02*
X1031672Y658444D01*
X1032078D01*
X1031875Y658038D01*
X1019175Y660578D02*
X1018972Y660984D01*
X1019378D01*
X1019175Y660578D01*
X1021715Y663118D02*
X1021512Y663524D01*
X1021918D01*
X1021715Y663118D01*
Y658038D02*
X1021512Y658444D01*
X1021918D01*
X1021715Y658038D01*
X1009015Y717728D02*
X1009117Y717829D01*
X1009218D01*
X1009117Y717931D01*
X1009218Y718033D01*
X1009117D01*
X1009015Y718134D01*
X1008913Y718033D01*
X1008812D01*
X1008913Y717931D01*
X1008812Y717829D01*
X1008913D01*
X1009015Y717728D01*
Y757098D02*
X1009117Y757199D01*
X1009218D01*
X1009117Y757301D01*
X1009218Y757403D01*
X1009117D01*
X1009015Y757504D01*
X1008913Y757403D01*
X1008812D01*
X1008913Y757301D01*
X1008812Y757199D01*
X1008913D01*
X1009015Y757098D01*
X1048385D02*
X1048487Y757199D01*
X1048588D01*
X1048487Y757301D01*
X1048588Y757403D01*
X1048487D01*
X1048385Y757504D01*
X1048283Y757403D01*
X1048182D01*
X1048283Y757301D01*
X1048182Y757199D01*
X1048283D01*
X1048385Y757098D01*
Y717728D02*
X1048487Y717829D01*
X1048588D01*
X1048487Y717931D01*
X1048588Y718033D01*
X1048487D01*
X1048385Y718134D01*
X1048283Y718033D01*
X1048182D01*
X1048283Y717931D01*
X1048182Y717829D01*
X1048283D01*
X1048385Y717728D01*
X1009015Y670738D02*
X1009117Y670839D01*
X1009218D01*
X1009117Y670941D01*
X1009218Y671043D01*
X1009117D01*
X1009015Y671144D01*
X1008913Y671043D01*
X1008812D01*
X1008913Y670941D01*
X1008812Y670839D01*
X1008913D01*
X1009015Y670738D01*
Y710108D02*
X1009117Y710209D01*
X1009218D01*
X1009117Y710311D01*
X1009218Y710413D01*
X1009117D01*
X1009015Y710514D01*
X1008913Y710413D01*
X1008812D01*
X1008913Y710311D01*
X1008812Y710209D01*
X1008913D01*
X1009015Y710108D01*
X1048385D02*
X1048487Y710209D01*
X1048588D01*
X1048487Y710311D01*
X1048588Y710413D01*
X1048487D01*
X1048385Y710514D01*
X1048283Y710413D01*
X1048182D01*
X1048283Y710311D01*
X1048182Y710209D01*
X1048283D01*
X1048385Y710108D01*
Y670738D02*
X1048487Y670839D01*
X1048588D01*
X1048487Y670941D01*
X1048588Y671043D01*
X1048487D01*
X1048385Y671144D01*
X1048283Y671043D01*
X1048182D01*
X1048283Y670941D01*
X1048182Y670839D01*
X1048283D01*
X1048385Y670738D01*
X1009015Y623748D02*
X1009117Y623849D01*
X1009218D01*
X1009117Y623951D01*
X1009218Y624053D01*
X1009117D01*
X1009015Y624154D01*
X1008913Y624053D01*
X1008812D01*
X1008913Y623951D01*
X1008812Y623849D01*
X1008913D01*
X1009015Y623748D01*
Y663118D02*
X1009117Y663219D01*
X1009218D01*
X1009117Y663321D01*
X1009218Y663423D01*
X1009117D01*
X1009015Y663524D01*
X1008913Y663423D01*
X1008812D01*
X1008913Y663321D01*
X1008812Y663219D01*
X1008913D01*
X1009015Y663118D01*
X1048385D02*
X1048487Y663219D01*
X1048588D01*
X1048487Y663321D01*
X1048588Y663423D01*
X1048487D01*
X1048385Y663524D01*
X1048283Y663423D01*
X1048182D01*
X1048283Y663321D01*
X1048182Y663219D01*
X1048283D01*
X1048385Y663118D01*
Y623748D02*
X1048487Y623849D01*
X1048588D01*
X1048487Y623951D01*
X1048588Y624053D01*
X1048487D01*
X1048385Y624154D01*
X1048283Y624053D01*
X1048182D01*
X1048283Y623951D01*
X1048182Y623849D01*
X1048283D01*
X1048385Y623748D01*
X989635Y691947D02*
Y692353D01*
X990041D01*
Y691947D01*
X989635D01*
Y689407D02*
Y689813D01*
X990041D01*
Y689407D01*
X989635D01*
X960425Y707187D02*
Y707593D01*
X960831D01*
Y707187D01*
X960425D01*
X962965D02*
Y707593D01*
X963371D01*
Y707187D01*
X962965D01*
X960374Y695503D02*
X960171Y695909D01*
X960577D01*
X960374Y695503D01*
X962914Y692963D02*
X962711Y693369D01*
X963117D01*
X962914Y692963D01*
X957834D02*
X957631Y693369D01*
X958037D01*
X957834Y692963D01*
X994918Y693217D02*
X994715Y693623D01*
X995121D01*
X994918Y693217D01*
X997458Y690677D02*
X997255Y691083D01*
X997661D01*
X997458Y690677D01*
X992378D02*
X992175Y691083D01*
X992581D01*
X992378Y690677D01*
X994918Y703377D02*
X994715Y703783D01*
X995121D01*
X994918Y703377D01*
X997458Y700837D02*
X997255Y701243D01*
X997661D01*
X997458Y700837D01*
X992378D02*
X992175Y701243D01*
X992581D01*
X992378Y700837D01*
X942645Y691947D02*
Y692353D01*
X943051D01*
Y691947D01*
X942645D01*
Y689407D02*
Y689813D01*
X943051D01*
Y689407D01*
X942645D01*
X913435Y707187D02*
Y707593D01*
X913841D01*
Y707187D01*
X913435D01*
X915975D02*
Y707593D01*
X916381D01*
Y707187D01*
X915975D01*
X913384Y695503D02*
X913181Y695909D01*
X913587D01*
X913384Y695503D01*
X915924Y692963D02*
X915721Y693369D01*
X916127D01*
X915924Y692963D01*
X910844D02*
X910641Y693369D01*
X911047D01*
X910844Y692963D01*
X947928Y693217D02*
X947725Y693623D01*
X948131D01*
X947928Y693217D01*
X950468Y690677D02*
X950265Y691083D01*
X950671D01*
X950468Y690677D01*
X945388D02*
X945185Y691083D01*
X945591D01*
X945388Y690677D01*
X947928Y703377D02*
X947725Y703783D01*
X948131D01*
X947928Y703377D01*
X950468Y700837D02*
X950265Y701243D01*
X950671D01*
X950468Y700837D01*
X945388D02*
X945185Y701243D01*
X945591D01*
X945388Y700837D01*
X895655Y691947D02*
Y692353D01*
X896061D01*
Y691947D01*
X895655D01*
Y689407D02*
Y689813D01*
X896061D01*
Y689407D01*
X895655D01*
X866445Y707187D02*
Y707593D01*
X866851D01*
Y707187D01*
X866445D01*
X868985D02*
Y707593D01*
X869391D01*
Y707187D01*
X868985D01*
X866394Y695503D02*
X866191Y695909D01*
X866597D01*
X866394Y695503D01*
X868934Y692963D02*
X868731Y693369D01*
X869137D01*
X868934Y692963D01*
X863854D02*
X863651Y693369D01*
X864057D01*
X863854Y692963D01*
X900938Y693217D02*
X900735Y693623D01*
X901141D01*
X900938Y693217D01*
X903478Y690677D02*
X903275Y691083D01*
X903681D01*
X903478Y690677D01*
X898398D02*
X898195Y691083D01*
X898601D01*
X898398Y690677D01*
X900938Y703377D02*
X900735Y703783D01*
X901141D01*
X900938Y703377D01*
X903478Y700837D02*
X903275Y701243D01*
X903681D01*
X903478Y700837D01*
X898398D02*
X898195Y701243D01*
X898601D01*
X898398Y700837D01*
X958088Y713537D02*
X958190Y713638D01*
X958291D01*
X958190Y713740D01*
X958291Y713842D01*
X958190D01*
X958088Y713943D01*
X957986Y713842D01*
X957885D01*
X957986Y713740D01*
X957885Y713638D01*
X957986D01*
X958088Y713537D01*
X997458D02*
X997560Y713638D01*
X997661D01*
X997560Y713740D01*
X997661Y713842D01*
X997560D01*
X997458Y713943D01*
X997356Y713842D01*
X997255D01*
X997356Y713740D01*
X997255Y713638D01*
X997356D01*
X997458Y713537D01*
Y674167D02*
X997560Y674268D01*
X997661D01*
X997560Y674370D01*
X997661Y674472D01*
X997560D01*
X997458Y674573D01*
X997356Y674472D01*
X997255D01*
X997356Y674370D01*
X997255Y674268D01*
X997356D01*
X997458Y674167D01*
X958088D02*
X958190Y674268D01*
X958291D01*
X958190Y674370D01*
X958291Y674472D01*
X958190D01*
X958088Y674573D01*
X957986Y674472D01*
X957885D01*
X957986Y674370D01*
X957885Y674268D01*
X957986D01*
X958088Y674167D01*
X911098Y713537D02*
X911200Y713638D01*
X911301D01*
X911200Y713740D01*
X911301Y713842D01*
X911200D01*
X911098Y713943D01*
X910996Y713842D01*
X910895D01*
X910996Y713740D01*
X910895Y713638D01*
X910996D01*
X911098Y713537D01*
X950468D02*
X950570Y713638D01*
X950671D01*
X950570Y713740D01*
X950671Y713842D01*
X950570D01*
X950468Y713943D01*
X950366Y713842D01*
X950265D01*
X950366Y713740D01*
X950265Y713638D01*
X950366D01*
X950468Y713537D01*
Y674167D02*
X950570Y674268D01*
X950671D01*
X950570Y674370D01*
X950671Y674472D01*
X950570D01*
X950468Y674573D01*
X950366Y674472D01*
X950265D01*
X950366Y674370D01*
X950265Y674268D01*
X950366D01*
X950468Y674167D01*
X911098D02*
X911200Y674268D01*
X911301D01*
X911200Y674370D01*
X911301Y674472D01*
X911200D01*
X911098Y674573D01*
X910996Y674472D01*
X910895D01*
X910996Y674370D01*
X910895Y674268D01*
X910996D01*
X911098Y674167D01*
X864108Y713537D02*
X864210Y713638D01*
X864311D01*
X864210Y713740D01*
X864311Y713842D01*
X864210D01*
X864108Y713943D01*
X864006Y713842D01*
X863905D01*
X864006Y713740D01*
X863905Y713638D01*
X864006D01*
X864108Y713537D01*
X903478D02*
X903580Y713638D01*
X903681D01*
X903580Y713740D01*
X903681Y713842D01*
X903580D01*
X903478Y713943D01*
X903376Y713842D01*
X903275D01*
X903376Y713740D01*
X903275Y713638D01*
X903376D01*
X903478Y713537D01*
Y674167D02*
X903580Y674268D01*
X903681D01*
X903580Y674370D01*
X903681Y674472D01*
X903580D01*
X903478Y674573D01*
X903376Y674472D01*
X903275D01*
X903376Y674370D01*
X903275Y674268D01*
X903376D01*
X903478Y674167D01*
X864108D02*
X864210Y674268D01*
X864311D01*
X864210Y674370D01*
X864311Y674472D01*
X864210D01*
X864108Y674573D01*
X864006Y674472D01*
X863905D01*
X864006Y674370D01*
X863905Y674268D01*
X864006D01*
X864108Y674167D01*
X990524Y642036D02*
Y642442D01*
X990930D01*
Y642036D01*
X990524D01*
Y639496D02*
Y639902D01*
X990930D01*
Y639496D01*
X990524D01*
X961314Y657276D02*
Y657682D01*
X961720D01*
Y657276D01*
X961314D01*
X963854D02*
Y657682D01*
X964260D01*
Y657276D01*
X963854D01*
X961263Y645592D02*
X961060Y645998D01*
X961466D01*
X961263Y645592D01*
X963803Y643052D02*
X963600Y643458D01*
X964006D01*
X963803Y643052D01*
X958723D02*
X958520Y643458D01*
X958926D01*
X958723Y643052D01*
X995807Y643306D02*
X995604Y643712D01*
X996010D01*
X995807Y643306D01*
X998347Y640766D02*
X998144Y641172D01*
X998550D01*
X998347Y640766D01*
X993267D02*
X993064Y641172D01*
X993470D01*
X993267Y640766D01*
X995807Y653466D02*
X995604Y653872D01*
X996010D01*
X995807Y653466D01*
X998347Y650926D02*
X998144Y651332D01*
X998550D01*
X998347Y650926D01*
X993267D02*
X993064Y651332D01*
X993470D01*
X993267Y650926D01*
X943534Y642036D02*
Y642442D01*
X943940D01*
Y642036D01*
X943534D01*
Y639496D02*
Y639902D01*
X943940D01*
Y639496D01*
X943534D01*
X914324Y657276D02*
Y657682D01*
X914730D01*
Y657276D01*
X914324D01*
X916864D02*
Y657682D01*
X917270D01*
Y657276D01*
X916864D01*
X914273Y645592D02*
X914070Y645998D01*
X914476D01*
X914273Y645592D01*
X916813Y643052D02*
X916610Y643458D01*
X917016D01*
X916813Y643052D01*
X911733D02*
X911530Y643458D01*
X911936D01*
X911733Y643052D01*
X948817Y643306D02*
X948614Y643712D01*
X949020D01*
X948817Y643306D01*
X951357Y640766D02*
X951154Y641172D01*
X951560D01*
X951357Y640766D01*
X946277D02*
X946074Y641172D01*
X946480D01*
X946277Y640766D01*
X948817Y653466D02*
X948614Y653872D01*
X949020D01*
X948817Y653466D01*
X951357Y650926D02*
X951154Y651332D01*
X951560D01*
X951357Y650926D01*
X946277D02*
X946074Y651332D01*
X946480D01*
X946277Y650926D01*
X896544Y642036D02*
Y642442D01*
X896950D01*
Y642036D01*
X896544D01*
Y639496D02*
Y639902D01*
X896950D01*
Y639496D01*
X896544D01*
X867334Y657276D02*
Y657682D01*
X867740D01*
Y657276D01*
X867334D01*
X869874D02*
Y657682D01*
X870280D01*
Y657276D01*
X869874D01*
X867283Y645592D02*
X867080Y645998D01*
X867486D01*
X867283Y645592D01*
X869823Y643052D02*
X869620Y643458D01*
X870026D01*
X869823Y643052D01*
X864743D02*
X864540Y643458D01*
X864946D01*
X864743Y643052D01*
X901827Y643306D02*
X901624Y643712D01*
X902030D01*
X901827Y643306D01*
X904367Y640766D02*
X904164Y641172D01*
X904570D01*
X904367Y640766D01*
X899287D02*
X899084Y641172D01*
X899490D01*
X899287Y640766D01*
X901827Y653466D02*
X901624Y653872D01*
X902030D01*
X901827Y653466D01*
X904367Y650926D02*
X904164Y651332D01*
X904570D01*
X904367Y650926D01*
X899287D02*
X899084Y651332D01*
X899490D01*
X899287Y650926D01*
X958977Y663626D02*
X959079Y663727D01*
X959180D01*
X959079Y663829D01*
X959180Y663931D01*
X959079D01*
X958977Y664032D01*
X958875Y663931D01*
X958774D01*
X958875Y663829D01*
X958774Y663727D01*
X958875D01*
X958977Y663626D01*
X998347D02*
X998449Y663727D01*
X998550D01*
X998449Y663829D01*
X998550Y663931D01*
X998449D01*
X998347Y664032D01*
X998245Y663931D01*
X998144D01*
X998245Y663829D01*
X998144Y663727D01*
X998245D01*
X998347Y663626D01*
Y624256D02*
X998449Y624357D01*
X998550D01*
X998449Y624459D01*
X998550Y624561D01*
X998449D01*
X998347Y624662D01*
X998245Y624561D01*
X998144D01*
X998245Y624459D01*
X998144Y624357D01*
X998245D01*
X998347Y624256D01*
X958977D02*
X959079Y624357D01*
X959180D01*
X959079Y624459D01*
X959180Y624561D01*
X959079D01*
X958977Y624662D01*
X958875Y624561D01*
X958774D01*
X958875Y624459D01*
X958774Y624357D01*
X958875D01*
X958977Y624256D01*
X911987Y663626D02*
X912089Y663727D01*
X912190D01*
X912089Y663829D01*
X912190Y663931D01*
X912089D01*
X911987Y664032D01*
X911885Y663931D01*
X911784D01*
X911885Y663829D01*
X911784Y663727D01*
X911885D01*
X911987Y663626D01*
X951357D02*
X951459Y663727D01*
X951560D01*
X951459Y663829D01*
X951560Y663931D01*
X951459D01*
X951357Y664032D01*
X951255Y663931D01*
X951154D01*
X951255Y663829D01*
X951154Y663727D01*
X951255D01*
X951357Y663626D01*
Y624256D02*
X951459Y624357D01*
X951560D01*
X951459Y624459D01*
X951560Y624561D01*
X951459D01*
X951357Y624662D01*
X951255Y624561D01*
X951154D01*
X951255Y624459D01*
X951154Y624357D01*
X951255D01*
X951357Y624256D01*
X911987D02*
X912089Y624357D01*
X912190D01*
X912089Y624459D01*
X912190Y624561D01*
X912089D01*
X911987Y624662D01*
X911885Y624561D01*
X911784D01*
X911885Y624459D01*
X911784Y624357D01*
X911885D01*
X911987Y624256D01*
X864997Y663626D02*
X865099Y663727D01*
X865200D01*
X865099Y663829D01*
X865200Y663931D01*
X865099D01*
X864997Y664032D01*
X864895Y663931D01*
X864794D01*
X864895Y663829D01*
X864794Y663727D01*
X864895D01*
X864997Y663626D01*
X904367D02*
X904469Y663727D01*
X904570D01*
X904469Y663829D01*
X904570Y663931D01*
X904469D01*
X904367Y664032D01*
X904265Y663931D01*
X904164D01*
X904265Y663829D01*
X904164Y663727D01*
X904265D01*
X904367Y663626D01*
Y624256D02*
X904469Y624357D01*
X904570D01*
X904469Y624459D01*
X904570Y624561D01*
X904469D01*
X904367Y624662D01*
X904265Y624561D01*
X904164D01*
X904265Y624459D01*
X904164Y624357D01*
X904265D01*
X904367Y624256D01*
X864997D02*
X865099Y624357D01*
X865200D01*
X865099Y624459D01*
X865200Y624561D01*
X865099D01*
X864997Y624662D01*
X864895Y624561D01*
X864794D01*
X864895Y624459D01*
X864794Y624357D01*
X864895D01*
X864997Y624256D01*
X968724Y763427D02*
X968520Y763834D01*
X968927D01*
X968724Y763427D01*
X971777Y761151D02*
X971574Y761557D01*
X971980D01*
X971777Y761151D01*
X966470Y757352D02*
X966267Y757758D01*
X966673D01*
X966470Y757352D01*
Y729412D02*
X966267Y729818D01*
X966673D01*
X966470Y729412D01*
X988060Y728142D02*
X987857Y728548D01*
X988263D01*
X988060Y728142D01*
X985520Y756082D02*
X985317Y756488D01*
X985723D01*
X985520Y756082D01*
X974446Y758063D02*
X974242Y758469D01*
X974649D01*
X974446Y758063D01*
X976279Y732079D02*
X976076Y732485D01*
X976483D01*
X976279Y732079D01*
X957580Y735762D02*
X957377Y736168D01*
X957783D01*
X957580Y735762D01*
X972820Y738302D02*
X972617Y738708D01*
X973023D01*
X972820Y738302D01*
X985520Y739572D02*
X985317Y739978D01*
X985723D01*
X985520Y739572D01*
X967740Y735762D02*
X967537Y736168D01*
X967943D01*
X967740Y735762D01*
X981710Y728142D02*
X981507Y728548D01*
X981913D01*
X981710Y728142D01*
X986790Y726872D02*
X986587Y727278D01*
X986993D01*
X986790Y726872D01*
X921734Y763427D02*
X921530Y763834D01*
X921937D01*
X921734Y763427D01*
X924787Y761151D02*
X924584Y761557D01*
X924990D01*
X924787Y761151D01*
X919480Y757352D02*
X919277Y757758D01*
X919683D01*
X919480Y757352D01*
Y729412D02*
X919277Y729818D01*
X919683D01*
X919480Y729412D01*
X941070Y728142D02*
X940867Y728548D01*
X941273D01*
X941070Y728142D01*
X938530Y756082D02*
X938327Y756488D01*
X938733D01*
X938530Y756082D01*
X927456Y758063D02*
X927252Y758469D01*
X927659D01*
X927456Y758063D01*
X929289Y732079D02*
X929086Y732485D01*
X929493D01*
X929289Y732079D01*
X910590Y735762D02*
X910387Y736168D01*
X910793D01*
X910590Y735762D01*
X925830Y738302D02*
X925627Y738708D01*
X926033D01*
X925830Y738302D01*
X938530Y739572D02*
X938327Y739978D01*
X938733D01*
X938530Y739572D01*
X920750Y735762D02*
X920547Y736168D01*
X920953D01*
X920750Y735762D01*
X934720Y728142D02*
X934517Y728548D01*
X934923D01*
X934720Y728142D01*
X939800Y726872D02*
X939597Y727278D01*
X940003D01*
X939800Y726872D01*
X874743Y763427D02*
X874540Y763834D01*
X874947D01*
X874743Y763427D01*
X877797Y761151D02*
X877594Y761557D01*
X878000D01*
X877797Y761151D01*
X872490Y757352D02*
X872287Y757758D01*
X872693D01*
X872490Y757352D01*
Y729412D02*
X872287Y729818D01*
X872693D01*
X872490Y729412D01*
X894080Y728142D02*
X893877Y728548D01*
X894283D01*
X894080Y728142D01*
X891540Y756082D02*
X891337Y756488D01*
X891743D01*
X891540Y756082D01*
X880466Y758063D02*
X880262Y758469D01*
X880669D01*
X880466Y758063D01*
X882299Y732079D02*
X882096Y732485D01*
X882503D01*
X882299Y732079D01*
X863600Y735762D02*
X863397Y736168D01*
X863803D01*
X863600Y735762D01*
X878840Y738302D02*
X878637Y738708D01*
X879043D01*
X878840Y738302D01*
X891540Y739572D02*
X891337Y739978D01*
X891743D01*
X891540Y739572D01*
X873760Y735762D02*
X873557Y736168D01*
X873963D01*
X873760Y735762D01*
X887730Y728142D02*
X887527Y728548D01*
X887933D01*
X887730Y728142D01*
X892810Y726872D02*
X892607Y727278D01*
X893013D01*
X892810Y726872D01*
X1008019Y728871D02*
X1007816Y729278D01*
X1008223D01*
X1008019Y728871D01*
X1010296Y731925D02*
X1010093Y732331D01*
X1010499D01*
X1010296Y731925D01*
X1014095Y726618D02*
X1013892Y727024D01*
X1014298D01*
X1014095Y726618D01*
X1042035D02*
X1041832Y727024D01*
X1042238D01*
X1042035Y726618D01*
X1043305Y748208D02*
X1043102Y748614D01*
X1043508D01*
X1043305Y748208D01*
X1015365Y745668D02*
X1015162Y746074D01*
X1015568D01*
X1015365Y745668D01*
X1013384Y734593D02*
X1013181Y735000D01*
X1013587D01*
X1013384Y734593D01*
X1039368Y736427D02*
X1039165Y736834D01*
X1039571D01*
X1039368Y736427D01*
X1035685Y717728D02*
X1035482Y718134D01*
X1035888D01*
X1035685Y717728D01*
X1033145Y732968D02*
X1032942Y733374D01*
X1033348D01*
X1033145Y732968D01*
X1031875Y745668D02*
X1031672Y746074D01*
X1032078D01*
X1031875Y745668D01*
X1035685Y727888D02*
X1035482Y728294D01*
X1035888D01*
X1035685Y727888D01*
X1043305Y741858D02*
X1043102Y742264D01*
X1043508D01*
X1043305Y741858D01*
X1044575Y746938D02*
X1044372Y747344D01*
X1044778D01*
X1044575Y746938D01*
X1008019Y681881D02*
X1007816Y682288D01*
X1008223D01*
X1008019Y681881D01*
X1010296Y684935D02*
X1010093Y685341D01*
X1010499D01*
X1010296Y684935D01*
X1014095Y679628D02*
X1013892Y680034D01*
X1014298D01*
X1014095Y679628D01*
X1042035D02*
X1041832Y680034D01*
X1042238D01*
X1042035Y679628D01*
X1043305Y701218D02*
X1043102Y701624D01*
X1043508D01*
X1043305Y701218D01*
X1015365Y698678D02*
X1015162Y699084D01*
X1015568D01*
X1015365Y698678D01*
X1013384Y687603D02*
X1013181Y688010D01*
X1013587D01*
X1013384Y687603D01*
X1039368Y689437D02*
X1039165Y689844D01*
X1039571D01*
X1039368Y689437D01*
X1035685Y670738D02*
X1035482Y671144D01*
X1035888D01*
X1035685Y670738D01*
X1033145Y685978D02*
X1032942Y686384D01*
X1033348D01*
X1033145Y685978D01*
X1031875Y698678D02*
X1031672Y699084D01*
X1032078D01*
X1031875Y698678D01*
X1035685Y680898D02*
X1035482Y681304D01*
X1035888D01*
X1035685Y680898D01*
X1043305Y694868D02*
X1043102Y695274D01*
X1043508D01*
X1043305Y694868D01*
X1044575Y699948D02*
X1044372Y700354D01*
X1044778D01*
X1044575Y699948D01*
X1008019Y634891D02*
X1007816Y635298D01*
X1008223D01*
X1008019Y634891D01*
X1010296Y637945D02*
X1010093Y638351D01*
X1010499D01*
X1010296Y637945D01*
X1014095Y632638D02*
X1013892Y633044D01*
X1014298D01*
X1014095Y632638D01*
X1042035D02*
X1041832Y633044D01*
X1042238D01*
X1042035Y632638D01*
X1043305Y654228D02*
X1043102Y654634D01*
X1043508D01*
X1043305Y654228D01*
X1015365Y651688D02*
X1015162Y652094D01*
X1015568D01*
X1015365Y651688D01*
X1013384Y640613D02*
X1013181Y641020D01*
X1013587D01*
X1013384Y640613D01*
X1039368Y642447D02*
X1039165Y642854D01*
X1039571D01*
X1039368Y642447D01*
X1035685Y623748D02*
X1035482Y624154D01*
X1035888D01*
X1035685Y623748D01*
X1033145Y638988D02*
X1032942Y639394D01*
X1033348D01*
X1033145Y638988D01*
X1031875Y651688D02*
X1031672Y652094D01*
X1032078D01*
X1031875Y651688D01*
X1035685Y633908D02*
X1035482Y634314D01*
X1035888D01*
X1035685Y633908D01*
X1043305Y647878D02*
X1043102Y648284D01*
X1043508D01*
X1043305Y647878D01*
X1044575Y652958D02*
X1044372Y653364D01*
X1044778D01*
X1044575Y652958D01*
X969232Y714532D02*
X969028Y714939D01*
X969435D01*
X969232Y714532D01*
X972285Y712256D02*
X972082Y712662D01*
X972488D01*
X972285Y712256D01*
X966978Y708457D02*
X966775Y708863D01*
X967181D01*
X966978Y708457D01*
Y680517D02*
X966775Y680923D01*
X967181D01*
X966978Y680517D01*
X988568Y679247D02*
X988365Y679653D01*
X988771D01*
X988568Y679247D01*
X986028Y707187D02*
X985825Y707593D01*
X986231D01*
X986028Y707187D01*
X974954Y709168D02*
X974750Y709574D01*
X975157D01*
X974954Y709168D01*
X976787Y683184D02*
X976584Y683590D01*
X976991D01*
X976787Y683184D01*
X958088Y686867D02*
X957885Y687273D01*
X958291D01*
X958088Y686867D01*
X973328Y689407D02*
X973125Y689813D01*
X973531D01*
X973328Y689407D01*
X986028Y690677D02*
X985825Y691083D01*
X986231D01*
X986028Y690677D01*
X968248Y686867D02*
X968045Y687273D01*
X968451D01*
X968248Y686867D01*
X982218Y679247D02*
X982015Y679653D01*
X982421D01*
X982218Y679247D01*
X987298Y677977D02*
X987095Y678383D01*
X987501D01*
X987298Y677977D01*
X922242Y714532D02*
X922038Y714939D01*
X922445D01*
X922242Y714532D01*
X925295Y712256D02*
X925092Y712662D01*
X925498D01*
X925295Y712256D01*
X919988Y708457D02*
X919785Y708863D01*
X920191D01*
X919988Y708457D01*
Y680517D02*
X919785Y680923D01*
X920191D01*
X919988Y680517D01*
X941578Y679247D02*
X941375Y679653D01*
X941781D01*
X941578Y679247D01*
X939038Y707187D02*
X938835Y707593D01*
X939241D01*
X939038Y707187D01*
X927964Y709168D02*
X927760Y709574D01*
X928167D01*
X927964Y709168D01*
X929797Y683184D02*
X929594Y683590D01*
X930001D01*
X929797Y683184D01*
X911098Y686867D02*
X910895Y687273D01*
X911301D01*
X911098Y686867D01*
X926338Y689407D02*
X926135Y689813D01*
X926541D01*
X926338Y689407D01*
X939038Y690677D02*
X938835Y691083D01*
X939241D01*
X939038Y690677D01*
X921258Y686867D02*
X921055Y687273D01*
X921461D01*
X921258Y686867D01*
X935228Y679247D02*
X935025Y679653D01*
X935431D01*
X935228Y679247D01*
X940308Y677977D02*
X940105Y678383D01*
X940511D01*
X940308Y677977D01*
X875251Y714532D02*
X875048Y714939D01*
X875455D01*
X875251Y714532D01*
X878305Y712256D02*
X878102Y712662D01*
X878508D01*
X878305Y712256D01*
X872998Y708457D02*
X872795Y708863D01*
X873201D01*
X872998Y708457D01*
Y680517D02*
X872795Y680923D01*
X873201D01*
X872998Y680517D01*
X894588Y679247D02*
X894385Y679653D01*
X894791D01*
X894588Y679247D01*
X892048Y707187D02*
X891845Y707593D01*
X892251D01*
X892048Y707187D01*
X880974Y709168D02*
X880770Y709574D01*
X881177D01*
X880974Y709168D01*
X882807Y683184D02*
X882604Y683590D01*
X883011D01*
X882807Y683184D01*
X864108Y686867D02*
X863905Y687273D01*
X864311D01*
X864108Y686867D01*
X879348Y689407D02*
X879145Y689813D01*
X879551D01*
X879348Y689407D01*
X892048Y690677D02*
X891845Y691083D01*
X892251D01*
X892048Y690677D01*
X874268Y686867D02*
X874065Y687273D01*
X874471D01*
X874268Y686867D01*
X888238Y679247D02*
X888035Y679653D01*
X888441D01*
X888238Y679247D01*
X893318Y677977D02*
X893115Y678383D01*
X893521D01*
X893318Y677977D01*
X970120Y664621D02*
X969917Y665028D01*
X970324D01*
X970120Y664621D01*
X973174Y662345D02*
X972971Y662751D01*
X973377D01*
X973174Y662345D01*
X967867Y658546D02*
X967664Y658952D01*
X968070D01*
X967867Y658546D01*
Y630606D02*
X967664Y631012D01*
X968070D01*
X967867Y630606D01*
X989457Y629336D02*
X989254Y629742D01*
X989660D01*
X989457Y629336D01*
X986917Y657276D02*
X986714Y657682D01*
X987120D01*
X986917Y657276D01*
X975843Y659257D02*
X975639Y659663D01*
X976046D01*
X975843Y659257D01*
X977676Y633273D02*
X977473Y633679D01*
X977880D01*
X977676Y633273D01*
X958977Y636956D02*
X958774Y637362D01*
X959180D01*
X958977Y636956D01*
X974217Y639496D02*
X974014Y639902D01*
X974420D01*
X974217Y639496D01*
X986917Y640766D02*
X986714Y641172D01*
X987120D01*
X986917Y640766D01*
X969137Y636956D02*
X968934Y637362D01*
X969340D01*
X969137Y636956D01*
X983107Y629336D02*
X982904Y629742D01*
X983310D01*
X983107Y629336D01*
X988187Y628066D02*
X987984Y628472D01*
X988390D01*
X988187Y628066D01*
X923130Y664621D02*
X922927Y665028D01*
X923334D01*
X923130Y664621D01*
X926184Y662345D02*
X925981Y662751D01*
X926387D01*
X926184Y662345D01*
X920877Y658546D02*
X920674Y658952D01*
X921080D01*
X920877Y658546D01*
Y630606D02*
X920674Y631012D01*
X921080D01*
X920877Y630606D01*
X942467Y629336D02*
X942264Y629742D01*
X942670D01*
X942467Y629336D01*
X939927Y657276D02*
X939724Y657682D01*
X940130D01*
X939927Y657276D01*
X928853Y659257D02*
X928649Y659663D01*
X929056D01*
X928853Y659257D01*
X930686Y633273D02*
X930483Y633679D01*
X930890D01*
X930686Y633273D01*
X911987Y636956D02*
X911784Y637362D01*
X912190D01*
X911987Y636956D01*
X927227Y639496D02*
X927024Y639902D01*
X927430D01*
X927227Y639496D01*
X939927Y640766D02*
X939724Y641172D01*
X940130D01*
X939927Y640766D01*
X922147Y636956D02*
X921944Y637362D01*
X922350D01*
X922147Y636956D01*
X936117Y629336D02*
X935914Y629742D01*
X936320D01*
X936117Y629336D01*
X941197Y628066D02*
X940994Y628472D01*
X941400D01*
X941197Y628066D01*
X876141Y664621D02*
X875937Y665028D01*
X876344D01*
X876141Y664621D01*
X879194Y662345D02*
X878991Y662751D01*
X879397D01*
X879194Y662345D01*
X873887Y658546D02*
X873684Y658952D01*
X874090D01*
X873887Y658546D01*
Y630606D02*
X873684Y631012D01*
X874090D01*
X873887Y630606D01*
X895477Y629336D02*
X895274Y629742D01*
X895680D01*
X895477Y629336D01*
X892937Y657276D02*
X892734Y657682D01*
X893140D01*
X892937Y657276D01*
X881863Y659257D02*
X881659Y659663D01*
X882066D01*
X881863Y659257D01*
X883696Y633273D02*
X883493Y633679D01*
X883900D01*
X883696Y633273D01*
X864997Y636956D02*
X864794Y637362D01*
X865200D01*
X864997Y636956D01*
X880237Y639496D02*
X880034Y639902D01*
X880440D01*
X880237Y639496D01*
X892937Y640766D02*
X892734Y641172D01*
X893140D01*
X892937Y640766D01*
X875157Y636956D02*
X874954Y637362D01*
X875360D01*
X875157Y636956D01*
X889127Y629336D02*
X888924Y629742D01*
X889330D01*
X889127Y629336D01*
X894207Y628066D02*
X894004Y628472D01*
X894410D01*
X894207Y628066D01*
D71*
X996783Y733295D02*
G03*
X996783Y733295I-203J0D01*
G01*
X989983D02*
G03*
X989983Y733295I-203J0D01*
G01*
X969986Y761870D02*
G03*
X969986Y761870I-203J0D01*
G01*
X963186D02*
G03*
X963186Y761870I-203J0D01*
G01*
X949793Y733295D02*
G03*
X949793Y733295I-203J0D01*
G01*
X942993D02*
G03*
X942993Y733295I-203J0D01*
G01*
X922996Y761870D02*
G03*
X922996Y761870I-203J0D01*
G01*
X916196D02*
G03*
X916196Y761870I-203J0D01*
G01*
X902803Y733295D02*
G03*
X902803Y733295I-203J0D01*
G01*
X896003D02*
G03*
X896003Y733295I-203J0D01*
G01*
X876006Y761870D02*
G03*
X876006Y761870I-203J0D01*
G01*
X869206D02*
G03*
X869206Y761870I-203J0D01*
G01*
X938987Y589915D02*
G03*
X938987Y589915I-203J0D01*
G01*
X931367D02*
G03*
X931367Y589915I-203J0D01*
G01*
X965657Y595630D02*
G03*
X965657Y595630I-203J0D01*
G01*
X958037D02*
G03*
X958037Y595630I-203J0D01*
G01*
X938987D02*
G03*
X938987Y595630I-203J0D01*
G01*
X931367D02*
G03*
X931367Y595630I-203J0D01*
G01*
X958355Y589915D02*
G03*
X958355Y589915I-203J0D01*
G01*
X965975D02*
G03*
X965975Y589915I-203J0D01*
G01*
X931367Y584518D02*
G03*
X931367Y584518I-203J0D01*
G01*
X938987D02*
G03*
X938987Y584518I-203J0D01*
G01*
X958355Y571818D02*
G03*
X958355Y571818I-203J0D01*
G01*
X965975D02*
G03*
X965975Y571818I-203J0D01*
G01*
X931367Y566420D02*
G03*
X931367Y566420I-203J0D01*
G01*
X938987D02*
G03*
X938987Y566420I-203J0D01*
G01*
X958355D02*
G03*
X958355Y566420I-203J0D01*
G01*
X965975D02*
G03*
X965975Y566420I-203J0D01*
G01*
X958037Y583883D02*
G03*
X958037Y583883I-203J0D01*
G01*
X965657D02*
G03*
X965657Y583883I-203J0D01*
G01*
X938987Y607060D02*
G03*
X938987Y607060I-203J0D01*
G01*
X931367D02*
G03*
X931367Y607060I-203J0D01*
G01*
Y572453D02*
G03*
X931367Y572453I-203J0D01*
G01*
X938987D02*
G03*
X938987Y572453I-203J0D01*
G01*
X931367Y578485D02*
G03*
X931367Y578485I-203J0D01*
G01*
X938987D02*
G03*
X938987Y578485I-203J0D01*
G01*
X931367Y601028D02*
G03*
X931367Y601028I-203J0D01*
G01*
X938987D02*
G03*
X938987Y601028I-203J0D01*
G01*
X958355Y578167D02*
G03*
X958355Y578167I-203J0D01*
G01*
X965975D02*
G03*
X965975Y578167I-203J0D01*
G01*
X1038558Y756931D02*
G03*
X1038558Y756931I-203J0D01*
G01*
Y750131D02*
G03*
X1038558Y750131I-203J0D01*
G01*
X1009983Y730134D02*
G03*
X1009983Y730134I-203J0D01*
G01*
Y723334D02*
G03*
X1009983Y723334I-203J0D01*
G01*
X1038558Y709941D02*
G03*
X1038558Y709941I-203J0D01*
G01*
Y703141D02*
G03*
X1038558Y703141I-203J0D01*
G01*
X1009983Y683144D02*
G03*
X1009983Y683144I-203J0D01*
G01*
Y676344D02*
G03*
X1009983Y676344I-203J0D01*
G01*
X1038558Y662951D02*
G03*
X1038558Y662951I-203J0D01*
G01*
Y656151D02*
G03*
X1038558Y656151I-203J0D01*
G01*
X1009983Y636154D02*
G03*
X1009983Y636154I-203J0D01*
G01*
Y629354D02*
G03*
X1009983Y629354I-203J0D01*
G01*
X997291Y684400D02*
G03*
X997291Y684400I-203J0D01*
G01*
X990491D02*
G03*
X990491Y684400I-203J0D01*
G01*
X970494Y712975D02*
G03*
X970494Y712975I-203J0D01*
G01*
X963694D02*
G03*
X963694Y712975I-203J0D01*
G01*
X950301Y684400D02*
G03*
X950301Y684400I-203J0D01*
G01*
X943501D02*
G03*
X943501Y684400I-203J0D01*
G01*
X923504Y712975D02*
G03*
X923504Y712975I-203J0D01*
G01*
X916704D02*
G03*
X916704Y712975I-203J0D01*
G01*
X903311Y684400D02*
G03*
X903311Y684400I-203J0D01*
G01*
X896511D02*
G03*
X896511Y684400I-203J0D01*
G01*
X876514Y712975D02*
G03*
X876514Y712975I-203J0D01*
G01*
X869714D02*
G03*
X869714Y712975I-203J0D01*
G01*
X998180Y634489D02*
G03*
X998180Y634489I-203J0D01*
G01*
X991380D02*
G03*
X991380Y634489I-203J0D01*
G01*
X971383Y663064D02*
G03*
X971383Y663064I-203J0D01*
G01*
X964583D02*
G03*
X964583Y663064I-203J0D01*
G01*
X951190Y634489D02*
G03*
X951190Y634489I-203J0D01*
G01*
X944390D02*
G03*
X944390Y634489I-203J0D01*
G01*
X924393Y663064D02*
G03*
X924393Y663064I-203J0D01*
G01*
X917593D02*
G03*
X917593Y663064I-203J0D01*
G01*
X904200Y634489D02*
G03*
X904200Y634489I-203J0D01*
G01*
X897400D02*
G03*
X897400Y634489I-203J0D01*
G01*
X877403Y663064D02*
G03*
X877403Y663064I-203J0D01*
G01*
X870603D02*
G03*
X870603Y663064I-203J0D01*
G01*
X988016Y602956D02*
G03*
X988016Y602956I-203J0D01*
G01*
X982936D02*
G03*
X982936Y602956I-203J0D01*
G01*
X985476D02*
G03*
X985476Y602956I-203J0D01*
G01*
X988016Y605369D02*
G03*
X988016Y605369I-203J0D01*
G01*
X982936D02*
G03*
X982936Y605369I-203J0D01*
G01*
X985476D02*
G03*
X985476Y605369I-203J0D01*
G01*
X988016Y607909D02*
G03*
X988016Y607909I-203J0D01*
G01*
Y610449D02*
G03*
X988016Y610449I-203J0D01*
G01*
X990556Y607909D02*
G03*
X990556Y607909I-203J0D01*
G01*
X993096D02*
G03*
X993096Y607909I-203J0D01*
G01*
X990556Y610449D02*
G03*
X990556Y610449I-203J0D01*
G01*
X993096D02*
G03*
X993096Y610449I-203J0D01*
G01*
X962482Y570611D02*
G03*
X962482Y570611I-203J0D01*
G01*
X960196Y572897D02*
G03*
X960196Y572897I-203J0D01*
G01*
X950671Y585089D02*
G03*
X950671Y585089I-203J0D01*
G01*
X968578Y601472D02*
G03*
X968578Y601472I-203J0D01*
G01*
X968197Y582422D02*
G03*
X968197Y582422I-203J0D01*
G01*
X954862Y567944D02*
G03*
X954862Y567944I-203J0D01*
G01*
X958291Y593852D02*
G03*
X958291Y593852I-203J0D01*
G01*
X943051Y580136D02*
G03*
X943051Y580136I-203J0D01*
G01*
X934288Y581279D02*
G03*
X934288Y581279I-203J0D01*
G01*
X940765Y577850D02*
G03*
X940765Y577850I-203J0D01*
G01*
X954989Y572135D02*
G03*
X954989Y572135I-203J0D01*
G01*
X964768Y568325D02*
G03*
X964768Y568325I-203J0D01*
G01*
X969340Y570230D02*
G03*
X969340Y570230I-203J0D01*
G01*
X955624Y579374D02*
G03*
X955624Y579374I-203J0D01*
G01*
X949147Y572516D02*
G03*
X949147Y572516I-203J0D01*
G01*
X949909Y569468D02*
G03*
X949909Y569468I-203J0D01*
G01*
X948385Y565277D02*
G03*
X948385Y565277I-203J0D01*
G01*
X937336Y605663D02*
G03*
X937336Y605663I-203J0D01*
G01*
X941210Y609981D02*
G03*
X941210Y609981I-203J0D01*
G01*
X936193Y596900D02*
G03*
X936193Y596900I-203J0D01*
G01*
X934288Y605663D02*
G03*
X934288Y605663I-203J0D01*
G01*
X955243Y596519D02*
G03*
X955243Y596519I-203J0D01*
G01*
X933145Y602615D02*
G03*
X933145Y602615I-203J0D01*
G01*
X940765Y586994D02*
G03*
X940765Y586994I-203J0D01*
G01*
X928954Y601091D02*
G03*
X928954Y601091I-203J0D01*
G01*
D72*
X962381Y570611D02*
G03*
X962381Y570611I-102J0D01*
G01*
X960095Y572897D02*
G03*
X960095Y572897I-102J0D01*
G01*
X950570Y585089D02*
G03*
X950570Y585089I-102J0D01*
G01*
X968477Y601472D02*
G03*
X968477Y601472I-102J0D01*
G01*
X968096Y582422D02*
G03*
X968096Y582422I-102J0D01*
G01*
X954761Y567944D02*
G03*
X954761Y567944I-102J0D01*
G01*
X958190Y593852D02*
G03*
X958190Y593852I-102J0D01*
G01*
X942950Y580136D02*
G03*
X942950Y580136I-102J0D01*
G01*
X934187Y581279D02*
G03*
X934187Y581279I-102J0D01*
G01*
X940664Y577850D02*
G03*
X940664Y577850I-102J0D01*
G01*
X954888Y572135D02*
G03*
X954888Y572135I-102J0D01*
G01*
X964667Y568325D02*
G03*
X964667Y568325I-102J0D01*
G01*
X969239Y570230D02*
G03*
X969239Y570230I-102J0D01*
G01*
X955523Y579374D02*
G03*
X955523Y579374I-102J0D01*
G01*
X949046Y572516D02*
G03*
X949046Y572516I-102J0D01*
G01*
X949808Y569468D02*
G03*
X949808Y569468I-102J0D01*
G01*
X948284Y565277D02*
G03*
X948284Y565277I-102J0D01*
G01*
X937235Y605663D02*
G03*
X937235Y605663I-102J0D01*
G01*
X941108Y609981D02*
G03*
X941108Y609981I-102J0D01*
G01*
X936092Y596900D02*
G03*
X936092Y596900I-102J0D01*
G01*
X934187Y605663D02*
G03*
X934187Y605663I-102J0D01*
G01*
X955142Y596519D02*
G03*
X955142Y596519I-102J0D01*
G01*
X933044Y602615D02*
G03*
X933044Y602615I-102J0D01*
G01*
X940664Y586994D02*
G03*
X940664Y586994I-102J0D01*
G01*
X928853Y601091D02*
G03*
X928853Y601091I-102J0D01*
G01*
M02*
