M48
;Layer_Color=9474304
;FILE_FORMAT=2:5
INCH,LZ
;TYPE=PLATED
T1F00S00C0.02000
T2F00S00C0.02559
T3F00S00C0.03150
T4F00S00C0.03200
T5F00S00C0.03400
T6F00S00C0.03543
T7F00S00C0.04000
T8F00S00C0.08661
T9F00S00C0.12500
T10F00S00C0.18700
%
T01
X3742Y23035
X3703Y2311
X3712Y2284
X3703Y2275
X36775Y22885
X3736Y2254
X3739Y2242
X3733Y22255
X37585Y2236
X3759Y22525
X37795Y22555
X37885Y22465
X37975Y22375
X38155Y2245
X3811Y2293
X37615Y2281
X3772Y2338
X376Y23485
X38125Y2368
X36895Y23845
X36775
X3673Y23725
X36565Y23665
X3685Y235
X370475Y24015
T02
X41025Y24915
X40775Y24965
Y24565
X40535Y24555
X40435Y24655
X40535Y24755
X39925Y24915
X38955Y24785
X38905Y24735
X38705Y24785
X384912Y2494
X38105Y24835
X37105Y24785
X37055Y24735
X36855Y24785
X366412Y2494
X36255Y24835
X35255Y24785
X35205Y24735
X35005Y24785
X347912Y2494
X34405Y24835
X34055Y25085
X34045Y25325
X34145Y25425
X34245Y25325
X34455Y25085
X34655Y25185
X35155Y25235
X35405
X35505Y25335
X35605Y25235
X35895Y25325
X35905Y25085
X35605Y25635
X35505Y25735
X35405Y25635
X35155Y25885
X34719Y25963
X3461394Y2608456
X3449372Y261742
X34405Y25935
X36255
X3634372Y261742
X3646394Y2608456
X36569Y25963
X37005Y25885
X37355Y25735
X37455Y25635
X37255
X37355Y25335
X37455Y25235
X37255
X37005
X36505Y25185
X36305Y25085
X36095Y25325
X35995Y25425
X37845
X37945Y25325
X37745
X37755Y25085
X38155
X38355Y25185
X38855Y25235
Y25885
X38419Y25963
X3831394Y2608456
X3819372Y261742
X38105Y25935
X39205Y25735
X39305Y25635
X39105
X39205Y25335
X39305Y25235
X39105
X3977544Y2512394
X396858Y2500372
X39897Y25229
X39975Y25665
X40125Y26015
X40225Y26115
Y25915
X40525Y26015
X40535Y26405
X40435Y26505
X40775Y26415
X40625Y26115
Y25915
Y25665
X41075Y25765
X41125Y25715
X41075Y25515
X4092Y253012
X40675Y25165
X40775Y26815
X41025Y26765
X4092Y271512
X41075Y27365
Y27615
X41125Y27565
X40625Y27515
Y27765
Y27965
X40675Y27015
X40535Y26605
X39925Y26765
X396858Y2685372
X3977544Y2697394
X39897Y27079
X39975Y27515
X40125Y27865
X40225Y27965
Y27765
X40525Y27865
X3917Y277
X3927Y276
X3907
X3917Y273
X3927Y272
X3907
X3882
X3892Y2675
X3887Y267
X3867Y2675
X384562Y26905
X3832Y2715
X3812Y2705
X3807Y268
X3772Y2705
X3771Y2729
X3781Y2739
X3791Y2729
X3807Y279
X38384Y27928
X3827894Y2804956
X3882Y2785
X3732Y277
X3742Y276
X3722
X3732Y273
X3742Y272
X3722
X3697
X3707Y2675
X3702Y267
X3682Y2675
X366062Y26905
X3647Y2715
X3627Y2705
X3622Y268
X3606Y2729
X3596Y2739
X3622Y279
X36534Y27928
X3642894Y2804956
X3697Y2785
X3547Y277
X3557Y276
X3537
X3547Y273
X3557Y272
X3537
X3512
X3522Y2675
X3517Y267
X3497Y2675
X347562Y26905
X3462Y2715
X3442Y2705
X34684Y27928
X3457894Y2804956
X3512Y2785
X3586Y2729
X3587Y2705
X3437Y268
X3402Y2705
X3401Y2729
X3411Y2739
X3421Y2729
X3437Y279
X3435Y28725
X34Y28975
X3399Y29215
X3409Y29315
X3419Y29215
X344Y28975
X346Y29075
X347362Y2883
X3495Y28675
X352
X3515Y28625
X351Y29125
X3535
X3545Y29225
X3555Y29125
X3584Y29215
X3585Y28975
X3555Y29525
X3545Y29625
X3535Y29525
X3445872Y281392
X3630872
X362Y28725
X3625Y28975
X3645Y29075
X365862Y2883
X368Y28675
X3705
X37Y28625
X3695Y29125
X372
X373Y29225
X374Y29125
Y29525
X373Y29625
X372Y29525
X3594Y29315
X3604Y29215
X3769
X3779Y29315
X3789Y29215
X377Y28975
X381
X3805Y28725
X384362Y2883
X3865Y28675
X389
X3885Y28625
X388Y29125
X3905
Y29525
X383Y29075
X3815872Y281392
X3915Y29225
X3925Y29125
Y29525
X3915Y29625
X39975Y29365
X40225Y29615
X39897Y28929
X3977544Y2882394
X396858Y2870372
X39925Y28615
X40435Y28355
X40535Y28455
Y28255
X40775Y28265
Y28665
X41025Y28615
X4092Y290012
X41075Y29215
Y29465
X41125Y29415
X40625Y29365
Y29615
X40675Y28865
X40625Y29815
X40525Y29715
X40125
X40225Y29815
X388Y29775
X38364Y29853
X3825894Y2997456
X3813872Y300642
X3805Y29825
X3695Y29775
X36514Y29853
X3640894Y2997456
X3628872Y300642
X362Y29825
X351Y29775
X34664Y29853
X3455894Y2997456
X3443872Y300642
X3435Y29825
T03
X4031987Y2331022
X3997487Y2332522
X4011987Y2259022
X4012487Y2242022
X4053987Y2258022
X3971987Y2349522
X3924987Y2393022
T04
X3427Y23255
X3432Y22805
Y22505
X3447Y22605
Y22905
X3452Y23205
X3477Y23355
X3487
X3517Y23405
Y23105
X3537
Y23005
Y23205
Y23305
X3567
Y23205
Y23105
Y23005
X3557Y22705
X3537Y22755
Y22455
X3557Y22405
X3532Y22255
X3522
X3497Y22305
X3467
X3477Y22655
X3487
X3477Y22955
X3507
X37195Y2295
Y2305
Y2315
Y2325
X3721Y22675
Y22575
Y22475
Y22375
X3751
Y22475
Y22575
Y22675
X37525Y2295
Y2305
Y2315
X3909987Y2330022
X3919987
X3920987Y2291522
X3910987
Y2262522
X3920987
Y2210522
X3910987
X3949487Y2231022
X3959487
X3989987Y2246522
X3999987
X4032987Y2246022
X4042987
X4034947Y2299202
Y2319202
X4033987Y2340522
X4043987
X4020987Y2292022
X4000987
X3959987Y2287022
X3949987
X4062987Y2245022
X4073487
X4083487
X4093487
X4103487
X4113487
Y2225022
X4103487
X4093487
X4083487
X4073487
X4062987
X3999487Y2349522
X3989487
X3960487Y2350022
X3950487
X3916987Y2357522
X3906987
X3751Y23575
Y23675
Y23775
Y23875
X3721
Y23775
Y23675
Y23575
X3567Y23655
Y23855
X3552Y23905
X3522
X3497Y23855
Y23605
X3517Y23655
X3527
X3467Y23605
X3452Y23505
X3467Y23855
X3457Y24005
X3427
Y23555
T05
X37525Y2325
T06
X3696Y23225
Y230125
Y22775
Y225375
Y223
X3666
Y225375
Y22775
Y230125
Y23225
X377225
X3771Y229875
X377225Y227625
Y225125
Y223
X380225
Y225125
Y227625
X3801Y229875
X380225Y23225
X3909027Y2393342
Y2403342
X3929043Y2497988
X3975512Y2477771
X3902271Y2497988
X3899027Y2403342
X3889027
Y2393342
Y2383342
Y2373842
X3879027
Y2383342
X3869027
Y2373842
X3899027Y2393342
X3801Y2345
X3771
X3696
Y236625
Y239
X3666
Y236625
Y2345
X3717271Y2497988
X3744043
X3559043
X3532271
X3426771Y2610488
X3453543
X3611771
X3638543
X3796771
X3823543
X3975512Y2504543
X4088012Y2583271
Y2610043
Y2768271
Y2795043
X3975512Y2689543
Y2662771
X3925543Y2694488
X3898771
X3820043Y2806988
X3793271
X3635043
X3608271
X3713771Y2694488
X3740543
X3555543
X3528771
X3450043Y2806988
X3423271
X3526771Y2886988
X3553543
X3711771
X3738543
X3896771
X3923543
X3975512Y2874543
Y2847771
X4088012Y2953271
Y2980043
X3818043Y2999488
X3791271
X3633043
X3606271
X3448043
X3421271
T07
X3402Y23405
Y23255
Y23155
Y23055
Y22955
Y22855
Y22755
Y22655
Y22555
Y22455
Y22355
X3417Y22105
X3427
X3572
X3582
X3592Y22705
Y22805
Y22905
Y23005
Y23105
Y23205
Y23305
Y23405
X3636Y234
Y23175
Y23075
Y228875
Y227875
Y225625
Y224625
Y223625
X3681Y22075
X3691
X3701
X3726
X3736
X3746
X37935
X38035
X38135
X38235Y22425
Y22525
Y22625
Y2295
Y2305
Y23375
X3905987Y2343522
X3905487Y2276522
X3905987Y2224022
X3915987
X3925987
X3939487Y2245022
X3949487
X3959487
X3955987Y2213522
X3965987
X3975987
X3992487Y2210522
X4002487
X4012487
X4022487
X4032487
X4042487
Y2225022
X4032487
X4022487
X4012487
X4002487
X3992487
X3989987Y2260022
X3979987
X3999987
X4022987Y2259022
X4032987
X4042987
X4022287Y2301122
Y2318922
X3996687
Y2301122
X3959987Y2300522
X3949987
X3939987
X3926487Y2305022
X3916487
X3906487
X3915487Y2276522
X3925487
X3925987Y2343522
X3915987
X4068987Y2340522
Y2330522
Y2320522
Y2310522
Y2300522
Y2290522
X4073487Y2256022
X4063487
X4083487
X4093487
X4103487
X4113487
X4112987Y2210022
X4102987
X4092987
X4082987
X4072987
X4062987
X4108987Y2300022
Y2310022
Y2320022
Y2330022
Y2340022
Y2350022
Y2360022
Y2370022
X4112487Y2385022
X4102487
X4092487
X4082487
X4072487
X4062487
Y2400022
X4072487
X4082487
X4092487
X4102487
X4112487
X4068987Y2360522
Y2350522
X4043987Y2354022
X4033987
X4023987
X3999987Y2362522
X3989987
X3979987
X3960487Y2363522
X3950487
X3940487
X3916987Y2372522
X3906987
X3956987Y2385022
X3966987
X3976987
X3986987
X3996987
X4006987
X4016987
X4026987
Y2400022
X4016987
X4006987
X3996987
X3986987
X3976987
X3966987
X3956987
X4042487
X4052487
Y2385022
X4042487
X39975Y24665
Y24765
X3796Y24125
X3786
X3776
X375475
X37805Y239
X37915
Y2365
X37805
X38235Y23575
Y23475
X374475Y24125
X373475
X372475
X371475
X370475
X369475
X368475
X367475
X366475
X3636Y236
Y235
X3592Y23605
Y23705
Y23805
Y23905
Y24005
Y24105
X3557
X3547
X3537
X3402
Y24005
Y23905
Y23805
Y23705
Y23605
Y23505
X34155Y25885
X34255
X35305Y25285
Y25185
X36005Y25885
X36105
X37155Y25285
Y25185
X37855Y25885
X37955
X39005Y25285
Y25185
X40575Y25815
X39975Y26515
X40675Y25815
Y27665
X40575
X39975Y26615
X3897Y2715
Y2725
X3792Y2785
X3782
X3712Y2725
Y2715
X3607Y2785
X3597
X3527Y2725
Y2715
X3422Y2785
X3412
X3525Y29075
Y29175
X371
Y29075
X3895
Y29175
X39975Y28465
Y28365
X40575Y29515
X40675
X379Y29775
X378
X3605
X3595
X342
X341
T08
X3872027Y2207842
X3942027Y2211842
X4125027Y2224842
X4126027Y2338342
X3939027Y2399842
X3872527Y2399342
T09
X3656Y22075
X3766
X3826Y24075
X3636Y24125
T10
X41275Y24565
X39725
X39305Y24585
X37755
X37455
X35905
X35605
X34055
Y26135
X3402Y2655
X3557
X3587
X35905Y26135
X35605
X37455
X3742Y2655
X3772
X37755Y26135
X39305
X39725Y26115
Y26415
X3927Y2655
X41275Y26415
Y26115
Y27965
X39725
X3927Y281
X3772
X3742
X3587
X3557
X3402
X34Y28475
X3555
X3585
X374
X377
X3925
X39725Y28265
X41275
Y29815
X39725
X3925Y30025
X377
X374
X3585
X3555
X34
M30
