M48
;Layer_Color=9474304
;FILE_FORMAT=2:5
INCH,LZ
T11F00S00C0.20000
%
G90
G05
T11
G00X4162988Y21627
M15
G01X4164896Y216329
G01X4166648Y2164248
G01X4168176Y2165535
G01X4169417Y21671
G01X4170322Y2168881
G01X4170855Y2170806
G01X4171Y21725
G01X4171Y30235
G01X4170801Y3025487
G01X417021Y3027396
G01X4169252Y3029148
G01X4167965Y3030676
G01X41664Y3031917
G01X4164619Y3032822
G01X4162694Y3033355
G01X4161Y30335
G01X3373Y30335
G01X3371012Y30333
G01X3369104Y303271
G01X3367352Y3031752
G01X3365824Y3030464
G01X3364583Y30289
G01X3363678Y3027119
G01X3363145Y3025194
G01X3363Y30235
G01X3363Y21725
G01X33632Y2170512
G01X336379Y2168604
G01X3364748Y2166852
G01X3366036Y2165324
G01X3367601Y2164083
G01X3369381Y2163178
G01X3371306Y2162644
G01X3373Y21625
G01X4161Y21625
G01X4162988Y21627
M16
M17
M30
