  0
SECTION
  2
HEADER
  9
$EXTMIN
 10
33.906000
 20
22.012000
  9
$EXTMAX
 10
41.368000
 20
30.118000
  9
$LIMMIN
 10
33.906000
 20
22.012000
  9
$LIMMAX
 10
41.368000
 20
30.118000
  9
$FILLMODE
 70
  1
  0
ENDSEC
  0
SECTION
  2
TABLES
  0
TABLE
  2
LTYPE
 70
  1
  0
LTYPE
  2
CONTINUOUS
 70
 64
  3
Solid line
 72
 65
 73
  0
 40
0.0
  0
ENDTAB
  0
TABLE
  2
LAYER
 70
 1
  0
LAYER
  2
0
 70
  0
 62
7
  6
CONTINUOUS
  0
LAYER
  2
txt
 70
  0
 62
1
  6
CONTINUOUS
  0
ENDTAB
  0
TABLE
  2
STYLE
 70
  1
  0
STYLE
  2
STANDARD
 70
  0
 40
0.0
 41
1.0
 50
0.0
 71
  0
 42
0.2
  3
txt
  4

  0
ENDTAB
  0
ENDSEC
  0
SECTION
  2
BLOCKS
  0
BLOCK
  8
0
  2
D9500
 70
64
 10
0.0
 20
0.0
  3
D9500
  0
CIRCLE
  8
0
 10
0.000000
 20
0.000000
 40
0.010000
 0
ENDBLK
  8
0
  0
BLOCK
  8
0
  2
D9501
 70
64
 10
0.0
 20
0.0
  3
D9501
  0
CIRCLE
  8
0
 10
0.000000
 20
0.000000
 40
0.012795
 0
ENDBLK
  8
0
  0
BLOCK
  8
0
  2
D9502
 70
64
 10
0.0
 20
0.0
  3
D9502
  0
CIRCLE
  8
0
 10
0.000000
 20
0.000000
 40
0.015750
 0
ENDBLK
  8
0
  0
BLOCK
  8
0
  2
D9503
 70
64
 10
0.0
 20
0.0
  3
D9503
  0
CIRCLE
  8
0
 10
0.000000
 20
0.000000
 40
0.016000
 0
ENDBLK
  8
0
  0
BLOCK
  8
0
  2
D9504
 70
64
 10
0.0
 20
0.0
  3
D9504
  0
CIRCLE
  8
0
 10
0.000000
 20
0.000000
 40
0.017000
 0
ENDBLK
  8
0
  0
BLOCK
  8
0
  2
D9505
 70
64
 10
0.0
 20
0.0
  3
D9505
  0
CIRCLE
  8
0
 10
0.000000
 20
0.000000
 40
0.017715
 0
ENDBLK
  8
0
  0
BLOCK
  8
0
  2
D9506
 70
64
 10
0.0
 20
0.0
  3
D9506
  0
CIRCLE
  8
0
 10
0.000000
 20
0.000000
 40
0.020000
 0
ENDBLK
  8
0
  0
BLOCK
  8
0
  2
D9507
 70
64
 10
0.0
 20
0.0
  3
D9507
  0
CIRCLE
  8
0
 10
0.000000
 20
0.000000
 40
0.043305
 0
ENDBLK
  8
0
  0
BLOCK
  8
0
  2
D9508
 70
64
 10
0.0
 20
0.0
  3
D9508
  0
CIRCLE
  8
0
 10
0.000000
 20
0.000000
 40
0.062500
 0
ENDBLK
  8
0
  0
BLOCK
  8
0
  2
D9509
 70
64
 10
0.0
 20
0.0
  3
D9509
  0
CIRCLE
  8
0
 10
0.000000
 20
0.000000
 40
0.093500
 0
ENDBLK
  8
0
  0
ENDSEC
  0
SECTION
  2
ENTITIES
  0
INSERT
  8
txt
  2
D9500
 10
37.420000
 20
23.035000
 41
1.0
 42
1.0
 43
1.0
 50
0.0
  0
INSERT
  8
txt
  2
D9500
 10
37.030000
 20
23.110000
 41
1.0
 42
1.0
 43
1.0
 50
0.0
  0
INSERT
  8
txt
  2
D9500
 10
37.120000
 20
22.840000
 41
1.0
 42
1.0
 43
1.0
 50
0.0
  0
INSERT
  8
txt
  2
D9500
 10
37.030000
 20
22.750000
 41
1.0
 42
1.0
 43
1.0
 50
0.0
  0
INSERT
  8
txt
  2
D9500
 10
36.775000
 20
22.885000
 41
1.0
 42
1.0
 43
1.0
 50
0.0
  0
INSERT
  8
txt
  2
D9500
 10
37.360000
 20
22.540000
 41
1.0
 42
1.0
 43
1.0
 50
0.0
  0
INSERT
  8
txt
  2
D9500
 10
37.390000
 20
22.420000
 41
1.0
 42
1.0
 43
1.0
 50
0.0
  0
INSERT
  8
txt
  2
D9500
 10
37.330000
 20
22.255000
 41
1.0
 42
1.0
 43
1.0
 50
0.0
  0
INSERT
  8
txt
  2
D9500
 10
37.585000
 20
22.360000
 41
1.0
 42
1.0
 43
1.0
 50
0.0
  0
INSERT
  8
txt
  2
D9500
 10
37.590000
 20
22.525000
 41
1.0
 42
1.0
 43
1.0
 50
0.0
  0
INSERT
  8
txt
  2
D9500
 10
37.795000
 20
22.555000
 41
1.0
 42
1.0
 43
1.0
 50
0.0
  0
INSERT
  8
txt
  2
D9500
 10
37.885000
 20
22.465000
 41
1.0
 42
1.0
 43
1.0
 50
0.0
  0
INSERT
  8
txt
  2
D9500
 10
37.975000
 20
22.375000
 41
1.0
 42
1.0
 43
1.0
 50
0.0
  0
INSERT
  8
txt
  2
D9500
 10
38.155000
 20
22.450000
 41
1.0
 42
1.0
 43
1.0
 50
0.0
  0
INSERT
  8
txt
  2
D9500
 10
38.110000
 20
22.930000
 41
1.0
 42
1.0
 43
1.0
 50
0.0
  0
INSERT
  8
txt
  2
D9500
 10
37.615000
 20
22.810000
 41
1.0
 42
1.0
 43
1.0
 50
0.0
  0
INSERT
  8
txt
  2
D9500
 10
37.720000
 20
23.380000
 41
1.0
 42
1.0
 43
1.0
 50
0.0
  0
INSERT
  8
txt
  2
D9500
 10
37.600000
 20
23.485000
 41
1.0
 42
1.0
 43
1.0
 50
0.0
  0
INSERT
  8
txt
  2
D9500
 10
38.125000
 20
23.680000
 41
1.0
 42
1.0
 43
1.0
 50
0.0
  0
INSERT
  8
txt
  2
D9500
 10
36.895000
 20
23.845000
 41
1.0
 42
1.0
 43
1.0
 50
0.0
  0
INSERT
  8
txt
  2
D9500
 10
36.775000
 20
23.845000
 41
1.0
 42
1.0
 43
1.0
 50
0.0
  0
INSERT
  8
txt
  2
D9500
 10
36.730000
 20
23.725000
 41
1.0
 42
1.0
 43
1.0
 50
0.0
  0
INSERT
  8
txt
  2
D9500
 10
36.565000
 20
23.665000
 41
1.0
 42
1.0
 43
1.0
 50
0.0
  0
INSERT
  8
txt
  2
D9500
 10
36.850000
 20
23.500000
 41
1.0
 42
1.0
 43
1.0
 50
0.0
  0
INSERT
  8
txt
  2
D9500
 10
37.047500
 20
24.015000
 41
1.0
 42
1.0
 43
1.0
 50
0.0
  0
INSERT
  8
txt
  2
D9501
 10
41.025000
 20
24.915000
 41
1.0
 42
1.0
 43
1.0
 50
0.0
  0
INSERT
  8
txt
  2
D9501
 10
40.775000
 20
24.965000
 41
1.0
 42
1.0
 43
1.0
 50
0.0
  0
INSERT
  8
txt
  2
D9501
 10
40.775000
 20
24.565000
 41
1.0
 42
1.0
 43
1.0
 50
0.0
  0
INSERT
  8
txt
  2
D9501
 10
40.535000
 20
24.555000
 41
1.0
 42
1.0
 43
1.0
 50
0.0
  0
INSERT
  8
txt
  2
D9501
 10
40.435000
 20
24.655000
 41
1.0
 42
1.0
 43
1.0
 50
0.0
  0
INSERT
  8
txt
  2
D9501
 10
40.535000
 20
24.755000
 41
1.0
 42
1.0
 43
1.0
 50
0.0
  0
INSERT
  8
txt
  2
D9501
 10
39.925000
 20
24.915000
 41
1.0
 42
1.0
 43
1.0
 50
0.0
  0
INSERT
  8
txt
  2
D9501
 10
38.955000
 20
24.785000
 41
1.0
 42
1.0
 43
1.0
 50
0.0
  0
INSERT
  8
txt
  2
D9501
 10
38.905000
 20
24.735000
 41
1.0
 42
1.0
 43
1.0
 50
0.0
  0
INSERT
  8
txt
  2
D9501
 10
38.705000
 20
24.785000
 41
1.0
 42
1.0
 43
1.0
 50
0.0
  0
INSERT
  8
txt
  2
D9501
 10
38.491200
 20
24.940000
 41
1.0
 42
1.0
 43
1.0
 50
0.0
  0
INSERT
  8
txt
  2
D9501
 10
38.105000
 20
24.835000
 41
1.0
 42
1.0
 43
1.0
 50
0.0
  0
INSERT
  8
txt
  2
D9501
 10
37.105000
 20
24.785000
 41
1.0
 42
1.0
 43
1.0
 50
0.0
  0
INSERT
  8
txt
  2
D9501
 10
37.055000
 20
24.735000
 41
1.0
 42
1.0
 43
1.0
 50
0.0
  0
INSERT
  8
txt
  2
D9501
 10
36.855000
 20
24.785000
 41
1.0
 42
1.0
 43
1.0
 50
0.0
  0
INSERT
  8
txt
  2
D9501
 10
36.641200
 20
24.940000
 41
1.0
 42
1.0
 43
1.0
 50
0.0
  0
INSERT
  8
txt
  2
D9501
 10
36.255000
 20
24.835000
 41
1.0
 42
1.0
 43
1.0
 50
0.0
  0
INSERT
  8
txt
  2
D9501
 10
35.255000
 20
24.785000
 41
1.0
 42
1.0
 43
1.0
 50
0.0
  0
INSERT
  8
txt
  2
D9501
 10
35.205000
 20
24.735000
 41
1.0
 42
1.0
 43
1.0
 50
0.0
  0
INSERT
  8
txt
  2
D9501
 10
35.005000
 20
24.785000
 41
1.0
 42
1.0
 43
1.0
 50
0.0
  0
INSERT
  8
txt
  2
D9501
 10
34.791200
 20
24.940000
 41
1.0
 42
1.0
 43
1.0
 50
0.0
  0
INSERT
  8
txt
  2
D9501
 10
34.405000
 20
24.835000
 41
1.0
 42
1.0
 43
1.0
 50
0.0
  0
INSERT
  8
txt
  2
D9501
 10
34.055000
 20
25.085000
 41
1.0
 42
1.0
 43
1.0
 50
0.0
  0
INSERT
  8
txt
  2
D9501
 10
34.045000
 20
25.325000
 41
1.0
 42
1.0
 43
1.0
 50
0.0
  0
INSERT
  8
txt
  2
D9501
 10
34.145000
 20
25.425000
 41
1.0
 42
1.0
 43
1.0
 50
0.0
  0
INSERT
  8
txt
  2
D9501
 10
34.245000
 20
25.325000
 41
1.0
 42
1.0
 43
1.0
 50
0.0
  0
INSERT
  8
txt
  2
D9501
 10
34.455000
 20
25.085000
 41
1.0
 42
1.0
 43
1.0
 50
0.0
  0
INSERT
  8
txt
  2
D9501
 10
34.655000
 20
25.185000
 41
1.0
 42
1.0
 43
1.0
 50
0.0
  0
INSERT
  8
txt
  2
D9501
 10
35.155000
 20
25.235000
 41
1.0
 42
1.0
 43
1.0
 50
0.0
  0
INSERT
  8
txt
  2
D9501
 10
35.405000
 20
25.235000
 41
1.0
 42
1.0
 43
1.0
 50
0.0
  0
INSERT
  8
txt
  2
D9501
 10
35.505000
 20
25.335000
 41
1.0
 42
1.0
 43
1.0
 50
0.0
  0
INSERT
  8
txt
  2
D9501
 10
35.605000
 20
25.235000
 41
1.0
 42
1.0
 43
1.0
 50
0.0
  0
INSERT
  8
txt
  2
D9501
 10
35.895000
 20
25.325000
 41
1.0
 42
1.0
 43
1.0
 50
0.0
  0
INSERT
  8
txt
  2
D9501
 10
35.905000
 20
25.085000
 41
1.0
 42
1.0
 43
1.0
 50
0.0
  0
INSERT
  8
txt
  2
D9501
 10
35.605000
 20
25.635000
 41
1.0
 42
1.0
 43
1.0
 50
0.0
  0
INSERT
  8
txt
  2
D9501
 10
35.505000
 20
25.735000
 41
1.0
 42
1.0
 43
1.0
 50
0.0
  0
INSERT
  8
txt
  2
D9501
 10
35.405000
 20
25.635000
 41
1.0
 42
1.0
 43
1.0
 50
0.0
  0
INSERT
  8
txt
  2
D9501
 10
35.155000
 20
25.885000
 41
1.0
 42
1.0
 43
1.0
 50
0.0
  0
INSERT
  8
txt
  2
D9501
 10
34.719000
 20
25.963000
 41
1.0
 42
1.0
 43
1.0
 50
0.0
  0
INSERT
  8
txt
  2
D9501
 10
34.613940
 20
26.084560
 41
1.0
 42
1.0
 43
1.0
 50
0.0
  0
INSERT
  8
txt
  2
D9501
 10
34.493720
 20
26.174200
 41
1.0
 42
1.0
 43
1.0
 50
0.0
  0
INSERT
  8
txt
  2
D9501
 10
34.405000
 20
25.935000
 41
1.0
 42
1.0
 43
1.0
 50
0.0
  0
INSERT
  8
txt
  2
D9501
 10
36.255000
 20
25.935000
 41
1.0
 42
1.0
 43
1.0
 50
0.0
  0
INSERT
  8
txt
  2
D9501
 10
36.343720
 20
26.174200
 41
1.0
 42
1.0
 43
1.0
 50
0.0
  0
INSERT
  8
txt
  2
D9501
 10
36.463940
 20
26.084560
 41
1.0
 42
1.0
 43
1.0
 50
0.0
  0
INSERT
  8
txt
  2
D9501
 10
36.569000
 20
25.963000
 41
1.0
 42
1.0
 43
1.0
 50
0.0
  0
INSERT
  8
txt
  2
D9501
 10
37.005000
 20
25.885000
 41
1.0
 42
1.0
 43
1.0
 50
0.0
  0
INSERT
  8
txt
  2
D9501
 10
37.355000
 20
25.735000
 41
1.0
 42
1.0
 43
1.0
 50
0.0
  0
INSERT
  8
txt
  2
D9501
 10
37.455000
 20
25.635000
 41
1.0
 42
1.0
 43
1.0
 50
0.0
  0
INSERT
  8
txt
  2
D9501
 10
37.255000
 20
25.635000
 41
1.0
 42
1.0
 43
1.0
 50
0.0
  0
INSERT
  8
txt
  2
D9501
 10
37.355000
 20
25.335000
 41
1.0
 42
1.0
 43
1.0
 50
0.0
  0
INSERT
  8
txt
  2
D9501
 10
37.455000
 20
25.235000
 41
1.0
 42
1.0
 43
1.0
 50
0.0
  0
INSERT
  8
txt
  2
D9501
 10
37.255000
 20
25.235000
 41
1.0
 42
1.0
 43
1.0
 50
0.0
  0
INSERT
  8
txt
  2
D9501
 10
37.005000
 20
25.235000
 41
1.0
 42
1.0
 43
1.0
 50
0.0
  0
INSERT
  8
txt
  2
D9501
 10
36.505000
 20
25.185000
 41
1.0
 42
1.0
 43
1.0
 50
0.0
  0
INSERT
  8
txt
  2
D9501
 10
36.305000
 20
25.085000
 41
1.0
 42
1.0
 43
1.0
 50
0.0
  0
INSERT
  8
txt
  2
D9501
 10
36.095000
 20
25.325000
 41
1.0
 42
1.0
 43
1.0
 50
0.0
  0
INSERT
  8
txt
  2
D9501
 10
35.995000
 20
25.425000
 41
1.0
 42
1.0
 43
1.0
 50
0.0
  0
INSERT
  8
txt
  2
D9501
 10
37.845000
 20
25.425000
 41
1.0
 42
1.0
 43
1.0
 50
0.0
  0
INSERT
  8
txt
  2
D9501
 10
37.945000
 20
25.325000
 41
1.0
 42
1.0
 43
1.0
 50
0.0
  0
INSERT
  8
txt
  2
D9501
 10
37.745000
 20
25.325000
 41
1.0
 42
1.0
 43
1.0
 50
0.0
  0
INSERT
  8
txt
  2
D9501
 10
37.755000
 20
25.085000
 41
1.0
 42
1.0
 43
1.0
 50
0.0
  0
INSERT
  8
txt
  2
D9501
 10
38.155000
 20
25.085000
 41
1.0
 42
1.0
 43
1.0
 50
0.0
  0
INSERT
  8
txt
  2
D9501
 10
38.355000
 20
25.185000
 41
1.0
 42
1.0
 43
1.0
 50
0.0
  0
INSERT
  8
txt
  2
D9501
 10
38.855000
 20
25.235000
 41
1.0
 42
1.0
 43
1.0
 50
0.0
  0
INSERT
  8
txt
  2
D9501
 10
38.855000
 20
25.885000
 41
1.0
 42
1.0
 43
1.0
 50
0.0
  0
INSERT
  8
txt
  2
D9501
 10
38.419000
 20
25.963000
 41
1.0
 42
1.0
 43
1.0
 50
0.0
  0
INSERT
  8
txt
  2
D9501
 10
38.313940
 20
26.084560
 41
1.0
 42
1.0
 43
1.0
 50
0.0
  0
INSERT
  8
txt
  2
D9501
 10
38.193720
 20
26.174200
 41
1.0
 42
1.0
 43
1.0
 50
0.0
  0
INSERT
  8
txt
  2
D9501
 10
38.105000
 20
25.935000
 41
1.0
 42
1.0
 43
1.0
 50
0.0
  0
INSERT
  8
txt
  2
D9501
 10
39.205000
 20
25.735000
 41
1.0
 42
1.0
 43
1.0
 50
0.0
  0
INSERT
  8
txt
  2
D9501
 10
39.305000
 20
25.635000
 41
1.0
 42
1.0
 43
1.0
 50
0.0
  0
INSERT
  8
txt
  2
D9501
 10
39.105000
 20
25.635000
 41
1.0
 42
1.0
 43
1.0
 50
0.0
  0
INSERT
  8
txt
  2
D9501
 10
39.205000
 20
25.335000
 41
1.0
 42
1.0
 43
1.0
 50
0.0
  0
INSERT
  8
txt
  2
D9501
 10
39.305000
 20
25.235000
 41
1.0
 42
1.0
 43
1.0
 50
0.0
  0
INSERT
  8
txt
  2
D9501
 10
39.105000
 20
25.235000
 41
1.0
 42
1.0
 43
1.0
 50
0.0
  0
INSERT
  8
txt
  2
D9501
 10
39.775440
 20
25.123940
 41
1.0
 42
1.0
 43
1.0
 50
0.0
  0
INSERT
  8
txt
  2
D9501
 10
39.685800
 20
25.003720
 41
1.0
 42
1.0
 43
1.0
 50
0.0
  0
INSERT
  8
txt
  2
D9501
 10
39.897000
 20
25.229000
 41
1.0
 42
1.0
 43
1.0
 50
0.0
  0
INSERT
  8
txt
  2
D9501
 10
39.975000
 20
25.665000
 41
1.0
 42
1.0
 43
1.0
 50
0.0
  0
INSERT
  8
txt
  2
D9501
 10
40.125000
 20
26.015000
 41
1.0
 42
1.0
 43
1.0
 50
0.0
  0
INSERT
  8
txt
  2
D9501
 10
40.225000
 20
26.115000
 41
1.0
 42
1.0
 43
1.0
 50
0.0
  0
INSERT
  8
txt
  2
D9501
 10
40.225000
 20
25.915000
 41
1.0
 42
1.0
 43
1.0
 50
0.0
  0
INSERT
  8
txt
  2
D9501
 10
40.525000
 20
26.015000
 41
1.0
 42
1.0
 43
1.0
 50
0.0
  0
INSERT
  8
txt
  2
D9501
 10
40.535000
 20
26.405000
 41
1.0
 42
1.0
 43
1.0
 50
0.0
  0
INSERT
  8
txt
  2
D9501
 10
40.435000
 20
26.505000
 41
1.0
 42
1.0
 43
1.0
 50
0.0
  0
INSERT
  8
txt
  2
D9501
 10
40.775000
 20
26.415000
 41
1.0
 42
1.0
 43
1.0
 50
0.0
  0
INSERT
  8
txt
  2
D9501
 10
40.625000
 20
26.115000
 41
1.0
 42
1.0
 43
1.0
 50
0.0
  0
INSERT
  8
txt
  2
D9501
 10
40.625000
 20
25.915000
 41
1.0
 42
1.0
 43
1.0
 50
0.0
  0
INSERT
  8
txt
  2
D9501
 10
40.625000
 20
25.665000
 41
1.0
 42
1.0
 43
1.0
 50
0.0
  0
INSERT
  8
txt
  2
D9501
 10
41.075000
 20
25.765000
 41
1.0
 42
1.0
 43
1.0
 50
0.0
  0
INSERT
  8
txt
  2
D9501
 10
41.125000
 20
25.715000
 41
1.0
 42
1.0
 43
1.0
 50
0.0
  0
INSERT
  8
txt
  2
D9501
 10
41.075000
 20
25.515000
 41
1.0
 42
1.0
 43
1.0
 50
0.0
  0
INSERT
  8
txt
  2
D9501
 10
40.920000
 20
25.301200
 41
1.0
 42
1.0
 43
1.0
 50
0.0
  0
INSERT
  8
txt
  2
D9501
 10
40.675000
 20
25.165000
 41
1.0
 42
1.0
 43
1.0
 50
0.0
  0
INSERT
  8
txt
  2
D9501
 10
40.775000
 20
26.815000
 41
1.0
 42
1.0
 43
1.0
 50
0.0
  0
INSERT
  8
txt
  2
D9501
 10
41.025000
 20
26.765000
 41
1.0
 42
1.0
 43
1.0
 50
0.0
  0
INSERT
  8
txt
  2
D9501
 10
40.920000
 20
27.151200
 41
1.0
 42
1.0
 43
1.0
 50
0.0
  0
INSERT
  8
txt
  2
D9501
 10
41.075000
 20
27.365000
 41
1.0
 42
1.0
 43
1.0
 50
0.0
  0
INSERT
  8
txt
  2
D9501
 10
41.075000
 20
27.615000
 41
1.0
 42
1.0
 43
1.0
 50
0.0
  0
INSERT
  8
txt
  2
D9501
 10
41.125000
 20
27.565000
 41
1.0
 42
1.0
 43
1.0
 50
0.0
  0
INSERT
  8
txt
  2
D9501
 10
40.625000
 20
27.515000
 41
1.0
 42
1.0
 43
1.0
 50
0.0
  0
INSERT
  8
txt
  2
D9501
 10
40.625000
 20
27.765000
 41
1.0
 42
1.0
 43
1.0
 50
0.0
  0
INSERT
  8
txt
  2
D9501
 10
40.625000
 20
27.965000
 41
1.0
 42
1.0
 43
1.0
 50
0.0
  0
INSERT
  8
txt
  2
D9501
 10
40.675000
 20
27.015000
 41
1.0
 42
1.0
 43
1.0
 50
0.0
  0
INSERT
  8
txt
  2
D9501
 10
40.535000
 20
26.605000
 41
1.0
 42
1.0
 43
1.0
 50
0.0
  0
INSERT
  8
txt
  2
D9501
 10
39.925000
 20
26.765000
 41
1.0
 42
1.0
 43
1.0
 50
0.0
  0
INSERT
  8
txt
  2
D9501
 10
39.685800
 20
26.853720
 41
1.0
 42
1.0
 43
1.0
 50
0.0
  0
INSERT
  8
txt
  2
D9501
 10
39.775440
 20
26.973940
 41
1.0
 42
1.0
 43
1.0
 50
0.0
  0
INSERT
  8
txt
  2
D9501
 10
39.897000
 20
27.079000
 41
1.0
 42
1.0
 43
1.0
 50
0.0
  0
INSERT
  8
txt
  2
D9501
 10
39.975000
 20
27.515000
 41
1.0
 42
1.0
 43
1.0
 50
0.0
  0
INSERT
  8
txt
  2
D9501
 10
40.125000
 20
27.865000
 41
1.0
 42
1.0
 43
1.0
 50
0.0
  0
INSERT
  8
txt
  2
D9501
 10
40.225000
 20
27.965000
 41
1.0
 42
1.0
 43
1.0
 50
0.0
  0
INSERT
  8
txt
  2
D9501
 10
40.225000
 20
27.765000
 41
1.0
 42
1.0
 43
1.0
 50
0.0
  0
INSERT
  8
txt
  2
D9501
 10
40.525000
 20
27.865000
 41
1.0
 42
1.0
 43
1.0
 50
0.0
  0
INSERT
  8
txt
  2
D9501
 10
39.170000
 20
27.700000
 41
1.0
 42
1.0
 43
1.0
 50
0.0
  0
INSERT
  8
txt
  2
D9501
 10
39.270000
 20
27.600000
 41
1.0
 42
1.0
 43
1.0
 50
0.0
  0
INSERT
  8
txt
  2
D9501
 10
39.070000
 20
27.600000
 41
1.0
 42
1.0
 43
1.0
 50
0.0
  0
INSERT
  8
txt
  2
D9501
 10
39.170000
 20
27.300000
 41
1.0
 42
1.0
 43
1.0
 50
0.0
  0
INSERT
  8
txt
  2
D9501
 10
39.270000
 20
27.200000
 41
1.0
 42
1.0
 43
1.0
 50
0.0
  0
INSERT
  8
txt
  2
D9501
 10
39.070000
 20
27.200000
 41
1.0
 42
1.0
 43
1.0
 50
0.0
  0
INSERT
  8
txt
  2
D9501
 10
38.820000
 20
27.200000
 41
1.0
 42
1.0
 43
1.0
 50
0.0
  0
INSERT
  8
txt
  2
D9501
 10
38.920000
 20
26.750000
 41
1.0
 42
1.0
 43
1.0
 50
0.0
  0
INSERT
  8
txt
  2
D9501
 10
38.870000
 20
26.700000
 41
1.0
 42
1.0
 43
1.0
 50
0.0
  0
INSERT
  8
txt
  2
D9501
 10
38.670000
 20
26.750000
 41
1.0
 42
1.0
 43
1.0
 50
0.0
  0
INSERT
  8
txt
  2
D9501
 10
38.456200
 20
26.905000
 41
1.0
 42
1.0
 43
1.0
 50
0.0
  0
INSERT
  8
txt
  2
D9501
 10
38.320000
 20
27.150000
 41
1.0
 42
1.0
 43
1.0
 50
0.0
  0
INSERT
  8
txt
  2
D9501
 10
38.120000
 20
27.050000
 41
1.0
 42
1.0
 43
1.0
 50
0.0
  0
INSERT
  8
txt
  2
D9501
 10
38.070000
 20
26.800000
 41
1.0
 42
1.0
 43
1.0
 50
0.0
  0
INSERT
  8
txt
  2
D9501
 10
37.720000
 20
27.050000
 41
1.0
 42
1.0
 43
1.0
 50
0.0
  0
INSERT
  8
txt
  2
D9501
 10
37.710000
 20
27.290000
 41
1.0
 42
1.0
 43
1.0
 50
0.0
  0
INSERT
  8
txt
  2
D9501
 10
37.810000
 20
27.390000
 41
1.0
 42
1.0
 43
1.0
 50
0.0
  0
INSERT
  8
txt
  2
D9501
 10
37.910000
 20
27.290000
 41
1.0
 42
1.0
 43
1.0
 50
0.0
  0
INSERT
  8
txt
  2
D9501
 10
38.070000
 20
27.900000
 41
1.0
 42
1.0
 43
1.0
 50
0.0
  0
INSERT
  8
txt
  2
D9501
 10
38.384000
 20
27.928000
 41
1.0
 42
1.0
 43
1.0
 50
0.0
  0
INSERT
  8
txt
  2
D9501
 10
38.278940
 20
28.049560
 41
1.0
 42
1.0
 43
1.0
 50
0.0
  0
INSERT
  8
txt
  2
D9501
 10
38.820000
 20
27.850000
 41
1.0
 42
1.0
 43
1.0
 50
0.0
  0
INSERT
  8
txt
  2
D9501
 10
37.320000
 20
27.700000
 41
1.0
 42
1.0
 43
1.0
 50
0.0
  0
INSERT
  8
txt
  2
D9501
 10
37.420000
 20
27.600000
 41
1.0
 42
1.0
 43
1.0
 50
0.0
  0
INSERT
  8
txt
  2
D9501
 10
37.220000
 20
27.600000
 41
1.0
 42
1.0
 43
1.0
 50
0.0
  0
INSERT
  8
txt
  2
D9501
 10
37.320000
 20
27.300000
 41
1.0
 42
1.0
 43
1.0
 50
0.0
  0
INSERT
  8
txt
  2
D9501
 10
37.420000
 20
27.200000
 41
1.0
 42
1.0
 43
1.0
 50
0.0
  0
INSERT
  8
txt
  2
D9501
 10
37.220000
 20
27.200000
 41
1.0
 42
1.0
 43
1.0
 50
0.0
  0
INSERT
  8
txt
  2
D9501
 10
36.970000
 20
27.200000
 41
1.0
 42
1.0
 43
1.0
 50
0.0
  0
INSERT
  8
txt
  2
D9501
 10
37.070000
 20
26.750000
 41
1.0
 42
1.0
 43
1.0
 50
0.0
  0
INSERT
  8
txt
  2
D9501
 10
37.020000
 20
26.700000
 41
1.0
 42
1.0
 43
1.0
 50
0.0
  0
INSERT
  8
txt
  2
D9501
 10
36.820000
 20
26.750000
 41
1.0
 42
1.0
 43
1.0
 50
0.0
  0
INSERT
  8
txt
  2
D9501
 10
36.606200
 20
26.905000
 41
1.0
 42
1.0
 43
1.0
 50
0.0
  0
INSERT
  8
txt
  2
D9501
 10
36.470000
 20
27.150000
 41
1.0
 42
1.0
 43
1.0
 50
0.0
  0
INSERT
  8
txt
  2
D9501
 10
36.270000
 20
27.050000
 41
1.0
 42
1.0
 43
1.0
 50
0.0
  0
INSERT
  8
txt
  2
D9501
 10
36.220000
 20
26.800000
 41
1.0
 42
1.0
 43
1.0
 50
0.0
  0
INSERT
  8
txt
  2
D9501
 10
36.060000
 20
27.290000
 41
1.0
 42
1.0
 43
1.0
 50
0.0
  0
INSERT
  8
txt
  2
D9501
 10
35.960000
 20
27.390000
 41
1.0
 42
1.0
 43
1.0
 50
0.0
  0
INSERT
  8
txt
  2
D9501
 10
36.220000
 20
27.900000
 41
1.0
 42
1.0
 43
1.0
 50
0.0
  0
INSERT
  8
txt
  2
D9501
 10
36.534000
 20
27.928000
 41
1.0
 42
1.0
 43
1.0
 50
0.0
  0
INSERT
  8
txt
  2
D9501
 10
36.428940
 20
28.049560
 41
1.0
 42
1.0
 43
1.0
 50
0.0
  0
INSERT
  8
txt
  2
D9501
 10
36.970000
 20
27.850000
 41
1.0
 42
1.0
 43
1.0
 50
0.0
  0
INSERT
  8
txt
  2
D9501
 10
35.470000
 20
27.700000
 41
1.0
 42
1.0
 43
1.0
 50
0.0
  0
INSERT
  8
txt
  2
D9501
 10
35.570000
 20
27.600000
 41
1.0
 42
1.0
 43
1.0
 50
0.0
  0
INSERT
  8
txt
  2
D9501
 10
35.370000
 20
27.600000
 41
1.0
 42
1.0
 43
1.0
 50
0.0
  0
INSERT
  8
txt
  2
D9501
 10
35.470000
 20
27.300000
 41
1.0
 42
1.0
 43
1.0
 50
0.0
  0
INSERT
  8
txt
  2
D9501
 10
35.570000
 20
27.200000
 41
1.0
 42
1.0
 43
1.0
 50
0.0
  0
INSERT
  8
txt
  2
D9501
 10
35.370000
 20
27.200000
 41
1.0
 42
1.0
 43
1.0
 50
0.0
  0
INSERT
  8
txt
  2
D9501
 10
35.120000
 20
27.200000
 41
1.0
 42
1.0
 43
1.0
 50
0.0
  0
INSERT
  8
txt
  2
D9501
 10
35.220000
 20
26.750000
 41
1.0
 42
1.0
 43
1.0
 50
0.0
  0
INSERT
  8
txt
  2
D9501
 10
35.170000
 20
26.700000
 41
1.0
 42
1.0
 43
1.0
 50
0.0
  0
INSERT
  8
txt
  2
D9501
 10
34.970000
 20
26.750000
 41
1.0
 42
1.0
 43
1.0
 50
0.0
  0
INSERT
  8
txt
  2
D9501
 10
34.756200
 20
26.905000
 41
1.0
 42
1.0
 43
1.0
 50
0.0
  0
INSERT
  8
txt
  2
D9501
 10
34.620000
 20
27.150000
 41
1.0
 42
1.0
 43
1.0
 50
0.0
  0
INSERT
  8
txt
  2
D9501
 10
34.420000
 20
27.050000
 41
1.0
 42
1.0
 43
1.0
 50
0.0
  0
INSERT
  8
txt
  2
D9501
 10
34.684000
 20
27.928000
 41
1.0
 42
1.0
 43
1.0
 50
0.0
  0
INSERT
  8
txt
  2
D9501
 10
34.578940
 20
28.049560
 41
1.0
 42
1.0
 43
1.0
 50
0.0
  0
INSERT
  8
txt
  2
D9501
 10
35.120000
 20
27.850000
 41
1.0
 42
1.0
 43
1.0
 50
0.0
  0
INSERT
  8
txt
  2
D9501
 10
35.860000
 20
27.290000
 41
1.0
 42
1.0
 43
1.0
 50
0.0
  0
INSERT
  8
txt
  2
D9501
 10
35.870000
 20
27.050000
 41
1.0
 42
1.0
 43
1.0
 50
0.0
  0
INSERT
  8
txt
  2
D9501
 10
34.370000
 20
26.800000
 41
1.0
 42
1.0
 43
1.0
 50
0.0
  0
INSERT
  8
txt
  2
D9501
 10
34.020000
 20
27.050000
 41
1.0
 42
1.0
 43
1.0
 50
0.0
  0
INSERT
  8
txt
  2
D9501
 10
34.010000
 20
27.290000
 41
1.0
 42
1.0
 43
1.0
 50
0.0
  0
INSERT
  8
txt
  2
D9501
 10
34.110000
 20
27.390000
 41
1.0
 42
1.0
 43
1.0
 50
0.0
  0
INSERT
  8
txt
  2
D9501
 10
34.210000
 20
27.290000
 41
1.0
 42
1.0
 43
1.0
 50
0.0
  0
INSERT
  8
txt
  2
D9501
 10
34.370000
 20
27.900000
 41
1.0
 42
1.0
 43
1.0
 50
0.0
  0
INSERT
  8
txt
  2
D9501
 10
34.350000
 20
28.725000
 41
1.0
 42
1.0
 43
1.0
 50
0.0
  0
INSERT
  8
txt
  2
D9501
 10
34.000000
 20
28.975000
 41
1.0
 42
1.0
 43
1.0
 50
0.0
  0
INSERT
  8
txt
  2
D9501
 10
33.990000
 20
29.215000
 41
1.0
 42
1.0
 43
1.0
 50
0.0
  0
INSERT
  8
txt
  2
D9501
 10
34.090000
 20
29.315000
 41
1.0
 42
1.0
 43
1.0
 50
0.0
  0
INSERT
  8
txt
  2
D9501
 10
34.190000
 20
29.215000
 41
1.0
 42
1.0
 43
1.0
 50
0.0
  0
INSERT
  8
txt
  2
D9501
 10
34.400000
 20
28.975000
 41
1.0
 42
1.0
 43
1.0
 50
0.0
  0
INSERT
  8
txt
  2
D9501
 10
34.600000
 20
29.075000
 41
1.0
 42
1.0
 43
1.0
 50
0.0
  0
INSERT
  8
txt
  2
D9501
 10
34.736200
 20
28.830000
 41
1.0
 42
1.0
 43
1.0
 50
0.0
  0
INSERT
  8
txt
  2
D9501
 10
34.950000
 20
28.675000
 41
1.0
 42
1.0
 43
1.0
 50
0.0
  0
INSERT
  8
txt
  2
D9501
 10
35.200000
 20
28.675000
 41
1.0
 42
1.0
 43
1.0
 50
0.0
  0
INSERT
  8
txt
  2
D9501
 10
35.150000
 20
28.625000
 41
1.0
 42
1.0
 43
1.0
 50
0.0
  0
INSERT
  8
txt
  2
D9501
 10
35.100000
 20
29.125000
 41
1.0
 42
1.0
 43
1.0
 50
0.0
  0
INSERT
  8
txt
  2
D9501
 10
35.350000
 20
29.125000
 41
1.0
 42
1.0
 43
1.0
 50
0.0
  0
INSERT
  8
txt
  2
D9501
 10
35.450000
 20
29.225000
 41
1.0
 42
1.0
 43
1.0
 50
0.0
  0
INSERT
  8
txt
  2
D9501
 10
35.550000
 20
29.125000
 41
1.0
 42
1.0
 43
1.0
 50
0.0
  0
INSERT
  8
txt
  2
D9501
 10
35.840000
 20
29.215000
 41
1.0
 42
1.0
 43
1.0
 50
0.0
  0
INSERT
  8
txt
  2
D9501
 10
35.850000
 20
28.975000
 41
1.0
 42
1.0
 43
1.0
 50
0.0
  0
INSERT
  8
txt
  2
D9501
 10
35.550000
 20
29.525000
 41
1.0
 42
1.0
 43
1.0
 50
0.0
  0
INSERT
  8
txt
  2
D9501
 10
35.450000
 20
29.625000
 41
1.0
 42
1.0
 43
1.0
 50
0.0
  0
INSERT
  8
txt
  2
D9501
 10
35.350000
 20
29.525000
 41
1.0
 42
1.0
 43
1.0
 50
0.0
  0
INSERT
  8
txt
  2
D9501
 10
34.458720
 20
28.139200
 41
1.0
 42
1.0
 43
1.0
 50
0.0
  0
INSERT
  8
txt
  2
D9501
 10
36.308720
 20
28.139200
 41
1.0
 42
1.0
 43
1.0
 50
0.0
  0
INSERT
  8
txt
  2
D9501
 10
36.200000
 20
28.725000
 41
1.0
 42
1.0
 43
1.0
 50
0.0
  0
INSERT
  8
txt
  2
D9501
 10
36.250000
 20
28.975000
 41
1.0
 42
1.0
 43
1.0
 50
0.0
  0
INSERT
  8
txt
  2
D9501
 10
36.450000
 20
29.075000
 41
1.0
 42
1.0
 43
1.0
 50
0.0
  0
INSERT
  8
txt
  2
D9501
 10
36.586200
 20
28.830000
 41
1.0
 42
1.0
 43
1.0
 50
0.0
  0
INSERT
  8
txt
  2
D9501
 10
36.800000
 20
28.675000
 41
1.0
 42
1.0
 43
1.0
 50
0.0
  0
INSERT
  8
txt
  2
D9501
 10
37.050000
 20
28.675000
 41
1.0
 42
1.0
 43
1.0
 50
0.0
  0
INSERT
  8
txt
  2
D9501
 10
37.000000
 20
28.625000
 41
1.0
 42
1.0
 43
1.0
 50
0.0
  0
INSERT
  8
txt
  2
D9501
 10
36.950000
 20
29.125000
 41
1.0
 42
1.0
 43
1.0
 50
0.0
  0
INSERT
  8
txt
  2
D9501
 10
37.200000
 20
29.125000
 41
1.0
 42
1.0
 43
1.0
 50
0.0
  0
INSERT
  8
txt
  2
D9501
 10
37.300000
 20
29.225000
 41
1.0
 42
1.0
 43
1.0
 50
0.0
  0
INSERT
  8
txt
  2
D9501
 10
37.400000
 20
29.125000
 41
1.0
 42
1.0
 43
1.0
 50
0.0
  0
INSERT
  8
txt
  2
D9501
 10
37.400000
 20
29.525000
 41
1.0
 42
1.0
 43
1.0
 50
0.0
  0
INSERT
  8
txt
  2
D9501
 10
37.300000
 20
29.625000
 41
1.0
 42
1.0
 43
1.0
 50
0.0
  0
INSERT
  8
txt
  2
D9501
 10
37.200000
 20
29.525000
 41
1.0
 42
1.0
 43
1.0
 50
0.0
  0
INSERT
  8
txt
  2
D9501
 10
35.940000
 20
29.315000
 41
1.0
 42
1.0
 43
1.0
 50
0.0
  0
INSERT
  8
txt
  2
D9501
 10
36.040000
 20
29.215000
 41
1.0
 42
1.0
 43
1.0
 50
0.0
  0
INSERT
  8
txt
  2
D9501
 10
37.690000
 20
29.215000
 41
1.0
 42
1.0
 43
1.0
 50
0.0
  0
INSERT
  8
txt
  2
D9501
 10
37.790000
 20
29.315000
 41
1.0
 42
1.0
 43
1.0
 50
0.0
  0
INSERT
  8
txt
  2
D9501
 10
37.890000
 20
29.215000
 41
1.0
 42
1.0
 43
1.0
 50
0.0
  0
INSERT
  8
txt
  2
D9501
 10
37.700000
 20
28.975000
 41
1.0
 42
1.0
 43
1.0
 50
0.0
  0
INSERT
  8
txt
  2
D9501
 10
38.100000
 20
28.975000
 41
1.0
 42
1.0
 43
1.0
 50
0.0
  0
INSERT
  8
txt
  2
D9501
 10
38.050000
 20
28.725000
 41
1.0
 42
1.0
 43
1.0
 50
0.0
  0
INSERT
  8
txt
  2
D9501
 10
38.436200
 20
28.830000
 41
1.0
 42
1.0
 43
1.0
 50
0.0
  0
INSERT
  8
txt
  2
D9501
 10
38.650000
 20
28.675000
 41
1.0
 42
1.0
 43
1.0
 50
0.0
  0
INSERT
  8
txt
  2
D9501
 10
38.900000
 20
28.675000
 41
1.0
 42
1.0
 43
1.0
 50
0.0
  0
INSERT
  8
txt
  2
D9501
 10
38.850000
 20
28.625000
 41
1.0
 42
1.0
 43
1.0
 50
0.0
  0
INSERT
  8
txt
  2
D9501
 10
38.800000
 20
29.125000
 41
1.0
 42
1.0
 43
1.0
 50
0.0
  0
INSERT
  8
txt
  2
D9501
 10
39.050000
 20
29.125000
 41
1.0
 42
1.0
 43
1.0
 50
0.0
  0
INSERT
  8
txt
  2
D9501
 10
39.050000
 20
29.525000
 41
1.0
 42
1.0
 43
1.0
 50
0.0
  0
INSERT
  8
txt
  2
D9501
 10
38.300000
 20
29.075000
 41
1.0
 42
1.0
 43
1.0
 50
0.0
  0
INSERT
  8
txt
  2
D9501
 10
38.158720
 20
28.139200
 41
1.0
 42
1.0
 43
1.0
 50
0.0
  0
INSERT
  8
txt
  2
D9501
 10
39.150000
 20
29.225000
 41
1.0
 42
1.0
 43
1.0
 50
0.0
  0
INSERT
  8
txt
  2
D9501
 10
39.250000
 20
29.125000
 41
1.0
 42
1.0
 43
1.0
 50
0.0
  0
INSERT
  8
txt
  2
D9501
 10
39.250000
 20
29.525000
 41
1.0
 42
1.0
 43
1.0
 50
0.0
  0
INSERT
  8
txt
  2
D9501
 10
39.150000
 20
29.625000
 41
1.0
 42
1.0
 43
1.0
 50
0.0
  0
INSERT
  8
txt
  2
D9501
 10
39.975000
 20
29.365000
 41
1.0
 42
1.0
 43
1.0
 50
0.0
  0
INSERT
  8
txt
  2
D9501
 10
40.225000
 20
29.615000
 41
1.0
 42
1.0
 43
1.0
 50
0.0
  0
INSERT
  8
txt
  2
D9501
 10
39.897000
 20
28.929000
 41
1.0
 42
1.0
 43
1.0
 50
0.0
  0
INSERT
  8
txt
  2
D9501
 10
39.775440
 20
28.823940
 41
1.0
 42
1.0
 43
1.0
 50
0.0
  0
INSERT
  8
txt
  2
D9501
 10
39.685800
 20
28.703720
 41
1.0
 42
1.0
 43
1.0
 50
0.0
  0
INSERT
  8
txt
  2
D9501
 10
39.925000
 20
28.615000
 41
1.0
 42
1.0
 43
1.0
 50
0.0
  0
INSERT
  8
txt
  2
D9501
 10
40.435000
 20
28.355000
 41
1.0
 42
1.0
 43
1.0
 50
0.0
  0
INSERT
  8
txt
  2
D9501
 10
40.535000
 20
28.455000
 41
1.0
 42
1.0
 43
1.0
 50
0.0
  0
INSERT
  8
txt
  2
D9501
 10
40.535000
 20
28.255000
 41
1.0
 42
1.0
 43
1.0
 50
0.0
  0
INSERT
  8
txt
  2
D9501
 10
40.775000
 20
28.265000
 41
1.0
 42
1.0
 43
1.0
 50
0.0
  0
INSERT
  8
txt
  2
D9501
 10
40.775000
 20
28.665000
 41
1.0
 42
1.0
 43
1.0
 50
0.0
  0
INSERT
  8
txt
  2
D9501
 10
41.025000
 20
28.615000
 41
1.0
 42
1.0
 43
1.0
 50
0.0
  0
INSERT
  8
txt
  2
D9501
 10
40.920000
 20
29.001200
 41
1.0
 42
1.0
 43
1.0
 50
0.0
  0
INSERT
  8
txt
  2
D9501
 10
41.075000
 20
29.215000
 41
1.0
 42
1.0
 43
1.0
 50
0.0
  0
INSERT
  8
txt
  2
D9501
 10
41.075000
 20
29.465000
 41
1.0
 42
1.0
 43
1.0
 50
0.0
  0
INSERT
  8
txt
  2
D9501
 10
41.125000
 20
29.415000
 41
1.0
 42
1.0
 43
1.0
 50
0.0
  0
INSERT
  8
txt
  2
D9501
 10
40.625000
 20
29.365000
 41
1.0
 42
1.0
 43
1.0
 50
0.0
  0
INSERT
  8
txt
  2
D9501
 10
40.625000
 20
29.615000
 41
1.0
 42
1.0
 43
1.0
 50
0.0
  0
INSERT
  8
txt
  2
D9501
 10
40.675000
 20
28.865000
 41
1.0
 42
1.0
 43
1.0
 50
0.0
  0
INSERT
  8
txt
  2
D9501
 10
40.625000
 20
29.815000
 41
1.0
 42
1.0
 43
1.0
 50
0.0
  0
INSERT
  8
txt
  2
D9501
 10
40.525000
 20
29.715000
 41
1.0
 42
1.0
 43
1.0
 50
0.0
  0
INSERT
  8
txt
  2
D9501
 10
40.125000
 20
29.715000
 41
1.0
 42
1.0
 43
1.0
 50
0.0
  0
INSERT
  8
txt
  2
D9501
 10
40.225000
 20
29.815000
 41
1.0
 42
1.0
 43
1.0
 50
0.0
  0
INSERT
  8
txt
  2
D9501
 10
38.800000
 20
29.775000
 41
1.0
 42
1.0
 43
1.0
 50
0.0
  0
INSERT
  8
txt
  2
D9501
 10
38.364000
 20
29.853000
 41
1.0
 42
1.0
 43
1.0
 50
0.0
  0
INSERT
  8
txt
  2
D9501
 10
38.258940
 20
29.974560
 41
1.0
 42
1.0
 43
1.0
 50
0.0
  0
INSERT
  8
txt
  2
D9501
 10
38.138720
 20
30.064200
 41
1.0
 42
1.0
 43
1.0
 50
0.0
  0
INSERT
  8
txt
  2
D9501
 10
38.050000
 20
29.825000
 41
1.0
 42
1.0
 43
1.0
 50
0.0
  0
INSERT
  8
txt
  2
D9501
 10
36.950000
 20
29.775000
 41
1.0
 42
1.0
 43
1.0
 50
0.0
  0
INSERT
  8
txt
  2
D9501
 10
36.514000
 20
29.853000
 41
1.0
 42
1.0
 43
1.0
 50
0.0
  0
INSERT
  8
txt
  2
D9501
 10
36.408940
 20
29.974560
 41
1.0
 42
1.0
 43
1.0
 50
0.0
  0
INSERT
  8
txt
  2
D9501
 10
36.288720
 20
30.064200
 41
1.0
 42
1.0
 43
1.0
 50
0.0
  0
INSERT
  8
txt
  2
D9501
 10
36.200000
 20
29.825000
 41
1.0
 42
1.0
 43
1.0
 50
0.0
  0
INSERT
  8
txt
  2
D9501
 10
35.100000
 20
29.775000
 41
1.0
 42
1.0
 43
1.0
 50
0.0
  0
INSERT
  8
txt
  2
D9501
 10
34.664000
 20
29.853000
 41
1.0
 42
1.0
 43
1.0
 50
0.0
  0
INSERT
  8
txt
  2
D9501
 10
34.558940
 20
29.974560
 41
1.0
 42
1.0
 43
1.0
 50
0.0
  0
INSERT
  8
txt
  2
D9501
 10
34.438720
 20
30.064200
 41
1.0
 42
1.0
 43
1.0
 50
0.0
  0
INSERT
  8
txt
  2
D9501
 10
34.350000
 20
29.825000
 41
1.0
 42
1.0
 43
1.0
 50
0.0
  0
INSERT
  8
txt
  2
D9502
 10
40.319870
 20
23.310220
 41
1.0
 42
1.0
 43
1.0
 50
0.0
  0
INSERT
  8
txt
  2
D9502
 10
39.974870
 20
23.325220
 41
1.0
 42
1.0
 43
1.0
 50
0.0
  0
INSERT
  8
txt
  2
D9502
 10
40.119870
 20
22.590220
 41
1.0
 42
1.0
 43
1.0
 50
0.0
  0
INSERT
  8
txt
  2
D9502
 10
40.124870
 20
22.420220
 41
1.0
 42
1.0
 43
1.0
 50
0.0
  0
INSERT
  8
txt
  2
D9502
 10
40.539870
 20
22.580220
 41
1.0
 42
1.0
 43
1.0
 50
0.0
  0
INSERT
  8
txt
  2
D9502
 10
39.719870
 20
23.495220
 41
1.0
 42
1.0
 43
1.0
 50
0.0
  0
INSERT
  8
txt
  2
D9502
 10
39.249870
 20
23.930220
 41
1.0
 42
1.0
 43
1.0
 50
0.0
  0
INSERT
  8
txt
  2
D9503
 10
34.270000
 20
23.255000
 41
1.0
 42
1.0
 43
1.0
 50
0.0
  0
INSERT
  8
txt
  2
D9503
 10
34.320000
 20
22.805000
 41
1.0
 42
1.0
 43
1.0
 50
0.0
  0
INSERT
  8
txt
  2
D9503
 10
34.320000
 20
22.505000
 41
1.0
 42
1.0
 43
1.0
 50
0.0
  0
INSERT
  8
txt
  2
D9503
 10
34.470000
 20
22.605000
 41
1.0
 42
1.0
 43
1.0
 50
0.0
  0
INSERT
  8
txt
  2
D9503
 10
34.470000
 20
22.905000
 41
1.0
 42
1.0
 43
1.0
 50
0.0
  0
INSERT
  8
txt
  2
D9503
 10
34.520000
 20
23.205000
 41
1.0
 42
1.0
 43
1.0
 50
0.0
  0
INSERT
  8
txt
  2
D9503
 10
34.770000
 20
23.355000
 41
1.0
 42
1.0
 43
1.0
 50
0.0
  0
INSERT
  8
txt
  2
D9503
 10
34.870000
 20
23.355000
 41
1.0
 42
1.0
 43
1.0
 50
0.0
  0
INSERT
  8
txt
  2
D9503
 10
35.170000
 20
23.405000
 41
1.0
 42
1.0
 43
1.0
 50
0.0
  0
INSERT
  8
txt
  2
D9503
 10
35.170000
 20
23.105000
 41
1.0
 42
1.0
 43
1.0
 50
0.0
  0
INSERT
  8
txt
  2
D9503
 10
35.370000
 20
23.105000
 41
1.0
 42
1.0
 43
1.0
 50
0.0
  0
INSERT
  8
txt
  2
D9503
 10
35.370000
 20
23.005000
 41
1.0
 42
1.0
 43
1.0
 50
0.0
  0
INSERT
  8
txt
  2
D9503
 10
35.370000
 20
23.205000
 41
1.0
 42
1.0
 43
1.0
 50
0.0
  0
INSERT
  8
txt
  2
D9503
 10
35.370000
 20
23.305000
 41
1.0
 42
1.0
 43
1.0
 50
0.0
  0
INSERT
  8
txt
  2
D9503
 10
35.670000
 20
23.305000
 41
1.0
 42
1.0
 43
1.0
 50
0.0
  0
INSERT
  8
txt
  2
D9503
 10
35.670000
 20
23.205000
 41
1.0
 42
1.0
 43
1.0
 50
0.0
  0
INSERT
  8
txt
  2
D9503
 10
35.670000
 20
23.105000
 41
1.0
 42
1.0
 43
1.0
 50
0.0
  0
INSERT
  8
txt
  2
D9503
 10
35.670000
 20
23.005000
 41
1.0
 42
1.0
 43
1.0
 50
0.0
  0
INSERT
  8
txt
  2
D9503
 10
35.570000
 20
22.705000
 41
1.0
 42
1.0
 43
1.0
 50
0.0
  0
INSERT
  8
txt
  2
D9503
 10
35.370000
 20
22.755000
 41
1.0
 42
1.0
 43
1.0
 50
0.0
  0
INSERT
  8
txt
  2
D9503
 10
35.370000
 20
22.455000
 41
1.0
 42
1.0
 43
1.0
 50
0.0
  0
INSERT
  8
txt
  2
D9503
 10
35.570000
 20
22.405000
 41
1.0
 42
1.0
 43
1.0
 50
0.0
  0
INSERT
  8
txt
  2
D9503
 10
35.320000
 20
22.255000
 41
1.0
 42
1.0
 43
1.0
 50
0.0
  0
INSERT
  8
txt
  2
D9503
 10
35.220000
 20
22.255000
 41
1.0
 42
1.0
 43
1.0
 50
0.0
  0
INSERT
  8
txt
  2
D9503
 10
34.970000
 20
22.305000
 41
1.0
 42
1.0
 43
1.0
 50
0.0
  0
INSERT
  8
txt
  2
D9503
 10
34.670000
 20
22.305000
 41
1.0
 42
1.0
 43
1.0
 50
0.0
  0
INSERT
  8
txt
  2
D9503
 10
34.770000
 20
22.655000
 41
1.0
 42
1.0
 43
1.0
 50
0.0
  0
INSERT
  8
txt
  2
D9503
 10
34.870000
 20
22.655000
 41
1.0
 42
1.0
 43
1.0
 50
0.0
  0
INSERT
  8
txt
  2
D9503
 10
34.770000
 20
22.955000
 41
1.0
 42
1.0
 43
1.0
 50
0.0
  0
INSERT
  8
txt
  2
D9503
 10
35.070000
 20
22.955000
 41
1.0
 42
1.0
 43
1.0
 50
0.0
  0
INSERT
  8
txt
  2
D9503
 10
37.195000
 20
22.950000
 41
1.0
 42
1.0
 43
1.0
 50
0.0
  0
INSERT
  8
txt
  2
D9503
 10
37.195000
 20
23.050000
 41
1.0
 42
1.0
 43
1.0
 50
0.0
  0
INSERT
  8
txt
  2
D9503
 10
37.195000
 20
23.150000
 41
1.0
 42
1.0
 43
1.0
 50
0.0
  0
INSERT
  8
txt
  2
D9503
 10
37.195000
 20
23.250000
 41
1.0
 42
1.0
 43
1.0
 50
0.0
  0
INSERT
  8
txt
  2
D9503
 10
37.210000
 20
22.675000
 41
1.0
 42
1.0
 43
1.0
 50
0.0
  0
INSERT
  8
txt
  2
D9503
 10
37.210000
 20
22.575000
 41
1.0
 42
1.0
 43
1.0
 50
0.0
  0
INSERT
  8
txt
  2
D9503
 10
37.210000
 20
22.475000
 41
1.0
 42
1.0
 43
1.0
 50
0.0
  0
INSERT
  8
txt
  2
D9503
 10
37.210000
 20
22.375000
 41
1.0
 42
1.0
 43
1.0
 50
0.0
  0
INSERT
  8
txt
  2
D9503
 10
37.510000
 20
22.375000
 41
1.0
 42
1.0
 43
1.0
 50
0.0
  0
INSERT
  8
txt
  2
D9503
 10
37.510000
 20
22.475000
 41
1.0
 42
1.0
 43
1.0
 50
0.0
  0
INSERT
  8
txt
  2
D9503
 10
37.510000
 20
22.575000
 41
1.0
 42
1.0
 43
1.0
 50
0.0
  0
INSERT
  8
txt
  2
D9503
 10
37.510000
 20
22.675000
 41
1.0
 42
1.0
 43
1.0
 50
0.0
  0
INSERT
  8
txt
  2
D9503
 10
37.525000
 20
22.950000
 41
1.0
 42
1.0
 43
1.0
 50
0.0
  0
INSERT
  8
txt
  2
D9503
 10
37.525000
 20
23.050000
 41
1.0
 42
1.0
 43
1.0
 50
0.0
  0
INSERT
  8
txt
  2
D9503
 10
37.525000
 20
23.150000
 41
1.0
 42
1.0
 43
1.0
 50
0.0
  0
INSERT
  8
txt
  2
D9503
 10
39.099870
 20
23.300220
 41
1.0
 42
1.0
 43
1.0
 50
0.0
  0
INSERT
  8
txt
  2
D9503
 10
39.199870
 20
23.300220
 41
1.0
 42
1.0
 43
1.0
 50
0.0
  0
INSERT
  8
txt
  2
D9503
 10
39.209870
 20
22.915220
 41
1.0
 42
1.0
 43
1.0
 50
0.0
  0
INSERT
  8
txt
  2
D9503
 10
39.109870
 20
22.915220
 41
1.0
 42
1.0
 43
1.0
 50
0.0
  0
INSERT
  8
txt
  2
D9503
 10
39.109870
 20
22.625220
 41
1.0
 42
1.0
 43
1.0
 50
0.0
  0
INSERT
  8
txt
  2
D9503
 10
39.209870
 20
22.625220
 41
1.0
 42
1.0
 43
1.0
 50
0.0
  0
INSERT
  8
txt
  2
D9503
 10
39.209870
 20
22.105220
 41
1.0
 42
1.0
 43
1.0
 50
0.0
  0
INSERT
  8
txt
  2
D9503
 10
39.109870
 20
22.105220
 41
1.0
 42
1.0
 43
1.0
 50
0.0
  0
INSERT
  8
txt
  2
D9503
 10
39.494870
 20
22.310220
 41
1.0
 42
1.0
 43
1.0
 50
0.0
  0
INSERT
  8
txt
  2
D9503
 10
39.594870
 20
22.310220
 41
1.0
 42
1.0
 43
1.0
 50
0.0
  0
INSERT
  8
txt
  2
D9503
 10
39.899870
 20
22.465220
 41
1.0
 42
1.0
 43
1.0
 50
0.0
  0
INSERT
  8
txt
  2
D9503
 10
39.999870
 20
22.465220
 41
1.0
 42
1.0
 43
1.0
 50
0.0
  0
INSERT
  8
txt
  2
D9503
 10
40.329870
 20
22.460220
 41
1.0
 42
1.0
 43
1.0
 50
0.0
  0
INSERT
  8
txt
  2
D9503
 10
40.429870
 20
22.460220
 41
1.0
 42
1.0
 43
1.0
 50
0.0
  0
INSERT
  8
txt
  2
D9503
 10
40.349470
 20
22.992020
 41
1.0
 42
1.0
 43
1.0
 50
0.0
  0
INSERT
  8
txt
  2
D9503
 10
40.349470
 20
23.192020
 41
1.0
 42
1.0
 43
1.0
 50
0.0
  0
INSERT
  8
txt
  2
D9503
 10
40.339870
 20
23.405220
 41
1.0
 42
1.0
 43
1.0
 50
0.0
  0
INSERT
  8
txt
  2
D9503
 10
40.439870
 20
23.405220
 41
1.0
 42
1.0
 43
1.0
 50
0.0
  0
INSERT
  8
txt
  2
D9503
 10
40.209870
 20
22.920220
 41
1.0
 42
1.0
 43
1.0
 50
0.0
  0
INSERT
  8
txt
  2
D9503
 10
40.009870
 20
22.920220
 41
1.0
 42
1.0
 43
1.0
 50
0.0
  0
INSERT
  8
txt
  2
D9503
 10
39.599870
 20
22.870220
 41
1.0
 42
1.0
 43
1.0
 50
0.0
  0
INSERT
  8
txt
  2
D9503
 10
39.499870
 20
22.870220
 41
1.0
 42
1.0
 43
1.0
 50
0.0
  0
INSERT
  8
txt
  2
D9503
 10
40.629870
 20
22.450220
 41
1.0
 42
1.0
 43
1.0
 50
0.0
  0
INSERT
  8
txt
  2
D9503
 10
40.734870
 20
22.450220
 41
1.0
 42
1.0
 43
1.0
 50
0.0
  0
INSERT
  8
txt
  2
D9503
 10
40.834870
 20
22.450220
 41
1.0
 42
1.0
 43
1.0
 50
0.0
  0
INSERT
  8
txt
  2
D9503
 10
40.934870
 20
22.450220
 41
1.0
 42
1.0
 43
1.0
 50
0.0
  0
INSERT
  8
txt
  2
D9503
 10
41.034870
 20
22.450220
 41
1.0
 42
1.0
 43
1.0
 50
0.0
  0
INSERT
  8
txt
  2
D9503
 10
41.134870
 20
22.450220
 41
1.0
 42
1.0
 43
1.0
 50
0.0
  0
INSERT
  8
txt
  2
D9503
 10
41.134870
 20
22.250220
 41
1.0
 42
1.0
 43
1.0
 50
0.0
  0
INSERT
  8
txt
  2
D9503
 10
41.034870
 20
22.250220
 41
1.0
 42
1.0
 43
1.0
 50
0.0
  0
INSERT
  8
txt
  2
D9503
 10
40.934870
 20
22.250220
 41
1.0
 42
1.0
 43
1.0
 50
0.0
  0
INSERT
  8
txt
  2
D9503
 10
40.834870
 20
22.250220
 41
1.0
 42
1.0
 43
1.0
 50
0.0
  0
INSERT
  8
txt
  2
D9503
 10
40.734870
 20
22.250220
 41
1.0
 42
1.0
 43
1.0
 50
0.0
  0
INSERT
  8
txt
  2
D9503
 10
40.629870
 20
22.250220
 41
1.0
 42
1.0
 43
1.0
 50
0.0
  0
INSERT
  8
txt
  2
D9503
 10
39.994870
 20
23.495220
 41
1.0
 42
1.0
 43
1.0
 50
0.0
  0
INSERT
  8
txt
  2
D9503
 10
39.894870
 20
23.495220
 41
1.0
 42
1.0
 43
1.0
 50
0.0
  0
INSERT
  8
txt
  2
D9503
 10
39.604870
 20
23.500220
 41
1.0
 42
1.0
 43
1.0
 50
0.0
  0
INSERT
  8
txt
  2
D9503
 10
39.504870
 20
23.500220
 41
1.0
 42
1.0
 43
1.0
 50
0.0
  0
INSERT
  8
txt
  2
D9503
 10
39.169870
 20
23.575220
 41
1.0
 42
1.0
 43
1.0
 50
0.0
  0
INSERT
  8
txt
  2
D9503
 10
39.069870
 20
23.575220
 41
1.0
 42
1.0
 43
1.0
 50
0.0
  0
INSERT
  8
txt
  2
D9503
 10
37.510000
 20
23.575000
 41
1.0
 42
1.0
 43
1.0
 50
0.0
  0
INSERT
  8
txt
  2
D9503
 10
37.510000
 20
23.675000
 41
1.0
 42
1.0
 43
1.0
 50
0.0
  0
INSERT
  8
txt
  2
D9503
 10
37.510000
 20
23.775000
 41
1.0
 42
1.0
 43
1.0
 50
0.0
  0
INSERT
  8
txt
  2
D9503
 10
37.510000
 20
23.875000
 41
1.0
 42
1.0
 43
1.0
 50
0.0
  0
INSERT
  8
txt
  2
D9503
 10
37.210000
 20
23.875000
 41
1.0
 42
1.0
 43
1.0
 50
0.0
  0
INSERT
  8
txt
  2
D9503
 10
37.210000
 20
23.775000
 41
1.0
 42
1.0
 43
1.0
 50
0.0
  0
INSERT
  8
txt
  2
D9503
 10
37.210000
 20
23.675000
 41
1.0
 42
1.0
 43
1.0
 50
0.0
  0
INSERT
  8
txt
  2
D9503
 10
37.210000
 20
23.575000
 41
1.0
 42
1.0
 43
1.0
 50
0.0
  0
INSERT
  8
txt
  2
D9503
 10
35.670000
 20
23.655000
 41
1.0
 42
1.0
 43
1.0
 50
0.0
  0
INSERT
  8
txt
  2
D9503
 10
35.670000
 20
23.855000
 41
1.0
 42
1.0
 43
1.0
 50
0.0
  0
INSERT
  8
txt
  2
D9503
 10
35.520000
 20
23.905000
 41
1.0
 42
1.0
 43
1.0
 50
0.0
  0
INSERT
  8
txt
  2
D9503
 10
35.220000
 20
23.905000
 41
1.0
 42
1.0
 43
1.0
 50
0.0
  0
INSERT
  8
txt
  2
D9503
 10
34.970000
 20
23.855000
 41
1.0
 42
1.0
 43
1.0
 50
0.0
  0
INSERT
  8
txt
  2
D9503
 10
34.970000
 20
23.605000
 41
1.0
 42
1.0
 43
1.0
 50
0.0
  0
INSERT
  8
txt
  2
D9503
 10
35.170000
 20
23.655000
 41
1.0
 42
1.0
 43
1.0
 50
0.0
  0
INSERT
  8
txt
  2
D9503
 10
35.270000
 20
23.655000
 41
1.0
 42
1.0
 43
1.0
 50
0.0
  0
INSERT
  8
txt
  2
D9503
 10
34.670000
 20
23.605000
 41
1.0
 42
1.0
 43
1.0
 50
0.0
  0
INSERT
  8
txt
  2
D9503
 10
34.520000
 20
23.505000
 41
1.0
 42
1.0
 43
1.0
 50
0.0
  0
INSERT
  8
txt
  2
D9503
 10
34.670000
 20
23.855000
 41
1.0
 42
1.0
 43
1.0
 50
0.0
  0
INSERT
  8
txt
  2
D9503
 10
34.570000
 20
24.005000
 41
1.0
 42
1.0
 43
1.0
 50
0.0
  0
INSERT
  8
txt
  2
D9503
 10
34.270000
 20
24.005000
 41
1.0
 42
1.0
 43
1.0
 50
0.0
  0
INSERT
  8
txt
  2
D9503
 10
34.270000
 20
23.555000
 41
1.0
 42
1.0
 43
1.0
 50
0.0
  0
INSERT
  8
txt
  2
D9504
 10
37.525000
 20
23.250000
 41
1.0
 42
1.0
 43
1.0
 50
0.0
  0
INSERT
  8
txt
  2
D9505
 10
36.960000
 20
23.225000
 41
1.0
 42
1.0
 43
1.0
 50
0.0
  0
INSERT
  8
txt
  2
D9505
 10
36.960000
 20
23.012500
 41
1.0
 42
1.0
 43
1.0
 50
0.0
  0
INSERT
  8
txt
  2
D9505
 10
36.960000
 20
22.775000
 41
1.0
 42
1.0
 43
1.0
 50
0.0
  0
INSERT
  8
txt
  2
D9505
 10
36.960000
 20
22.537500
 41
1.0
 42
1.0
 43
1.0
 50
0.0
  0
INSERT
  8
txt
  2
D9505
 10
36.960000
 20
22.300000
 41
1.0
 42
1.0
 43
1.0
 50
0.0
  0
INSERT
  8
txt
  2
D9505
 10
36.660000
 20
22.300000
 41
1.0
 42
1.0
 43
1.0
 50
0.0
  0
INSERT
  8
txt
  2
D9505
 10
36.660000
 20
22.537500
 41
1.0
 42
1.0
 43
1.0
 50
0.0
  0
INSERT
  8
txt
  2
D9505
 10
36.660000
 20
22.775000
 41
1.0
 42
1.0
 43
1.0
 50
0.0
  0
INSERT
  8
txt
  2
D9505
 10
36.660000
 20
23.012500
 41
1.0
 42
1.0
 43
1.0
 50
0.0
  0
INSERT
  8
txt
  2
D9505
 10
36.660000
 20
23.225000
 41
1.0
 42
1.0
 43
1.0
 50
0.0
  0
INSERT
  8
txt
  2
D9505
 10
37.722500
 20
23.225000
 41
1.0
 42
1.0
 43
1.0
 50
0.0
  0
INSERT
  8
txt
  2
D9505
 10
37.710000
 20
22.987500
 41
1.0
 42
1.0
 43
1.0
 50
0.0
  0
INSERT
  8
txt
  2
D9505
 10
37.722500
 20
22.762500
 41
1.0
 42
1.0
 43
1.0
 50
0.0
  0
INSERT
  8
txt
  2
D9505
 10
37.722500
 20
22.512500
 41
1.0
 42
1.0
 43
1.0
 50
0.0
  0
INSERT
  8
txt
  2
D9505
 10
37.722500
 20
22.300000
 41
1.0
 42
1.0
 43
1.0
 50
0.0
  0
INSERT
  8
txt
  2
D9505
 10
38.022500
 20
22.300000
 41
1.0
 42
1.0
 43
1.0
 50
0.0
  0
INSERT
  8
txt
  2
D9505
 10
38.022500
 20
22.512500
 41
1.0
 42
1.0
 43
1.0
 50
0.0
  0
INSERT
  8
txt
  2
D9505
 10
38.022500
 20
22.762500
 41
1.0
 42
1.0
 43
1.0
 50
0.0
  0
INSERT
  8
txt
  2
D9505
 10
38.010000
 20
22.987500
 41
1.0
 42
1.0
 43
1.0
 50
0.0
  0
INSERT
  8
txt
  2
D9505
 10
38.022500
 20
23.225000
 41
1.0
 42
1.0
 43
1.0
 50
0.0
  0
INSERT
  8
txt
  2
D9505
 10
39.090270
 20
23.933420
 41
1.0
 42
1.0
 43
1.0
 50
0.0
  0
INSERT
  8
txt
  2
D9505
 10
39.090270
 20
24.033420
 41
1.0
 42
1.0
 43
1.0
 50
0.0
  0
INSERT
  8
txt
  2
D9505
 10
39.290430
 20
24.979880
 41
1.0
 42
1.0
 43
1.0
 50
0.0
  0
INSERT
  8
txt
  2
D9505
 10
39.755120
 20
24.777710
 41
1.0
 42
1.0
 43
1.0
 50
0.0
  0
INSERT
  8
txt
  2
D9505
 10
39.022710
 20
24.979880
 41
1.0
 42
1.0
 43
1.0
 50
0.0
  0
INSERT
  8
txt
  2
D9505
 10
38.990270
 20
24.033420
 41
1.0
 42
1.0
 43
1.0
 50
0.0
  0
INSERT
  8
txt
  2
D9505
 10
38.890270
 20
24.033420
 41
1.0
 42
1.0
 43
1.0
 50
0.0
  0
INSERT
  8
txt
  2
D9505
 10
38.890270
 20
23.933420
 41
1.0
 42
1.0
 43
1.0
 50
0.0
  0
INSERT
  8
txt
  2
D9505
 10
38.890270
 20
23.833420
 41
1.0
 42
1.0
 43
1.0
 50
0.0
  0
INSERT
  8
txt
  2
D9505
 10
38.890270
 20
23.738420
 41
1.0
 42
1.0
 43
1.0
 50
0.0
  0
INSERT
  8
txt
  2
D9505
 10
38.790270
 20
23.738420
 41
1.0
 42
1.0
 43
1.0
 50
0.0
  0
INSERT
  8
txt
  2
D9505
 10
38.790270
 20
23.833420
 41
1.0
 42
1.0
 43
1.0
 50
0.0
  0
INSERT
  8
txt
  2
D9505
 10
38.690270
 20
23.833420
 41
1.0
 42
1.0
 43
1.0
 50
0.0
  0
INSERT
  8
txt
  2
D9505
 10
38.690270
 20
23.738420
 41
1.0
 42
1.0
 43
1.0
 50
0.0
  0
INSERT
  8
txt
  2
D9505
 10
38.990270
 20
23.933420
 41
1.0
 42
1.0
 43
1.0
 50
0.0
  0
INSERT
  8
txt
  2
D9505
 10
38.010000
 20
23.450000
 41
1.0
 42
1.0
 43
1.0
 50
0.0
  0
INSERT
  8
txt
  2
D9505
 10
37.710000
 20
23.450000
 41
1.0
 42
1.0
 43
1.0
 50
0.0
  0
INSERT
  8
txt
  2
D9505
 10
36.960000
 20
23.450000
 41
1.0
 42
1.0
 43
1.0
 50
0.0
  0
INSERT
  8
txt
  2
D9505
 10
36.960000
 20
23.662500
 41
1.0
 42
1.0
 43
1.0
 50
0.0
  0
INSERT
  8
txt
  2
D9505
 10
36.960000
 20
23.900000
 41
1.0
 42
1.0
 43
1.0
 50
0.0
  0
INSERT
  8
txt
  2
D9505
 10
36.660000
 20
23.900000
 41
1.0
 42
1.0
 43
1.0
 50
0.0
  0
INSERT
  8
txt
  2
D9505
 10
36.660000
 20
23.662500
 41
1.0
 42
1.0
 43
1.0
 50
0.0
  0
INSERT
  8
txt
  2
D9505
 10
36.660000
 20
23.450000
 41
1.0
 42
1.0
 43
1.0
 50
0.0
  0
INSERT
  8
txt
  2
D9505
 10
37.172710
 20
24.979880
 41
1.0
 42
1.0
 43
1.0
 50
0.0
  0
INSERT
  8
txt
  2
D9505
 10
37.440430
 20
24.979880
 41
1.0
 42
1.0
 43
1.0
 50
0.0
  0
INSERT
  8
txt
  2
D9505
 10
35.590430
 20
24.979880
 41
1.0
 42
1.0
 43
1.0
 50
0.0
  0
INSERT
  8
txt
  2
D9505
 10
35.322710
 20
24.979880
 41
1.0
 42
1.0
 43
1.0
 50
0.0
  0
INSERT
  8
txt
  2
D9505
 10
34.267710
 20
26.104880
 41
1.0
 42
1.0
 43
1.0
 50
0.0
  0
INSERT
  8
txt
  2
D9505
 10
34.535430
 20
26.104880
 41
1.0
 42
1.0
 43
1.0
 50
0.0
  0
INSERT
  8
txt
  2
D9505
 10
36.117710
 20
26.104880
 41
1.0
 42
1.0
 43
1.0
 50
0.0
  0
INSERT
  8
txt
  2
D9505
 10
36.385430
 20
26.104880
 41
1.0
 42
1.0
 43
1.0
 50
0.0
  0
INSERT
  8
txt
  2
D9505
 10
37.967710
 20
26.104880
 41
1.0
 42
1.0
 43
1.0
 50
0.0
  0
INSERT
  8
txt
  2
D9505
 10
38.235430
 20
26.104880
 41
1.0
 42
1.0
 43
1.0
 50
0.0
  0
INSERT
  8
txt
  2
D9505
 10
39.755120
 20
25.045430
 41
1.0
 42
1.0
 43
1.0
 50
0.0
  0
INSERT
  8
txt
  2
D9505
 10
40.880120
 20
25.832710
 41
1.0
 42
1.0
 43
1.0
 50
0.0
  0
INSERT
  8
txt
  2
D9505
 10
40.880120
 20
26.100430
 41
1.0
 42
1.0
 43
1.0
 50
0.0
  0
INSERT
  8
txt
  2
D9505
 10
40.880120
 20
27.682710
 41
1.0
 42
1.0
 43
1.0
 50
0.0
  0
INSERT
  8
txt
  2
D9505
 10
40.880120
 20
27.950430
 41
1.0
 42
1.0
 43
1.0
 50
0.0
  0
INSERT
  8
txt
  2
D9505
 10
39.755120
 20
26.895430
 41
1.0
 42
1.0
 43
1.0
 50
0.0
  0
INSERT
  8
txt
  2
D9505
 10
39.755120
 20
26.627710
 41
1.0
 42
1.0
 43
1.0
 50
0.0
  0
INSERT
  8
txt
  2
D9505
 10
39.255430
 20
26.944880
 41
1.0
 42
1.0
 43
1.0
 50
0.0
  0
INSERT
  8
txt
  2
D9505
 10
38.987710
 20
26.944880
 41
1.0
 42
1.0
 43
1.0
 50
0.0
  0
INSERT
  8
txt
  2
D9505
 10
38.200430
 20
28.069880
 41
1.0
 42
1.0
 43
1.0
 50
0.0
  0
INSERT
  8
txt
  2
D9505
 10
37.932710
 20
28.069880
 41
1.0
 42
1.0
 43
1.0
 50
0.0
  0
INSERT
  8
txt
  2
D9505
 10
36.350430
 20
28.069880
 41
1.0
 42
1.0
 43
1.0
 50
0.0
  0
INSERT
  8
txt
  2
D9505
 10
36.082710
 20
28.069880
 41
1.0
 42
1.0
 43
1.0
 50
0.0
  0
INSERT
  8
txt
  2
D9505
 10
37.137710
 20
26.944880
 41
1.0
 42
1.0
 43
1.0
 50
0.0
  0
INSERT
  8
txt
  2
D9505
 10
37.405430
 20
26.944880
 41
1.0
 42
1.0
 43
1.0
 50
0.0
  0
INSERT
  8
txt
  2
D9505
 10
35.555430
 20
26.944880
 41
1.0
 42
1.0
 43
1.0
 50
0.0
  0
INSERT
  8
txt
  2
D9505
 10
35.287710
 20
26.944880
 41
1.0
 42
1.0
 43
1.0
 50
0.0
  0
INSERT
  8
txt
  2
D9505
 10
34.500430
 20
28.069880
 41
1.0
 42
1.0
 43
1.0
 50
0.0
  0
INSERT
  8
txt
  2
D9505
 10
34.232710
 20
28.069880
 41
1.0
 42
1.0
 43
1.0
 50
0.0
  0
INSERT
  8
txt
  2
D9505
 10
35.267710
 20
28.869880
 41
1.0
 42
1.0
 43
1.0
 50
0.0
  0
INSERT
  8
txt
  2
D9505
 10
35.535430
 20
28.869880
 41
1.0
 42
1.0
 43
1.0
 50
0.0
  0
INSERT
  8
txt
  2
D9505
 10
37.117710
 20
28.869880
 41
1.0
 42
1.0
 43
1.0
 50
0.0
  0
INSERT
  8
txt
  2
D9505
 10
37.385430
 20
28.869880
 41
1.0
 42
1.0
 43
1.0
 50
0.0
  0
INSERT
  8
txt
  2
D9505
 10
38.967710
 20
28.869880
 41
1.0
 42
1.0
 43
1.0
 50
0.0
  0
INSERT
  8
txt
  2
D9505
 10
39.235430
 20
28.869880
 41
1.0
 42
1.0
 43
1.0
 50
0.0
  0
INSERT
  8
txt
  2
D9505
 10
39.755120
 20
28.745430
 41
1.0
 42
1.0
 43
1.0
 50
0.0
  0
INSERT
  8
txt
  2
D9505
 10
39.755120
 20
28.477710
 41
1.0
 42
1.0
 43
1.0
 50
0.0
  0
INSERT
  8
txt
  2
D9505
 10
40.880120
 20
29.532710
 41
1.0
 42
1.0
 43
1.0
 50
0.0
  0
INSERT
  8
txt
  2
D9505
 10
40.880120
 20
29.800430
 41
1.0
 42
1.0
 43
1.0
 50
0.0
  0
INSERT
  8
txt
  2
D9505
 10
38.180430
 20
29.994880
 41
1.0
 42
1.0
 43
1.0
 50
0.0
  0
INSERT
  8
txt
  2
D9505
 10
37.912710
 20
29.994880
 41
1.0
 42
1.0
 43
1.0
 50
0.0
  0
INSERT
  8
txt
  2
D9505
 10
36.330430
 20
29.994880
 41
1.0
 42
1.0
 43
1.0
 50
0.0
  0
INSERT
  8
txt
  2
D9505
 10
36.062710
 20
29.994880
 41
1.0
 42
1.0
 43
1.0
 50
0.0
  0
INSERT
  8
txt
  2
D9505
 10
34.480430
 20
29.994880
 41
1.0
 42
1.0
 43
1.0
 50
0.0
  0
INSERT
  8
txt
  2
D9505
 10
34.212710
 20
29.994880
 41
1.0
 42
1.0
 43
1.0
 50
0.0
  0
INSERT
  8
txt
  2
D9506
 10
34.020000
 20
23.405000
 41
1.0
 42
1.0
 43
1.0
 50
0.0
  0
INSERT
  8
txt
  2
D9506
 10
34.020000
 20
23.255000
 41
1.0
 42
1.0
 43
1.0
 50
0.0
  0
INSERT
  8
txt
  2
D9506
 10
34.020000
 20
23.155000
 41
1.0
 42
1.0
 43
1.0
 50
0.0
  0
INSERT
  8
txt
  2
D9506
 10
34.020000
 20
23.055000
 41
1.0
 42
1.0
 43
1.0
 50
0.0
  0
INSERT
  8
txt
  2
D9506
 10
34.020000
 20
22.955000
 41
1.0
 42
1.0
 43
1.0
 50
0.0
  0
INSERT
  8
txt
  2
D9506
 10
34.020000
 20
22.855000
 41
1.0
 42
1.0
 43
1.0
 50
0.0
  0
INSERT
  8
txt
  2
D9506
 10
34.020000
 20
22.755000
 41
1.0
 42
1.0
 43
1.0
 50
0.0
  0
INSERT
  8
txt
  2
D9506
 10
34.020000
 20
22.655000
 41
1.0
 42
1.0
 43
1.0
 50
0.0
  0
INSERT
  8
txt
  2
D9506
 10
34.020000
 20
22.555000
 41
1.0
 42
1.0
 43
1.0
 50
0.0
  0
INSERT
  8
txt
  2
D9506
 10
34.020000
 20
22.455000
 41
1.0
 42
1.0
 43
1.0
 50
0.0
  0
INSERT
  8
txt
  2
D9506
 10
34.020000
 20
22.355000
 41
1.0
 42
1.0
 43
1.0
 50
0.0
  0
INSERT
  8
txt
  2
D9506
 10
34.170000
 20
22.105000
 41
1.0
 42
1.0
 43
1.0
 50
0.0
  0
INSERT
  8
txt
  2
D9506
 10
34.270000
 20
22.105000
 41
1.0
 42
1.0
 43
1.0
 50
0.0
  0
INSERT
  8
txt
  2
D9506
 10
35.720000
 20
22.105000
 41
1.0
 42
1.0
 43
1.0
 50
0.0
  0
INSERT
  8
txt
  2
D9506
 10
35.820000
 20
22.105000
 41
1.0
 42
1.0
 43
1.0
 50
0.0
  0
INSERT
  8
txt
  2
D9506
 10
35.920000
 20
22.705000
 41
1.0
 42
1.0
 43
1.0
 50
0.0
  0
INSERT
  8
txt
  2
D9506
 10
35.920000
 20
22.805000
 41
1.0
 42
1.0
 43
1.0
 50
0.0
  0
INSERT
  8
txt
  2
D9506
 10
35.920000
 20
22.905000
 41
1.0
 42
1.0
 43
1.0
 50
0.0
  0
INSERT
  8
txt
  2
D9506
 10
35.920000
 20
23.005000
 41
1.0
 42
1.0
 43
1.0
 50
0.0
  0
INSERT
  8
txt
  2
D9506
 10
35.920000
 20
23.105000
 41
1.0
 42
1.0
 43
1.0
 50
0.0
  0
INSERT
  8
txt
  2
D9506
 10
35.920000
 20
23.205000
 41
1.0
 42
1.0
 43
1.0
 50
0.0
  0
INSERT
  8
txt
  2
D9506
 10
35.920000
 20
23.305000
 41
1.0
 42
1.0
 43
1.0
 50
0.0
  0
INSERT
  8
txt
  2
D9506
 10
35.920000
 20
23.405000
 41
1.0
 42
1.0
 43
1.0
 50
0.0
  0
INSERT
  8
txt
  2
D9506
 10
36.360000
 20
23.400000
 41
1.0
 42
1.0
 43
1.0
 50
0.0
  0
INSERT
  8
txt
  2
D9506
 10
36.360000
 20
23.175000
 41
1.0
 42
1.0
 43
1.0
 50
0.0
  0
INSERT
  8
txt
  2
D9506
 10
36.360000
 20
23.075000
 41
1.0
 42
1.0
 43
1.0
 50
0.0
  0
INSERT
  8
txt
  2
D9506
 10
36.360000
 20
22.887500
 41
1.0
 42
1.0
 43
1.0
 50
0.0
  0
INSERT
  8
txt
  2
D9506
 10
36.360000
 20
22.787500
 41
1.0
 42
1.0
 43
1.0
 50
0.0
  0
INSERT
  8
txt
  2
D9506
 10
36.360000
 20
22.562500
 41
1.0
 42
1.0
 43
1.0
 50
0.0
  0
INSERT
  8
txt
  2
D9506
 10
36.360000
 20
22.462500
 41
1.0
 42
1.0
 43
1.0
 50
0.0
  0
INSERT
  8
txt
  2
D9506
 10
36.360000
 20
22.362500
 41
1.0
 42
1.0
 43
1.0
 50
0.0
  0
INSERT
  8
txt
  2
D9506
 10
36.810000
 20
22.075000
 41
1.0
 42
1.0
 43
1.0
 50
0.0
  0
INSERT
  8
txt
  2
D9506
 10
36.910000
 20
22.075000
 41
1.0
 42
1.0
 43
1.0
 50
0.0
  0
INSERT
  8
txt
  2
D9506
 10
37.010000
 20
22.075000
 41
1.0
 42
1.0
 43
1.0
 50
0.0
  0
INSERT
  8
txt
  2
D9506
 10
37.260000
 20
22.075000
 41
1.0
 42
1.0
 43
1.0
 50
0.0
  0
INSERT
  8
txt
  2
D9506
 10
37.360000
 20
22.075000
 41
1.0
 42
1.0
 43
1.0
 50
0.0
  0
INSERT
  8
txt
  2
D9506
 10
37.460000
 20
22.075000
 41
1.0
 42
1.0
 43
1.0
 50
0.0
  0
INSERT
  8
txt
  2
D9506
 10
37.935000
 20
22.075000
 41
1.0
 42
1.0
 43
1.0
 50
0.0
  0
INSERT
  8
txt
  2
D9506
 10
38.035000
 20
22.075000
 41
1.0
 42
1.0
 43
1.0
 50
0.0
  0
INSERT
  8
txt
  2
D9506
 10
38.135000
 20
22.075000
 41
1.0
 42
1.0
 43
1.0
 50
0.0
  0
INSERT
  8
txt
  2
D9506
 10
38.235000
 20
22.425000
 41
1.0
 42
1.0
 43
1.0
 50
0.0
  0
INSERT
  8
txt
  2
D9506
 10
38.235000
 20
22.525000
 41
1.0
 42
1.0
 43
1.0
 50
0.0
  0
INSERT
  8
txt
  2
D9506
 10
38.235000
 20
22.625000
 41
1.0
 42
1.0
 43
1.0
 50
0.0
  0
INSERT
  8
txt
  2
D9506
 10
38.235000
 20
22.950000
 41
1.0
 42
1.0
 43
1.0
 50
0.0
  0
INSERT
  8
txt
  2
D9506
 10
38.235000
 20
23.050000
 41
1.0
 42
1.0
 43
1.0
 50
0.0
  0
INSERT
  8
txt
  2
D9506
 10
38.235000
 20
23.375000
 41
1.0
 42
1.0
 43
1.0
 50
0.0
  0
INSERT
  8
txt
  2
D9506
 10
39.059870
 20
23.435220
 41
1.0
 42
1.0
 43
1.0
 50
0.0
  0
INSERT
  8
txt
  2
D9506
 10
39.054870
 20
22.765220
 41
1.0
 42
1.0
 43
1.0
 50
0.0
  0
INSERT
  8
txt
  2
D9506
 10
39.059870
 20
22.240220
 41
1.0
 42
1.0
 43
1.0
 50
0.0
  0
INSERT
  8
txt
  2
D9506
 10
39.159870
 20
22.240220
 41
1.0
 42
1.0
 43
1.0
 50
0.0
  0
INSERT
  8
txt
  2
D9506
 10
39.259870
 20
22.240220
 41
1.0
 42
1.0
 43
1.0
 50
0.0
  0
INSERT
  8
txt
  2
D9506
 10
39.394870
 20
22.450220
 41
1.0
 42
1.0
 43
1.0
 50
0.0
  0
INSERT
  8
txt
  2
D9506
 10
39.494870
 20
22.450220
 41
1.0
 42
1.0
 43
1.0
 50
0.0
  0
INSERT
  8
txt
  2
D9506
 10
39.594870
 20
22.450220
 41
1.0
 42
1.0
 43
1.0
 50
0.0
  0
INSERT
  8
txt
  2
D9506
 10
39.559870
 20
22.135220
 41
1.0
 42
1.0
 43
1.0
 50
0.0
  0
INSERT
  8
txt
  2
D9506
 10
39.659870
 20
22.135220
 41
1.0
 42
1.0
 43
1.0
 50
0.0
  0
INSERT
  8
txt
  2
D9506
 10
39.759870
 20
22.135220
 41
1.0
 42
1.0
 43
1.0
 50
0.0
  0
INSERT
  8
txt
  2
D9506
 10
39.924870
 20
22.105220
 41
1.0
 42
1.0
 43
1.0
 50
0.0
  0
INSERT
  8
txt
  2
D9506
 10
40.024870
 20
22.105220
 41
1.0
 42
1.0
 43
1.0
 50
0.0
  0
INSERT
  8
txt
  2
D9506
 10
40.124870
 20
22.105220
 41
1.0
 42
1.0
 43
1.0
 50
0.0
  0
INSERT
  8
txt
  2
D9506
 10
40.224870
 20
22.105220
 41
1.0
 42
1.0
 43
1.0
 50
0.0
  0
INSERT
  8
txt
  2
D9506
 10
40.324870
 20
22.105220
 41
1.0
 42
1.0
 43
1.0
 50
0.0
  0
INSERT
  8
txt
  2
D9506
 10
40.424870
 20
22.105220
 41
1.0
 42
1.0
 43
1.0
 50
0.0
  0
INSERT
  8
txt
  2
D9506
 10
40.424870
 20
22.250220
 41
1.0
 42
1.0
 43
1.0
 50
0.0
  0
INSERT
  8
txt
  2
D9506
 10
40.324870
 20
22.250220
 41
1.0
 42
1.0
 43
1.0
 50
0.0
  0
INSERT
  8
txt
  2
D9506
 10
40.224870
 20
22.250220
 41
1.0
 42
1.0
 43
1.0
 50
0.0
  0
INSERT
  8
txt
  2
D9506
 10
40.124870
 20
22.250220
 41
1.0
 42
1.0
 43
1.0
 50
0.0
  0
INSERT
  8
txt
  2
D9506
 10
40.024870
 20
22.250220
 41
1.0
 42
1.0
 43
1.0
 50
0.0
  0
INSERT
  8
txt
  2
D9506
 10
39.924870
 20
22.250220
 41
1.0
 42
1.0
 43
1.0
 50
0.0
  0
INSERT
  8
txt
  2
D9506
 10
39.899870
 20
22.600220
 41
1.0
 42
1.0
 43
1.0
 50
0.0
  0
INSERT
  8
txt
  2
D9506
 10
39.799870
 20
22.600220
 41
1.0
 42
1.0
 43
1.0
 50
0.0
  0
INSERT
  8
txt
  2
D9506
 10
39.999870
 20
22.600220
 41
1.0
 42
1.0
 43
1.0
 50
0.0
  0
INSERT
  8
txt
  2
D9506
 10
40.229870
 20
22.590220
 41
1.0
 42
1.0
 43
1.0
 50
0.0
  0
INSERT
  8
txt
  2
D9506
 10
40.329870
 20
22.590220
 41
1.0
 42
1.0
 43
1.0
 50
0.0
  0
INSERT
  8
txt
  2
D9506
 10
40.429870
 20
22.590220
 41
1.0
 42
1.0
 43
1.0
 50
0.0
  0
INSERT
  8
txt
  2
D9506
 10
40.222870
 20
23.011220
 41
1.0
 42
1.0
 43
1.0
 50
0.0
  0
INSERT
  8
txt
  2
D9506
 10
40.222870
 20
23.189220
 41
1.0
 42
1.0
 43
1.0
 50
0.0
  0
INSERT
  8
txt
  2
D9506
 10
39.966870
 20
23.189220
 41
1.0
 42
1.0
 43
1.0
 50
0.0
  0
INSERT
  8
txt
  2
D9506
 10
39.966870
 20
23.011220
 41
1.0
 42
1.0
 43
1.0
 50
0.0
  0
INSERT
  8
txt
  2
D9506
 10
39.599870
 20
23.005220
 41
1.0
 42
1.0
 43
1.0
 50
0.0
  0
INSERT
  8
txt
  2
D9506
 10
39.499870
 20
23.005220
 41
1.0
 42
1.0
 43
1.0
 50
0.0
  0
INSERT
  8
txt
  2
D9506
 10
39.399870
 20
23.005220
 41
1.0
 42
1.0
 43
1.0
 50
0.0
  0
INSERT
  8
txt
  2
D9506
 10
39.264870
 20
23.050220
 41
1.0
 42
1.0
 43
1.0
 50
0.0
  0
INSERT
  8
txt
  2
D9506
 10
39.164870
 20
23.050220
 41
1.0
 42
1.0
 43
1.0
 50
0.0
  0
INSERT
  8
txt
  2
D9506
 10
39.064870
 20
23.050220
 41
1.0
 42
1.0
 43
1.0
 50
0.0
  0
INSERT
  8
txt
  2
D9506
 10
39.154870
 20
22.765220
 41
1.0
 42
1.0
 43
1.0
 50
0.0
  0
INSERT
  8
txt
  2
D9506
 10
39.254870
 20
22.765220
 41
1.0
 42
1.0
 43
1.0
 50
0.0
  0
INSERT
  8
txt
  2
D9506
 10
39.259870
 20
23.435220
 41
1.0
 42
1.0
 43
1.0
 50
0.0
  0
INSERT
  8
txt
  2
D9506
 10
39.159870
 20
23.435220
 41
1.0
 42
1.0
 43
1.0
 50
0.0
  0
INSERT
  8
txt
  2
D9506
 10
40.689870
 20
23.405220
 41
1.0
 42
1.0
 43
1.0
 50
0.0
  0
INSERT
  8
txt
  2
D9506
 10
40.689870
 20
23.305220
 41
1.0
 42
1.0
 43
1.0
 50
0.0
  0
INSERT
  8
txt
  2
D9506
 10
40.689870
 20
23.205220
 41
1.0
 42
1.0
 43
1.0
 50
0.0
  0
INSERT
  8
txt
  2
D9506
 10
40.689870
 20
23.105220
 41
1.0
 42
1.0
 43
1.0
 50
0.0
  0
INSERT
  8
txt
  2
D9506
 10
40.689870
 20
23.005220
 41
1.0
 42
1.0
 43
1.0
 50
0.0
  0
INSERT
  8
txt
  2
D9506
 10
40.689870
 20
22.905220
 41
1.0
 42
1.0
 43
1.0
 50
0.0
  0
INSERT
  8
txt
  2
D9506
 10
40.734870
 20
22.560220
 41
1.0
 42
1.0
 43
1.0
 50
0.0
  0
INSERT
  8
txt
  2
D9506
 10
40.634870
 20
22.560220
 41
1.0
 42
1.0
 43
1.0
 50
0.0
  0
INSERT
  8
txt
  2
D9506
 10
40.834870
 20
22.560220
 41
1.0
 42
1.0
 43
1.0
 50
0.0
  0
INSERT
  8
txt
  2
D9506
 10
40.934870
 20
22.560220
 41
1.0
 42
1.0
 43
1.0
 50
0.0
  0
INSERT
  8
txt
  2
D9506
 10
41.034870
 20
22.560220
 41
1.0
 42
1.0
 43
1.0
 50
0.0
  0
INSERT
  8
txt
  2
D9506
 10
41.134870
 20
22.560220
 41
1.0
 42
1.0
 43
1.0
 50
0.0
  0
INSERT
  8
txt
  2
D9506
 10
41.129870
 20
22.100220
 41
1.0
 42
1.0
 43
1.0
 50
0.0
  0
INSERT
  8
txt
  2
D9506
 10
41.029870
 20
22.100220
 41
1.0
 42
1.0
 43
1.0
 50
0.0
  0
INSERT
  8
txt
  2
D9506
 10
40.929870
 20
22.100220
 41
1.0
 42
1.0
 43
1.0
 50
0.0
  0
INSERT
  8
txt
  2
D9506
 10
40.829870
 20
22.100220
 41
1.0
 42
1.0
 43
1.0
 50
0.0
  0
INSERT
  8
txt
  2
D9506
 10
40.729870
 20
22.100220
 41
1.0
 42
1.0
 43
1.0
 50
0.0
  0
INSERT
  8
txt
  2
D9506
 10
40.629870
 20
22.100220
 41
1.0
 42
1.0
 43
1.0
 50
0.0
  0
INSERT
  8
txt
  2
D9506
 10
41.089870
 20
23.000220
 41
1.0
 42
1.0
 43
1.0
 50
0.0
  0
INSERT
  8
txt
  2
D9506
 10
41.089870
 20
23.100220
 41
1.0
 42
1.0
 43
1.0
 50
0.0
  0
INSERT
  8
txt
  2
D9506
 10
41.089870
 20
23.200220
 41
1.0
 42
1.0
 43
1.0
 50
0.0
  0
INSERT
  8
txt
  2
D9506
 10
41.089870
 20
23.300220
 41
1.0
 42
1.0
 43
1.0
 50
0.0
  0
INSERT
  8
txt
  2
D9506
 10
41.089870
 20
23.400220
 41
1.0
 42
1.0
 43
1.0
 50
0.0
  0
INSERT
  8
txt
  2
D9506
 10
41.089870
 20
23.500220
 41
1.0
 42
1.0
 43
1.0
 50
0.0
  0
INSERT
  8
txt
  2
D9506
 10
41.089870
 20
23.600220
 41
1.0
 42
1.0
 43
1.0
 50
0.0
  0
INSERT
  8
txt
  2
D9506
 10
41.089870
 20
23.700220
 41
1.0
 42
1.0
 43
1.0
 50
0.0
  0
INSERT
  8
txt
  2
D9506
 10
41.124870
 20
23.850220
 41
1.0
 42
1.0
 43
1.0
 50
0.0
  0
INSERT
  8
txt
  2
D9506
 10
41.024870
 20
23.850220
 41
1.0
 42
1.0
 43
1.0
 50
0.0
  0
INSERT
  8
txt
  2
D9506
 10
40.924870
 20
23.850220
 41
1.0
 42
1.0
 43
1.0
 50
0.0
  0
INSERT
  8
txt
  2
D9506
 10
40.824870
 20
23.850220
 41
1.0
 42
1.0
 43
1.0
 50
0.0
  0
INSERT
  8
txt
  2
D9506
 10
40.724870
 20
23.850220
 41
1.0
 42
1.0
 43
1.0
 50
0.0
  0
INSERT
  8
txt
  2
D9506
 10
40.624870
 20
23.850220
 41
1.0
 42
1.0
 43
1.0
 50
0.0
  0
INSERT
  8
txt
  2
D9506
 10
40.624870
 20
24.000220
 41
1.0
 42
1.0
 43
1.0
 50
0.0
  0
INSERT
  8
txt
  2
D9506
 10
40.724870
 20
24.000220
 41
1.0
 42
1.0
 43
1.0
 50
0.0
  0
INSERT
  8
txt
  2
D9506
 10
40.824870
 20
24.000220
 41
1.0
 42
1.0
 43
1.0
 50
0.0
  0
INSERT
  8
txt
  2
D9506
 10
40.924870
 20
24.000220
 41
1.0
 42
1.0
 43
1.0
 50
0.0
  0
INSERT
  8
txt
  2
D9506
 10
41.024870
 20
24.000220
 41
1.0
 42
1.0
 43
1.0
 50
0.0
  0
INSERT
  8
txt
  2
D9506
 10
41.124870
 20
24.000220
 41
1.0
 42
1.0
 43
1.0
 50
0.0
  0
INSERT
  8
txt
  2
D9506
 10
40.689870
 20
23.605220
 41
1.0
 42
1.0
 43
1.0
 50
0.0
  0
INSERT
  8
txt
  2
D9506
 10
40.689870
 20
23.505220
 41
1.0
 42
1.0
 43
1.0
 50
0.0
  0
INSERT
  8
txt
  2
D9506
 10
40.439870
 20
23.540220
 41
1.0
 42
1.0
 43
1.0
 50
0.0
  0
INSERT
  8
txt
  2
D9506
 10
40.339870
 20
23.540220
 41
1.0
 42
1.0
 43
1.0
 50
0.0
  0
INSERT
  8
txt
  2
D9506
 10
40.239870
 20
23.540220
 41
1.0
 42
1.0
 43
1.0
 50
0.0
  0
INSERT
  8
txt
  2
D9506
 10
39.999870
 20
23.625220
 41
1.0
 42
1.0
 43
1.0
 50
0.0
  0
INSERT
  8
txt
  2
D9506
 10
39.899870
 20
23.625220
 41
1.0
 42
1.0
 43
1.0
 50
0.0
  0
INSERT
  8
txt
  2
D9506
 10
39.799870
 20
23.625220
 41
1.0
 42
1.0
 43
1.0
 50
0.0
  0
INSERT
  8
txt
  2
D9506
 10
39.604870
 20
23.635220
 41
1.0
 42
1.0
 43
1.0
 50
0.0
  0
INSERT
  8
txt
  2
D9506
 10
39.504870
 20
23.635220
 41
1.0
 42
1.0
 43
1.0
 50
0.0
  0
INSERT
  8
txt
  2
D9506
 10
39.404870
 20
23.635220
 41
1.0
 42
1.0
 43
1.0
 50
0.0
  0
INSERT
  8
txt
  2
D9506
 10
39.169870
 20
23.725220
 41
1.0
 42
1.0
 43
1.0
 50
0.0
  0
INSERT
  8
txt
  2
D9506
 10
39.069870
 20
23.725220
 41
1.0
 42
1.0
 43
1.0
 50
0.0
  0
INSERT
  8
txt
  2
D9506
 10
39.569870
 20
23.850220
 41
1.0
 42
1.0
 43
1.0
 50
0.0
  0
INSERT
  8
txt
  2
D9506
 10
39.669870
 20
23.850220
 41
1.0
 42
1.0
 43
1.0
 50
0.0
  0
INSERT
  8
txt
  2
D9506
 10
39.769870
 20
23.850220
 41
1.0
 42
1.0
 43
1.0
 50
0.0
  0
INSERT
  8
txt
  2
D9506
 10
39.869870
 20
23.850220
 41
1.0
 42
1.0
 43
1.0
 50
0.0
  0
INSERT
  8
txt
  2
D9506
 10
39.969870
 20
23.850220
 41
1.0
 42
1.0
 43
1.0
 50
0.0
  0
INSERT
  8
txt
  2
D9506
 10
40.069870
 20
23.850220
 41
1.0
 42
1.0
 43
1.0
 50
0.0
  0
INSERT
  8
txt
  2
D9506
 10
40.169870
 20
23.850220
 41
1.0
 42
1.0
 43
1.0
 50
0.0
  0
INSERT
  8
txt
  2
D9506
 10
40.269870
 20
23.850220
 41
1.0
 42
1.0
 43
1.0
 50
0.0
  0
INSERT
  8
txt
  2
D9506
 10
40.269870
 20
24.000220
 41
1.0
 42
1.0
 43
1.0
 50
0.0
  0
INSERT
  8
txt
  2
D9506
 10
40.169870
 20
24.000220
 41
1.0
 42
1.0
 43
1.0
 50
0.0
  0
INSERT
  8
txt
  2
D9506
 10
40.069870
 20
24.000220
 41
1.0
 42
1.0
 43
1.0
 50
0.0
  0
INSERT
  8
txt
  2
D9506
 10
39.969870
 20
24.000220
 41
1.0
 42
1.0
 43
1.0
 50
0.0
  0
INSERT
  8
txt
  2
D9506
 10
39.869870
 20
24.000220
 41
1.0
 42
1.0
 43
1.0
 50
0.0
  0
INSERT
  8
txt
  2
D9506
 10
39.769870
 20
24.000220
 41
1.0
 42
1.0
 43
1.0
 50
0.0
  0
INSERT
  8
txt
  2
D9506
 10
39.669870
 20
24.000220
 41
1.0
 42
1.0
 43
1.0
 50
0.0
  0
INSERT
  8
txt
  2
D9506
 10
39.569870
 20
24.000220
 41
1.0
 42
1.0
 43
1.0
 50
0.0
  0
INSERT
  8
txt
  2
D9506
 10
40.424870
 20
24.000220
 41
1.0
 42
1.0
 43
1.0
 50
0.0
  0
INSERT
  8
txt
  2
D9506
 10
40.524870
 20
24.000220
 41
1.0
 42
1.0
 43
1.0
 50
0.0
  0
INSERT
  8
txt
  2
D9506
 10
40.524870
 20
23.850220
 41
1.0
 42
1.0
 43
1.0
 50
0.0
  0
INSERT
  8
txt
  2
D9506
 10
40.424870
 20
23.850220
 41
1.0
 42
1.0
 43
1.0
 50
0.0
  0
INSERT
  8
txt
  2
D9506
 10
39.975000
 20
24.665000
 41
1.0
 42
1.0
 43
1.0
 50
0.0
  0
INSERT
  8
txt
  2
D9506
 10
39.975000
 20
24.765000
 41
1.0
 42
1.0
 43
1.0
 50
0.0
  0
INSERT
  8
txt
  2
D9506
 10
37.960000
 20
24.125000
 41
1.0
 42
1.0
 43
1.0
 50
0.0
  0
INSERT
  8
txt
  2
D9506
 10
37.860000
 20
24.125000
 41
1.0
 42
1.0
 43
1.0
 50
0.0
  0
INSERT
  8
txt
  2
D9506
 10
37.760000
 20
24.125000
 41
1.0
 42
1.0
 43
1.0
 50
0.0
  0
INSERT
  8
txt
  2
D9506
 10
37.547500
 20
24.125000
 41
1.0
 42
1.0
 43
1.0
 50
0.0
  0
INSERT
  8
txt
  2
D9506
 10
37.805000
 20
23.900000
 41
1.0
 42
1.0
 43
1.0
 50
0.0
  0
INSERT
  8
txt
  2
D9506
 10
37.915000
 20
23.900000
 41
1.0
 42
1.0
 43
1.0
 50
0.0
  0
INSERT
  8
txt
  2
D9506
 10
37.915000
 20
23.650000
 41
1.0
 42
1.0
 43
1.0
 50
0.0
  0
INSERT
  8
txt
  2
D9506
 10
37.805000
 20
23.650000
 41
1.0
 42
1.0
 43
1.0
 50
0.0
  0
INSERT
  8
txt
  2
D9506
 10
38.235000
 20
23.575000
 41
1.0
 42
1.0
 43
1.0
 50
0.0
  0
INSERT
  8
txt
  2
D9506
 10
38.235000
 20
23.475000
 41
1.0
 42
1.0
 43
1.0
 50
0.0
  0
INSERT
  8
txt
  2
D9506
 10
37.447500
 20
24.125000
 41
1.0
 42
1.0
 43
1.0
 50
0.0
  0
INSERT
  8
txt
  2
D9506
 10
37.347500
 20
24.125000
 41
1.0
 42
1.0
 43
1.0
 50
0.0
  0
INSERT
  8
txt
  2
D9506
 10
37.247500
 20
24.125000
 41
1.0
 42
1.0
 43
1.0
 50
0.0
  0
INSERT
  8
txt
  2
D9506
 10
37.147500
 20
24.125000
 41
1.0
 42
1.0
 43
1.0
 50
0.0
  0
INSERT
  8
txt
  2
D9506
 10
37.047500
 20
24.125000
 41
1.0
 42
1.0
 43
1.0
 50
0.0
  0
INSERT
  8
txt
  2
D9506
 10
36.947500
 20
24.125000
 41
1.0
 42
1.0
 43
1.0
 50
0.0
  0
INSERT
  8
txt
  2
D9506
 10
36.847500
 20
24.125000
 41
1.0
 42
1.0
 43
1.0
 50
0.0
  0
INSERT
  8
txt
  2
D9506
 10
36.747500
 20
24.125000
 41
1.0
 42
1.0
 43
1.0
 50
0.0
  0
INSERT
  8
txt
  2
D9506
 10
36.647500
 20
24.125000
 41
1.0
 42
1.0
 43
1.0
 50
0.0
  0
INSERT
  8
txt
  2
D9506
 10
36.360000
 20
23.600000
 41
1.0
 42
1.0
 43
1.0
 50
0.0
  0
INSERT
  8
txt
  2
D9506
 10
36.360000
 20
23.500000
 41
1.0
 42
1.0
 43
1.0
 50
0.0
  0
INSERT
  8
txt
  2
D9506
 10
35.920000
 20
23.605000
 41
1.0
 42
1.0
 43
1.0
 50
0.0
  0
INSERT
  8
txt
  2
D9506
 10
35.920000
 20
23.705000
 41
1.0
 42
1.0
 43
1.0
 50
0.0
  0
INSERT
  8
txt
  2
D9506
 10
35.920000
 20
23.805000
 41
1.0
 42
1.0
 43
1.0
 50
0.0
  0
INSERT
  8
txt
  2
D9506
 10
35.920000
 20
23.905000
 41
1.0
 42
1.0
 43
1.0
 50
0.0
  0
INSERT
  8
txt
  2
D9506
 10
35.920000
 20
24.005000
 41
1.0
 42
1.0
 43
1.0
 50
0.0
  0
INSERT
  8
txt
  2
D9506
 10
35.920000
 20
24.105000
 41
1.0
 42
1.0
 43
1.0
 50
0.0
  0
INSERT
  8
txt
  2
D9506
 10
35.570000
 20
24.105000
 41
1.0
 42
1.0
 43
1.0
 50
0.0
  0
INSERT
  8
txt
  2
D9506
 10
35.470000
 20
24.105000
 41
1.0
 42
1.0
 43
1.0
 50
0.0
  0
INSERT
  8
txt
  2
D9506
 10
35.370000
 20
24.105000
 41
1.0
 42
1.0
 43
1.0
 50
0.0
  0
INSERT
  8
txt
  2
D9506
 10
34.020000
 20
24.105000
 41
1.0
 42
1.0
 43
1.0
 50
0.0
  0
INSERT
  8
txt
  2
D9506
 10
34.020000
 20
24.005000
 41
1.0
 42
1.0
 43
1.0
 50
0.0
  0
INSERT
  8
txt
  2
D9506
 10
34.020000
 20
23.905000
 41
1.0
 42
1.0
 43
1.0
 50
0.0
  0
INSERT
  8
txt
  2
D9506
 10
34.020000
 20
23.805000
 41
1.0
 42
1.0
 43
1.0
 50
0.0
  0
INSERT
  8
txt
  2
D9506
 10
34.020000
 20
23.705000
 41
1.0
 42
1.0
 43
1.0
 50
0.0
  0
INSERT
  8
txt
  2
D9506
 10
34.020000
 20
23.605000
 41
1.0
 42
1.0
 43
1.0
 50
0.0
  0
INSERT
  8
txt
  2
D9506
 10
34.020000
 20
23.505000
 41
1.0
 42
1.0
 43
1.0
 50
0.0
  0
INSERT
  8
txt
  2
D9506
 10
34.155000
 20
25.885000
 41
1.0
 42
1.0
 43
1.0
 50
0.0
  0
INSERT
  8
txt
  2
D9506
 10
34.255000
 20
25.885000
 41
1.0
 42
1.0
 43
1.0
 50
0.0
  0
INSERT
  8
txt
  2
D9506
 10
35.305000
 20
25.285000
 41
1.0
 42
1.0
 43
1.0
 50
0.0
  0
INSERT
  8
txt
  2
D9506
 10
35.305000
 20
25.185000
 41
1.0
 42
1.0
 43
1.0
 50
0.0
  0
INSERT
  8
txt
  2
D9506
 10
36.005000
 20
25.885000
 41
1.0
 42
1.0
 43
1.0
 50
0.0
  0
INSERT
  8
txt
  2
D9506
 10
36.105000
 20
25.885000
 41
1.0
 42
1.0
 43
1.0
 50
0.0
  0
INSERT
  8
txt
  2
D9506
 10
37.155000
 20
25.285000
 41
1.0
 42
1.0
 43
1.0
 50
0.0
  0
INSERT
  8
txt
  2
D9506
 10
37.155000
 20
25.185000
 41
1.0
 42
1.0
 43
1.0
 50
0.0
  0
INSERT
  8
txt
  2
D9506
 10
37.855000
 20
25.885000
 41
1.0
 42
1.0
 43
1.0
 50
0.0
  0
INSERT
  8
txt
  2
D9506
 10
37.955000
 20
25.885000
 41
1.0
 42
1.0
 43
1.0
 50
0.0
  0
INSERT
  8
txt
  2
D9506
 10
39.005000
 20
25.285000
 41
1.0
 42
1.0
 43
1.0
 50
0.0
  0
INSERT
  8
txt
  2
D9506
 10
39.005000
 20
25.185000
 41
1.0
 42
1.0
 43
1.0
 50
0.0
  0
INSERT
  8
txt
  2
D9506
 10
40.575000
 20
25.815000
 41
1.0
 42
1.0
 43
1.0
 50
0.0
  0
INSERT
  8
txt
  2
D9506
 10
39.975000
 20
26.515000
 41
1.0
 42
1.0
 43
1.0
 50
0.0
  0
INSERT
  8
txt
  2
D9506
 10
40.675000
 20
25.815000
 41
1.0
 42
1.0
 43
1.0
 50
0.0
  0
INSERT
  8
txt
  2
D9506
 10
40.675000
 20
27.665000
 41
1.0
 42
1.0
 43
1.0
 50
0.0
  0
INSERT
  8
txt
  2
D9506
 10
40.575000
 20
27.665000
 41
1.0
 42
1.0
 43
1.0
 50
0.0
  0
INSERT
  8
txt
  2
D9506
 10
39.975000
 20
26.615000
 41
1.0
 42
1.0
 43
1.0
 50
0.0
  0
INSERT
  8
txt
  2
D9506
 10
38.970000
 20
27.150000
 41
1.0
 42
1.0
 43
1.0
 50
0.0
  0
INSERT
  8
txt
  2
D9506
 10
38.970000
 20
27.250000
 41
1.0
 42
1.0
 43
1.0
 50
0.0
  0
INSERT
  8
txt
  2
D9506
 10
37.920000
 20
27.850000
 41
1.0
 42
1.0
 43
1.0
 50
0.0
  0
INSERT
  8
txt
  2
D9506
 10
37.820000
 20
27.850000
 41
1.0
 42
1.0
 43
1.0
 50
0.0
  0
INSERT
  8
txt
  2
D9506
 10
37.120000
 20
27.250000
 41
1.0
 42
1.0
 43
1.0
 50
0.0
  0
INSERT
  8
txt
  2
D9506
 10
37.120000
 20
27.150000
 41
1.0
 42
1.0
 43
1.0
 50
0.0
  0
INSERT
  8
txt
  2
D9506
 10
36.070000
 20
27.850000
 41
1.0
 42
1.0
 43
1.0
 50
0.0
  0
INSERT
  8
txt
  2
D9506
 10
35.970000
 20
27.850000
 41
1.0
 42
1.0
 43
1.0
 50
0.0
  0
INSERT
  8
txt
  2
D9506
 10
35.270000
 20
27.250000
 41
1.0
 42
1.0
 43
1.0
 50
0.0
  0
INSERT
  8
txt
  2
D9506
 10
35.270000
 20
27.150000
 41
1.0
 42
1.0
 43
1.0
 50
0.0
  0
INSERT
  8
txt
  2
D9506
 10
34.220000
 20
27.850000
 41
1.0
 42
1.0
 43
1.0
 50
0.0
  0
INSERT
  8
txt
  2
D9506
 10
34.120000
 20
27.850000
 41
1.0
 42
1.0
 43
1.0
 50
0.0
  0
INSERT
  8
txt
  2
D9506
 10
35.250000
 20
29.075000
 41
1.0
 42
1.0
 43
1.0
 50
0.0
  0
INSERT
  8
txt
  2
D9506
 10
35.250000
 20
29.175000
 41
1.0
 42
1.0
 43
1.0
 50
0.0
  0
INSERT
  8
txt
  2
D9506
 10
37.100000
 20
29.175000
 41
1.0
 42
1.0
 43
1.0
 50
0.0
  0
INSERT
  8
txt
  2
D9506
 10
37.100000
 20
29.075000
 41
1.0
 42
1.0
 43
1.0
 50
0.0
  0
INSERT
  8
txt
  2
D9506
 10
38.950000
 20
29.075000
 41
1.0
 42
1.0
 43
1.0
 50
0.0
  0
INSERT
  8
txt
  2
D9506
 10
38.950000
 20
29.175000
 41
1.0
 42
1.0
 43
1.0
 50
0.0
  0
INSERT
  8
txt
  2
D9506
 10
39.975000
 20
28.465000
 41
1.0
 42
1.0
 43
1.0
 50
0.0
  0
INSERT
  8
txt
  2
D9506
 10
39.975000
 20
28.365000
 41
1.0
 42
1.0
 43
1.0
 50
0.0
  0
INSERT
  8
txt
  2
D9506
 10
40.575000
 20
29.515000
 41
1.0
 42
1.0
 43
1.0
 50
0.0
  0
INSERT
  8
txt
  2
D9506
 10
40.675000
 20
29.515000
 41
1.0
 42
1.0
 43
1.0
 50
0.0
  0
INSERT
  8
txt
  2
D9506
 10
37.900000
 20
29.775000
 41
1.0
 42
1.0
 43
1.0
 50
0.0
  0
INSERT
  8
txt
  2
D9506
 10
37.800000
 20
29.775000
 41
1.0
 42
1.0
 43
1.0
 50
0.0
  0
INSERT
  8
txt
  2
D9506
 10
36.050000
 20
29.775000
 41
1.0
 42
1.0
 43
1.0
 50
0.0
  0
INSERT
  8
txt
  2
D9506
 10
35.950000
 20
29.775000
 41
1.0
 42
1.0
 43
1.0
 50
0.0
  0
INSERT
  8
txt
  2
D9506
 10
34.200000
 20
29.775000
 41
1.0
 42
1.0
 43
1.0
 50
0.0
  0
INSERT
  8
txt
  2
D9506
 10
34.100000
 20
29.775000
 41
1.0
 42
1.0
 43
1.0
 50
0.0
  0
INSERT
  8
txt
  2
D9507
 10
38.720270
 20
22.078420
 41
1.0
 42
1.0
 43
1.0
 50
0.0
  0
INSERT
  8
txt
  2
D9507
 10
39.420270
 20
22.118420
 41
1.0
 42
1.0
 43
1.0
 50
0.0
  0
INSERT
  8
txt
  2
D9507
 10
41.250270
 20
22.248420
 41
1.0
 42
1.0
 43
1.0
 50
0.0
  0
INSERT
  8
txt
  2
D9507
 10
41.260270
 20
23.383420
 41
1.0
 42
1.0
 43
1.0
 50
0.0
  0
INSERT
  8
txt
  2
D9507
 10
39.390270
 20
23.998420
 41
1.0
 42
1.0
 43
1.0
 50
0.0
  0
INSERT
  8
txt
  2
D9507
 10
38.725270
 20
23.993420
 41
1.0
 42
1.0
 43
1.0
 50
0.0
  0
INSERT
  8
txt
  2
D9508
 10
36.560000
 20
22.075000
 41
1.0
 42
1.0
 43
1.0
 50
0.0
  0
INSERT
  8
txt
  2
D9508
 10
37.660000
 20
22.075000
 41
1.0
 42
1.0
 43
1.0
 50
0.0
  0
INSERT
  8
txt
  2
D9508
 10
38.260000
 20
24.075000
 41
1.0
 42
1.0
 43
1.0
 50
0.0
  0
INSERT
  8
txt
  2
D9508
 10
36.360000
 20
24.125000
 41
1.0
 42
1.0
 43
1.0
 50
0.0
  0
INSERT
  8
txt
  2
D9509
 10
41.275000
 20
24.565000
 41
1.0
 42
1.0
 43
1.0
 50
0.0
  0
INSERT
  8
txt
  2
D9509
 10
39.725000
 20
24.565000
 41
1.0
 42
1.0
 43
1.0
 50
0.0
  0
INSERT
  8
txt
  2
D9509
 10
39.305000
 20
24.585000
 41
1.0
 42
1.0
 43
1.0
 50
0.0
  0
INSERT
  8
txt
  2
D9509
 10
37.755000
 20
24.585000
 41
1.0
 42
1.0
 43
1.0
 50
0.0
  0
INSERT
  8
txt
  2
D9509
 10
37.455000
 20
24.585000
 41
1.0
 42
1.0
 43
1.0
 50
0.0
  0
INSERT
  8
txt
  2
D9509
 10
35.905000
 20
24.585000
 41
1.0
 42
1.0
 43
1.0
 50
0.0
  0
INSERT
  8
txt
  2
D9509
 10
35.605000
 20
24.585000
 41
1.0
 42
1.0
 43
1.0
 50
0.0
  0
INSERT
  8
txt
  2
D9509
 10
34.055000
 20
24.585000
 41
1.0
 42
1.0
 43
1.0
 50
0.0
  0
INSERT
  8
txt
  2
D9509
 10
34.055000
 20
26.135000
 41
1.0
 42
1.0
 43
1.0
 50
0.0
  0
INSERT
  8
txt
  2
D9509
 10
34.020000
 20
26.550000
 41
1.0
 42
1.0
 43
1.0
 50
0.0
  0
INSERT
  8
txt
  2
D9509
 10
35.570000
 20
26.550000
 41
1.0
 42
1.0
 43
1.0
 50
0.0
  0
INSERT
  8
txt
  2
D9509
 10
35.870000
 20
26.550000
 41
1.0
 42
1.0
 43
1.0
 50
0.0
  0
INSERT
  8
txt
  2
D9509
 10
35.905000
 20
26.135000
 41
1.0
 42
1.0
 43
1.0
 50
0.0
  0
INSERT
  8
txt
  2
D9509
 10
35.605000
 20
26.135000
 41
1.0
 42
1.0
 43
1.0
 50
0.0
  0
INSERT
  8
txt
  2
D9509
 10
37.455000
 20
26.135000
 41
1.0
 42
1.0
 43
1.0
 50
0.0
  0
INSERT
  8
txt
  2
D9509
 10
37.420000
 20
26.550000
 41
1.0
 42
1.0
 43
1.0
 50
0.0
  0
INSERT
  8
txt
  2
D9509
 10
37.720000
 20
26.550000
 41
1.0
 42
1.0
 43
1.0
 50
0.0
  0
INSERT
  8
txt
  2
D9509
 10
37.755000
 20
26.135000
 41
1.0
 42
1.0
 43
1.0
 50
0.0
  0
INSERT
  8
txt
  2
D9509
 10
39.305000
 20
26.135000
 41
1.0
 42
1.0
 43
1.0
 50
0.0
  0
INSERT
  8
txt
  2
D9509
 10
39.725000
 20
26.115000
 41
1.0
 42
1.0
 43
1.0
 50
0.0
  0
INSERT
  8
txt
  2
D9509
 10
39.725000
 20
26.415000
 41
1.0
 42
1.0
 43
1.0
 50
0.0
  0
INSERT
  8
txt
  2
D9509
 10
39.270000
 20
26.550000
 41
1.0
 42
1.0
 43
1.0
 50
0.0
  0
INSERT
  8
txt
  2
D9509
 10
41.275000
 20
26.415000
 41
1.0
 42
1.0
 43
1.0
 50
0.0
  0
INSERT
  8
txt
  2
D9509
 10
41.275000
 20
26.115000
 41
1.0
 42
1.0
 43
1.0
 50
0.0
  0
INSERT
  8
txt
  2
D9509
 10
41.275000
 20
27.965000
 41
1.0
 42
1.0
 43
1.0
 50
0.0
  0
INSERT
  8
txt
  2
D9509
 10
39.725000
 20
27.965000
 41
1.0
 42
1.0
 43
1.0
 50
0.0
  0
INSERT
  8
txt
  2
D9509
 10
39.270000
 20
28.100000
 41
1.0
 42
1.0
 43
1.0
 50
0.0
  0
INSERT
  8
txt
  2
D9509
 10
37.720000
 20
28.100000
 41
1.0
 42
1.0
 43
1.0
 50
0.0
  0
INSERT
  8
txt
  2
D9509
 10
37.420000
 20
28.100000
 41
1.0
 42
1.0
 43
1.0
 50
0.0
  0
INSERT
  8
txt
  2
D9509
 10
35.870000
 20
28.100000
 41
1.0
 42
1.0
 43
1.0
 50
0.0
  0
INSERT
  8
txt
  2
D9509
 10
35.570000
 20
28.100000
 41
1.0
 42
1.0
 43
1.0
 50
0.0
  0
INSERT
  8
txt
  2
D9509
 10
34.020000
 20
28.100000
 41
1.0
 42
1.0
 43
1.0
 50
0.0
  0
INSERT
  8
txt
  2
D9509
 10
34.000000
 20
28.475000
 41
1.0
 42
1.0
 43
1.0
 50
0.0
  0
INSERT
  8
txt
  2
D9509
 10
35.550000
 20
28.475000
 41
1.0
 42
1.0
 43
1.0
 50
0.0
  0
INSERT
  8
txt
  2
D9509
 10
35.850000
 20
28.475000
 41
1.0
 42
1.0
 43
1.0
 50
0.0
  0
INSERT
  8
txt
  2
D9509
 10
37.400000
 20
28.475000
 41
1.0
 42
1.0
 43
1.0
 50
0.0
  0
INSERT
  8
txt
  2
D9509
 10
37.700000
 20
28.475000
 41
1.0
 42
1.0
 43
1.0
 50
0.0
  0
INSERT
  8
txt
  2
D9509
 10
39.250000
 20
28.475000
 41
1.0
 42
1.0
 43
1.0
 50
0.0
  0
INSERT
  8
txt
  2
D9509
 10
39.725000
 20
28.265000
 41
1.0
 42
1.0
 43
1.0
 50
0.0
  0
INSERT
  8
txt
  2
D9509
 10
41.275000
 20
28.265000
 41
1.0
 42
1.0
 43
1.0
 50
0.0
  0
INSERT
  8
txt
  2
D9509
 10
41.275000
 20
29.815000
 41
1.0
 42
1.0
 43
1.0
 50
0.0
  0
INSERT
  8
txt
  2
D9509
 10
39.725000
 20
29.815000
 41
1.0
 42
1.0
 43
1.0
 50
0.0
  0
INSERT
  8
txt
  2
D9509
 10
39.250000
 20
30.025000
 41
1.0
 42
1.0
 43
1.0
 50
0.0
  0
INSERT
  8
txt
  2
D9509
 10
37.700000
 20
30.025000
 41
1.0
 42
1.0
 43
1.0
 50
0.0
  0
INSERT
  8
txt
  2
D9509
 10
37.400000
 20
30.025000
 41
1.0
 42
1.0
 43
1.0
 50
0.0
  0
INSERT
  8
txt
  2
D9509
 10
35.850000
 20
30.025000
 41
1.0
 42
1.0
 43
1.0
 50
0.0
  0
INSERT
  8
txt
  2
D9509
 10
35.550000
 20
30.025000
 41
1.0
 42
1.0
 43
1.0
 50
0.0
  0
INSERT
  8
txt
  2
D9509
 10
34.000000
 20
30.025000
 41
1.0
 42
1.0
 43
1.0
 50
0.0
  0
ENDSEC
  0
EOF
