%FSTAX23Y23*%
%MOIN*%
%SFA1B1*%

%IPPOS*%
%AMD45*
4,1,8,0.036300,0.015100,0.015100,0.036300,-0.015100,0.036300,-0.036300,0.015100,-0.036300,-0.015100,-0.015100,-0.036300,0.015100,-0.036300,0.036300,-0.015100,0.036300,0.015100,0.0*
%
%AMD47*
4,1,8,0.011200,-0.027100,0.027100,-0.011200,0.027100,0.011200,0.011200,0.027100,-0.011200,0.027100,-0.027100,0.011200,-0.027100,-0.011200,-0.011200,-0.027100,0.011200,-0.027100,0.0*
%
%AMD51*
4,1,8,0.009600,-0.023200,0.023200,-0.009600,0.023200,0.009600,0.009600,0.023200,-0.009600,0.023200,-0.023200,0.009600,-0.023200,-0.009600,-0.009600,-0.023200,0.009600,-0.023200,0.0*
%
%AMD52*
4,1,8,0.023200,0.009600,0.009600,0.023200,-0.009600,0.023200,-0.023200,0.009600,-0.023200,-0.009600,-0.009600,-0.023200,0.009600,-0.023200,0.023200,-0.009600,0.023200,0.009600,0.0*
%
%AMD57*
4,1,8,-0.032000,-0.013300,-0.013300,-0.032000,0.013300,-0.032000,0.032000,-0.013300,0.032000,0.013300,0.013300,0.032000,-0.013300,0.032000,-0.032000,0.013300,-0.032000,-0.013300,0.0*
%
%AMD58*
4,1,8,-0.033900,-0.014100,-0.014100,-0.033900,0.014100,-0.033900,0.033900,-0.014100,0.033900,0.014100,0.014100,0.033900,-0.014100,0.033900,-0.033900,0.014100,-0.033900,-0.014100,0.0*
%
%AMD60*
4,1,8,-0.013300,0.032000,-0.032000,0.013300,-0.032000,-0.013300,-0.013300,-0.032000,0.013300,-0.032000,0.032000,-0.013300,0.032000,0.013300,0.013300,0.032000,-0.013300,0.032000,0.0*
%
%ADD41C,0.187000*%
%ADD42C,0.035430*%
%ADD43C,0.038380*%
%ADD44C,0.074000*%
G04~CAMADD=45~4~0.0~0.0~726.2~726.2~0.0~212.7~0~0.0~0.0~0.0~0.0~0~0.0~0.0~0.0~0.0~0~0.0~0.0~0.0~315.0~726.2~726.2*
%ADD45D45*%
%ADD46C,0.075000*%
G04~CAMADD=47~4~0.0~0.0~542.2~542.2~0.0~158.8~0~0.0~0.0~0.0~0.0~0~0.0~0.0~0.0~0.0~0~0.0~0.0~0.0~225.0~542.2~542.2*
%ADD47D47*%
%ADD48C,0.050000*%
%ADD49O,0.060000X0.120000*%
%ADD50C,0.060000*%
G04~CAMADD=51~4~0.0~0.0~464.8~464.8~0.0~136.1~0~0.0~0.0~0.0~0.0~0~0.0~0.0~0.0~0.0~0~0.0~0.0~0.0~225.0~464.8~464.8*
%ADD51D51*%
G04~CAMADD=52~4~0.0~0.0~464.8~464.8~0.0~136.1~0~0.0~0.0~0.0~0.0~0~0.0~0.0~0.0~0.0~0~0.0~0.0~0.0~315.0~464.8~464.8*
%ADD52D52*%
%ADD53C,0.125000*%
%ADD54C,0.080000*%
%ADD55C,0.064000*%
%ADD56C,0.086610*%
G04~CAMADD=57~4~0.0~0.0~639.0~639.0~0.0~187.2~0~0.0~0.0~0.0~0.0~0~0.0~0.0~0.0~0.0~0~0.0~0.0~0.0~135.0~639.0~639.0*
%ADD57D57*%
G04~CAMADD=58~4~0.0~0.0~677.8~677.8~0.0~198.5~0~0.0~0.0~0.0~0.0~0~0.0~0.0~0.0~0.0~0~0.0~0.0~0.0~135.0~677.8~677.8*
%ADD58D58*%
%ADD59C,0.066000*%
G04~CAMADD=60~4~0.0~0.0~639.0~639.0~0.0~187.2~0~0.0~0.0~0.0~0.0~0~0.0~0.0~0.0~0.0~0~0.0~0.0~0.0~45.0~639.0~639.0*
%ADD60D60*%
%ADD61O,0.120000X0.060000*%
%LNmergedpcbs-1*%
%LPD*%
G54D41*
X34055Y24585D03*
X35605D03*
Y26135D03*
X34055D03*
X35905Y24585D03*
X37455D03*
Y26135D03*
X35905D03*
X37755Y24585D03*
X39305D03*
Y26135D03*
X37755D03*
X3402Y2655D03*
X3557D03*
Y281D03*
X3402D03*
X3587Y2655D03*
X3742D03*
Y281D03*
X3587D03*
X3772Y2655D03*
X3927D03*
Y281D03*
X3772D03*
X41275Y24565D03*
Y26115D03*
X39725D03*
Y24565D03*
X41275Y26415D03*
Y27965D03*
X39725D03*
Y26415D03*
X41275Y28265D03*
Y29815D03*
X39725D03*
Y28265D03*
X34Y28475D03*
X3555D03*
Y30025D03*
X34D03*
X3585Y28475D03*
X374D03*
Y30025D03*
X3585D03*
X377Y28475D03*
X3925D03*
Y30025D03*
X377D03*
G54D42*
X34267Y26104D03*
X34535D03*
X35322Y24979D03*
X3559D03*
X36117Y26104D03*
X36385D03*
X37172Y24979D03*
X3744D03*
X37967Y26104D03*
X38235D03*
X39022Y24979D03*
X3929D03*
X34232Y28069D03*
X345D03*
X35287Y26944D03*
X35555D03*
X36082Y28069D03*
X3635D03*
X37137Y26944D03*
X37405D03*
X37932Y28069D03*
X382D03*
X38987Y26944D03*
X39255D03*
X39755Y24777D03*
Y25045D03*
X4088Y25832D03*
Y261D03*
X39755Y26627D03*
Y26895D03*
X4088Y27682D03*
Y2795D03*
X39755Y28477D03*
Y28745D03*
X4088Y29532D03*
Y298D03*
X34212Y29994D03*
X3448D03*
X35267Y28869D03*
X35535D03*
X36062Y29994D03*
X3633D03*
X37117Y28869D03*
X37385D03*
X37912Y29994D03*
X3818D03*
X38967Y28869D03*
X39235D03*
G54D43*
X35405Y25635D03*
X35605D03*
X35505Y25735D03*
X35405Y25235D03*
X35605D03*
X35505Y25335D03*
X34045Y25325D03*
X34245D03*
X34145Y25425D03*
X37255Y25635D03*
X37455D03*
X37355Y25735D03*
X37255Y25235D03*
X37455D03*
X37355Y25335D03*
X35895Y25325D03*
X36095D03*
X35995Y25425D03*
X39105Y25635D03*
X39305D03*
X39205Y25735D03*
X39105Y25235D03*
X39305D03*
X39205Y25335D03*
X37745Y25325D03*
X37945D03*
X37845Y25425D03*
X3537Y276D03*
X3557D03*
X3547Y277D03*
X3537Y272D03*
X3557D03*
X3547Y273D03*
X3401Y2729D03*
X3421D03*
X3411Y2739D03*
X3722Y276D03*
X3742D03*
X3732Y277D03*
X3722Y272D03*
X3742D03*
X3732Y273D03*
X3586Y2729D03*
X3606D03*
X3596Y2739D03*
X3907Y276D03*
X3927D03*
X3917Y277D03*
X3907Y272D03*
X3927D03*
X3917Y273D03*
X3771Y2729D03*
X3791D03*
X3781Y2739D03*
X40225Y25915D03*
Y26115D03*
X40125Y26015D03*
X40625Y25915D03*
Y26115D03*
X40525Y26015D03*
X40535Y24555D03*
Y24755D03*
X40435Y24655D03*
X40225Y27765D03*
Y27965D03*
X40125Y27865D03*
X40625Y27765D03*
Y27965D03*
X40525Y27865D03*
X40535Y26405D03*
Y26605D03*
X40435Y26505D03*
X40225Y29615D03*
Y29815D03*
X40125Y29715D03*
X40625Y29615D03*
Y29815D03*
X40525Y29715D03*
X40535Y28255D03*
Y28455D03*
X40435Y28355D03*
X3535Y29525D03*
X3555D03*
X3545Y29625D03*
X3535Y29125D03*
X3555D03*
X3545Y29225D03*
X3399Y29215D03*
X3419D03*
X3409Y29315D03*
X372Y29525D03*
X374D03*
X373Y29625D03*
X372Y29125D03*
X374D03*
X373Y29225D03*
X3584Y29215D03*
X3604D03*
X3594Y29315D03*
X3905Y29525D03*
X3925D03*
X3915Y29625D03*
X3905Y29125D03*
X3925D03*
X3915Y29225D03*
X3769Y29215D03*
X3789D03*
X3779Y29315D03*
G54D44*
X34255Y25885D03*
X34155D03*
X35305Y25185D03*
Y25285D03*
X36105Y25885D03*
X36005D03*
X37155Y25185D03*
Y25285D03*
X37955Y25885D03*
X37855D03*
X39005Y25185D03*
Y25285D03*
X3422Y2785D03*
X3412D03*
X3527Y2715D03*
Y2725D03*
X3607Y2785D03*
X3597D03*
X3712Y2715D03*
Y2725D03*
X3792Y2785D03*
X3782D03*
X3897Y2715D03*
Y2725D03*
X39975Y24765D03*
Y24665D03*
X40675Y25815D03*
X40575D03*
X39975Y26615D03*
Y26515D03*
X40675Y27665D03*
X40575D03*
X39975Y28465D03*
Y28365D03*
X40675Y29515D03*
X40575D03*
X3592Y22705D03*
Y22805D03*
X3402Y22355D03*
Y22455D03*
Y22555D03*
Y22655D03*
Y22755D03*
Y22855D03*
Y22955D03*
Y23055D03*
Y23155D03*
Y23255D03*
Y23405D03*
Y23505D03*
Y23605D03*
Y23705D03*
Y23805D03*
Y23905D03*
Y24005D03*
Y24105D03*
X3592D03*
Y24005D03*
Y23905D03*
Y23805D03*
Y23705D03*
Y23605D03*
Y23405D03*
Y23305D03*
Y23205D03*
Y23105D03*
Y23005D03*
Y22905D03*
X3636Y23075D03*
Y23175D03*
X3746Y22075D03*
X3736D03*
X3726D03*
X3681D03*
X3691D03*
X3701D03*
X38235Y22625D03*
Y22525D03*
Y22425D03*
X3636Y22562D03*
Y22462D03*
Y22362D03*
X38235Y2295D03*
Y2305D03*
X3636Y22787D03*
Y22887D03*
X38022Y22762D03*
X37722D03*
X3696Y23662D03*
X3666D03*
X3696Y22775D03*
X3666D03*
X3696Y22537D03*
X3666D03*
Y239D03*
X3696D03*
X3801Y22987D03*
X3771D03*
X38022Y223D03*
X37722D03*
X3696D03*
X3666D03*
X38022Y22512D03*
X37722D03*
X3696Y23012D03*
X3666D03*
X38022Y23225D03*
X37722D03*
X3666Y2345D03*
X3696D03*
X3771D03*
X3801D03*
X3666Y23225D03*
X3696D03*
X37547Y24125D03*
X37447D03*
X37347D03*
X37247D03*
X37147D03*
X37047D03*
X36947D03*
X36847D03*
X36747D03*
X36647D03*
X38135Y22075D03*
X38035D03*
X37935D03*
X3636Y234D03*
Y235D03*
Y236D03*
X3796Y24125D03*
X3786D03*
X3776D03*
X38235Y23575D03*
Y23475D03*
Y23375D03*
X40689Y23605D03*
Y23505D03*
Y23405D03*
Y23305D03*
Y23205D03*
Y23105D03*
Y23005D03*
Y22905D03*
X41089Y237D03*
Y236D03*
Y235D03*
Y234D03*
Y233D03*
Y232D03*
Y231D03*
Y23D03*
X342Y29775D03*
X341D03*
X3525Y29075D03*
Y29175D03*
X3605Y29775D03*
X3595D03*
X371Y29075D03*
Y29175D03*
X379Y29775D03*
X378D03*
X3895Y29075D03*
Y29175D03*
G54D45*
X3567Y23655D03*
G54D46*
X3567Y23855D03*
X37525Y2325D03*
Y2315D03*
Y2305D03*
Y2295D03*
X37195D03*
Y2305D03*
Y2315D03*
Y2325D03*
G54D47*
X3522Y22255D03*
X3532D03*
X3477Y23355D03*
X3487D03*
X3527Y23655D03*
X3517D03*
X3487Y22655D03*
X3477D03*
G54D48*
X3537Y23305D03*
Y23205D03*
X3567Y23305D03*
Y23205D03*
X3537Y23005D03*
Y23105D03*
X3567D03*
Y23005D03*
G54D49*
X3582Y22105D03*
X3572D03*
X3427D03*
X3417D03*
X39059Y2224D03*
X39159D03*
X39259D03*
X39054Y22765D03*
X39154D03*
X39254D03*
X39064Y2305D03*
X39164D03*
X39264D03*
X39059Y23435D03*
X39159D03*
X39259D03*
X39069Y23725D03*
X39169D03*
X39999Y226D03*
X39899D03*
X39799D03*
X39999Y23625D03*
X39899D03*
X39799D03*
X39594Y2245D03*
X39494D03*
X39394D03*
X39599Y23005D03*
X39499D03*
X39399D03*
X39604Y23635D03*
X39504D03*
X39404D03*
X40429Y2259D03*
X40329D03*
X40229D03*
X40439Y2354D03*
X40339D03*
X40239D03*
X39559Y22135D03*
X39659D03*
X39759D03*
G54D50*
X3557Y24105D03*
X3547D03*
X3537D03*
G54D51*
X3522Y23905D03*
X3552D03*
X3467Y23855D03*
X3497D03*
X3457Y24005D03*
X3427D03*
X3477Y22955D03*
X3507D03*
X3497Y22305D03*
X3467D03*
X3497Y23605D03*
X3467D03*
G54D52*
X3427Y23255D03*
Y23555D03*
X3557Y22705D03*
Y22405D03*
X3537Y22455D03*
Y22755D03*
X3432Y22805D03*
Y22505D03*
X3447Y22605D03*
Y22905D03*
X3517Y23405D03*
Y23105D03*
X3452Y23205D03*
Y23505D03*
G54D53*
X3766Y22075D03*
X3656D03*
X3636Y24125D03*
X3826Y24075D03*
G54D54*
X37805Y239D03*
X37915D03*
X37805Y2365D03*
X37915D03*
G54D55*
X3751Y22375D03*
Y22475D03*
X3721Y22375D03*
Y22475D03*
X3751Y22675D03*
Y22575D03*
X3721D03*
Y22675D03*
X3751Y23575D03*
Y23675D03*
X3721Y23575D03*
Y23675D03*
X3751Y23875D03*
Y23775D03*
X3721D03*
Y23875D03*
G54D56*
X4126Y23383D03*
X3939Y23998D03*
X3942Y22118D03*
X3872Y22078D03*
X38725Y23993D03*
X4125Y22248D03*
G54D57*
X40349Y23192D03*
Y22992D03*
X40629Y2245D03*
Y2225D03*
X40734Y2245D03*
Y2225D03*
X40834Y2245D03*
Y2225D03*
X40934Y2245D03*
Y2225D03*
X41034Y2245D03*
Y2225D03*
X41134Y2245D03*
Y2225D03*
G54D58*
X40269Y2385D03*
X40169D03*
X40069D03*
X39969D03*
X39869D03*
X39769D03*
X39669D03*
X39569D03*
X40269Y24D03*
X40169D03*
X40069D03*
X39969D03*
X39869D03*
X39769D03*
X39669D03*
X39569D03*
X40424Y2385D03*
X40524D03*
X40624D03*
X40724D03*
X40824D03*
X40924D03*
X41024D03*
X41124D03*
X40424Y24D03*
X40524D03*
X40624D03*
X40724D03*
X40824D03*
X40924D03*
X41024D03*
X41124D03*
X39924Y22105D03*
X40024D03*
X40124D03*
X40224D03*
X40324D03*
X40424D03*
X39924Y2225D03*
X40024D03*
X40124D03*
X40224D03*
X40324D03*
X40424D03*
X41129Y221D03*
X41029D03*
X40929D03*
X40829D03*
X40729D03*
X40629D03*
X41134Y2256D03*
X41034D03*
X40934D03*
X40834D03*
X40734D03*
X40634D03*
G54D59*
X39249Y2393D03*
X40539Y2258D03*
X39719Y23495D03*
X39974Y23325D03*
X40119Y2259D03*
X40124Y2242D03*
X40319Y2331D03*
G54D60*
X40209Y2292D03*
X40009D03*
X39209Y22105D03*
X39109D03*
X39209Y22625D03*
X39109D03*
X39209Y22915D03*
X39109D03*
X39199Y233D03*
X39099D03*
X39169Y23575D03*
X39069D03*
X39999Y22465D03*
X39899D03*
X39994Y23495D03*
X39894D03*
X39594Y2231D03*
X39494D03*
X39599Y2287D03*
X39499D03*
X39604Y235D03*
X39504D03*
X40429Y2246D03*
X40329D03*
X40439Y23405D03*
X40339D03*
G54D61*
X39966Y23189D03*
Y23011D03*
X40222Y23189D03*
Y23011D03*
M02*