%FSTAX23Y23*%
%MOIN*%
%SFA1B1*%

%IPPOS*%
%ADD29C,0.024000*%
%ADD30C,0.006000*%
%ADD35C,0.010000*%
%ADD117C,0.004000*%
%ADD118C,0.008000*%
%ADD119C,0.005000*%
%ADD120C,0.002000*%
%ADD123C,0.002550*%
%LNmergedpcbs-1*%
%LPD*%
G36*
X3558Y24095D02*
X3556D01*
Y24115*
X3558*
Y24095*
G37*
G36*
X3548D02*
X3546D01*
Y24115*
X3548*
Y24095*
G37*
G36*
X3538D02*
X3536D01*
Y24115*
X3538*
Y24095*
G37*
G36*
X36657Y24115D02*
X36637D01*
Y24135*
X36657*
Y24115*
G37*
G36*
X36957D02*
X36937D01*
Y24135*
X36957*
Y24115*
G37*
G36*
X36857D02*
X36837D01*
Y24135*
X36857*
Y24115*
G37*
G36*
X36757D02*
X36737D01*
Y24135*
X36757*
Y24115*
G37*
G36*
X34555Y23993D02*
X34545D01*
Y24017*
X34555*
Y23993*
G37*
G36*
X40834Y2399D02*
X40814D01*
Y2401*
X40834*
Y2399*
G37*
G36*
X40734D02*
X40714D01*
Y2401*
X40734*
Y2399*
G37*
G36*
X40634D02*
X40614D01*
Y2401*
X40634*
Y2399*
G37*
G36*
X40934D02*
X40914D01*
Y2401*
X40934*
Y2399*
G37*
G36*
X34295Y23993D02*
X34285D01*
Y24017*
X34295*
Y23993*
G37*
G36*
X41134Y2399D02*
X41114D01*
Y2401*
X41134*
Y2399*
G37*
G36*
X41034D02*
X41014D01*
Y2401*
X41034*
Y2399*
G37*
G36*
X37057Y24115D02*
X37037D01*
Y24135*
X37057*
Y24115*
G37*
G36*
X38068Y24608D02*
X38001D01*
Y24637*
X38068*
Y24608*
G37*
G36*
X36218D02*
X36151D01*
Y24637*
X36218*
Y24608*
G37*
G36*
X34368D02*
X34301D01*
Y24637*
X34368*
Y24608*
G37*
G36*
X3524Y24608D02*
X35211D01*
Y24677*
X3524*
Y24608*
G37*
G36*
X37194D02*
X37165D01*
Y24677*
X37194*
Y24608*
G37*
G36*
X3709D02*
X37061D01*
Y24677*
X3709*
Y24608*
G37*
G36*
X35344D02*
X35315D01*
Y24677*
X35344*
Y24608*
G37*
G36*
X3797Y24115D02*
X3795D01*
Y24135*
X3797*
Y24115*
G37*
G36*
X37357D02*
X37337D01*
Y24135*
X37357*
Y24115*
G37*
G36*
X37257D02*
X37237D01*
Y24135*
X37257*
Y24115*
G37*
G36*
X37157D02*
X37137D01*
Y24135*
X37157*
Y24115*
G37*
G36*
X37457D02*
X37437D01*
Y24135*
X37457*
Y24115*
G37*
G36*
X3787D02*
X3785D01*
Y24135*
X3787*
Y24115*
G37*
G36*
X3777D02*
X3775D01*
Y24135*
X3777*
Y24115*
G37*
G36*
X37557D02*
X37537D01*
Y24135*
X37557*
Y24115*
G37*
G36*
X40534Y2399D02*
X40514D01*
Y2401*
X40534*
Y2399*
G37*
G36*
X40434Y2384D02*
X40414D01*
Y2386*
X40434*
Y2384*
G37*
G36*
X40279D02*
X40259D01*
Y2386*
X40279*
Y2384*
G37*
G36*
X40179D02*
X40159D01*
Y2386*
X40179*
Y2384*
G37*
G36*
X40534D02*
X40514D01*
Y2386*
X40534*
Y2384*
G37*
G36*
X40834D02*
X40814D01*
Y2386*
X40834*
Y2384*
G37*
G36*
X40734D02*
X40714D01*
Y2386*
X40734*
Y2384*
G37*
G36*
X40634D02*
X40614D01*
Y2386*
X40634*
Y2384*
G37*
G36*
X40079D02*
X40059D01*
Y2386*
X40079*
Y2384*
G37*
G36*
X39579D02*
X39559D01*
Y2386*
X39579*
Y2384*
G37*
G36*
X39179Y23715D02*
X39159D01*
Y23735*
X39179*
Y23715*
G37*
G36*
X39079D02*
X39059D01*
Y23735*
X39079*
Y23715*
G37*
G36*
X39679Y2384D02*
X39659D01*
Y2386*
X39679*
Y2384*
G37*
G36*
X39979D02*
X39959D01*
Y2386*
X39979*
Y2384*
G37*
G36*
X39879D02*
X39859D01*
Y2386*
X39879*
Y2384*
G37*
G36*
X39779D02*
X39759D01*
Y2386*
X39779*
Y2384*
G37*
G36*
X40934D02*
X40914D01*
Y2386*
X40934*
Y2384*
G37*
G36*
X39979Y2399D02*
X39959D01*
Y2401*
X39979*
Y2399*
G37*
G36*
X39879D02*
X39859D01*
Y2401*
X39879*
Y2399*
G37*
G36*
X39779D02*
X39759D01*
Y2401*
X39779*
Y2399*
G37*
G36*
X40079D02*
X40059D01*
Y2401*
X40079*
Y2399*
G37*
G36*
X40434D02*
X40414D01*
Y2401*
X40434*
Y2399*
G37*
G36*
X40279D02*
X40259D01*
Y2401*
X40279*
Y2399*
G37*
G36*
X40179D02*
X40159D01*
Y2401*
X40179*
Y2399*
G37*
G36*
X39679D02*
X39659D01*
Y2401*
X39679*
Y2399*
G37*
G36*
X34695Y23843D02*
X34685D01*
Y23867*
X34695*
Y23843*
G37*
G36*
X41134Y2384D02*
X41114D01*
Y2386*
X41134*
Y2384*
G37*
G36*
X41034D02*
X41014D01*
Y2386*
X41034*
Y2384*
G37*
G36*
X34955Y23843D02*
X34945D01*
Y23867*
X34955*
Y23843*
G37*
G36*
X39579Y2399D02*
X39559D01*
Y2401*
X39579*
Y2399*
G37*
G36*
X35505Y23893D02*
X35495D01*
Y23917*
X35505*
Y23893*
G37*
G36*
X35245D02*
X35235D01*
Y23917*
X35245*
Y23893*
G37*
G36*
X36439Y24913D02*
X3642D01*
Y24957*
X36439*
Y24913*
G37*
G36*
X34739D02*
X3472D01*
Y24957*
X34739*
Y24913*
G37*
G36*
X34689D02*
X3467D01*
Y24957*
X34689*
Y24913*
G37*
G36*
X36489D02*
X3647D01*
Y24957*
X36489*
Y24913*
G37*
G36*
X38289D02*
X3827D01*
Y24957*
X38289*
Y24913*
G37*
G36*
X36589D02*
X3657D01*
Y24957*
X36589*
Y24913*
G37*
G36*
X36539D02*
X3652D01*
Y24957*
X36539*
Y24913*
G37*
G36*
X34639D02*
X3462D01*
Y24957*
X34639*
Y24913*
G37*
G36*
X38932Y24851D02*
X38902D01*
Y24918*
X38932*
Y24851*
G37*
G36*
X37082D02*
X37052D01*
Y24918*
X37082*
Y24851*
G37*
G36*
X35232D02*
X35202D01*
Y24918*
X35232*
Y24851*
G37*
G36*
X34158Y249D02*
D01*
X34152Y24905*
X34143Y24918*
X34135Y24932*
X34129Y24946*
X34125Y24961*
X34123Y24977*
Y24992*
X34125Y25008*
X34129Y25023*
X34135Y25037*
X34143Y25051*
X34152Y25064*
X34158Y25069*
Y249*
G37*
G36*
X34589Y24913D02*
X3457D01*
Y24957*
X34589*
Y24913*
G37*
G36*
X37858Y249D02*
D01*
X37852Y24905*
X37843Y24918*
X37835Y24932*
X37829Y24946*
X37825Y24961*
X37823Y24977*
Y24992*
X37825Y25008*
X37829Y25023*
X37835Y25037*
X37843Y25051*
X37852Y25064*
X37858Y25069*
Y249*
G37*
G36*
X36008D02*
D01*
X36002Y24905*
X35993Y24918*
X35985Y24932*
X35979Y24946*
X35975Y24961*
X35973Y24977*
Y24992*
X35975Y25008*
X35979Y25023*
X35985Y25037*
X35993Y25051*
X36002Y25064*
X36008Y25069*
Y249*
G37*
G36*
X38339Y24913D02*
X3832D01*
Y24957*
X38339*
Y24913*
G37*
G36*
X36321Y2515D02*
X36292D01*
Y25219*
X36321*
Y2515*
G37*
G36*
X36217D02*
X36188D01*
Y25219*
X36217*
Y2515*
G37*
G36*
X34471D02*
X34442D01*
Y25219*
X34471*
Y2515*
G37*
G36*
X38067D02*
X38038D01*
Y25219*
X38067*
Y2515*
G37*
G36*
X41147Y2518D02*
X41103D01*
Y25199*
X41147*
Y2518*
G37*
G36*
X40946D02*
X40902D01*
Y25199*
X40946*
Y2518*
G37*
G36*
X38171Y2515D02*
X38142D01*
Y25219*
X38171*
Y2515*
G37*
G36*
X34367D02*
X34338D01*
Y25219*
X34367*
Y2515*
G37*
G36*
X40709Y24952D02*
X4064D01*
Y24981*
X40709*
Y24952*
G37*
G36*
X38439Y24913D02*
X3842D01*
Y24957*
X38439*
Y24913*
G37*
G36*
X38389D02*
X3837D01*
Y24957*
X38389*
Y24913*
G37*
G36*
X40946Y2508D02*
X40902D01*
Y25099*
X40946*
Y2508*
G37*
G36*
X41147Y2513D02*
X41103D01*
Y25149*
X41147*
Y2513*
G37*
G36*
X40946D02*
X40902D01*
Y25149*
X40946*
Y2513*
G37*
G36*
X41147Y2508D02*
X41103D01*
Y25099*
X41147*
Y2508*
G37*
G36*
X38827Y24851D02*
X38798D01*
Y24918*
X38827*
Y24851*
G37*
G36*
X34739Y24712D02*
X3472D01*
Y24756*
X34739*
Y24712*
G37*
G36*
X34689D02*
X3467D01*
Y24756*
X34689*
Y24712*
G37*
G36*
X34639D02*
X3462D01*
Y24756*
X34639*
Y24712*
G37*
G36*
X36439D02*
X3642D01*
Y24756*
X36439*
Y24712*
G37*
G36*
X36589D02*
X3657D01*
Y24756*
X36589*
Y24712*
G37*
G36*
X36539D02*
X3652D01*
Y24756*
X36539*
Y24712*
G37*
G36*
X36489D02*
X3647D01*
Y24756*
X36489*
Y24712*
G37*
G36*
X34589D02*
X3457D01*
Y24756*
X34589*
Y24712*
G37*
G36*
X40954Y24662D02*
X40941Y24653D01*
X40927Y24645*
X40913Y24639*
X40898Y24635*
X40882Y24633*
X40867*
X40851Y24635*
X40836Y24639*
X40822Y24645*
X40808Y24653*
X40795Y24662*
X4079Y24668*
X40959*
X40954Y24662*
G37*
G36*
X39044Y24608D02*
X39015D01*
Y24677*
X39044*
Y24608*
G37*
G36*
X3894D02*
X38911D01*
Y24677*
X3894*
Y24608*
G37*
G36*
X39985Y24655D02*
X39965D01*
Y24675*
X39985*
Y24655*
G37*
G36*
X38068Y24712D02*
X38001D01*
Y24742*
X38068*
Y24712*
G37*
G36*
X36218D02*
X36151D01*
Y24742*
X36218*
Y24712*
G37*
G36*
X34368D02*
X34301D01*
Y24742*
X34368*
Y24712*
G37*
G36*
X38289Y24712D02*
X3827D01*
Y24756*
X38289*
Y24712*
G37*
G36*
X36871Y2485D02*
X36842D01*
Y24919*
X36871*
Y2485*
G37*
G36*
X36767D02*
X36738D01*
Y24919*
X36767*
Y2485*
G37*
G36*
X35021D02*
X34992D01*
Y24919*
X35021*
Y2485*
G37*
G36*
X38617D02*
X38588D01*
Y24919*
X38617*
Y2485*
G37*
G36*
X36977Y24851D02*
X36948D01*
Y24918*
X36977*
Y24851*
G37*
G36*
X35127D02*
X35098D01*
Y24918*
X35127*
Y24851*
G37*
G36*
X38721Y2485D02*
X38692D01*
Y24919*
X38721*
Y2485*
G37*
G36*
X34917D02*
X34888D01*
Y24919*
X34917*
Y2485*
G37*
G36*
X38439Y24712D02*
X3842D01*
Y24756*
X38439*
Y24712*
G37*
G36*
X38389D02*
X3837D01*
Y24756*
X38389*
Y24712*
G37*
G36*
X38339D02*
X3832D01*
Y24756*
X38339*
Y24712*
G37*
G36*
X39985Y24755D02*
X39965D01*
Y24775*
X39985*
Y24755*
G37*
G36*
X40709Y24848D02*
X4064D01*
Y24877*
X40709*
Y24848*
G37*
G36*
X41252Y24811D02*
X41222D01*
Y24878*
X41252*
Y24811*
G37*
G36*
X41147Y24811D02*
X41118D01*
Y24878*
X41147*
Y24811*
G37*
G36*
X41099Y2369D02*
X41079D01*
Y2371*
X41099*
Y2369*
G37*
G36*
X39404Y2244D02*
X39384D01*
Y2246*
X39404*
Y2244*
G37*
G36*
X35582Y2242D02*
X35558D01*
Y2243*
X35582*
Y2242*
G37*
G36*
X38245Y22415D02*
X38225D01*
Y22435*
X38245*
Y22415*
G37*
G36*
X39504Y2244D02*
X39484D01*
Y2246*
X39504*
Y2244*
G37*
G36*
X35382Y2247D02*
X35358D01*
Y2248*
X35382*
Y2247*
G37*
G36*
X3637Y22452D02*
X3635D01*
Y22472*
X3637*
Y22452*
G37*
G36*
X39604Y2244D02*
X39584D01*
Y2246*
X39604*
Y2244*
G37*
G36*
X3637Y22352D02*
X3635D01*
Y22372*
X3637*
Y22352*
G37*
G36*
X40234Y2224D02*
X40214D01*
Y2226*
X40234*
Y2224*
G37*
G36*
X40134D02*
X40114D01*
Y2226*
X40134*
Y2224*
G37*
G36*
X40034D02*
X40014D01*
Y2226*
X40034*
Y2224*
G37*
G36*
X40334D02*
X40314D01*
Y2226*
X40334*
Y2224*
G37*
G36*
X34955Y22293D02*
X34945D01*
Y22317*
X34955*
Y22293*
G37*
G36*
X34695D02*
X34685D01*
Y22317*
X34695*
Y22293*
G37*
G36*
X40434Y2224D02*
X40414D01*
Y2226*
X40434*
Y2224*
G37*
G36*
X38245Y22515D02*
X38225D01*
Y22535*
X38245*
Y22515*
G37*
G36*
X40439Y2258D02*
X40419D01*
Y226*
X40439*
Y2258*
G37*
G36*
X40339D02*
X40319D01*
Y226*
X40339*
Y2258*
G37*
G36*
X40239D02*
X40219D01*
Y226*
X40239*
Y2258*
G37*
G36*
X39809Y2259D02*
X39789D01*
Y2261*
X39809*
Y2259*
G37*
G36*
X38245Y22615D02*
X38225D01*
Y22635*
X38245*
Y22615*
G37*
G36*
X40009Y2259D02*
X39989D01*
Y2261*
X40009*
Y2259*
G37*
G36*
X39909D02*
X39889D01*
Y2261*
X39909*
Y2259*
G37*
G36*
X3637Y22552D02*
X3635D01*
Y22572*
X3637*
Y22552*
G37*
G36*
X40744Y2255D02*
X40724D01*
Y2257*
X40744*
Y2255*
G37*
G36*
X40644D02*
X40624D01*
Y2257*
X40644*
Y2255*
G37*
G36*
X34332Y2252D02*
X34308D01*
Y2253*
X34332*
Y2252*
G37*
G36*
X40844Y2255D02*
X40824D01*
Y2257*
X40844*
Y2255*
G37*
G36*
X41144D02*
X41124D01*
Y2257*
X41144*
Y2255*
G37*
G36*
X41044D02*
X41024D01*
Y2257*
X41044*
Y2255*
G37*
G36*
X40944D02*
X40924D01*
Y2257*
X40944*
Y2255*
G37*
G36*
X39934Y2224D02*
X39914D01*
Y2226*
X39934*
Y2224*
G37*
G36*
X40739Y2209D02*
X40719D01*
Y2211*
X40739*
Y2209*
G37*
G36*
X40639D02*
X40619D01*
Y2211*
X40639*
Y2209*
G37*
G36*
X38145Y22065D02*
X38125D01*
Y22085*
X38145*
Y22065*
G37*
G36*
X40839Y2209D02*
X40819D01*
Y2211*
X40839*
Y2209*
G37*
G36*
X41139D02*
X41119D01*
Y2211*
X41139*
Y2209*
G37*
G36*
X41039D02*
X41019D01*
Y2211*
X41039*
Y2209*
G37*
G36*
X40939D02*
X40919D01*
Y2211*
X40939*
Y2209*
G37*
G36*
X38045Y22065D02*
X38025D01*
Y22085*
X38045*
Y22065*
G37*
G36*
X3702D02*
X37D01*
Y22085*
X3702*
Y22065*
G37*
G36*
X3692D02*
X369D01*
Y22085*
X3692*
Y22065*
G37*
G36*
X3682D02*
X368D01*
Y22085*
X3682*
Y22065*
G37*
G36*
X3727D02*
X3725D01*
Y22085*
X3727*
Y22065*
G37*
G36*
X37945D02*
X37925D01*
Y22085*
X37945*
Y22065*
G37*
G36*
X3747D02*
X3745D01*
Y22085*
X3747*
Y22065*
G37*
G36*
X3737D02*
X3735D01*
Y22085*
X3737*
Y22065*
G37*
G36*
X3418Y22095D02*
X3416D01*
Y22115*
X3418*
Y22095*
G37*
G36*
X39669Y22125D02*
X39649D01*
Y22145*
X39669*
Y22125*
G37*
G36*
X39569D02*
X39549D01*
Y22145*
X39569*
Y22125*
G37*
G36*
X40434Y22095D02*
X40414D01*
Y22115*
X40434*
Y22095*
G37*
G36*
X39769Y22125D02*
X39749D01*
Y22145*
X39769*
Y22125*
G37*
G36*
X39269Y2223D02*
X39249D01*
Y2225*
X39269*
Y2223*
G37*
G36*
X39169D02*
X39149D01*
Y2225*
X39169*
Y2223*
G37*
G36*
X39069D02*
X39049D01*
Y2225*
X39069*
Y2223*
G37*
G36*
X40334Y22095D02*
X40314D01*
Y22115*
X40334*
Y22095*
G37*
G36*
X3583Y22095D02*
X3581D01*
Y22115*
X3583*
Y22095*
G37*
G36*
X3573D02*
X3571D01*
Y22115*
X3573*
Y22095*
G37*
G36*
X3428D02*
X3426D01*
Y22115*
X3428*
Y22095*
G37*
G36*
X39934Y22095D02*
X39914D01*
Y22115*
X39934*
Y22095*
G37*
G36*
X40234D02*
X40214D01*
Y22115*
X40234*
Y22095*
G37*
G36*
X40134D02*
X40114D01*
Y22115*
X40134*
Y22095*
G37*
G36*
X40034D02*
X40014D01*
Y22115*
X40034*
Y22095*
G37*
G36*
X38245Y23465D02*
X38225D01*
Y23485*
X38245*
Y23465*
G37*
G36*
X39269Y23425D02*
X39249D01*
Y23445*
X39269*
Y23425*
G37*
G36*
X39169D02*
X39149D01*
Y23445*
X39169*
Y23425*
G37*
G36*
X34532Y2348D02*
X34508D01*
Y2349*
X34532*
Y2348*
G37*
G36*
X40699Y23495D02*
X40679D01*
Y23515*
X40699*
Y23495*
G37*
G36*
X41099Y2349D02*
X41079D01*
Y2351*
X41099*
Y2349*
G37*
G36*
X3637Y2349D02*
X3635D01*
Y2351*
X3637*
Y2349*
G37*
G36*
X39069Y23425D02*
X39049D01*
Y23445*
X39069*
Y23425*
G37*
G36*
X38245Y23365D02*
X38225D01*
Y23385*
X38245*
Y23365*
G37*
G36*
X40699Y23295D02*
X40679D01*
Y23315*
X40699*
Y23295*
G37*
G36*
X41099Y2329D02*
X41079D01*
Y2331*
X41099*
Y2329*
G37*
G36*
X35182Y2338D02*
X35158D01*
Y2339*
X35182*
Y2338*
G37*
G36*
X40699Y23395D02*
X40679D01*
Y23415*
X40699*
Y23395*
G37*
G36*
X41099Y2339D02*
X41079D01*
Y2341*
X41099*
Y2339*
G37*
G36*
X3637Y2339D02*
X3635D01*
Y2341*
X3637*
Y2339*
G37*
G36*
X34282Y2353D02*
X34258D01*
Y2354*
X34282*
Y2353*
G37*
G36*
X39909Y23615D02*
X39889D01*
Y23635*
X39909*
Y23615*
G37*
G36*
X39809D02*
X39789D01*
Y23635*
X39809*
Y23615*
G37*
G36*
X40699Y23595D02*
X40679D01*
Y23615*
X40699*
Y23595*
G37*
G36*
X40009Y23615D02*
X39989D01*
Y23635*
X40009*
Y23615*
G37*
G36*
X39614Y23625D02*
X39594D01*
Y23645*
X39614*
Y23625*
G37*
G36*
X39514D02*
X39494D01*
Y23645*
X39514*
Y23625*
G37*
G36*
X39414D02*
X39394D01*
Y23645*
X39414*
Y23625*
G37*
G36*
X34955Y23593D02*
X34945D01*
Y23617*
X34955*
Y23593*
G37*
G36*
X40449Y2353D02*
X40429D01*
Y2355*
X40449*
Y2353*
G37*
G36*
X40349D02*
X40329D01*
Y2355*
X40349*
Y2353*
G37*
G36*
X40249D02*
X40229D01*
Y2355*
X40249*
Y2353*
G37*
G36*
X38245Y23565D02*
X38225D01*
Y23585*
X38245*
Y23565*
G37*
G36*
X34695Y23593D02*
X34685D01*
Y23617*
X34695*
Y23593*
G37*
G36*
X41099Y2359D02*
X41079D01*
Y2361*
X41099*
Y2359*
G37*
G36*
X3637Y2359D02*
X3635D01*
Y2361*
X3637*
Y2359*
G37*
G36*
X34282Y2327D02*
X34258D01*
Y2328*
X34282*
Y2327*
G37*
G36*
X40699Y22895D02*
X40679D01*
Y22915*
X40699*
Y22895*
G37*
G36*
X34482Y2288D02*
X34458D01*
Y2289*
X34482*
Y2288*
G37*
G36*
X3637Y22877D02*
X3635D01*
Y22897*
X3637*
Y22877*
G37*
G36*
X38245Y2294D02*
X38225D01*
Y2296*
X38245*
Y2294*
G37*
G36*
X41099Y2299D02*
X41079D01*
Y2301*
X41099*
Y2299*
G37*
G36*
X35055Y22943D02*
X35045D01*
Y22967*
X35055*
Y22943*
G37*
G36*
X34795D02*
X34785D01*
Y22967*
X34795*
Y22943*
G37*
G36*
X34332Y2278D02*
X34308D01*
Y2279*
X34332*
Y2278*
G37*
G36*
X35382Y2273D02*
X35358D01*
Y2274*
X35382*
Y2273*
G37*
G36*
X35582Y2268D02*
X35558D01*
Y2269*
X35582*
Y2268*
G37*
G36*
X34482Y2262D02*
X34458D01*
Y2263*
X34482*
Y2262*
G37*
G36*
X39064Y22755D02*
X39044D01*
Y22775*
X39064*
Y22755*
G37*
G36*
X3637Y22777D02*
X3635D01*
Y22797*
X3637*
Y22777*
G37*
G36*
X39264Y22755D02*
X39244D01*
Y22775*
X39264*
Y22755*
G37*
G36*
X39164D02*
X39144D01*
Y22775*
X39164*
Y22755*
G37*
G36*
X39409Y22995D02*
X39389D01*
Y23015*
X39409*
Y22995*
G37*
G36*
X35182Y2312D02*
X35158D01*
Y2313*
X35182*
Y2312*
G37*
G36*
X40699Y23095D02*
X40679D01*
Y23115*
X40699*
Y23095*
G37*
G36*
X41099Y2309D02*
X41079D01*
Y2311*
X41099*
Y2309*
G37*
G36*
X3637Y23165D02*
X3635D01*
Y23185*
X3637*
Y23165*
G37*
G36*
X34532Y2322D02*
X34508D01*
Y2323*
X34532*
Y2322*
G37*
G36*
X40699Y23195D02*
X40679D01*
Y23215*
X40699*
Y23195*
G37*
G36*
X41099Y2319D02*
X41079D01*
Y2321*
X41099*
Y2319*
G37*
G36*
X3637Y23065D02*
X3635D01*
Y23085*
X3637*
Y23065*
G37*
G36*
X40699Y22995D02*
X40679D01*
Y23015*
X40699*
Y22995*
G37*
G36*
X39609D02*
X39589D01*
Y23015*
X39609*
Y22995*
G37*
G36*
X39509D02*
X39489D01*
Y23015*
X39509*
Y22995*
G37*
G36*
X38245Y2304D02*
X38225D01*
Y2306*
X38245*
Y2304*
G37*
G36*
X39274Y2304D02*
X39254D01*
Y2306*
X39274*
Y2304*
G37*
G36*
X39174D02*
X39154D01*
Y2306*
X39174*
Y2304*
G37*
G36*
X39074D02*
X39054D01*
Y2306*
X39074*
Y2304*
G37*
G36*
X39752Y25187D02*
X39697D01*
Y25195*
X39752*
Y25187*
G37*
G36*
X36484Y28602D02*
X36465D01*
Y28646*
X36484*
Y28602*
G37*
G36*
X36434D02*
X36415D01*
Y28646*
X36434*
Y28602*
G37*
G36*
X36384D02*
X36365D01*
Y28646*
X36384*
Y28602*
G37*
G36*
X36534D02*
X36515D01*
Y28646*
X36534*
Y28602*
G37*
G36*
X38334D02*
X38315D01*
Y28646*
X38334*
Y28602*
G37*
G36*
X38284D02*
X38265D01*
Y28646*
X38284*
Y28602*
G37*
G36*
X38234D02*
X38215D01*
Y28646*
X38234*
Y28602*
G37*
G36*
X34684D02*
X34665D01*
Y28646*
X34684*
Y28602*
G37*
G36*
X36163Y28602D02*
X36096D01*
Y28632*
X36163*
Y28602*
G37*
G36*
X34313D02*
X34246D01*
Y28632*
X34313*
Y28602*
G37*
G36*
X40709Y28548D02*
X4064D01*
Y28577*
X40709*
Y28548*
G37*
G36*
X38013Y28602D02*
X37946D01*
Y28632*
X38013*
Y28602*
G37*
G36*
X34634Y28602D02*
X34615D01*
Y28646*
X34634*
Y28602*
G37*
G36*
X34584D02*
X34565D01*
Y28646*
X34584*
Y28602*
G37*
G36*
X34534D02*
X34515D01*
Y28646*
X34534*
Y28602*
G37*
G36*
X38384D02*
X38365D01*
Y28646*
X38384*
Y28602*
G37*
G36*
X35177Y28741D02*
X35147D01*
Y28808*
X35177*
Y28741*
G37*
G36*
X38772Y28741D02*
X38743D01*
Y28808*
X38772*
Y28741*
G37*
G36*
X36922D02*
X36893D01*
Y28808*
X36922*
Y28741*
G37*
G36*
X37027Y28741D02*
X36997D01*
Y28808*
X37027*
Y28741*
G37*
G36*
X41147Y2878D02*
X41103D01*
Y28799*
X41147*
Y2878*
G37*
G36*
X40946D02*
X40902D01*
Y28799*
X40946*
Y2878*
G37*
G36*
X38877Y28741D02*
X38847D01*
Y28808*
X38877*
Y28741*
G37*
G36*
X35072Y28741D02*
X35043D01*
Y28808*
X35072*
Y28741*
G37*
G36*
X34966Y2874D02*
X34937D01*
Y28809*
X34966*
Y2874*
G37*
G36*
X34862D02*
X34833D01*
Y28809*
X34862*
Y2874*
G37*
G36*
X40709Y28652D02*
X4064D01*
Y28681*
X40709*
Y28652*
G37*
G36*
X36712Y2874D02*
X36683D01*
Y28809*
X36712*
Y2874*
G37*
G36*
X38666D02*
X38637D01*
Y28809*
X38666*
Y2874*
G37*
G36*
X38562D02*
X38533D01*
Y28809*
X38562*
Y2874*
G37*
G36*
X36816D02*
X36787D01*
Y28809*
X36816*
Y2874*
G37*
G36*
X41252Y28511D02*
X41222D01*
Y28578*
X41252*
Y28511*
G37*
G36*
X3783Y2784D02*
X3781D01*
Y2786*
X3783*
Y2784*
G37*
G36*
X3608D02*
X3606D01*
Y2786*
X3608*
Y2784*
G37*
G36*
X3598D02*
X3596D01*
Y2786*
X3598*
Y2784*
G37*
G36*
X3793D02*
X3791D01*
Y2786*
X3793*
Y2784*
G37*
G36*
X38533Y27915D02*
D01*
X38527Y2792*
X38518Y27933*
X3851Y27947*
X38504Y27961*
X385Y27976*
X38498Y27992*
Y28007*
X385Y28023*
X38504Y28038*
X3851Y28052*
X38518Y28066*
X38527Y28079*
X38533Y28084*
Y27915*
G37*
G36*
X36683D02*
D01*
X36677Y2792*
X36668Y27933*
X3666Y27947*
X36654Y27961*
X3665Y27976*
X36648Y27992*
Y28007*
X3665Y28023*
X36654Y28038*
X3666Y28052*
X36668Y28066*
X36677Y28079*
X36683Y28084*
Y27915*
G37*
G36*
X34833D02*
D01*
X34827Y2792*
X34818Y27933*
X3481Y27947*
X34804Y27961*
X348Y27976*
X34798Y27992*
Y28007*
X348Y28023*
X34804Y28038*
X3481Y28052*
X34818Y28066*
X34827Y28079*
X34833Y28084*
Y27915*
G37*
G36*
X3423Y2784D02*
X3421D01*
Y2786*
X3423*
Y2784*
G37*
G36*
X36532Y27715D02*
X36503D01*
Y27784*
X36532*
Y27715*
G37*
G36*
X34786D02*
X34757D01*
Y27784*
X34786*
Y27715*
G37*
G36*
X34682D02*
X34653D01*
Y27784*
X34682*
Y27715*
G37*
G36*
X36636D02*
X36607D01*
Y27784*
X36636*
Y27715*
G37*
G36*
X3413Y2784D02*
X3411D01*
Y2786*
X3413*
Y2784*
G37*
G36*
X38486Y27715D02*
X38457D01*
Y27784*
X38486*
Y27715*
G37*
G36*
X38382D02*
X38353D01*
Y27784*
X38382*
Y27715*
G37*
G36*
X3465Y28072D02*
X34642D01*
Y28127*
X3465*
Y28072*
G37*
G36*
X37035Y28498D02*
X37006D01*
Y28567*
X37035*
Y28498*
G37*
G36*
X35289D02*
X3526D01*
Y28567*
X35289*
Y28498*
G37*
G36*
X35185D02*
X35156D01*
Y28567*
X35185*
Y28498*
G37*
G36*
X37139D02*
X3711D01*
Y28567*
X37139*
Y28498*
G37*
G36*
X41147Y28511D02*
X41118D01*
Y28578*
X41147*
Y28511*
G37*
G36*
X38989Y28498D02*
X3896D01*
Y28567*
X38989*
Y28498*
G37*
G36*
X38885D02*
X38856D01*
Y28567*
X38885*
Y28498*
G37*
G36*
X38013Y28498D02*
X37946D01*
Y28527*
X38013*
Y28498*
G37*
G36*
X40954Y28362D02*
X40941Y28353D01*
X40927Y28345*
X40913Y28339*
X40898Y28335*
X40882Y28333*
X40867*
X40851Y28335*
X40836Y28339*
X40822Y28345*
X40808Y28353*
X40795Y28362*
X4079Y28368*
X40959*
X40954Y28362*
G37*
G36*
X3835Y28072D02*
X38342D01*
Y28127*
X3835*
Y28072*
G37*
G36*
X365D02*
X36492D01*
Y28127*
X365*
Y28072*
G37*
G36*
X39985Y28355D02*
X39965D01*
Y28375*
X39985*
Y28355*
G37*
G36*
X36163Y28498D02*
X36096D01*
Y28527*
X36163*
Y28498*
G37*
G36*
X34313D02*
X34246D01*
Y28527*
X34313*
Y28498*
G37*
G36*
X39985Y28455D02*
X39965D01*
Y28475*
X39985*
Y28455*
G37*
G36*
X38966Y2949D02*
X38937D01*
Y29559*
X38966*
Y2949*
G37*
G36*
X38862D02*
X38833D01*
Y29559*
X38862*
Y2949*
G37*
G36*
X37116D02*
X37087D01*
Y29559*
X37116*
Y2949*
G37*
G36*
X40259Y29502D02*
X4019D01*
Y29531*
X40259*
Y29502*
G37*
G36*
X34766Y2964D02*
X34737D01*
Y29709*
X34766*
Y2964*
G37*
G36*
X34662D02*
X34633D01*
Y29709*
X34662*
Y2964*
G37*
G36*
X41251Y29525D02*
X41182D01*
Y29554*
X41251*
Y29525*
G37*
G36*
X37012Y2949D02*
X36983D01*
Y29559*
X37012*
Y2949*
G37*
G36*
X40259Y29398D02*
X4019D01*
Y29427*
X40259*
Y29398*
G37*
G36*
X41008Y29308D02*
X40941D01*
Y29337*
X41008*
Y29308*
G37*
G36*
X41009Y29202D02*
X4094D01*
Y29231*
X41009*
Y29202*
G37*
G36*
X41008Y29412D02*
X40941D01*
Y29442*
X41008*
Y29412*
G37*
G36*
X35266Y2949D02*
X35237D01*
Y29559*
X35266*
Y2949*
G37*
G36*
X35162D02*
X35133D01*
Y29559*
X35162*
Y2949*
G37*
G36*
X41251Y29421D02*
X41182D01*
Y2945*
X41251*
Y29421*
G37*
G36*
X36512Y2964D02*
X36483D01*
Y29709*
X36512*
Y2964*
G37*
G36*
X36663Y2984D02*
D01*
X36657Y29845*
X36648Y29858*
X3664Y29872*
X36634Y29886*
X3663Y29901*
X36628Y29917*
Y29932*
X3663Y29948*
X36634Y29963*
X3664Y29977*
X36648Y29991*
X36657Y30004*
X36663Y30009*
Y2984*
G37*
G36*
X34813D02*
D01*
X34807Y29845*
X34798Y29858*
X3479Y29872*
X34784Y29886*
X3478Y29901*
X34778Y29917*
Y29932*
X3478Y29948*
X34784Y29963*
X3479Y29977*
X34798Y29991*
X34807Y30004*
X34813Y30009*
Y2984*
G37*
G36*
X3791Y29765D02*
X3789D01*
Y29785*
X3791*
Y29765*
G37*
G36*
X38513Y2984D02*
D01*
X38507Y29845*
X38498Y29858*
X3849Y29872*
X38484Y29886*
X3848Y29901*
X38478Y29917*
Y29932*
X3848Y29948*
X38484Y29963*
X3849Y29977*
X38498Y29991*
X38507Y30004*
X38513Y30009*
Y2984*
G37*
G36*
X3833Y29997D02*
X38322D01*
Y30052*
X3833*
Y29997*
G37*
G36*
X3648D02*
X36472D01*
Y30052*
X3648*
Y29997*
G37*
G36*
X3463D02*
X34622D01*
Y30052*
X3463*
Y29997*
G37*
G36*
X3781Y29765D02*
X3779D01*
Y29785*
X3781*
Y29765*
G37*
G36*
X38466Y2964D02*
X38437D01*
Y29709*
X38466*
Y2964*
G37*
G36*
X38362D02*
X38333D01*
Y29709*
X38362*
Y2964*
G37*
G36*
X36616D02*
X36587D01*
Y29709*
X36616*
Y2964*
G37*
G36*
X3411Y29765D02*
X3409D01*
Y29785*
X3411*
Y29765*
G37*
G36*
X3606D02*
X3604D01*
Y29785*
X3606*
Y29765*
G37*
G36*
X3596D02*
X3594D01*
Y29785*
X3596*
Y29765*
G37*
G36*
X3421D02*
X3419D01*
Y29785*
X3421*
Y29765*
G37*
G36*
X41009Y29098D02*
X4094D01*
Y29127*
X41009*
Y29098*
G37*
G36*
X36534Y28803D02*
X36515D01*
Y28847*
X36534*
Y28803*
G37*
G36*
X36484D02*
X36465D01*
Y28847*
X36484*
Y28803*
G37*
G36*
X36434D02*
X36415D01*
Y28847*
X36434*
Y28803*
G37*
G36*
X38234D02*
X38215D01*
Y28847*
X38234*
Y28803*
G37*
G36*
X38384D02*
X38365D01*
Y28847*
X38384*
Y28803*
G37*
G36*
X38334D02*
X38315D01*
Y28847*
X38334*
Y28803*
G37*
G36*
X38284D02*
X38265D01*
Y28847*
X38284*
Y28803*
G37*
G36*
X36384D02*
X36365D01*
Y28847*
X36384*
Y28803*
G37*
G36*
X37803Y2879D02*
D01*
X37797Y28795*
X37788Y28808*
X3778Y28822*
X37774Y28836*
X3777Y28851*
X37768Y28867*
Y28882*
X3777Y28898*
X37774Y28913*
X3778Y28927*
X37788Y28941*
X37797Y28954*
X37803Y28959*
Y2879*
G37*
G36*
X35953D02*
D01*
X35947Y28795*
X35938Y28808*
X3593Y28822*
X35924Y28836*
X3592Y28851*
X35918Y28867*
Y28882*
X3592Y28898*
X35924Y28913*
X3593Y28927*
X35938Y28941*
X35947Y28954*
X35953Y28959*
Y2879*
G37*
G36*
X34103D02*
D01*
X34097Y28795*
X34088Y28808*
X3408Y28822*
X34074Y28836*
X3407Y28851*
X34068Y28867*
Y28882*
X3407Y28898*
X34074Y28913*
X3408Y28927*
X34088Y28941*
X34097Y28954*
X34103Y28959*
Y2879*
G37*
G36*
X34534Y28803D02*
X34515D01*
Y28847*
X34534*
Y28803*
G37*
G36*
X34684D02*
X34665D01*
Y28847*
X34684*
Y28803*
G37*
G36*
X34634D02*
X34615D01*
Y28847*
X34634*
Y28803*
G37*
G36*
X34584D02*
X34565D01*
Y28847*
X34584*
Y28803*
G37*
G36*
X40946Y2883D02*
X40902D01*
Y28849*
X40946*
Y2883*
G37*
G36*
X36162Y2904D02*
X36133D01*
Y29109*
X36162*
Y2904*
G37*
G36*
X34416D02*
X34387D01*
Y29109*
X34416*
Y2904*
G37*
G36*
X34312D02*
X34283D01*
Y29109*
X34312*
Y2904*
G37*
G36*
X36266D02*
X36237D01*
Y29109*
X36266*
Y2904*
G37*
G36*
X39904Y29072D02*
X39891Y29063D01*
X39877Y29055*
X39863Y29049*
X39848Y29045*
X39832Y29043*
X39817*
X39801Y29045*
X39786Y29049*
X39772Y29055*
X39758Y29063*
X39745Y29072*
X3974Y29078*
X39909*
X39904Y29072*
G37*
G36*
X38116Y2904D02*
X38087D01*
Y29109*
X38116*
Y2904*
G37*
G36*
X38012D02*
X37983D01*
Y29109*
X38012*
Y2904*
G37*
G36*
X40109Y29002D02*
X4004D01*
Y29031*
X40109*
Y29002*
G37*
G36*
X41147Y2888D02*
X41103D01*
Y28899*
X41147*
Y2888*
G37*
G36*
X40946D02*
X40902D01*
Y28899*
X40946*
Y2888*
G37*
G36*
X41147Y2883D02*
X41103D01*
Y28849*
X41147*
Y2883*
G37*
G36*
X39752Y28887D02*
X39697D01*
Y28895*
X39752*
Y28887*
G37*
G36*
X41147Y2893D02*
X41103D01*
Y28949*
X41147*
Y2893*
G37*
G36*
X40946D02*
X40902D01*
Y28949*
X40946*
Y2893*
G37*
G36*
X40109Y28898D02*
X4004D01*
Y28927*
X40109*
Y28898*
G37*
G36*
X41251Y27675D02*
X41182D01*
Y27704*
X41251*
Y27675*
G37*
G36*
X35205Y26573D02*
X35176D01*
Y26642*
X35205*
Y26573*
G37*
G36*
X38033Y26573D02*
X37966D01*
Y26602*
X38033*
Y26573*
G37*
G36*
X36183D02*
X36116D01*
Y26602*
X36183*
Y26573*
G37*
G36*
X35309Y26573D02*
X3528D01*
Y26642*
X35309*
Y26573*
G37*
G36*
X38905D02*
X38876D01*
Y26642*
X38905*
Y26573*
G37*
G36*
X37159D02*
X3713D01*
Y26642*
X37159*
Y26573*
G37*
G36*
X37055D02*
X37026D01*
Y26642*
X37055*
Y26573*
G37*
G36*
X34333Y26573D02*
X34266D01*
Y26602*
X34333*
Y26573*
G37*
G36*
X34685Y26107D02*
X34677D01*
Y26162*
X34685*
Y26107*
G37*
G36*
X38568Y2595D02*
D01*
X38562Y25955*
X38553Y25968*
X38545Y25982*
X38539Y25996*
X38535Y26011*
X38533Y26027*
Y26042*
X38535Y26058*
X38539Y26073*
X38545Y26087*
X38553Y26101*
X38562Y26114*
X38568Y26119*
Y2595*
G37*
G36*
X36718D02*
D01*
X36712Y25955*
X36703Y25968*
X36695Y25982*
X36689Y25996*
X36685Y26011*
X36683Y26027*
Y26042*
X36685Y26058*
X36689Y26073*
X36695Y26087*
X36703Y26101*
X36712Y26114*
X36718Y26119*
Y2595*
G37*
G36*
X36535Y26107D02*
X36527D01*
Y26162*
X36535*
Y26107*
G37*
G36*
X39985Y26505D02*
X39965D01*
Y26525*
X39985*
Y26505*
G37*
G36*
X40954Y26512D02*
X40941Y26503D01*
X40927Y26495*
X40913Y26489*
X40898Y26485*
X40882Y26483*
X40867*
X40851Y26485*
X40836Y26489*
X40822Y26495*
X40808Y26503*
X40795Y26512*
X4079Y26518*
X40959*
X40954Y26512*
G37*
G36*
X38385Y26107D02*
X38377D01*
Y26162*
X38385*
Y26107*
G37*
G36*
X39009Y26573D02*
X3898D01*
Y26642*
X39009*
Y26573*
G37*
G36*
X36404Y26677D02*
X36385D01*
Y26721*
X36404*
Y26677*
G37*
G36*
X34704D02*
X34685D01*
Y26721*
X34704*
Y26677*
G37*
G36*
X34654D02*
X34635D01*
Y26721*
X34654*
Y26677*
G37*
G36*
X36454D02*
X36435D01*
Y26721*
X36454*
Y26677*
G37*
G36*
X38254D02*
X38235D01*
Y26721*
X38254*
Y26677*
G37*
G36*
X36554D02*
X36535D01*
Y26721*
X36554*
Y26677*
G37*
G36*
X36504D02*
X36485D01*
Y26721*
X36504*
Y26677*
G37*
G36*
X34604D02*
X34585D01*
Y26721*
X34604*
Y26677*
G37*
G36*
X41252Y26661D02*
X41222D01*
Y26728*
X41252*
Y26661*
G37*
G36*
X41147Y26661D02*
X41118D01*
Y26728*
X41147*
Y26661*
G37*
G36*
X39985Y26605D02*
X39965D01*
Y26625*
X39985*
Y26605*
G37*
G36*
X34333Y26677D02*
X34266D01*
Y26707*
X34333*
Y26677*
G37*
G36*
X34554Y26677D02*
X34535D01*
Y26721*
X34554*
Y26677*
G37*
G36*
X38033Y26677D02*
X37966D01*
Y26707*
X38033*
Y26677*
G37*
G36*
X36183D02*
X36116D01*
Y26707*
X36183*
Y26677*
G37*
G36*
X34868Y2595D02*
D01*
X34862Y25955*
X34853Y25968*
X34845Y25982*
X34839Y25996*
X34835Y26011*
X34833Y26027*
Y26042*
X34835Y26058*
X34839Y26073*
X34845Y26087*
X34853Y26101*
X34862Y26114*
X34868Y26119*
Y2595*
G37*
G36*
X37171Y256D02*
X37142D01*
Y25669*
X37171*
Y256*
G37*
G36*
X37067D02*
X37038D01*
Y25669*
X37067*
Y256*
G37*
G36*
X35321D02*
X35292D01*
Y25669*
X35321*
Y256*
G37*
G36*
X38917D02*
X38888D01*
Y25669*
X38917*
Y256*
G37*
G36*
X40259Y25698D02*
X4019D01*
Y25727*
X40259*
Y25698*
G37*
G36*
X41008Y25608D02*
X40941D01*
Y25637*
X41008*
Y25608*
G37*
G36*
X39021Y256D02*
X38992D01*
Y25669*
X39021*
Y256*
G37*
G36*
X35217D02*
X35188D01*
Y25669*
X35217*
Y256*
G37*
G36*
X41147Y2523D02*
X41103D01*
Y25249*
X41147*
Y2523*
G37*
G36*
X40946D02*
X40902D01*
Y25249*
X40946*
Y2523*
G37*
G36*
X40109Y25198D02*
X4004D01*
Y25227*
X40109*
Y25198*
G37*
G36*
Y25302D02*
X4004D01*
Y25331*
X40109*
Y25302*
G37*
G36*
X41009Y25502D02*
X4094D01*
Y25531*
X41009*
Y25502*
G37*
G36*
Y25398D02*
X4094D01*
Y25427*
X41009*
Y25398*
G37*
G36*
X39904Y25372D02*
X39891Y25363D01*
X39877Y25355*
X39863Y25349*
X39848Y25345*
X39832Y25343*
X39817*
X39801Y25345*
X39786Y25349*
X39772Y25355*
X39758Y25363*
X39745Y25372*
X3974Y25378*
X39909*
X39904Y25372*
G37*
G36*
X41008Y25712D02*
X40941D01*
Y25742*
X41008*
Y25712*
G37*
G36*
X34265Y25875D02*
X34245D01*
Y25895*
X34265*
Y25875*
G37*
G36*
X34165D02*
X34145D01*
Y25895*
X34165*
Y25875*
G37*
G36*
X41251Y25825D02*
X41182D01*
Y25854*
X41251*
Y25825*
G37*
G36*
X36015Y25875D02*
X35995D01*
Y25895*
X36015*
Y25875*
G37*
G36*
X37965D02*
X37945D01*
Y25895*
X37965*
Y25875*
G37*
G36*
X37865D02*
X37845D01*
Y25895*
X37865*
Y25875*
G37*
G36*
X36115D02*
X36095D01*
Y25895*
X36115*
Y25875*
G37*
G36*
X40259Y25802D02*
X4019D01*
Y25831*
X40259*
Y25802*
G37*
G36*
X34821Y2575D02*
X34792D01*
Y25819*
X34821*
Y2575*
G37*
G36*
X34717D02*
X34688D01*
Y25819*
X34717*
Y2575*
G37*
G36*
X41251Y25721D02*
X41182D01*
Y2575*
X41251*
Y25721*
G37*
G36*
X36567Y2575D02*
X36538D01*
Y25819*
X36567*
Y2575*
G37*
G36*
X38521D02*
X38492D01*
Y25819*
X38521*
Y2575*
G37*
G36*
X38417D02*
X38388D01*
Y25819*
X38417*
Y2575*
G37*
G36*
X36671D02*
X36642D01*
Y25819*
X36671*
Y2575*
G37*
G36*
X34332Y27115D02*
X34303D01*
Y27184*
X34332*
Y27115*
G37*
G36*
X41147Y2708D02*
X41103D01*
Y27099*
X41147*
Y2708*
G37*
G36*
X40946D02*
X40902D01*
Y27099*
X40946*
Y2708*
G37*
G36*
X34436Y27115D02*
X34407D01*
Y27184*
X34436*
Y27115*
G37*
G36*
X38032D02*
X38003D01*
Y27184*
X38032*
Y27115*
G37*
G36*
X36286D02*
X36257D01*
Y27184*
X36286*
Y27115*
G37*
G36*
X36182D02*
X36153D01*
Y27184*
X36182*
Y27115*
G37*
G36*
X40109Y27048D02*
X4004D01*
Y27077*
X40109*
Y27048*
G37*
G36*
X40946Y2698D02*
X40902D01*
Y26999*
X40946*
Y2698*
G37*
G36*
X41147Y2693D02*
X41103D01*
Y26949*
X41147*
Y2693*
G37*
G36*
X40946D02*
X40902D01*
Y26949*
X40946*
Y2693*
G37*
G36*
X41147Y2698D02*
X41103D01*
Y26999*
X41147*
Y2698*
G37*
G36*
X39752Y27037D02*
X39697D01*
Y27045*
X39752*
Y27037*
G37*
G36*
X41147Y2703D02*
X41103D01*
Y27049*
X41147*
Y2703*
G37*
G36*
X40946D02*
X40902D01*
Y27049*
X40946*
Y2703*
G37*
G36*
X38136Y27115D02*
X38107D01*
Y27184*
X38136*
Y27115*
G37*
G36*
X37136Y27565D02*
X37107D01*
Y27634*
X37136*
Y27565*
G37*
G36*
X37032D02*
X37003D01*
Y27634*
X37032*
Y27565*
G37*
G36*
X35286D02*
X35257D01*
Y27634*
X35286*
Y27565*
G37*
G36*
X38882D02*
X38853D01*
Y27634*
X38882*
Y27565*
G37*
G36*
X40259Y27652D02*
X4019D01*
Y27681*
X40259*
Y27652*
G37*
G36*
X41251Y27571D02*
X41182D01*
Y276*
X41251*
Y27571*
G37*
G36*
X38986Y27565D02*
X38957D01*
Y27634*
X38986*
Y27565*
G37*
G36*
X35182D02*
X35153D01*
Y27634*
X35182*
Y27565*
G37*
G36*
X41009Y27248D02*
X4094D01*
Y27277*
X41009*
Y27248*
G37*
G36*
X39904Y27222D02*
X39891Y27213D01*
X39877Y27205*
X39863Y27199*
X39848Y27195*
X39832Y27193*
X39817*
X39801Y27195*
X39786Y27199*
X39772Y27205*
X39758Y27213*
X39745Y27222*
X3974Y27228*
X39909*
X39904Y27222*
G37*
G36*
X40109Y27152D02*
X4004D01*
Y27181*
X40109*
Y27152*
G37*
G36*
X41009Y27352D02*
X4094D01*
Y27381*
X41009*
Y27352*
G37*
G36*
X41008Y27562D02*
X40941D01*
Y27592*
X41008*
Y27562*
G37*
G36*
X40259Y27548D02*
X4019D01*
Y27577*
X40259*
Y27548*
G37*
G36*
X41008Y27458D02*
X40941D01*
Y27487*
X41008*
Y27458*
G37*
G36*
X38404Y26878D02*
X38385D01*
Y26922*
X38404*
Y26878*
G37*
G36*
X38686Y26815D02*
X38657D01*
Y26884*
X38686*
Y26815*
G37*
G36*
X38582D02*
X38553D01*
Y26884*
X38582*
Y26815*
G37*
G36*
X36836D02*
X36807D01*
Y26884*
X36836*
Y26815*
G37*
G36*
X35092Y26816D02*
X35063D01*
Y26883*
X35092*
Y26816*
G37*
G36*
X35197Y26816D02*
X35167D01*
Y26883*
X35197*
Y26816*
G37*
G36*
X38792Y26816D02*
X38763D01*
Y26883*
X38792*
Y26816*
G37*
G36*
X36942D02*
X36913D01*
Y26883*
X36942*
Y26816*
G37*
G36*
X36732Y26815D02*
X36703D01*
Y26884*
X36732*
Y26815*
G37*
G36*
X38404Y26677D02*
X38385D01*
Y26721*
X38404*
Y26677*
G37*
G36*
X38354D02*
X38335D01*
Y26721*
X38354*
Y26677*
G37*
G36*
X38304D02*
X38285D01*
Y26721*
X38304*
Y26677*
G37*
G36*
X40709Y26698D02*
X4064D01*
Y26727*
X40709*
Y26698*
G37*
G36*
X34986Y26815D02*
X34957D01*
Y26884*
X34986*
Y26815*
G37*
G36*
X34882D02*
X34853D01*
Y26884*
X34882*
Y26815*
G37*
G36*
X40709Y26802D02*
X4064D01*
Y26831*
X40709*
Y26802*
G37*
G36*
X37047Y26816D02*
X37017D01*
Y26883*
X37047*
Y26816*
G37*
G36*
X36504Y26878D02*
X36485D01*
Y26922*
X36504*
Y26878*
G37*
G36*
X36454D02*
X36435D01*
Y26922*
X36454*
Y26878*
G37*
G36*
X36404D02*
X36385D01*
Y26922*
X36404*
Y26878*
G37*
G36*
X36554D02*
X36535D01*
Y26922*
X36554*
Y26878*
G37*
G36*
X38354D02*
X38335D01*
Y26922*
X38354*
Y26878*
G37*
G36*
X38304D02*
X38285D01*
Y26922*
X38304*
Y26878*
G37*
G36*
X38254D02*
X38235D01*
Y26922*
X38254*
Y26878*
G37*
G36*
X34704D02*
X34685D01*
Y26922*
X34704*
Y26878*
G37*
G36*
X35973Y26865D02*
D01*
X35967Y2687*
X35958Y26883*
X3595Y26897*
X35944Y26911*
X3594Y26926*
X35938Y26942*
Y26957*
X3594Y26973*
X35944Y26988*
X3595Y27002*
X35958Y27016*
X35967Y27029*
X35973Y27034*
Y26865*
G37*
G36*
X34123D02*
D01*
X34117Y2687*
X34108Y26883*
X341Y26897*
X34094Y26911*
X3409Y26926*
X34088Y26942*
Y26957*
X3409Y26973*
X34094Y26988*
X341Y27002*
X34108Y27016*
X34117Y27029*
X34123Y27034*
Y26865*
G37*
G36*
X38897Y26816D02*
X38867D01*
Y26883*
X38897*
Y26816*
G37*
G36*
X37823Y26865D02*
D01*
X37817Y2687*
X37808Y26883*
X378Y26897*
X37794Y26911*
X3779Y26926*
X37788Y26942*
Y26957*
X3779Y26973*
X37794Y26988*
X378Y27002*
X37808Y27016*
X37817Y27029*
X37823Y27034*
Y26865*
G37*
G36*
X34654Y26878D02*
X34635D01*
Y26922*
X34654*
Y26878*
G37*
G36*
X34604D02*
X34585D01*
Y26922*
X34604*
Y26878*
G37*
G36*
X34554D02*
X34535D01*
Y26922*
X34554*
Y26878*
G37*
G54D29*
X3522Y23905D02*
X35235D01*
X35505D02*
X3552D01*
X3427Y23255D02*
Y2327D01*
Y2354D02*
Y23555D01*
X3467Y23855D02*
X34685D01*
X34955D02*
X3497D01*
X3557Y2269D02*
Y22705D01*
Y22405D02*
Y2242D01*
X34555Y24005D02*
X3457D01*
X3427D02*
X34285D01*
X3537Y22455D02*
Y2247D01*
Y2274D02*
Y22755D01*
X3477Y22955D02*
X34785D01*
X35055D02*
X3507D01*
X34955Y22305D02*
X3497D01*
X3467D02*
X34685D01*
X3432Y2279D02*
Y22805D01*
Y22505D02*
Y2252D01*
X3447Y22605D02*
Y2262D01*
Y2289D02*
Y22905D01*
X3517Y2339D02*
Y23405D01*
Y23105D02*
Y2312D01*
X34955Y23605D02*
X3497D01*
X3467D02*
X34685D01*
X3452Y23205D02*
Y2322D01*
Y2349D02*
Y23505D01*
X40349Y23127D02*
Y23192D01*
Y22992D02*
Y23057D01*
X40629Y22385D02*
Y2245D01*
Y2225D02*
Y22315D01*
X40734Y22385D02*
Y2245D01*
Y2225D02*
Y22315D01*
X40834Y22385D02*
Y2245D01*
Y2225D02*
Y22315D01*
X40934Y22385D02*
Y2245D01*
Y2225D02*
Y22315D01*
X41034Y22385D02*
Y2245D01*
Y2225D02*
Y22315D01*
X40144Y2292D02*
X40209D01*
X40009D02*
X40074D01*
X41134Y22385D02*
Y2245D01*
Y2225D02*
Y22315D01*
G54D30*
X35616Y23642D02*
D01*
X35624Y23638*
X35632Y23635*
X35641Y23633*
X35649Y23631*
X35658Y2363*
X35667Y2363*
X35675Y2363*
X35684Y2363*
X35693Y23632*
X35701Y23634*
X3571Y23636*
X35718Y23639*
X35723Y23642*
Y23868D02*
D01*
X35715Y23871*
X35707Y23874*
X35698Y23876*
X3569Y23878*
X35681Y23879*
X35672Y23879*
X35664Y23879*
X35655Y23879*
X35646Y23877*
X35638Y23875*
X35629Y23873*
X35621Y2387*
X35616Y23868*
X40389Y22992D02*
D01*
X40389Y22994*
X40389Y22997*
X40388Y23*
X40387Y23003*
X40387Y23005*
X40386Y23008*
X40384Y2301*
X40383Y23013*
X40381Y23015*
X4038Y23017*
X40378Y23019*
X40376Y23021*
X40374Y23023*
X40371Y23025*
X40369Y23026*
X40367Y23027*
X40364Y23029*
X40361Y2303*
X40359Y2303*
X40356Y23031*
X40353Y23031*
X4035Y23031*
X40348*
X40345Y23031*
X40342Y23031*
X40339Y2303*
X40337Y2303*
X40334Y23029*
X40331Y23027*
X40329Y23026*
X40327Y23025*
X40324Y23023*
X40322Y23021*
X4032Y23019*
X40318Y23017*
X40317Y23015*
X40315Y23013*
X40314Y2301*
X40312Y23008*
X40311Y23005*
X40311Y23003*
X4031Y23*
X40309Y22997*
X40309Y22994*
X40309Y22992*
X40309Y22989*
X40309Y22986*
X4031Y22983*
X40311Y2298*
X40311Y22978*
X40312Y22975*
X40314Y22973*
X40315Y2297*
X40317Y22968*
X40318Y22966*
X4032Y22964*
X40322Y22962*
X40324Y2296*
X40327Y22958*
X40329Y22957*
X40331Y22956*
X40334Y22954*
X40337Y22953*
X40339Y22953*
X40342Y22952*
X40345Y22952*
X40348Y22952*
X4035*
X40353Y22952*
X40356Y22952*
X40359Y22953*
X40361Y22953*
X40364Y22954*
X40367Y22956*
X40369Y22957*
X40371Y22958*
X40374Y2296*
X40376Y22962*
X40378Y22964*
X4038Y22966*
X40381Y22968*
X40383Y2297*
X40384Y22973*
X40386Y22975*
X40387Y22978*
X40387Y2298*
X40388Y22983*
X40389Y22986*
X40389Y22989*
X40389Y22992*
X40669Y2225D02*
D01*
X40669Y22253*
X40669Y22255*
X40668Y22258*
X40668Y22261*
X40667Y22263*
X40666Y22266*
X40665Y22268*
X40663Y22271*
X40662Y22273*
X4066Y22275*
X40658Y22278*
X40656Y22279*
X40654Y22281*
X40652Y22283*
X40649Y22284*
X40647Y22286*
X40644Y22287*
X40642Y22288*
X40639Y22289*
X40636Y22289*
X40634Y2229*
X40631Y2229*
X40628*
X40625Y2229*
X40622Y22289*
X4062Y22289*
X40617Y22288*
X40614Y22287*
X40612Y22286*
X40609Y22284*
X40607Y22283*
X40605Y22281*
X40603Y22279*
X40601Y22278*
X40599Y22275*
X40597Y22273*
X40595Y22271*
X40594Y22268*
X40593Y22266*
X40592Y22263*
X40591Y22261*
X4059Y22258*
X4059Y22255*
X40589Y22253*
X40589Y2225*
X40589Y22247*
X4059Y22244*
X4059Y22241*
X40591Y22239*
X40592Y22236*
X40593Y22233*
X40594Y22231*
X40595Y22229*
X40597Y22226*
X40599Y22224*
X40601Y22222*
X40603Y2222*
X40605Y22218*
X40607Y22217*
X40609Y22215*
X40612Y22214*
X40614Y22213*
X40617Y22212*
X4062Y22211*
X40622Y2221*
X40625Y2221*
X40628Y2221*
X40631*
X40634Y2221*
X40636Y2221*
X40639Y22211*
X40642Y22212*
X40644Y22213*
X40647Y22214*
X40649Y22215*
X40652Y22217*
X40654Y22218*
X40656Y2222*
X40658Y22222*
X4066Y22224*
X40662Y22226*
X40663Y22229*
X40665Y22231*
X40666Y22233*
X40667Y22236*
X40668Y22239*
X40668Y22241*
X40669Y22244*
X40669Y22247*
X40669Y2225*
X40774D02*
D01*
X40774Y22253*
X40774Y22255*
X40773Y22258*
X40773Y22261*
X40772Y22263*
X40771Y22266*
X4077Y22268*
X40768Y22271*
X40767Y22273*
X40765Y22275*
X40763Y22278*
X40761Y22279*
X40759Y22281*
X40757Y22283*
X40754Y22284*
X40752Y22286*
X40749Y22287*
X40747Y22288*
X40744Y22289*
X40741Y22289*
X40739Y2229*
X40736Y2229*
X40733*
X4073Y2229*
X40727Y22289*
X40725Y22289*
X40722Y22288*
X40719Y22287*
X40717Y22286*
X40714Y22284*
X40712Y22283*
X4071Y22281*
X40708Y22279*
X40706Y22278*
X40704Y22275*
X40702Y22273*
X407Y22271*
X40699Y22268*
X40698Y22266*
X40697Y22263*
X40696Y22261*
X40695Y22258*
X40695Y22255*
X40694Y22253*
X40694Y2225*
X40694Y22247*
X40695Y22244*
X40695Y22241*
X40696Y22239*
X40697Y22236*
X40698Y22233*
X40699Y22231*
X407Y22229*
X40702Y22226*
X40704Y22224*
X40706Y22222*
X40708Y2222*
X4071Y22218*
X40712Y22217*
X40714Y22215*
X40717Y22214*
X40719Y22213*
X40722Y22212*
X40725Y22211*
X40727Y2221*
X4073Y2221*
X40733Y2221*
X40736*
X40739Y2221*
X40741Y2221*
X40744Y22211*
X40747Y22212*
X40749Y22213*
X40752Y22214*
X40754Y22215*
X40757Y22217*
X40759Y22218*
X40761Y2222*
X40763Y22222*
X40765Y22224*
X40767Y22226*
X40768Y22229*
X4077Y22231*
X40771Y22233*
X40772Y22236*
X40773Y22239*
X40773Y22241*
X40774Y22244*
X40774Y22247*
X40774Y2225*
X40874D02*
D01*
X40874Y22253*
X40874Y22255*
X40873Y22258*
X40873Y22261*
X40872Y22263*
X40871Y22266*
X4087Y22268*
X40868Y22271*
X40867Y22273*
X40865Y22275*
X40863Y22278*
X40861Y22279*
X40859Y22281*
X40857Y22283*
X40854Y22284*
X40852Y22286*
X40849Y22287*
X40847Y22288*
X40844Y22289*
X40841Y22289*
X40839Y2229*
X40836Y2229*
X40833*
X4083Y2229*
X40827Y22289*
X40825Y22289*
X40822Y22288*
X40819Y22287*
X40817Y22286*
X40814Y22284*
X40812Y22283*
X4081Y22281*
X40808Y22279*
X40806Y22278*
X40804Y22275*
X40802Y22273*
X408Y22271*
X40799Y22268*
X40798Y22266*
X40797Y22263*
X40796Y22261*
X40795Y22258*
X40795Y22255*
X40794Y22253*
X40794Y2225*
X40794Y22247*
X40795Y22244*
X40795Y22241*
X40796Y22239*
X40797Y22236*
X40798Y22233*
X40799Y22231*
X408Y22229*
X40802Y22226*
X40804Y22224*
X40806Y22222*
X40808Y2222*
X4081Y22218*
X40812Y22217*
X40814Y22215*
X40817Y22214*
X40819Y22213*
X40822Y22212*
X40825Y22211*
X40827Y2221*
X4083Y2221*
X40833Y2221*
X40836*
X40839Y2221*
X40841Y2221*
X40844Y22211*
X40847Y22212*
X40849Y22213*
X40852Y22214*
X40854Y22215*
X40857Y22217*
X40859Y22218*
X40861Y2222*
X40863Y22222*
X40865Y22224*
X40867Y22226*
X40868Y22229*
X4087Y22231*
X40871Y22233*
X40872Y22236*
X40873Y22239*
X40873Y22241*
X40874Y22244*
X40874Y22247*
X40874Y2225*
X40974D02*
D01*
X40974Y22253*
X40974Y22255*
X40973Y22258*
X40973Y22261*
X40972Y22263*
X40971Y22266*
X4097Y22268*
X40968Y22271*
X40967Y22273*
X40965Y22275*
X40963Y22278*
X40961Y22279*
X40959Y22281*
X40957Y22283*
X40954Y22284*
X40952Y22286*
X40949Y22287*
X40947Y22288*
X40944Y22289*
X40941Y22289*
X40939Y2229*
X40936Y2229*
X40933*
X4093Y2229*
X40927Y22289*
X40925Y22289*
X40922Y22288*
X40919Y22287*
X40917Y22286*
X40914Y22284*
X40912Y22283*
X4091Y22281*
X40908Y22279*
X40906Y22278*
X40904Y22275*
X40902Y22273*
X409Y22271*
X40899Y22268*
X40898Y22266*
X40897Y22263*
X40896Y22261*
X40895Y22258*
X40895Y22255*
X40894Y22253*
X40894Y2225*
X40894Y22247*
X40895Y22244*
X40895Y22241*
X40896Y22239*
X40897Y22236*
X40898Y22233*
X40899Y22231*
X409Y22229*
X40902Y22226*
X40904Y22224*
X40906Y22222*
X40908Y2222*
X4091Y22218*
X40912Y22217*
X40914Y22215*
X40917Y22214*
X40919Y22213*
X40922Y22212*
X40925Y22211*
X40927Y2221*
X4093Y2221*
X40933Y2221*
X40936*
X40939Y2221*
X40941Y2221*
X40944Y22211*
X40947Y22212*
X40949Y22213*
X40952Y22214*
X40954Y22215*
X40957Y22217*
X40959Y22218*
X40961Y2222*
X40963Y22222*
X40965Y22224*
X40967Y22226*
X40968Y22229*
X4097Y22231*
X40971Y22233*
X40972Y22236*
X40973Y22239*
X40973Y22241*
X40974Y22244*
X40974Y22247*
X40974Y2225*
X41074D02*
D01*
X41074Y22253*
X41074Y22255*
X41073Y22258*
X41073Y22261*
X41072Y22263*
X41071Y22266*
X4107Y22268*
X41068Y22271*
X41067Y22273*
X41065Y22275*
X41063Y22278*
X41061Y22279*
X41059Y22281*
X41057Y22283*
X41054Y22284*
X41052Y22286*
X41049Y22287*
X41047Y22288*
X41044Y22289*
X41041Y22289*
X41039Y2229*
X41036Y2229*
X41033*
X4103Y2229*
X41027Y22289*
X41025Y22289*
X41022Y22288*
X41019Y22287*
X41017Y22286*
X41014Y22284*
X41012Y22283*
X4101Y22281*
X41008Y22279*
X41006Y22278*
X41004Y22275*
X41002Y22273*
X41Y22271*
X40999Y22268*
X40998Y22266*
X40997Y22263*
X40996Y22261*
X40995Y22258*
X40995Y22255*
X40994Y22253*
X40994Y2225*
X40994Y22247*
X40995Y22244*
X40995Y22241*
X40996Y22239*
X40997Y22236*
X40998Y22233*
X40999Y22231*
X41Y22229*
X41002Y22226*
X41004Y22224*
X41006Y22222*
X41008Y2222*
X4101Y22218*
X41012Y22217*
X41014Y22215*
X41017Y22214*
X41019Y22213*
X41022Y22212*
X41025Y22211*
X41027Y2221*
X4103Y2221*
X41033Y2221*
X41036*
X41039Y2221*
X41041Y2221*
X41044Y22211*
X41047Y22212*
X41049Y22213*
X41052Y22214*
X41054Y22215*
X41057Y22217*
X41059Y22218*
X41061Y2222*
X41063Y22222*
X41065Y22224*
X41067Y22226*
X41068Y22229*
X4107Y22231*
X41071Y22233*
X41072Y22236*
X41073Y22239*
X41073Y22241*
X41074Y22244*
X41074Y22247*
X41074Y2225*
X40049Y2292D02*
D01*
X40049Y22923*
X40049Y22925*
X40048Y22928*
X40048Y22931*
X40047Y22933*
X40046Y22936*
X40045Y22938*
X40043Y22941*
X40042Y22943*
X4004Y22945*
X40038Y22948*
X40036Y22949*
X40034Y22951*
X40032Y22953*
X40029Y22954*
X40027Y22956*
X40024Y22957*
X40022Y22958*
X40019Y22959*
X40016Y22959*
X40014Y2296*
X40011Y2296*
X40008*
X40005Y2296*
X40002Y22959*
X4Y22959*
X39997Y22958*
X39994Y22957*
X39992Y22956*
X39989Y22954*
X39987Y22953*
X39985Y22951*
X39983Y22949*
X39981Y22948*
X39979Y22945*
X39977Y22943*
X39975Y22941*
X39974Y22938*
X39973Y22936*
X39972Y22933*
X39971Y22931*
X3997Y22928*
X3997Y22925*
X39969Y22923*
X39969Y2292*
X39969Y22917*
X3997Y22914*
X3997Y22911*
X39971Y22909*
X39972Y22906*
X39973Y22903*
X39974Y22901*
X39975Y22899*
X39977Y22896*
X39979Y22894*
X39981Y22892*
X39983Y2289*
X39985Y22888*
X39987Y22887*
X39989Y22885*
X39992Y22884*
X39994Y22883*
X39997Y22882*
X4Y22881*
X40002Y2288*
X40005Y2288*
X40008Y2288*
X40011*
X40014Y2288*
X40016Y2288*
X40019Y22881*
X40022Y22882*
X40024Y22883*
X40027Y22884*
X40029Y22885*
X40032Y22887*
X40034Y22888*
X40036Y2289*
X40038Y22892*
X4004Y22894*
X40042Y22896*
X40043Y22899*
X40045Y22901*
X40046Y22903*
X40047Y22906*
X40048Y22909*
X40048Y22911*
X40049Y22914*
X40049Y22917*
X40049Y2292*
X40199Y23015D02*
D01*
X40199Y23016*
X40199Y23018*
X40199Y23019*
X40199Y2302*
X40198Y23022*
X40198Y23023*
X40197Y23024*
X40196Y23025*
X40196Y23026*
X40195Y23028*
X40194Y23029*
X40193Y2303*
X40192Y2303*
X40191Y23031*
X40189Y23032*
X40188Y23033*
X40187Y23033*
X40186Y23034*
X40184Y23034*
X40183Y23034*
X40181Y23035*
X4018Y23035*
X40179*
X40177Y23035*
X40176Y23034*
X40175Y23034*
X40173Y23034*
X40172Y23033*
X40171Y23033*
X40169Y23032*
X40168Y23031*
X40167Y2303*
X40166Y2303*
X40165Y23029*
X40164Y23028*
X40163Y23026*
X40162Y23025*
X40162Y23024*
X40161Y23023*
X40161Y23022*
X4016Y2302*
X4016Y23019*
X4016Y23018*
X40159Y23016*
X40159Y23015*
X40159Y23013*
X4016Y23012*
X4016Y23011*
X4016Y23009*
X40161Y23008*
X40161Y23007*
X40162Y23005*
X40162Y23004*
X40163Y23003*
X40164Y23002*
X40165Y23001*
X40166Y23*
X40167Y22999*
X40168Y22998*
X40169Y22997*
X40171Y22997*
X40172Y22996*
X40173Y22996*
X40175Y22995*
X40176Y22995*
X40177Y22995*
X40179Y22995*
X4018*
X40181Y22995*
X40183Y22995*
X40184Y22995*
X40186Y22996*
X40187Y22996*
X40188Y22997*
X40189Y22997*
X40191Y22998*
X40192Y22999*
X40193Y23*
X40194Y23001*
X40195Y23002*
X40196Y23003*
X40196Y23004*
X40197Y23005*
X40198Y23007*
X40198Y23008*
X40199Y23009*
X40199Y23011*
X40199Y23012*
X40199Y23013*
X40199Y23015*
X40029D02*
D01*
X40029Y23016*
X40029Y23018*
X40029Y23019*
X40029Y2302*
X40028Y23022*
X40028Y23023*
X40027Y23024*
X40026Y23025*
X40026Y23026*
X40025Y23028*
X40024Y23029*
X40023Y2303*
X40022Y2303*
X40021Y23031*
X40019Y23032*
X40018Y23033*
X40017Y23033*
X40016Y23034*
X40014Y23034*
X40013Y23034*
X40011Y23035*
X4001Y23035*
X40009*
X40007Y23035*
X40006Y23034*
X40005Y23034*
X40003Y23034*
X40002Y23033*
X40001Y23033*
X39999Y23032*
X39998Y23031*
X39997Y2303*
X39996Y2303*
X39995Y23029*
X39994Y23028*
X39993Y23026*
X39992Y23025*
X39992Y23024*
X39991Y23023*
X39991Y23022*
X3999Y2302*
X3999Y23019*
X3999Y23018*
X39989Y23016*
X39989Y23015*
X39989Y23013*
X3999Y23012*
X3999Y23011*
X3999Y23009*
X39991Y23008*
X39991Y23007*
X39992Y23005*
X39992Y23004*
X39993Y23003*
X39994Y23002*
X39995Y23001*
X39996Y23*
X39997Y22999*
X39998Y22998*
X39999Y22997*
X40001Y22997*
X40002Y22996*
X40003Y22996*
X40005Y22995*
X40006Y22995*
X40007Y22995*
X40009Y22995*
X4001*
X40011Y22995*
X40013Y22995*
X40014Y22995*
X40016Y22996*
X40017Y22996*
X40018Y22997*
X40019Y22997*
X40021Y22998*
X40022Y22999*
X40023Y23*
X40024Y23001*
X40025Y23002*
X40026Y23003*
X40026Y23004*
X40027Y23005*
X40028Y23007*
X40028Y23008*
X40029Y23009*
X40029Y23011*
X40029Y23012*
X40029Y23013*
X40029Y23015*
Y2318D02*
D01*
X40029Y23181*
X40029Y23183*
X40029Y23184*
X40029Y23185*
X40028Y23187*
X40028Y23188*
X40027Y23189*
X40026Y2319*
X40026Y23191*
X40025Y23193*
X40024Y23194*
X40023Y23195*
X40022Y23195*
X40021Y23196*
X40019Y23197*
X40018Y23198*
X40017Y23198*
X40016Y23199*
X40014Y23199*
X40013Y23199*
X40011Y232*
X4001Y232*
X40009*
X40007Y232*
X40006Y23199*
X40005Y23199*
X40003Y23199*
X40002Y23198*
X40001Y23198*
X39999Y23197*
X39998Y23196*
X39997Y23195*
X39996Y23195*
X39995Y23194*
X39994Y23193*
X39993Y23191*
X39992Y2319*
X39992Y23189*
X39991Y23188*
X39991Y23187*
X3999Y23185*
X3999Y23184*
X3999Y23183*
X39989Y23181*
X39989Y2318*
X39989Y23178*
X3999Y23177*
X3999Y23176*
X3999Y23174*
X39991Y23173*
X39991Y23172*
X39992Y2317*
X39992Y23169*
X39993Y23168*
X39994Y23167*
X39995Y23166*
X39996Y23165*
X39997Y23164*
X39998Y23163*
X39999Y23162*
X40001Y23162*
X40002Y23161*
X40003Y23161*
X40005Y2316*
X40006Y2316*
X40007Y2316*
X40009Y2316*
X4001*
X40011Y2316*
X40013Y2316*
X40014Y2316*
X40016Y23161*
X40017Y23161*
X40018Y23162*
X40019Y23162*
X40021Y23163*
X40022Y23164*
X40023Y23165*
X40024Y23166*
X40025Y23167*
X40026Y23168*
X40026Y23169*
X40027Y2317*
X40028Y23172*
X40028Y23173*
X40029Y23174*
X40029Y23176*
X40029Y23177*
X40029Y23178*
X40029Y2318*
X40199Y23185D02*
D01*
X40199Y23186*
X40199Y23188*
X40199Y23189*
X40199Y2319*
X40198Y23192*
X40198Y23193*
X40197Y23194*
X40196Y23195*
X40196Y23196*
X40195Y23198*
X40194Y23199*
X40193Y232*
X40192Y232*
X40191Y23201*
X40189Y23202*
X40188Y23203*
X40187Y23203*
X40186Y23204*
X40184Y23204*
X40183Y23204*
X40181Y23205*
X4018Y23205*
X40179*
X40177Y23205*
X40176Y23204*
X40175Y23204*
X40173Y23204*
X40172Y23203*
X40171Y23203*
X40169Y23202*
X40168Y23201*
X40167Y232*
X40166Y232*
X40165Y23199*
X40164Y23198*
X40163Y23196*
X40162Y23195*
X40162Y23194*
X40161Y23193*
X40161Y23192*
X4016Y2319*
X4016Y23189*
X4016Y23188*
X40159Y23186*
X40159Y23185*
X40159Y23183*
X4016Y23182*
X4016Y23181*
X4016Y23179*
X40161Y23178*
X40161Y23177*
X40162Y23175*
X40162Y23174*
X40163Y23173*
X40164Y23172*
X40165Y23171*
X40166Y2317*
X40167Y23169*
X40168Y23168*
X40169Y23167*
X40171Y23167*
X40172Y23166*
X40173Y23166*
X40175Y23165*
X40176Y23165*
X40177Y23165*
X40179Y23165*
X4018*
X40181Y23165*
X40183Y23165*
X40184Y23165*
X40186Y23166*
X40187Y23166*
X40188Y23167*
X40189Y23167*
X40191Y23168*
X40192Y23169*
X40193Y2317*
X40194Y23171*
X40195Y23172*
X40196Y23173*
X40196Y23174*
X40197Y23175*
X40198Y23177*
X40198Y23178*
X40199Y23179*
X40199Y23181*
X40199Y23182*
X40199Y23183*
X40199Y23185*
X41174Y2225D02*
D01*
X41174Y22253*
X41174Y22255*
X41173Y22258*
X41173Y22261*
X41172Y22263*
X41171Y22266*
X4117Y22268*
X41168Y22271*
X41167Y22273*
X41165Y22275*
X41163Y22278*
X41161Y22279*
X41159Y22281*
X41157Y22283*
X41154Y22284*
X41152Y22286*
X41149Y22287*
X41147Y22288*
X41144Y22289*
X41141Y22289*
X41139Y2229*
X41136Y2229*
X41133*
X4113Y2229*
X41127Y22289*
X41125Y22289*
X41122Y22288*
X41119Y22287*
X41117Y22286*
X41114Y22284*
X41112Y22283*
X4111Y22281*
X41108Y22279*
X41106Y22278*
X41104Y22275*
X41102Y22273*
X411Y22271*
X41099Y22268*
X41098Y22266*
X41097Y22263*
X41096Y22261*
X41095Y22258*
X41095Y22255*
X41094Y22253*
X41094Y2225*
X41094Y22247*
X41095Y22244*
X41095Y22241*
X41096Y22239*
X41097Y22236*
X41098Y22233*
X41099Y22231*
X411Y22229*
X41102Y22226*
X41104Y22224*
X41106Y22222*
X41108Y2222*
X4111Y22218*
X41112Y22217*
X41114Y22215*
X41117Y22214*
X41119Y22213*
X41122Y22212*
X41125Y22211*
X41127Y2221*
X4113Y2221*
X41133Y2221*
X41136*
X41139Y2221*
X41141Y2221*
X41144Y22211*
X41147Y22212*
X41149Y22213*
X41152Y22214*
X41154Y22215*
X41157Y22217*
X41159Y22218*
X41161Y2222*
X41163Y22222*
X41165Y22224*
X41167Y22226*
X41168Y22229*
X4117Y22231*
X41171Y22233*
X41172Y22236*
X41173Y22239*
X41173Y22241*
X41174Y22244*
X41174Y22247*
X41174Y2225*
X34665Y26107D02*
Y26162D01*
X34744Y26107D02*
Y26162D01*
X35217Y25603D02*
X35293D01*
X35217Y25667D02*
X35293D01*
X34917Y24917D02*
X34992D01*
X34917Y24853D02*
X34992D01*
X3524Y24611D02*
X35316D01*
X3524Y24675D02*
X35316D01*
X34717Y25817D02*
X34792D01*
X34717Y25753D02*
X34792D01*
X34367Y25153D02*
X34443D01*
X34367Y25217D02*
X34443D01*
X36515Y26107D02*
Y26162D01*
X36594Y26107D02*
Y26162D01*
X37067Y25603D02*
X37143D01*
X37067Y25667D02*
X37143D01*
X36767Y24917D02*
X36842D01*
X36767Y24853D02*
X36842D01*
X3709Y24611D02*
X37166D01*
X3709Y24675D02*
X37166D01*
X36567Y25817D02*
X36642D01*
X36567Y25753D02*
X36642D01*
X36217Y25153D02*
X36293D01*
X36217Y25217D02*
X36293D01*
X38365Y26107D02*
Y26162D01*
X38444Y26107D02*
Y26162D01*
X38917Y25603D02*
X38993D01*
X38917Y25667D02*
X38993D01*
X38617Y24917D02*
X38692D01*
X38617Y24853D02*
X38692D01*
X3894Y24611D02*
X39016D01*
X3894Y24675D02*
X39016D01*
X38417Y25817D02*
X38492D01*
X38417Y25753D02*
X38492D01*
X38067Y25153D02*
X38143D01*
X38067Y25217D02*
X38143D01*
X3463Y28072D02*
Y28127D01*
X34709Y28072D02*
Y28127D01*
X35182Y27568D02*
X35258D01*
X35182Y27632D02*
X35258D01*
X34882Y26882D02*
X34957D01*
X34882Y26818D02*
X34957D01*
X35205Y26576D02*
X35281D01*
X35205Y2664D02*
X35281D01*
X34682Y27782D02*
X34757D01*
X34682Y27718D02*
X34757D01*
X34332Y27118D02*
X34408D01*
X34332Y27182D02*
X34408D01*
X3648Y28072D02*
Y28127D01*
X36559Y28072D02*
Y28127D01*
X37032Y27568D02*
X37108D01*
X37032Y27632D02*
X37108D01*
X36732Y26882D02*
X36807D01*
X36732Y26818D02*
X36807D01*
X37055Y26576D02*
X37131D01*
X37055Y2664D02*
X37131D01*
X36532Y27782D02*
X36607D01*
X36532Y27718D02*
X36607D01*
X36182Y27118D02*
X36258D01*
X36182Y27182D02*
X36258D01*
X3833Y28072D02*
Y28127D01*
X38409Y28072D02*
Y28127D01*
X38882Y27568D02*
X38958D01*
X38882Y27632D02*
X38958D01*
X38582Y26882D02*
X38657D01*
X38582Y26818D02*
X38657D01*
X38905Y26576D02*
X38981D01*
X38905Y2664D02*
X38981D01*
X38382Y27782D02*
X38457D01*
X38382Y27718D02*
X38457D01*
X38032Y27118D02*
X38108D01*
X38032Y27182D02*
X38108D01*
X39697Y25175D02*
X39752D01*
X39697Y25254D02*
X39752D01*
X40257Y25727D02*
Y25803D01*
X40193Y25727D02*
Y25803D01*
X40943Y25427D02*
Y25502D01*
X41007Y25427D02*
Y25502D01*
X41249Y2575D02*
Y25826D01*
X41185Y2575D02*
Y25826D01*
X40043Y25227D02*
Y25302D01*
X40107Y25227D02*
Y25302D01*
X40707Y24877D02*
Y24953D01*
X40643Y24877D02*
Y24953D01*
X39697Y27025D02*
X39752D01*
X39697Y27104D02*
X39752D01*
X40257Y27577D02*
Y27653D01*
X40193Y27577D02*
Y27653D01*
X40943Y27277D02*
Y27352D01*
X41007Y27277D02*
Y27352D01*
X41249Y276D02*
Y27676D01*
X41185Y276D02*
Y27676D01*
X40043Y27077D02*
Y27152D01*
X40107Y27077D02*
Y27152D01*
X40707Y26727D02*
Y26803D01*
X40643Y26727D02*
Y26803D01*
X39697Y28875D02*
X39752D01*
X39697Y28954D02*
X39752D01*
X40257Y29427D02*
Y29503D01*
X40193Y29427D02*
Y29503D01*
X40943Y29127D02*
Y29202D01*
X41007Y29127D02*
Y29202D01*
X41249Y2945D02*
Y29526D01*
X41185Y2945D02*
Y29526D01*
X40043Y28927D02*
Y29002D01*
X40107Y28927D02*
Y29002D01*
X40707Y28577D02*
Y28653D01*
X40643Y28577D02*
Y28653D01*
X34835Y23355D02*
X3485D01*
X3479D02*
X34805D01*
X3519Y23655D02*
X35205D01*
X35235D02*
X3525D01*
X3479Y22655D02*
X34805D01*
X34835D02*
X3485D01*
X35245Y2387D02*
Y2394D01*
X35495Y2387D02*
Y2394D01*
X34235Y2328D02*
X34305D01*
X34235Y2353D02*
X34305D01*
X34695Y2382D02*
Y2389D01*
X34945Y2382D02*
Y2389D01*
X35535Y2268D02*
X35605D01*
X35535Y2243D02*
X35605D01*
X34545Y2397D02*
Y2404D01*
X34295Y2397D02*
Y2404D01*
X35335Y2248D02*
X35405D01*
X35335Y2273D02*
X35405D01*
X34795Y2292D02*
Y2299D01*
X35045Y2292D02*
Y2299D01*
X34945Y2227D02*
Y2234D01*
X34695Y2227D02*
Y2234D01*
X34285Y2278D02*
X34355D01*
X34285Y2253D02*
X34355D01*
X34435Y2263D02*
X34505D01*
X34435Y2288D02*
X34505D01*
X35135Y2338D02*
X35205D01*
X35135Y2313D02*
X35205D01*
X34945Y2357D02*
Y2364D01*
X34695Y2357D02*
Y2364D01*
X34485Y2323D02*
X34555D01*
X34485Y2348D02*
X34555D01*
X40179Y23115D02*
X40189Y2308D01*
Y2312D02*
Y2315D01*
Y2305D02*
Y2308D01*
X40044Y2301D02*
X40144D01*
X40044Y23185D02*
X40144D01*
X39994Y2298D02*
X40009D01*
X40179D02*
X40194D01*
X40179Y2322D02*
X40194D01*
X39994D02*
X40009D01*
X40214Y2314D02*
Y232D01*
X40194Y2322D02*
X40214Y232D01*
Y23D02*
Y2306D01*
X40194Y2298D02*
X40214Y23D01*
X39974Y2314D02*
Y232D01*
X39994Y2322*
X39974Y23D02*
X39994Y2298D01*
X39974Y23D02*
Y2306D01*
X39129Y22105D02*
X39144D01*
X39174D02*
X39189D01*
X39129Y22625D02*
X39144D01*
X39174D02*
X39189D01*
X39129Y22915D02*
X39144D01*
X39174D02*
X39189D01*
X39119Y233D02*
X39134D01*
X39164D02*
X39179D01*
X39089Y23575D02*
X39104D01*
X39134D02*
X39149D01*
X39919Y22465D02*
X39934D01*
X39964D02*
X39979D01*
X39914Y23495D02*
X39929D01*
X39959D02*
X39974D01*
X39514Y2231D02*
X39529D01*
X39559D02*
X39574D01*
X39519Y2287D02*
X39534D01*
X39564D02*
X39579D01*
X39524Y235D02*
X39539D01*
X39569D02*
X39584D01*
X40349Y2246D02*
X40364D01*
X40394D02*
X40409D01*
X40359Y23405D02*
X40374D01*
X40404D02*
X40419D01*
X3461Y29997D02*
Y30052D01*
X34689Y29997D02*
Y30052D01*
X35162Y29493D02*
X35238D01*
X35162Y29557D02*
X35238D01*
X34862Y28807D02*
X34937D01*
X34862Y28743D02*
X34937D01*
X35185Y28501D02*
X35261D01*
X35185Y28565D02*
X35261D01*
X34662Y29707D02*
X34737D01*
X34662Y29643D02*
X34737D01*
X34312Y29043D02*
X34388D01*
X34312Y29107D02*
X34388D01*
X3646Y29997D02*
Y30052D01*
X36539Y29997D02*
Y30052D01*
X37012Y29493D02*
X37088D01*
X37012Y29557D02*
X37088D01*
X36712Y28807D02*
X36787D01*
X36712Y28743D02*
X36787D01*
X37035Y28501D02*
X37111D01*
X37035Y28565D02*
X37111D01*
X36512Y29707D02*
X36587D01*
X36512Y29643D02*
X36587D01*
X36162Y29043D02*
X36238D01*
X36162Y29107D02*
X36238D01*
X3831Y29997D02*
Y30052D01*
X38389Y29997D02*
Y30052D01*
X38862Y29493D02*
X38938D01*
X38862Y29557D02*
X38938D01*
X38562Y28807D02*
X38637D01*
X38562Y28743D02*
X38637D01*
X38885Y28501D02*
X38961D01*
X38885Y28565D02*
X38961D01*
X38362Y29707D02*
X38437D01*
X38362Y29643D02*
X38437D01*
X38012Y29043D02*
X38088D01*
X38012Y29107D02*
X38088D01*
G54D35*
X34795Y24055D02*
X35045D01*
X3507Y2408*
Y2423*
X35045Y24255D02*
X3507Y2423D01*
X34795Y24255D02*
X35045D01*
X3477Y2423D02*
X34795Y24255D01*
X3477Y2408D02*
Y2423D01*
Y2408D02*
X34795Y24055D01*
X35857Y21549D02*
Y21951D01*
X35502Y21549D02*
Y21951D01*
X34774Y21344D02*
Y21955D01*
X34294Y21344D02*
Y21955D01*
X35502Y21549D02*
X35857D01*
X34294Y21344D02*
X34774D01*
X3602Y22055D02*
Y24205D01*
X3392Y24155D02*
X3397Y24205D01*
X3442*
X3452Y24305*
X3582*
X3392Y22055D02*
X3402Y21955D01*
X3392Y22055D02*
Y24155D01*
X3582Y24305D02*
X3592Y24205D01*
X3602*
X3592Y21955D02*
X3602Y22055D01*
X34774Y21955D02*
X3592D01*
X34294D02*
X34774D01*
X3402D02*
X34294D01*
G54D117*
X35077Y26035D02*
D01*
X35076Y26043*
X35075Y26051*
X35074Y2606*
X35072Y26068*
X35069Y26076*
X35066Y26084*
X35062Y26092*
X35058Y26099*
X35053Y26106*
X35048Y26113*
X35042Y26119*
X35036Y26125*
X3503Y26131*
X35023Y26136*
X35016Y2614*
X35008Y26144*
X35Y26148*
X34992Y26151*
X34984Y26153*
X34976Y26155*
X34967Y26156*
X34959Y26156*
X3495*
X34942Y26156*
X34933Y26155*
X34925Y26153*
X34917Y26151*
X34909Y26148*
X34901Y26144*
X34893Y2614*
X34886Y26136*
X34879Y26131*
X34873Y26125*
X34867Y26119*
X34861Y26113*
X34856Y26106*
X34851Y26099*
X34847Y26092*
X34843Y26084*
X3484Y26076*
X34837Y26068*
X34835Y2606*
X34834Y26051*
X34833Y26043*
X34832Y26035*
X34833Y26026*
X34834Y26018*
X34835Y26009*
X34837Y26001*
X3484Y25993*
X34843Y25985*
X34847Y25977*
X34851Y2597*
X34856Y25963*
X34861Y25956*
X34867Y2595*
X34873Y25944*
X34879Y25938*
X34886Y25933*
X34893Y25929*
X34901Y25925*
X34909Y25921*
X34917Y25918*
X34925Y25916*
X34933Y25914*
X34942Y25913*
X3495Y25913*
X34959*
X34967Y25913*
X34976Y25914*
X34984Y25916*
X34992Y25918*
X35Y25921*
X35008Y25925*
X35016Y25929*
X35023Y25933*
X3503Y25938*
X35036Y25944*
X35042Y2595*
X35048Y25956*
X35053Y25963*
X35058Y2597*
X35062Y25977*
X35066Y25985*
X35069Y25993*
X35072Y26001*
X35074Y26009*
X35075Y26018*
X35076Y26026*
X35077Y26035*
X34367Y24985D02*
D01*
X34366Y24993*
X34365Y25001*
X34364Y2501*
X34362Y25018*
X34359Y25026*
X34356Y25034*
X34352Y25042*
X34348Y25049*
X34343Y25056*
X34338Y25063*
X34332Y25069*
X34326Y25075*
X3432Y25081*
X34313Y25086*
X34306Y2509*
X34298Y25094*
X3429Y25098*
X34282Y25101*
X34274Y25103*
X34266Y25105*
X34257Y25106*
X34249Y25106*
X3424*
X34232Y25106*
X34223Y25105*
X34215Y25103*
X34207Y25101*
X34199Y25098*
X34191Y25094*
X34183Y2509*
X34176Y25086*
X34169Y25081*
X34163Y25075*
X34157Y25069*
X34151Y25063*
X34146Y25056*
X34141Y25049*
X34137Y25042*
X34133Y25034*
X3413Y25026*
X34127Y25018*
X34125Y2501*
X34124Y25001*
X34123Y24993*
X34122Y24985*
X34123Y24976*
X34124Y24968*
X34125Y24959*
X34127Y24951*
X3413Y24943*
X34133Y24935*
X34137Y24927*
X34141Y2492*
X34146Y24913*
X34151Y24906*
X34157Y249*
X34163Y24894*
X34169Y24888*
X34176Y24883*
X34183Y24879*
X34191Y24875*
X34199Y24871*
X34207Y24868*
X34215Y24866*
X34223Y24864*
X34232Y24863*
X3424Y24863*
X34249*
X34257Y24863*
X34266Y24864*
X34274Y24866*
X34282Y24868*
X3429Y24871*
X34298Y24875*
X34306Y24879*
X34313Y24883*
X3432Y24888*
X34326Y24894*
X34332Y249*
X34338Y24906*
X34343Y24913*
X34348Y2492*
X34352Y24927*
X34356Y24935*
X34359Y24943*
X34362Y24951*
X34364Y24959*
X34365Y24968*
X34366Y24976*
X34367Y24985*
X36927Y26035D02*
D01*
X36926Y26043*
X36925Y26051*
X36924Y2606*
X36922Y26068*
X36919Y26076*
X36916Y26084*
X36912Y26092*
X36908Y26099*
X36903Y26106*
X36898Y26113*
X36892Y26119*
X36886Y26125*
X3688Y26131*
X36873Y26136*
X36866Y2614*
X36858Y26144*
X3685Y26148*
X36842Y26151*
X36834Y26153*
X36826Y26155*
X36817Y26156*
X36809Y26156*
X368*
X36792Y26156*
X36783Y26155*
X36775Y26153*
X36767Y26151*
X36759Y26148*
X36751Y26144*
X36743Y2614*
X36736Y26136*
X36729Y26131*
X36723Y26125*
X36717Y26119*
X36711Y26113*
X36706Y26106*
X36701Y26099*
X36697Y26092*
X36693Y26084*
X3669Y26076*
X36687Y26068*
X36685Y2606*
X36684Y26051*
X36683Y26043*
X36682Y26035*
X36683Y26026*
X36684Y26018*
X36685Y26009*
X36687Y26001*
X3669Y25993*
X36693Y25985*
X36697Y25977*
X36701Y2597*
X36706Y25963*
X36711Y25956*
X36717Y2595*
X36723Y25944*
X36729Y25938*
X36736Y25933*
X36743Y25929*
X36751Y25925*
X36759Y25921*
X36767Y25918*
X36775Y25916*
X36783Y25914*
X36792Y25913*
X368Y25913*
X36809*
X36817Y25913*
X36826Y25914*
X36834Y25916*
X36842Y25918*
X3685Y25921*
X36858Y25925*
X36866Y25929*
X36873Y25933*
X3688Y25938*
X36886Y25944*
X36892Y2595*
X36898Y25956*
X36903Y25963*
X36908Y2597*
X36912Y25977*
X36916Y25985*
X36919Y25993*
X36922Y26001*
X36924Y26009*
X36925Y26018*
X36926Y26026*
X36927Y26035*
X36217Y24985D02*
D01*
X36216Y24993*
X36215Y25001*
X36214Y2501*
X36212Y25018*
X36209Y25026*
X36206Y25034*
X36202Y25042*
X36198Y25049*
X36193Y25056*
X36188Y25063*
X36182Y25069*
X36176Y25075*
X3617Y25081*
X36163Y25086*
X36156Y2509*
X36148Y25094*
X3614Y25098*
X36132Y25101*
X36124Y25103*
X36116Y25105*
X36107Y25106*
X36099Y25106*
X3609*
X36082Y25106*
X36073Y25105*
X36065Y25103*
X36057Y25101*
X36049Y25098*
X36041Y25094*
X36033Y2509*
X36026Y25086*
X36019Y25081*
X36013Y25075*
X36007Y25069*
X36001Y25063*
X35996Y25056*
X35991Y25049*
X35987Y25042*
X35983Y25034*
X3598Y25026*
X35977Y25018*
X35975Y2501*
X35974Y25001*
X35973Y24993*
X35972Y24985*
X35973Y24976*
X35974Y24968*
X35975Y24959*
X35977Y24951*
X3598Y24943*
X35983Y24935*
X35987Y24927*
X35991Y2492*
X35996Y24913*
X36001Y24906*
X36007Y249*
X36013Y24894*
X36019Y24888*
X36026Y24883*
X36033Y24879*
X36041Y24875*
X36049Y24871*
X36057Y24868*
X36065Y24866*
X36073Y24864*
X36082Y24863*
X3609Y24863*
X36099*
X36107Y24863*
X36116Y24864*
X36124Y24866*
X36132Y24868*
X3614Y24871*
X36148Y24875*
X36156Y24879*
X36163Y24883*
X3617Y24888*
X36176Y24894*
X36182Y249*
X36188Y24906*
X36193Y24913*
X36198Y2492*
X36202Y24927*
X36206Y24935*
X36209Y24943*
X36212Y24951*
X36214Y24959*
X36215Y24968*
X36216Y24976*
X36217Y24985*
X38777Y26035D02*
D01*
X38776Y26043*
X38775Y26051*
X38774Y2606*
X38772Y26068*
X38769Y26076*
X38766Y26084*
X38762Y26092*
X38758Y26099*
X38753Y26106*
X38748Y26113*
X38742Y26119*
X38736Y26125*
X3873Y26131*
X38723Y26136*
X38716Y2614*
X38708Y26144*
X387Y26148*
X38692Y26151*
X38684Y26153*
X38676Y26155*
X38667Y26156*
X38659Y26156*
X3865*
X38642Y26156*
X38633Y26155*
X38625Y26153*
X38617Y26151*
X38609Y26148*
X38601Y26144*
X38593Y2614*
X38586Y26136*
X38579Y26131*
X38573Y26125*
X38567Y26119*
X38561Y26113*
X38556Y26106*
X38551Y26099*
X38547Y26092*
X38543Y26084*
X3854Y26076*
X38537Y26068*
X38535Y2606*
X38534Y26051*
X38533Y26043*
X38532Y26035*
X38533Y26026*
X38534Y26018*
X38535Y26009*
X38537Y26001*
X3854Y25993*
X38543Y25985*
X38547Y25977*
X38551Y2597*
X38556Y25963*
X38561Y25956*
X38567Y2595*
X38573Y25944*
X38579Y25938*
X38586Y25933*
X38593Y25929*
X38601Y25925*
X38609Y25921*
X38617Y25918*
X38625Y25916*
X38633Y25914*
X38642Y25913*
X3865Y25913*
X38659*
X38667Y25913*
X38676Y25914*
X38684Y25916*
X38692Y25918*
X387Y25921*
X38708Y25925*
X38716Y25929*
X38723Y25933*
X3873Y25938*
X38736Y25944*
X38742Y2595*
X38748Y25956*
X38753Y25963*
X38758Y2597*
X38762Y25977*
X38766Y25985*
X38769Y25993*
X38772Y26001*
X38774Y26009*
X38775Y26018*
X38776Y26026*
X38777Y26035*
X38067Y24985D02*
D01*
X38066Y24993*
X38065Y25001*
X38064Y2501*
X38062Y25018*
X38059Y25026*
X38056Y25034*
X38052Y25042*
X38048Y25049*
X38043Y25056*
X38038Y25063*
X38032Y25069*
X38026Y25075*
X3802Y25081*
X38013Y25086*
X38006Y2509*
X37998Y25094*
X3799Y25098*
X37982Y25101*
X37974Y25103*
X37966Y25105*
X37957Y25106*
X37949Y25106*
X3794*
X37932Y25106*
X37923Y25105*
X37915Y25103*
X37907Y25101*
X37899Y25098*
X37891Y25094*
X37883Y2509*
X37876Y25086*
X37869Y25081*
X37863Y25075*
X37857Y25069*
X37851Y25063*
X37846Y25056*
X37841Y25049*
X37837Y25042*
X37833Y25034*
X3783Y25026*
X37827Y25018*
X37825Y2501*
X37824Y25001*
X37823Y24993*
X37822Y24985*
X37823Y24976*
X37824Y24968*
X37825Y24959*
X37827Y24951*
X3783Y24943*
X37833Y24935*
X37837Y24927*
X37841Y2492*
X37846Y24913*
X37851Y24906*
X37857Y249*
X37863Y24894*
X37869Y24888*
X37876Y24883*
X37883Y24879*
X37891Y24875*
X37899Y24871*
X37907Y24868*
X37915Y24866*
X37923Y24864*
X37932Y24863*
X3794Y24863*
X37949*
X37957Y24863*
X37966Y24864*
X37974Y24866*
X37982Y24868*
X3799Y24871*
X37998Y24875*
X38006Y24879*
X38013Y24883*
X3802Y24888*
X38026Y24894*
X38032Y249*
X38038Y24906*
X38043Y24913*
X38048Y2492*
X38052Y24927*
X38056Y24935*
X38059Y24943*
X38062Y24951*
X38064Y24959*
X38065Y24968*
X38066Y24976*
X38067Y24985*
X35042Y28D02*
D01*
X35041Y28008*
X3504Y28016*
X35039Y28025*
X35037Y28033*
X35034Y28041*
X35031Y28049*
X35027Y28057*
X35023Y28064*
X35018Y28071*
X35013Y28078*
X35007Y28084*
X35001Y2809*
X34995Y28096*
X34988Y28101*
X34981Y28105*
X34973Y28109*
X34965Y28113*
X34957Y28116*
X34949Y28118*
X34941Y2812*
X34932Y28121*
X34924Y28121*
X34915*
X34907Y28121*
X34898Y2812*
X3489Y28118*
X34882Y28116*
X34874Y28113*
X34866Y28109*
X34858Y28105*
X34851Y28101*
X34844Y28096*
X34838Y2809*
X34832Y28084*
X34826Y28078*
X34821Y28071*
X34816Y28064*
X34812Y28057*
X34808Y28049*
X34805Y28041*
X34802Y28033*
X348Y28025*
X34799Y28016*
X34798Y28008*
X34797Y28*
X34798Y27991*
X34799Y27983*
X348Y27974*
X34802Y27966*
X34805Y27958*
X34808Y2795*
X34812Y27942*
X34816Y27935*
X34821Y27928*
X34826Y27921*
X34832Y27915*
X34838Y27909*
X34844Y27903*
X34851Y27898*
X34858Y27894*
X34866Y2789*
X34874Y27886*
X34882Y27883*
X3489Y27881*
X34898Y27879*
X34907Y27878*
X34915Y27878*
X34924*
X34932Y27878*
X34941Y27879*
X34949Y27881*
X34957Y27883*
X34965Y27886*
X34973Y2789*
X34981Y27894*
X34988Y27898*
X34995Y27903*
X35001Y27909*
X35007Y27915*
X35013Y27921*
X35018Y27928*
X35023Y27935*
X35027Y27942*
X35031Y2795*
X35034Y27958*
X35037Y27966*
X35039Y27974*
X3504Y27983*
X35041Y27991*
X35042Y28*
X34332Y2695D02*
D01*
X34331Y26958*
X3433Y26966*
X34329Y26975*
X34327Y26983*
X34324Y26991*
X34321Y26999*
X34317Y27007*
X34313Y27014*
X34308Y27021*
X34303Y27028*
X34297Y27034*
X34291Y2704*
X34285Y27046*
X34278Y27051*
X34271Y27055*
X34263Y27059*
X34255Y27063*
X34247Y27066*
X34239Y27068*
X34231Y2707*
X34222Y27071*
X34214Y27071*
X34205*
X34197Y27071*
X34188Y2707*
X3418Y27068*
X34172Y27066*
X34164Y27063*
X34156Y27059*
X34148Y27055*
X34141Y27051*
X34134Y27046*
X34128Y2704*
X34122Y27034*
X34116Y27028*
X34111Y27021*
X34106Y27014*
X34102Y27007*
X34098Y26999*
X34095Y26991*
X34092Y26983*
X3409Y26975*
X34089Y26966*
X34088Y26958*
X34087Y2695*
X34088Y26941*
X34089Y26933*
X3409Y26924*
X34092Y26916*
X34095Y26908*
X34098Y269*
X34102Y26892*
X34106Y26885*
X34111Y26878*
X34116Y26871*
X34122Y26865*
X34128Y26859*
X34134Y26853*
X34141Y26848*
X34148Y26844*
X34156Y2684*
X34164Y26836*
X34172Y26833*
X3418Y26831*
X34188Y26829*
X34197Y26828*
X34205Y26828*
X34214*
X34222Y26828*
X34231Y26829*
X34239Y26831*
X34247Y26833*
X34255Y26836*
X34263Y2684*
X34271Y26844*
X34278Y26848*
X34285Y26853*
X34291Y26859*
X34297Y26865*
X34303Y26871*
X34308Y26878*
X34313Y26885*
X34317Y26892*
X34321Y269*
X34324Y26908*
X34327Y26916*
X34329Y26924*
X3433Y26933*
X34331Y26941*
X34332Y2695*
X36892Y28D02*
D01*
X36891Y28008*
X3689Y28016*
X36889Y28025*
X36887Y28033*
X36884Y28041*
X36881Y28049*
X36877Y28057*
X36873Y28064*
X36868Y28071*
X36863Y28078*
X36857Y28084*
X36851Y2809*
X36845Y28096*
X36838Y28101*
X36831Y28105*
X36823Y28109*
X36815Y28113*
X36807Y28116*
X36799Y28118*
X36791Y2812*
X36782Y28121*
X36774Y28121*
X36765*
X36757Y28121*
X36748Y2812*
X3674Y28118*
X36732Y28116*
X36724Y28113*
X36716Y28109*
X36708Y28105*
X36701Y28101*
X36694Y28096*
X36688Y2809*
X36682Y28084*
X36676Y28078*
X36671Y28071*
X36666Y28064*
X36662Y28057*
X36658Y28049*
X36655Y28041*
X36652Y28033*
X3665Y28025*
X36649Y28016*
X36648Y28008*
X36647Y28*
X36648Y27991*
X36649Y27983*
X3665Y27974*
X36652Y27966*
X36655Y27958*
X36658Y2795*
X36662Y27942*
X36666Y27935*
X36671Y27928*
X36676Y27921*
X36682Y27915*
X36688Y27909*
X36694Y27903*
X36701Y27898*
X36708Y27894*
X36716Y2789*
X36724Y27886*
X36732Y27883*
X3674Y27881*
X36748Y27879*
X36757Y27878*
X36765Y27878*
X36774*
X36782Y27878*
X36791Y27879*
X36799Y27881*
X36807Y27883*
X36815Y27886*
X36823Y2789*
X36831Y27894*
X36838Y27898*
X36845Y27903*
X36851Y27909*
X36857Y27915*
X36863Y27921*
X36868Y27928*
X36873Y27935*
X36877Y27942*
X36881Y2795*
X36884Y27958*
X36887Y27966*
X36889Y27974*
X3689Y27983*
X36891Y27991*
X36892Y28*
X36182Y2695D02*
D01*
X36181Y26958*
X3618Y26966*
X36179Y26975*
X36177Y26983*
X36174Y26991*
X36171Y26999*
X36167Y27007*
X36163Y27014*
X36158Y27021*
X36153Y27028*
X36147Y27034*
X36141Y2704*
X36135Y27046*
X36128Y27051*
X36121Y27055*
X36113Y27059*
X36105Y27063*
X36097Y27066*
X36089Y27068*
X36081Y2707*
X36072Y27071*
X36064Y27071*
X36055*
X36047Y27071*
X36038Y2707*
X3603Y27068*
X36022Y27066*
X36014Y27063*
X36006Y27059*
X35998Y27055*
X35991Y27051*
X35984Y27046*
X35978Y2704*
X35972Y27034*
X35966Y27028*
X35961Y27021*
X35956Y27014*
X35952Y27007*
X35948Y26999*
X35945Y26991*
X35942Y26983*
X3594Y26975*
X35939Y26966*
X35938Y26958*
X35937Y2695*
X35938Y26941*
X35939Y26933*
X3594Y26924*
X35942Y26916*
X35945Y26908*
X35948Y269*
X35952Y26892*
X35956Y26885*
X35961Y26878*
X35966Y26871*
X35972Y26865*
X35978Y26859*
X35984Y26853*
X35991Y26848*
X35998Y26844*
X36006Y2684*
X36014Y26836*
X36022Y26833*
X3603Y26831*
X36038Y26829*
X36047Y26828*
X36055Y26828*
X36064*
X36072Y26828*
X36081Y26829*
X36089Y26831*
X36097Y26833*
X36105Y26836*
X36113Y2684*
X36121Y26844*
X36128Y26848*
X36135Y26853*
X36141Y26859*
X36147Y26865*
X36153Y26871*
X36158Y26878*
X36163Y26885*
X36167Y26892*
X36171Y269*
X36174Y26908*
X36177Y26916*
X36179Y26924*
X3618Y26933*
X36181Y26941*
X36182Y2695*
X38742Y28D02*
D01*
X38741Y28008*
X3874Y28016*
X38739Y28025*
X38737Y28033*
X38734Y28041*
X38731Y28049*
X38727Y28057*
X38723Y28064*
X38718Y28071*
X38713Y28078*
X38707Y28084*
X38701Y2809*
X38695Y28096*
X38688Y28101*
X38681Y28105*
X38673Y28109*
X38665Y28113*
X38657Y28116*
X38649Y28118*
X38641Y2812*
X38632Y28121*
X38624Y28121*
X38615*
X38607Y28121*
X38598Y2812*
X3859Y28118*
X38582Y28116*
X38574Y28113*
X38566Y28109*
X38558Y28105*
X38551Y28101*
X38544Y28096*
X38538Y2809*
X38532Y28084*
X38526Y28078*
X38521Y28071*
X38516Y28064*
X38512Y28057*
X38508Y28049*
X38505Y28041*
X38502Y28033*
X385Y28025*
X38499Y28016*
X38498Y28008*
X38497Y28*
X38498Y27991*
X38499Y27983*
X385Y27974*
X38502Y27966*
X38505Y27958*
X38508Y2795*
X38512Y27942*
X38516Y27935*
X38521Y27928*
X38526Y27921*
X38532Y27915*
X38538Y27909*
X38544Y27903*
X38551Y27898*
X38558Y27894*
X38566Y2789*
X38574Y27886*
X38582Y27883*
X3859Y27881*
X38598Y27879*
X38607Y27878*
X38615Y27878*
X38624*
X38632Y27878*
X38641Y27879*
X38649Y27881*
X38657Y27883*
X38665Y27886*
X38673Y2789*
X38681Y27894*
X38688Y27898*
X38695Y27903*
X38701Y27909*
X38707Y27915*
X38713Y27921*
X38718Y27928*
X38723Y27935*
X38727Y27942*
X38731Y2795*
X38734Y27958*
X38737Y27966*
X38739Y27974*
X3874Y27983*
X38741Y27991*
X38742Y28*
X38032Y2695D02*
D01*
X38031Y26958*
X3803Y26966*
X38029Y26975*
X38027Y26983*
X38024Y26991*
X38021Y26999*
X38017Y27007*
X38013Y27014*
X38008Y27021*
X38003Y27028*
X37997Y27034*
X37991Y2704*
X37985Y27046*
X37978Y27051*
X37971Y27055*
X37963Y27059*
X37955Y27063*
X37947Y27066*
X37939Y27068*
X37931Y2707*
X37922Y27071*
X37914Y27071*
X37905*
X37897Y27071*
X37888Y2707*
X3788Y27068*
X37872Y27066*
X37864Y27063*
X37856Y27059*
X37848Y27055*
X37841Y27051*
X37834Y27046*
X37828Y2704*
X37822Y27034*
X37816Y27028*
X37811Y27021*
X37806Y27014*
X37802Y27007*
X37798Y26999*
X37795Y26991*
X37792Y26983*
X3779Y26975*
X37789Y26966*
X37788Y26958*
X37787Y2695*
X37788Y26941*
X37789Y26933*
X3779Y26924*
X37792Y26916*
X37795Y26908*
X37798Y269*
X37802Y26892*
X37806Y26885*
X37811Y26878*
X37816Y26871*
X37822Y26865*
X37828Y26859*
X37834Y26853*
X37841Y26848*
X37848Y26844*
X37856Y2684*
X37864Y26836*
X37872Y26833*
X3788Y26831*
X37888Y26829*
X37897Y26828*
X37905Y26828*
X37914*
X37922Y26828*
X37931Y26829*
X37939Y26831*
X37947Y26833*
X37955Y26836*
X37963Y2684*
X37971Y26844*
X37978Y26848*
X37985Y26853*
X37991Y26859*
X37997Y26865*
X38003Y26871*
X38008Y26878*
X38013Y26885*
X38017Y26892*
X38021Y269*
X38024Y26908*
X38027Y26916*
X38029Y26924*
X3803Y26933*
X38031Y26941*
X38032Y2695*
X39947Y25465D02*
D01*
X39946Y25473*
X39945Y25481*
X39944Y2549*
X39942Y25498*
X39939Y25506*
X39936Y25514*
X39932Y25522*
X39928Y25529*
X39923Y25536*
X39918Y25543*
X39912Y25549*
X39906Y25555*
X399Y25561*
X39893Y25566*
X39886Y2557*
X39878Y25574*
X3987Y25578*
X39862Y25581*
X39854Y25583*
X39846Y25585*
X39837Y25586*
X39829Y25586*
X3982*
X39812Y25586*
X39803Y25585*
X39795Y25583*
X39787Y25581*
X39779Y25578*
X39771Y25574*
X39763Y2557*
X39756Y25566*
X39749Y25561*
X39743Y25555*
X39737Y25549*
X39731Y25543*
X39726Y25536*
X39721Y25529*
X39717Y25522*
X39713Y25514*
X3971Y25506*
X39707Y25498*
X39705Y2549*
X39704Y25481*
X39703Y25473*
X39702Y25465*
X39703Y25456*
X39704Y25448*
X39705Y25439*
X39707Y25431*
X3971Y25423*
X39713Y25415*
X39717Y25407*
X39721Y254*
X39726Y25393*
X39731Y25386*
X39737Y2538*
X39743Y25374*
X39749Y25368*
X39756Y25363*
X39763Y25359*
X39771Y25355*
X39779Y25351*
X39787Y25348*
X39795Y25346*
X39803Y25344*
X39812Y25343*
X3982Y25343*
X39829*
X39837Y25343*
X39846Y25344*
X39854Y25346*
X39862Y25348*
X3987Y25351*
X39878Y25355*
X39886Y25359*
X39893Y25363*
X399Y25368*
X39906Y25374*
X39912Y2538*
X39918Y25386*
X39923Y25393*
X39928Y254*
X39932Y25407*
X39936Y25415*
X39939Y25423*
X39942Y25431*
X39944Y25439*
X39945Y25448*
X39946Y25456*
X39947Y25465*
X40997Y24755D02*
D01*
X40996Y24763*
X40995Y24771*
X40994Y2478*
X40992Y24788*
X40989Y24796*
X40986Y24804*
X40982Y24812*
X40978Y24819*
X40973Y24826*
X40968Y24833*
X40962Y24839*
X40956Y24845*
X4095Y24851*
X40943Y24856*
X40936Y2486*
X40928Y24864*
X4092Y24868*
X40912Y24871*
X40904Y24873*
X40896Y24875*
X40887Y24876*
X40879Y24876*
X4087*
X40862Y24876*
X40853Y24875*
X40845Y24873*
X40837Y24871*
X40829Y24868*
X40821Y24864*
X40813Y2486*
X40806Y24856*
X40799Y24851*
X40793Y24845*
X40787Y24839*
X40781Y24833*
X40776Y24826*
X40771Y24819*
X40767Y24812*
X40763Y24804*
X4076Y24796*
X40757Y24788*
X40755Y2478*
X40754Y24771*
X40753Y24763*
X40752Y24755*
X40753Y24746*
X40754Y24738*
X40755Y24729*
X40757Y24721*
X4076Y24713*
X40763Y24705*
X40767Y24697*
X40771Y2469*
X40776Y24683*
X40781Y24676*
X40787Y2467*
X40793Y24664*
X40799Y24658*
X40806Y24653*
X40813Y24649*
X40821Y24645*
X40829Y24641*
X40837Y24638*
X40845Y24636*
X40853Y24634*
X40862Y24633*
X4087Y24633*
X40879*
X40887Y24633*
X40896Y24634*
X40904Y24636*
X40912Y24638*
X4092Y24641*
X40928Y24645*
X40936Y24649*
X40943Y24653*
X4095Y24658*
X40956Y24664*
X40962Y2467*
X40968Y24676*
X40973Y24683*
X40978Y2469*
X40982Y24697*
X40986Y24705*
X40989Y24713*
X40992Y24721*
X40994Y24729*
X40995Y24738*
X40996Y24746*
X40997Y24755*
X39947Y27315D02*
D01*
X39946Y27323*
X39945Y27331*
X39944Y2734*
X39942Y27348*
X39939Y27356*
X39936Y27364*
X39932Y27372*
X39928Y27379*
X39923Y27386*
X39918Y27393*
X39912Y27399*
X39906Y27405*
X399Y27411*
X39893Y27416*
X39886Y2742*
X39878Y27424*
X3987Y27428*
X39862Y27431*
X39854Y27433*
X39846Y27435*
X39837Y27436*
X39829Y27436*
X3982*
X39812Y27436*
X39803Y27435*
X39795Y27433*
X39787Y27431*
X39779Y27428*
X39771Y27424*
X39763Y2742*
X39756Y27416*
X39749Y27411*
X39743Y27405*
X39737Y27399*
X39731Y27393*
X39726Y27386*
X39721Y27379*
X39717Y27372*
X39713Y27364*
X3971Y27356*
X39707Y27348*
X39705Y2734*
X39704Y27331*
X39703Y27323*
X39702Y27315*
X39703Y27306*
X39704Y27298*
X39705Y27289*
X39707Y27281*
X3971Y27273*
X39713Y27265*
X39717Y27257*
X39721Y2725*
X39726Y27243*
X39731Y27236*
X39737Y2723*
X39743Y27224*
X39749Y27218*
X39756Y27213*
X39763Y27209*
X39771Y27205*
X39779Y27201*
X39787Y27198*
X39795Y27196*
X39803Y27194*
X39812Y27193*
X3982Y27193*
X39829*
X39837Y27193*
X39846Y27194*
X39854Y27196*
X39862Y27198*
X3987Y27201*
X39878Y27205*
X39886Y27209*
X39893Y27213*
X399Y27218*
X39906Y27224*
X39912Y2723*
X39918Y27236*
X39923Y27243*
X39928Y2725*
X39932Y27257*
X39936Y27265*
X39939Y27273*
X39942Y27281*
X39944Y27289*
X39945Y27298*
X39946Y27306*
X39947Y27315*
X40997Y26605D02*
D01*
X40996Y26613*
X40995Y26621*
X40994Y2663*
X40992Y26638*
X40989Y26646*
X40986Y26654*
X40982Y26662*
X40978Y26669*
X40973Y26676*
X40968Y26683*
X40962Y26689*
X40956Y26695*
X4095Y26701*
X40943Y26706*
X40936Y2671*
X40928Y26714*
X4092Y26718*
X40912Y26721*
X40904Y26723*
X40896Y26725*
X40887Y26726*
X40879Y26726*
X4087*
X40862Y26726*
X40853Y26725*
X40845Y26723*
X40837Y26721*
X40829Y26718*
X40821Y26714*
X40813Y2671*
X40806Y26706*
X40799Y26701*
X40793Y26695*
X40787Y26689*
X40781Y26683*
X40776Y26676*
X40771Y26669*
X40767Y26662*
X40763Y26654*
X4076Y26646*
X40757Y26638*
X40755Y2663*
X40754Y26621*
X40753Y26613*
X40752Y26605*
X40753Y26596*
X40754Y26588*
X40755Y26579*
X40757Y26571*
X4076Y26563*
X40763Y26555*
X40767Y26547*
X40771Y2654*
X40776Y26533*
X40781Y26526*
X40787Y2652*
X40793Y26514*
X40799Y26508*
X40806Y26503*
X40813Y26499*
X40821Y26495*
X40829Y26491*
X40837Y26488*
X40845Y26486*
X40853Y26484*
X40862Y26483*
X4087Y26483*
X40879*
X40887Y26483*
X40896Y26484*
X40904Y26486*
X40912Y26488*
X4092Y26491*
X40928Y26495*
X40936Y26499*
X40943Y26503*
X4095Y26508*
X40956Y26514*
X40962Y2652*
X40968Y26526*
X40973Y26533*
X40978Y2654*
X40982Y26547*
X40986Y26555*
X40989Y26563*
X40992Y26571*
X40994Y26579*
X40995Y26588*
X40996Y26596*
X40997Y26605*
X39947Y29165D02*
D01*
X39946Y29173*
X39945Y29181*
X39944Y2919*
X39942Y29198*
X39939Y29206*
X39936Y29214*
X39932Y29222*
X39928Y29229*
X39923Y29236*
X39918Y29243*
X39912Y29249*
X39906Y29255*
X399Y29261*
X39893Y29266*
X39886Y2927*
X39878Y29274*
X3987Y29278*
X39862Y29281*
X39854Y29283*
X39846Y29285*
X39837Y29286*
X39829Y29286*
X3982*
X39812Y29286*
X39803Y29285*
X39795Y29283*
X39787Y29281*
X39779Y29278*
X39771Y29274*
X39763Y2927*
X39756Y29266*
X39749Y29261*
X39743Y29255*
X39737Y29249*
X39731Y29243*
X39726Y29236*
X39721Y29229*
X39717Y29222*
X39713Y29214*
X3971Y29206*
X39707Y29198*
X39705Y2919*
X39704Y29181*
X39703Y29173*
X39702Y29165*
X39703Y29156*
X39704Y29148*
X39705Y29139*
X39707Y29131*
X3971Y29123*
X39713Y29115*
X39717Y29107*
X39721Y291*
X39726Y29093*
X39731Y29086*
X39737Y2908*
X39743Y29074*
X39749Y29068*
X39756Y29063*
X39763Y29059*
X39771Y29055*
X39779Y29051*
X39787Y29048*
X39795Y29046*
X39803Y29044*
X39812Y29043*
X3982Y29043*
X39829*
X39837Y29043*
X39846Y29044*
X39854Y29046*
X39862Y29048*
X3987Y29051*
X39878Y29055*
X39886Y29059*
X39893Y29063*
X399Y29068*
X39906Y29074*
X39912Y2908*
X39918Y29086*
X39923Y29093*
X39928Y291*
X39932Y29107*
X39936Y29115*
X39939Y29123*
X39942Y29131*
X39944Y29139*
X39945Y29148*
X39946Y29156*
X39947Y29165*
X40997Y28455D02*
D01*
X40996Y28463*
X40995Y28471*
X40994Y2848*
X40992Y28488*
X40989Y28496*
X40986Y28504*
X40982Y28512*
X40978Y28519*
X40973Y28526*
X40968Y28533*
X40962Y28539*
X40956Y28545*
X4095Y28551*
X40943Y28556*
X40936Y2856*
X40928Y28564*
X4092Y28568*
X40912Y28571*
X40904Y28573*
X40896Y28575*
X40887Y28576*
X40879Y28576*
X4087*
X40862Y28576*
X40853Y28575*
X40845Y28573*
X40837Y28571*
X40829Y28568*
X40821Y28564*
X40813Y2856*
X40806Y28556*
X40799Y28551*
X40793Y28545*
X40787Y28539*
X40781Y28533*
X40776Y28526*
X40771Y28519*
X40767Y28512*
X40763Y28504*
X4076Y28496*
X40757Y28488*
X40755Y2848*
X40754Y28471*
X40753Y28463*
X40752Y28455*
X40753Y28446*
X40754Y28438*
X40755Y28429*
X40757Y28421*
X4076Y28413*
X40763Y28405*
X40767Y28397*
X40771Y2839*
X40776Y28383*
X40781Y28376*
X40787Y2837*
X40793Y28364*
X40799Y28358*
X40806Y28353*
X40813Y28349*
X40821Y28345*
X40829Y28341*
X40837Y28338*
X40845Y28336*
X40853Y28334*
X40862Y28333*
X4087Y28333*
X40879*
X40887Y28333*
X40896Y28334*
X40904Y28336*
X40912Y28338*
X4092Y28341*
X40928Y28345*
X40936Y28349*
X40943Y28353*
X4095Y28358*
X40956Y28364*
X40962Y2837*
X40968Y28376*
X40973Y28383*
X40978Y2839*
X40982Y28397*
X40986Y28405*
X40989Y28413*
X40992Y28421*
X40994Y28429*
X40995Y28438*
X40996Y28446*
X40997Y28455*
X35022Y29925D02*
D01*
X35021Y29933*
X3502Y29941*
X35019Y2995*
X35017Y29958*
X35014Y29966*
X35011Y29974*
X35007Y29982*
X35003Y29989*
X34998Y29996*
X34993Y30003*
X34987Y30009*
X34981Y30015*
X34975Y30021*
X34968Y30026*
X34961Y3003*
X34953Y30034*
X34945Y30038*
X34937Y30041*
X34929Y30043*
X34921Y30045*
X34912Y30046*
X34904Y30046*
X34895*
X34887Y30046*
X34878Y30045*
X3487Y30043*
X34862Y30041*
X34854Y30038*
X34846Y30034*
X34838Y3003*
X34831Y30026*
X34824Y30021*
X34818Y30015*
X34812Y30009*
X34806Y30003*
X34801Y29996*
X34796Y29989*
X34792Y29982*
X34788Y29974*
X34785Y29966*
X34782Y29958*
X3478Y2995*
X34779Y29941*
X34778Y29933*
X34777Y29925*
X34778Y29916*
X34779Y29908*
X3478Y29899*
X34782Y29891*
X34785Y29883*
X34788Y29875*
X34792Y29867*
X34796Y2986*
X34801Y29853*
X34806Y29846*
X34812Y2984*
X34818Y29834*
X34824Y29828*
X34831Y29823*
X34838Y29819*
X34846Y29815*
X34854Y29811*
X34862Y29808*
X3487Y29806*
X34878Y29804*
X34887Y29803*
X34895Y29803*
X34904*
X34912Y29803*
X34921Y29804*
X34929Y29806*
X34937Y29808*
X34945Y29811*
X34953Y29815*
X34961Y29819*
X34968Y29823*
X34975Y29828*
X34981Y29834*
X34987Y2984*
X34993Y29846*
X34998Y29853*
X35003Y2986*
X35007Y29867*
X35011Y29875*
X35014Y29883*
X35017Y29891*
X35019Y29899*
X3502Y29908*
X35021Y29916*
X35022Y29925*
X34312Y28875D02*
D01*
X34311Y28883*
X3431Y28891*
X34309Y289*
X34307Y28908*
X34304Y28916*
X34301Y28924*
X34297Y28932*
X34293Y28939*
X34288Y28946*
X34283Y28953*
X34277Y28959*
X34271Y28965*
X34265Y28971*
X34258Y28976*
X34251Y2898*
X34243Y28984*
X34235Y28988*
X34227Y28991*
X34219Y28993*
X34211Y28995*
X34202Y28996*
X34194Y28996*
X34185*
X34177Y28996*
X34168Y28995*
X3416Y28993*
X34152Y28991*
X34144Y28988*
X34136Y28984*
X34128Y2898*
X34121Y28976*
X34114Y28971*
X34108Y28965*
X34102Y28959*
X34096Y28953*
X34091Y28946*
X34086Y28939*
X34082Y28932*
X34078Y28924*
X34075Y28916*
X34072Y28908*
X3407Y289*
X34069Y28891*
X34068Y28883*
X34067Y28875*
X34068Y28866*
X34069Y28858*
X3407Y28849*
X34072Y28841*
X34075Y28833*
X34078Y28825*
X34082Y28817*
X34086Y2881*
X34091Y28803*
X34096Y28796*
X34102Y2879*
X34108Y28784*
X34114Y28778*
X34121Y28773*
X34128Y28769*
X34136Y28765*
X34144Y28761*
X34152Y28758*
X3416Y28756*
X34168Y28754*
X34177Y28753*
X34185Y28753*
X34194*
X34202Y28753*
X34211Y28754*
X34219Y28756*
X34227Y28758*
X34235Y28761*
X34243Y28765*
X34251Y28769*
X34258Y28773*
X34265Y28778*
X34271Y28784*
X34277Y2879*
X34283Y28796*
X34288Y28803*
X34293Y2881*
X34297Y28817*
X34301Y28825*
X34304Y28833*
X34307Y28841*
X34309Y28849*
X3431Y28858*
X34311Y28866*
X34312Y28875*
X36872Y29925D02*
D01*
X36871Y29933*
X3687Y29941*
X36869Y2995*
X36867Y29958*
X36864Y29966*
X36861Y29974*
X36857Y29982*
X36853Y29989*
X36848Y29996*
X36843Y30003*
X36837Y30009*
X36831Y30015*
X36825Y30021*
X36818Y30026*
X36811Y3003*
X36803Y30034*
X36795Y30038*
X36787Y30041*
X36779Y30043*
X36771Y30045*
X36762Y30046*
X36754Y30046*
X36745*
X36737Y30046*
X36728Y30045*
X3672Y30043*
X36712Y30041*
X36704Y30038*
X36696Y30034*
X36688Y3003*
X36681Y30026*
X36674Y30021*
X36668Y30015*
X36662Y30009*
X36656Y30003*
X36651Y29996*
X36646Y29989*
X36642Y29982*
X36638Y29974*
X36635Y29966*
X36632Y29958*
X3663Y2995*
X36629Y29941*
X36628Y29933*
X36627Y29925*
X36628Y29916*
X36629Y29908*
X3663Y29899*
X36632Y29891*
X36635Y29883*
X36638Y29875*
X36642Y29867*
X36646Y2986*
X36651Y29853*
X36656Y29846*
X36662Y2984*
X36668Y29834*
X36674Y29828*
X36681Y29823*
X36688Y29819*
X36696Y29815*
X36704Y29811*
X36712Y29808*
X3672Y29806*
X36728Y29804*
X36737Y29803*
X36745Y29803*
X36754*
X36762Y29803*
X36771Y29804*
X36779Y29806*
X36787Y29808*
X36795Y29811*
X36803Y29815*
X36811Y29819*
X36818Y29823*
X36825Y29828*
X36831Y29834*
X36837Y2984*
X36843Y29846*
X36848Y29853*
X36853Y2986*
X36857Y29867*
X36861Y29875*
X36864Y29883*
X36867Y29891*
X36869Y29899*
X3687Y29908*
X36871Y29916*
X36872Y29925*
X36162Y28875D02*
D01*
X36161Y28883*
X3616Y28891*
X36159Y289*
X36157Y28908*
X36154Y28916*
X36151Y28924*
X36147Y28932*
X36143Y28939*
X36138Y28946*
X36133Y28953*
X36127Y28959*
X36121Y28965*
X36115Y28971*
X36108Y28976*
X36101Y2898*
X36093Y28984*
X36085Y28988*
X36077Y28991*
X36069Y28993*
X36061Y28995*
X36052Y28996*
X36044Y28996*
X36035*
X36027Y28996*
X36018Y28995*
X3601Y28993*
X36002Y28991*
X35994Y28988*
X35986Y28984*
X35978Y2898*
X35971Y28976*
X35964Y28971*
X35958Y28965*
X35952Y28959*
X35946Y28953*
X35941Y28946*
X35936Y28939*
X35932Y28932*
X35928Y28924*
X35925Y28916*
X35922Y28908*
X3592Y289*
X35919Y28891*
X35918Y28883*
X35917Y28875*
X35918Y28866*
X35919Y28858*
X3592Y28849*
X35922Y28841*
X35925Y28833*
X35928Y28825*
X35932Y28817*
X35936Y2881*
X35941Y28803*
X35946Y28796*
X35952Y2879*
X35958Y28784*
X35964Y28778*
X35971Y28773*
X35978Y28769*
X35986Y28765*
X35994Y28761*
X36002Y28758*
X3601Y28756*
X36018Y28754*
X36027Y28753*
X36035Y28753*
X36044*
X36052Y28753*
X36061Y28754*
X36069Y28756*
X36077Y28758*
X36085Y28761*
X36093Y28765*
X36101Y28769*
X36108Y28773*
X36115Y28778*
X36121Y28784*
X36127Y2879*
X36133Y28796*
X36138Y28803*
X36143Y2881*
X36147Y28817*
X36151Y28825*
X36154Y28833*
X36157Y28841*
X36159Y28849*
X3616Y28858*
X36161Y28866*
X36162Y28875*
X38722Y29925D02*
D01*
X38721Y29933*
X3872Y29941*
X38719Y2995*
X38717Y29958*
X38714Y29966*
X38711Y29974*
X38707Y29982*
X38703Y29989*
X38698Y29996*
X38693Y30003*
X38687Y30009*
X38681Y30015*
X38675Y30021*
X38668Y30026*
X38661Y3003*
X38653Y30034*
X38645Y30038*
X38637Y30041*
X38629Y30043*
X38621Y30045*
X38612Y30046*
X38604Y30046*
X38595*
X38587Y30046*
X38578Y30045*
X3857Y30043*
X38562Y30041*
X38554Y30038*
X38546Y30034*
X38538Y3003*
X38531Y30026*
X38524Y30021*
X38518Y30015*
X38512Y30009*
X38506Y30003*
X38501Y29996*
X38496Y29989*
X38492Y29982*
X38488Y29974*
X38485Y29966*
X38482Y29958*
X3848Y2995*
X38479Y29941*
X38478Y29933*
X38477Y29925*
X38478Y29916*
X38479Y29908*
X3848Y29899*
X38482Y29891*
X38485Y29883*
X38488Y29875*
X38492Y29867*
X38496Y2986*
X38501Y29853*
X38506Y29846*
X38512Y2984*
X38518Y29834*
X38524Y29828*
X38531Y29823*
X38538Y29819*
X38546Y29815*
X38554Y29811*
X38562Y29808*
X3857Y29806*
X38578Y29804*
X38587Y29803*
X38595Y29803*
X38604*
X38612Y29803*
X38621Y29804*
X38629Y29806*
X38637Y29808*
X38645Y29811*
X38653Y29815*
X38661Y29819*
X38668Y29823*
X38675Y29828*
X38681Y29834*
X38687Y2984*
X38693Y29846*
X38698Y29853*
X38703Y2986*
X38707Y29867*
X38711Y29875*
X38714Y29883*
X38717Y29891*
X38719Y29899*
X3872Y29908*
X38721Y29916*
X38722Y29925*
X38012Y28875D02*
D01*
X38011Y28883*
X3801Y28891*
X38009Y289*
X38007Y28908*
X38004Y28916*
X38001Y28924*
X37997Y28932*
X37993Y28939*
X37988Y28946*
X37983Y28953*
X37977Y28959*
X37971Y28965*
X37965Y28971*
X37958Y28976*
X37951Y2898*
X37943Y28984*
X37935Y28988*
X37927Y28991*
X37919Y28993*
X37911Y28995*
X37902Y28996*
X37894Y28996*
X37885*
X37877Y28996*
X37868Y28995*
X3786Y28993*
X37852Y28991*
X37844Y28988*
X37836Y28984*
X37828Y2898*
X37821Y28976*
X37814Y28971*
X37808Y28965*
X37802Y28959*
X37796Y28953*
X37791Y28946*
X37786Y28939*
X37782Y28932*
X37778Y28924*
X37775Y28916*
X37772Y28908*
X3777Y289*
X37769Y28891*
X37768Y28883*
X37767Y28875*
X37768Y28866*
X37769Y28858*
X3777Y28849*
X37772Y28841*
X37775Y28833*
X37778Y28825*
X37782Y28817*
X37786Y2881*
X37791Y28803*
X37796Y28796*
X37802Y2879*
X37808Y28784*
X37814Y28778*
X37821Y28773*
X37828Y28769*
X37836Y28765*
X37844Y28761*
X37852Y28758*
X3786Y28756*
X37868Y28754*
X37877Y28753*
X37885Y28753*
X37894*
X37902Y28753*
X37911Y28754*
X37919Y28756*
X37927Y28758*
X37935Y28761*
X37943Y28765*
X37951Y28769*
X37958Y28773*
X37965Y28778*
X37971Y28784*
X37977Y2879*
X37983Y28796*
X37988Y28803*
X37993Y2881*
X37997Y28817*
X38001Y28825*
X38004Y28833*
X38007Y28841*
X38009Y28849*
X3801Y28858*
X38011Y28866*
X38012Y28875*
X34365Y24637D02*
Y24712D01*
X34304Y24637D02*
Y24712D01*
X35127Y24854D02*
X35202D01*
X35127Y24915D02*
X35202D01*
X34827Y25907D02*
Y26162D01*
Y25907D02*
X35051D01*
X35082Y25938*
Y26131*
X35051Y26162D02*
X35082Y26131D01*
X34827Y26162D02*
X35051D01*
X34117Y24857D02*
Y25112D01*
Y24857D02*
X34341D01*
X34372Y24888*
Y25081*
X34341Y25112D02*
X34372Y25081D01*
X34117Y25112D02*
X34341D01*
X36215Y24637D02*
Y24712D01*
X36154Y24637D02*
Y24712D01*
X36977Y24854D02*
X37052D01*
X36977Y24915D02*
X37052D01*
X36677Y25907D02*
Y26162D01*
Y25907D02*
X36901D01*
X36932Y25938*
Y26131*
X36901Y26162D02*
X36932Y26131D01*
X36677Y26162D02*
X36901D01*
X35967Y24857D02*
Y25112D01*
Y24857D02*
X36191D01*
X36222Y24888*
Y25081*
X36191Y25112D02*
X36222Y25081D01*
X35967Y25112D02*
X36191D01*
X38065Y24637D02*
Y24712D01*
X38004Y24637D02*
Y24712D01*
X38827Y24854D02*
X38902D01*
X38827Y24915D02*
X38902D01*
X38527Y25907D02*
Y26162D01*
Y25907D02*
X38751D01*
X38782Y25938*
Y26131*
X38751Y26162D02*
X38782Y26131D01*
X38527Y26162D02*
X38751D01*
X37817Y24857D02*
Y25112D01*
Y24857D02*
X38041D01*
X38072Y24888*
Y25081*
X38041Y25112D02*
X38072Y25081D01*
X37817Y25112D02*
X38041D01*
X3433Y26602D02*
Y26677D01*
X34269Y26602D02*
Y26677D01*
X35092Y26819D02*
X35167D01*
X35092Y2688D02*
X35167D01*
X34792Y27872D02*
Y28127D01*
Y27872D02*
X35016D01*
X35047Y27903*
Y28096*
X35016Y28127D02*
X35047Y28096D01*
X34792Y28127D02*
X35016D01*
X34082Y26822D02*
Y27077D01*
Y26822D02*
X34306D01*
X34337Y26853*
Y27046*
X34306Y27077D02*
X34337Y27046D01*
X34082Y27077D02*
X34306D01*
X3618Y26602D02*
Y26677D01*
X36119Y26602D02*
Y26677D01*
X36942Y26819D02*
X37017D01*
X36942Y2688D02*
X37017D01*
X36642Y27872D02*
Y28127D01*
Y27872D02*
X36866D01*
X36897Y27903*
Y28096*
X36866Y28127D02*
X36897Y28096D01*
X36642Y28127D02*
X36866D01*
X35932Y26822D02*
Y27077D01*
Y26822D02*
X36156D01*
X36187Y26853*
Y27046*
X36156Y27077D02*
X36187Y27046D01*
X35932Y27077D02*
X36156D01*
X3803Y26602D02*
Y26677D01*
X37969Y26602D02*
Y26677D01*
X38792Y26819D02*
X38867D01*
X38792Y2688D02*
X38867D01*
X38492Y27872D02*
Y28127D01*
Y27872D02*
X38716D01*
X38747Y27903*
Y28096*
X38716Y28127D02*
X38747Y28096D01*
X38492Y28127D02*
X38716D01*
X37782Y26822D02*
Y27077D01*
Y26822D02*
X38006D01*
X38037Y26853*
Y27046*
X38006Y27077D02*
X38037Y27046D01*
X37782Y27077D02*
X38006D01*
X41147Y24875D02*
X41222D01*
X41147Y24814D02*
X41222D01*
X41005Y25637D02*
Y25712D01*
X40944Y25637D02*
Y25712D01*
X39697Y25337D02*
X39952D01*
Y25561*
X39921Y25592D02*
X39952Y25561D01*
X39728Y25592D02*
X39921D01*
X39697Y25561D02*
X39728Y25592D01*
X39697Y25337D02*
Y25561D01*
X40747Y24627D02*
X41002D01*
Y24851*
X40971Y24882D02*
X41002Y24851D01*
X40778Y24882D02*
X40971D01*
X40747Y24851D02*
X40778Y24882D01*
X40747Y24627D02*
Y24851D01*
X41147Y26725D02*
X41222D01*
X41147Y26664D02*
X41222D01*
X41005Y27487D02*
Y27562D01*
X40944Y27487D02*
Y27562D01*
X39697Y27187D02*
X39952D01*
Y27411*
X39921Y27442D02*
X39952Y27411D01*
X39728Y27442D02*
X39921D01*
X39697Y27411D02*
X39728Y27442D01*
X39697Y27187D02*
Y27411D01*
X40747Y26477D02*
X41002D01*
Y26701*
X40971Y26732D02*
X41002Y26701D01*
X40778Y26732D02*
X40971D01*
X40747Y26701D02*
X40778Y26732D01*
X40747Y26477D02*
Y26701D01*
X41147Y28575D02*
X41222D01*
X41147Y28514D02*
X41222D01*
X41005Y29337D02*
Y29412D01*
X40944Y29337D02*
Y29412D01*
X39697Y29037D02*
X39952D01*
Y29261*
X39921Y29292D02*
X39952Y29261D01*
X39728Y29292D02*
X39921D01*
X39697Y29261D02*
X39728Y29292D01*
X39697Y29037D02*
Y29261D01*
X40747Y28327D02*
X41002D01*
Y28551*
X40971Y28582D02*
X41002Y28551D01*
X40778Y28582D02*
X40971D01*
X40747Y28551D02*
X40778Y28582D01*
X40747Y28327D02*
Y28551D01*
X3431Y28527D02*
Y28602D01*
X34249Y28527D02*
Y28602D01*
X35072Y28744D02*
X35147D01*
X35072Y28805D02*
X35147D01*
X34772Y29797D02*
Y30052D01*
Y29797D02*
X34996D01*
X35027Y29828*
Y30021*
X34996Y30052D02*
X35027Y30021D01*
X34772Y30052D02*
X34996D01*
X34062Y28747D02*
Y29002D01*
Y28747D02*
X34286D01*
X34317Y28778*
Y28971*
X34286Y29002D02*
X34317Y28971D01*
X34062Y29002D02*
X34286D01*
X3616Y28527D02*
Y28602D01*
X36099Y28527D02*
Y28602D01*
X36922Y28744D02*
X36997D01*
X36922Y28805D02*
X36997D01*
X36622Y29797D02*
Y30052D01*
Y29797D02*
X36846D01*
X36877Y29828*
Y30021*
X36846Y30052D02*
X36877Y30021D01*
X36622Y30052D02*
X36846D01*
X35912Y28747D02*
Y29002D01*
Y28747D02*
X36136D01*
X36167Y28778*
Y28971*
X36136Y29002D02*
X36167Y28971D01*
X35912Y29002D02*
X36136D01*
X3801Y28527D02*
Y28602D01*
X37949Y28527D02*
Y28602D01*
X38772Y28744D02*
X38847D01*
X38772Y28805D02*
X38847D01*
X38472Y29797D02*
Y30052D01*
Y29797D02*
X38696D01*
X38727Y29828*
Y30021*
X38696Y30052D02*
X38727Y30021D01*
X38472Y30052D02*
X38696D01*
X37762Y28747D02*
Y29002D01*
Y28747D02*
X37986D01*
X38017Y28778*
Y28971*
X37986Y29002D02*
X38017Y28971D01*
X37762Y29002D02*
X37986D01*
G54D118*
X3456Y2489D02*
X34749D01*
X3456Y2476D02*
X34749D01*
Y2489*
Y24909*
X3456D02*
X34749D01*
X3456Y2489D02*
Y24909D01*
Y2476D02*
Y2489D01*
X3641D02*
X36599D01*
X3641Y2476D02*
X36599D01*
Y2489*
Y24909*
X3641D02*
X36599D01*
X3641Y2489D02*
Y24909D01*
Y2476D02*
Y2489D01*
X3826D02*
X38449D01*
X3826Y2476D02*
X38449D01*
Y2489*
Y24909*
X3826D02*
X38449D01*
X3826Y2489D02*
Y24909D01*
Y2476D02*
Y2489D01*
X34525Y26855D02*
X34714D01*
X34525Y26725D02*
X34714D01*
Y26855*
Y26874*
X34525D02*
X34714D01*
X34525Y26855D02*
Y26874D01*
Y26725D02*
Y26855D01*
X36375D02*
X36564D01*
X36375Y26725D02*
X36564D01*
Y26855*
Y26874*
X36375D02*
X36564D01*
X36375Y26855D02*
Y26874D01*
Y26725D02*
Y26855D01*
X38225D02*
X38414D01*
X38225Y26725D02*
X38414D01*
Y26855*
Y26874*
X38225D02*
X38414D01*
X38225Y26855D02*
Y26874D01*
Y26725D02*
Y26855D01*
X40969Y2507D02*
Y25259D01*
X41099Y2507D02*
Y25259D01*
X40969D02*
X41099D01*
X4095D02*
X40969D01*
X4095Y2507D02*
Y25259D01*
Y2507D02*
X40969D01*
X41099*
X40969Y2692D02*
Y27109D01*
X41099Y2692D02*
Y27109D01*
X40969D02*
X41099D01*
X4095D02*
X40969D01*
X4095Y2692D02*
Y27109D01*
Y2692D02*
X40969D01*
X41099*
X40969Y2877D02*
Y28959D01*
X41099Y2877D02*
Y28959D01*
X40969D02*
X41099D01*
X4095D02*
X40969D01*
X4095Y2877D02*
Y28959D01*
Y2877D02*
X40969D01*
X41099*
X34795Y24035D02*
X34845D01*
X34505Y2878D02*
X34694D01*
X34505Y2865D02*
X34694D01*
Y2878*
Y28799*
X34505D02*
X34694D01*
X34505Y2878D02*
Y28799D01*
Y2865D02*
Y2878D01*
X36355D02*
X36544D01*
X36355Y2865D02*
X36544D01*
Y2878*
Y28799*
X36355D02*
X36544D01*
X36355Y2878D02*
Y28799D01*
Y2865D02*
Y2878D01*
X38205D02*
X38394D01*
X38205Y2865D02*
X38394D01*
Y2878*
Y28799*
X38205D02*
X38394D01*
X38205Y2878D02*
Y28799D01*
Y2865D02*
Y2878D01*
G54D119*
X3597Y23555D02*
Y24155D01*
X3587D02*
X3597D01*
X3587Y23555D02*
Y24155D01*
Y23555D02*
X3597D01*
X3587Y22655D02*
Y23455D01*
X3597*
Y22655D02*
Y23455D01*
X3587Y22655D02*
X3597D01*
X3397Y22305D02*
Y23305D01*
Y22305D02*
X3407D01*
Y23305*
X3397D02*
X3407D01*
X3397Y23355D02*
Y24155D01*
Y23355D02*
X3407D01*
Y24155*
X3397D02*
X3407D01*
G54D120*
X40119Y231D02*
D01*
X40119Y23101*
X40119Y23103*
X40119Y23105*
X40118Y23107*
X40118Y23108*
X40117Y2311*
X40116Y23111*
X40116Y23113*
X40115Y23114*
X40114Y23116*
X40112Y23117*
X40111Y23118*
X4011Y23119*
X40108Y2312*
X40107Y23121*
X40105Y23122*
X40104Y23123*
X40102Y23123*
X401Y23124*
X40099Y23124*
X40097Y23125*
X40095Y23125*
X40093*
X40092Y23125*
X4009Y23124*
X40088Y23124*
X40087Y23123*
X40085Y23123*
X40083Y23122*
X40082Y23121*
X4008Y2312*
X40079Y23119*
X40078Y23118*
X40076Y23117*
X40075Y23116*
X40074Y23114*
X40073Y23113*
X40072Y23111*
X40072Y2311*
X40071Y23108*
X4007Y23107*
X4007Y23105*
X4007Y23103*
X40069Y23101*
X40069Y231*
X40069Y23098*
X4007Y23096*
X4007Y23095*
X4007Y23093*
X40071Y23091*
X40072Y2309*
X40072Y23088*
X40073Y23086*
X40074Y23085*
X40075Y23084*
X40076Y23082*
X40078Y23081*
X40079Y2308*
X4008Y23079*
X40082Y23078*
X40083Y23077*
X40085Y23077*
X40087Y23076*
X40088Y23075*
X4009Y23075*
X40092Y23075*
X40093Y23075*
X40095*
X40097Y23075*
X40099Y23075*
X401Y23075*
X40102Y23076*
X40104Y23077*
X40105Y23077*
X40107Y23078*
X40108Y23079*
X4011Y2308*
X40111Y23081*
X40112Y23082*
X40114Y23084*
X40115Y23085*
X40116Y23086*
X40116Y23088*
X40117Y2309*
X40118Y23091*
X40118Y23093*
X40119Y23095*
X40119Y23096*
X40119Y23098*
X40119Y231*
X40044Y2305D02*
X40144D01*
X40044D02*
Y2315D01*
X40144*
Y2305D02*
Y2315D01*
G54D123*
X35595Y2157D02*
Y21586D01*
X35603*
X35606Y21584*
Y21578*
X35603Y21575*
X35595*
X3562Y21586D02*
X35614D01*
X35612Y21584*
Y21572*
X35614Y2157*
X3562*
X35623Y21572*
Y21584*
X3562Y21586*
X35628D02*
Y2157D01*
X35634Y21575*
X3564Y2157*
Y21586*
X35657D02*
X35645D01*
Y2157*
X35657*
X35645Y21578D02*
X35651D01*
X35662Y2157D02*
Y21586D01*
X35671*
X35674Y21584*
Y21578*
X35671Y21575*
X35662*
X35668D02*
X35674Y2157D01*
X35708Y21586D02*
X35702D01*
X35705*
Y21572*
X35702Y2157*
X35699*
X35696Y21572*
X35713Y2157D02*
Y21581D01*
X35719Y21586*
X35725Y21581*
Y2157*
Y21578*
X35713*
X35742Y21584D02*
X35739Y21586D01*
X35733*
X3573Y21584*
Y21572*
X35733Y2157*
X35739*
X35742Y21572*
X35747Y21586D02*
Y2157D01*
Y21575*
X35759Y21586*
X3575Y21578*
X35759Y2157*
X34495Y21387D02*
Y21372D01*
X34497Y2137*
X34503*
X34506Y21372*
Y21387*
X34523Y21384D02*
X3452Y21387D01*
X34514*
X34511Y21384*
Y21381*
X34514Y21378*
X3452*
X34523Y21375*
Y21372*
X3452Y2137*
X34514*
X34511Y21372*
X34528Y21387D02*
Y2137D01*
X34537*
X3454Y21372*
Y21375*
X34537Y21378*
X34528*
X34537*
X3454Y21381*
Y21384*
X34537Y21387*
X34528*
X349Y24161D02*
X34905D01*
X34902*
Y24145*
X349*
X34905*
X34925Y24159D02*
X34922Y24161D01*
X34917*
X34914Y24159*
Y24156*
X34917Y24153*
X34922*
X34925Y2415*
Y24147*
X34922Y24145*
X34917*
X34914Y24147*
X34931Y24145D02*
Y24161D01*
X34939*
X34942Y24159*
Y24153*
X34939Y2415*
X34931*
X34995Y2402D02*
Y24036D01*
X35003*
X35006Y24034*
Y24028*
X35003Y24025*
X34995*
X35D02*
X35006Y2402D01*
X35023Y24034D02*
X3502Y24036D01*
X35014*
X35011Y24034*
Y24031*
X35014Y24028*
X3502*
X35023Y24025*
Y24022*
X3502Y2402*
X35014*
X35011Y24022*
X35028Y24036D02*
X3504D01*
X35034*
Y2402*
M02*