%FSTAX23Y23*%
%MOIN*%
%SFA1B1*%

%IPPOS*%
%LNmergedpcbs-1*%
%LPD*%
G36*
X34226Y22005D02*
X34226Y22005D01*
X34226Y22004*
X34226Y22004*
X34227Y22003*
X34227Y22002*
X34228Y22002*
X34228Y22001*
X34229Y22*
X3423Y21999*
X3423Y21997*
X34231Y21996*
X34232Y21994*
X34233Y21992*
X34233Y21991*
Y21991*
X34233Y21991*
X34233Y21991*
X34233Y2199*
X34234Y2199*
X34234Y21989*
X34234Y21988*
X34234Y21987*
X34234Y21987*
X34234Y21986*
X34235Y21985*
X34235Y21984*
X34235Y21981*
X34235Y21979*
Y21979*
Y21979*
Y21978*
X34235Y21978*
Y21977*
X34235Y21976*
X34235Y21975*
X34235Y21974*
X34235Y21973*
X34234Y21972*
X34234Y2197*
X34234Y21969*
X34233Y21967*
X34233Y21966*
X34232Y21965*
X34232Y21965*
X34232Y21964*
X34232Y21964*
X34232Y21964*
X34232Y21963*
X34231Y21962*
X34231Y21962*
X3423Y21961*
X3423Y2196*
X34229Y21959*
X34228Y21957*
X34227Y21955*
X34226Y21953*
X34222*
Y21953*
X34222Y21953*
X34222Y21953*
X34222Y21953*
X34223Y21954*
X34223Y21954*
X34223Y21955*
X34223Y21955*
X34224Y21956*
X34225Y21958*
X34225Y21959*
X34226Y21961*
X34227Y21963*
X34228Y21965*
X34228Y21967*
X34229Y21969*
X34229Y21972*
X3423Y21974*
X3423Y21976*
X3423Y21979*
Y21979*
Y21979*
Y21979*
Y2198*
X3423Y2198*
Y21981*
X3423Y21981*
X3423Y21982*
X3423Y21983*
X3423Y21984*
X3423Y21985*
X34229Y21987*
X34229Y21989*
Y21989*
X34229Y21989*
X34229Y21989*
X34229Y2199*
X34229Y2199*
X34229Y2199*
X34228Y21991*
X34228Y21993*
X34227Y21994*
X34227Y21995*
X34226Y21997*
Y21997*
X34226Y21997*
X34226Y21997*
X34226Y21997*
X34226Y21998*
X34226Y21998*
X34226Y21998*
X34225Y21999*
X34225Y21999*
X34225Y22*
X34224Y22*
X34224Y22001*
X34224Y22002*
X34223Y22003*
X34223Y22004*
X34222Y22005*
X34226*
X34226Y22005*
G37*
G36*
X34149D02*
X34149Y22005D01*
X34148Y22004*
X34148Y22004*
X34148Y22004*
X34148Y22003*
X34147Y22002*
X34146Y22*
X34146Y21999*
X34145Y21998*
X34145Y21997*
X34144Y21997*
Y21997*
X34144Y21997*
X34144Y21996*
X34144Y21996*
X34144Y21996*
X34144Y21995*
X34144Y21995*
X34143Y21994*
X34143Y21993*
X34143Y21992*
X34142Y21991*
X34142Y21989*
Y21989*
X34142Y21989*
X34142Y21988*
X34142Y21988*
X34141Y21988*
X34141Y21987*
X34141Y21987*
X34141Y21986*
X34141Y21985*
X34141Y21984*
X34141Y21983*
X34141Y21981*
X34141Y21979*
Y21979*
Y21979*
Y21979*
Y21978*
X34141Y21978*
Y21978*
X34141Y21977*
Y21977*
X34141Y21975*
X34141Y21974*
X34141Y21972*
X34142Y21971*
X34142Y21969*
X34143Y21967*
X34143Y21965*
X34144Y21962*
X34145Y2196*
X34146Y21958*
X34147Y21955*
X34149Y21953*
X34145*
X34145Y21953*
X34145Y21953*
X34145Y21953*
X34145Y21954*
X34144Y21954*
X34144Y21955*
X34143Y21955*
X34143Y21956*
X34142Y21957*
X34142Y21958*
X34141Y21959*
X34141Y2196*
X3414Y21961*
X34139Y21962*
X34138Y21965*
X34138Y21965*
X34138Y21965*
X34138Y21965*
X34138Y21966*
X34138Y21967*
X34138Y21967*
X34137Y21968*
X34137Y21969*
X34137Y2197*
X34137Y21971*
X34136Y21972*
X34136Y21974*
X34136Y21976*
X34136Y21977*
X34136Y21979*
Y21979*
Y21979*
Y21979*
X34136Y2198*
Y21981*
X34136Y21981*
X34136Y21982*
X34136Y21983*
X34136Y21984*
X34136Y21985*
X34137Y21987*
X34137Y21989*
X34138Y21991*
X34138Y21991*
X34138Y21991*
X34138Y21992*
X34138Y21992*
X34138Y21993*
X34139Y21994*
X34139Y21995*
X3414Y21996*
X3414Y21996*
X34141Y21998*
X34141Y21999*
X34142Y22*
X34143Y22001*
X34143Y22002*
X34144Y22004*
X34145Y22005*
X34149*
X34149Y22005*
G37*
G36*
X35649Y22205D02*
X3565Y22205D01*
X3565Y22205*
X35651Y22205*
X35652Y22205*
X35653Y22204*
X35655Y22204*
X35656Y22203*
X35657Y22203*
X35657Y22202*
X35658Y22202*
X35658Y22202*
X35658Y22202*
X35659Y22202*
X35659Y22201*
X35659Y22201*
X3566Y22201*
X3566Y222*
X35661Y222*
X35661Y22199*
X35661Y22198*
X35662Y22198*
X35662Y22197*
X35663Y22196*
X35663Y22195*
X35664Y22194*
X35664Y22193*
X35659Y22192*
Y22192*
X35659Y22192*
X35659Y22193*
X35658Y22193*
X35658Y22193*
X35658Y22194*
X35658Y22195*
X35657Y22196*
X35656Y22197*
X35656Y22198*
X35655Y22198*
X35655Y22199*
X35654Y22199*
X35654Y22199*
X35653Y22199*
X35652Y222*
X35651Y222*
X3565Y222*
X35648Y222*
X35648*
X35647Y222*
X35647*
X35646Y222*
X35645Y222*
X35644Y222*
X35643Y222*
X35642Y22199*
X3564Y22198*
X3564*
X3564Y22198*
X3564Y22198*
X35639Y22197*
X35639Y22197*
X35638Y22196*
X35637Y22195*
X35637Y22194*
X35636Y22192*
Y22192*
X35636Y22192*
X35636Y22192*
X35636Y22192*
X35636Y22191*
X35636Y22191*
X35636Y2219*
X35635Y22189*
X35635Y22188*
X35635Y22186*
X35635Y22185*
Y22185*
Y22184*
Y22184*
Y22184*
X35635Y22183*
Y22183*
X35635Y22182*
X35635Y22182*
X35635Y2218*
X35636Y22179*
X35636Y22177*
X35636Y22176*
Y22176*
X35636Y22176*
X35637Y22175*
X35637Y22175*
X35637Y22174*
X35637Y22174*
X35638Y22173*
X35639Y22172*
X3564Y22171*
X35641Y2217*
X35641*
X35641Y2217*
X35641Y2217*
X35642Y2217*
X35642Y2217*
X35642Y2217*
X35643Y22169*
X35644Y22169*
X35645Y22169*
X35646Y22168*
X35648Y22168*
X35648*
X35648Y22168*
X35649*
X35649Y22168*
X3565Y22169*
X35651Y22169*
X35653Y22169*
X35654Y2217*
X35655Y2217*
X35655Y22171*
X35655Y22171*
X35655Y22171*
X35655Y22171*
X35656Y22171*
X35656Y22172*
X35656Y22172*
X35657Y22172*
X35657Y22173*
X35657Y22173*
X35658Y22174*
X35658Y22174*
X35658Y22175*
X35659Y22176*
X35659Y22177*
X35659Y22177*
X35659Y22178*
X35665Y22177*
Y22177*
X35665Y22177*
X35664Y22176*
X35664Y22176*
X35664Y22175*
X35664Y22175*
X35664Y22174*
X35663Y22173*
X35662Y22172*
X35661Y2217*
X35661Y22169*
X3566Y22169*
X35659Y22168*
X35659Y22167*
X35659Y22167*
X35658Y22167*
X35658Y22167*
X35658Y22167*
X35657Y22166*
X35657Y22166*
X35656Y22166*
X35656Y22166*
X35655Y22165*
X35654Y22165*
X35653Y22165*
X35652Y22164*
X35651Y22164*
X3565Y22164*
X35649Y22164*
X35648Y22164*
X35648*
X35647Y22164*
X35647*
X35646Y22164*
X35645Y22164*
X35644Y22164*
X35643Y22164*
X35641Y22165*
X35639Y22166*
X35639Y22166*
X35638Y22166*
X35638Y22166*
X35638Y22167*
X35637Y22167*
X35637Y22167*
X35637Y22167*
X35636Y22167*
X35636Y22168*
X35635Y22168*
X35635Y22169*
X35634Y22169*
X35633Y22171*
X35632Y22172*
X35632Y22174*
Y22174*
X35631Y22174*
X35631Y22174*
X35631Y22175*
X35631Y22175*
X35631Y22176*
X35631Y22177*
X35631Y22177*
X3563Y22178*
X3563Y22179*
X3563Y22181*
X3563Y22183*
X3563Y22185*
Y22185*
Y22185*
Y22185*
X3563Y22186*
Y22186*
X3563Y22187*
X3563Y22188*
X3563Y22188*
X3563Y2219*
X3563Y22192*
X35631Y22194*
X35632Y22195*
X35632Y22196*
X35632Y22196*
X35632Y22196*
X35632Y22196*
X35633Y22197*
X35633Y22197*
X35634Y22198*
X35635Y22199*
X35636Y222*
X35637Y22202*
X35639Y22203*
X35639Y22203*
X35639Y22203*
X35639Y22203*
X35639Y22203*
X3564Y22203*
X3564Y22203*
X35641Y22203*
X35641Y22204*
X35642Y22204*
X35643Y22204*
X35644Y22205*
X35646Y22205*
X35648Y22205*
X35649*
X35649Y22205*
G37*
G36*
X34099Y22005D02*
X341Y22005D01*
X341Y22005*
X34101Y22005*
X34102Y22005*
X34103Y22004*
X34105Y22004*
X34106Y22003*
X34107Y22003*
X34107Y22002*
X34108Y22002*
X34108Y22002*
X34108Y22002*
X34109Y22002*
X34109Y22001*
X34109Y22001*
X3411Y22001*
X3411Y22*
X34111Y22*
X34111Y21999*
X34111Y21998*
X34112Y21998*
X34112Y21997*
X34113Y21996*
X34113Y21995*
X34114Y21994*
X34114Y21993*
X34109Y21992*
Y21992*
X34109Y21992*
X34109Y21993*
X34108Y21993*
X34108Y21993*
X34108Y21994*
X34108Y21995*
X34107Y21996*
X34106Y21997*
X34106Y21998*
X34105Y21998*
X34105Y21999*
X34104Y21999*
X34104Y21999*
X34103Y21999*
X34102Y22*
X34101Y22*
X341Y22*
X34098Y22*
X34098*
X34097Y22*
X34097*
X34096Y22*
X34095Y22*
X34094Y22*
X34093Y22*
X34092Y21999*
X3409Y21998*
X3409*
X3409Y21998*
X3409Y21998*
X34089Y21997*
X34089Y21997*
X34088Y21996*
X34087Y21995*
X34087Y21994*
X34086Y21992*
Y21992*
X34086Y21992*
X34086Y21992*
X34086Y21992*
X34086Y21991*
X34086Y21991*
X34086Y2199*
X34085Y21989*
X34085Y21988*
X34085Y21986*
X34085Y21985*
Y21985*
Y21984*
Y21984*
Y21984*
X34085Y21983*
Y21983*
X34085Y21982*
X34085Y21982*
X34085Y2198*
X34086Y21979*
X34086Y21977*
X34086Y21976*
Y21976*
X34086Y21976*
X34087Y21975*
X34087Y21975*
X34087Y21974*
X34087Y21974*
X34088Y21973*
X34089Y21972*
X3409Y21971*
X34091Y2197*
X34091*
X34091Y2197*
X34091Y2197*
X34092Y2197*
X34092Y2197*
X34092Y2197*
X34093Y21969*
X34094Y21969*
X34095Y21969*
X34096Y21968*
X34098Y21968*
X34098*
X34098Y21968*
X34099*
X34099Y21968*
X341Y21969*
X34101Y21969*
X34103Y21969*
X34104Y2197*
X34105Y2197*
X34105Y21971*
X34105Y21971*
X34105Y21971*
X34105Y21971*
X34106Y21971*
X34106Y21972*
X34106Y21972*
X34107Y21972*
X34107Y21973*
X34107Y21973*
X34108Y21974*
X34108Y21974*
X34108Y21975*
X34109Y21976*
X34109Y21977*
X34109Y21977*
X34109Y21978*
X34115Y21977*
Y21977*
X34115Y21977*
X34114Y21976*
X34114Y21976*
X34114Y21975*
X34114Y21975*
X34114Y21974*
X34113Y21973*
X34112Y21972*
X34111Y2197*
X34111Y21969*
X3411Y21969*
X34109Y21968*
X34109Y21967*
X34109Y21967*
X34108Y21967*
X34108Y21967*
X34108Y21967*
X34107Y21966*
X34107Y21966*
X34106Y21966*
X34106Y21966*
X34105Y21965*
X34104Y21965*
X34103Y21965*
X34102Y21964*
X34101Y21964*
X341Y21964*
X34099Y21964*
X34098Y21964*
X34098*
X34097Y21964*
X34097*
X34096Y21964*
X34095Y21964*
X34094Y21964*
X34093Y21964*
X34091Y21965*
X34089Y21966*
X34089Y21966*
X34088Y21966*
X34088Y21966*
X34088Y21967*
X34087Y21967*
X34087Y21967*
X34087Y21967*
X34086Y21967*
X34086Y21968*
X34085Y21968*
X34085Y21969*
X34084Y21969*
X34083Y21971*
X34082Y21972*
X34082Y21974*
Y21974*
X34081Y21974*
X34081Y21974*
X34081Y21975*
X34081Y21975*
X34081Y21976*
X34081Y21977*
X34081Y21977*
X3408Y21978*
X3408Y21979*
X3408Y21981*
X3408Y21983*
X3408Y21985*
Y21985*
Y21985*
Y21985*
X3408Y21986*
Y21986*
X3408Y21987*
X3408Y21988*
X3408Y21988*
X3408Y2199*
X3408Y21992*
X34081Y21994*
X34082Y21995*
X34082Y21996*
X34082Y21996*
X34082Y21996*
X34082Y21996*
X34083Y21997*
X34083Y21997*
X34084Y21998*
X34085Y21999*
X34086Y22*
X34087Y22002*
X34089Y22003*
X34089Y22003*
X34089Y22003*
X34089Y22003*
X34089Y22003*
X3409Y22003*
X3409Y22003*
X34091Y22003*
X34091Y22004*
X34092Y22004*
X34093Y22004*
X34094Y22005*
X34096Y22005*
X34098Y22005*
X34099*
X34099Y22005*
G37*
G36*
X34203Y21965D02*
X34197D01*
X34182Y22004*
X34188*
X34198Y21975*
Y21975*
X34198Y21975*
X34198Y21975*
X34198Y21975*
X34198Y21974*
X34198Y21974*
X34199Y21973*
X34199Y21972*
X34199Y21971*
X342Y21969*
Y21969*
X342Y21969*
X342Y21969*
X342Y21969*
X342Y2197*
X34201Y21971*
X34201Y21972*
X34201Y21973*
X34202Y21974*
X34202Y21975*
X34213Y22004*
X34218*
X34203Y21965*
G37*
G36*
X34177Y21999D02*
X34162D01*
X34159Y21988*
X3416Y21988*
X3416Y21988*
X3416Y21989*
X3416Y21989*
X3416Y21989*
X34161Y21989*
X34162Y2199*
X34163Y2199*
X34164Y2199*
X34166Y21991*
X34166Y21991*
X34168*
X34168Y21991*
X34168Y21991*
X34169Y21991*
X34169Y21991*
X3417Y2199*
X34171Y2199*
X34172Y2199*
X34173Y21989*
X34174Y21989*
X34174Y21988*
X34175Y21988*
X34176Y21987*
X34176Y21987*
X34176Y21987*
X34176Y21987*
X34176Y21987*
X34177Y21986*
X34177Y21986*
X34177Y21985*
X34178Y21985*
X34178Y21984*
X34178Y21983*
X34179Y21983*
X34179Y21982*
X34179Y21981*
X34179Y2198*
X34179Y21979*
X34179Y21978*
Y21978*
Y21978*
Y21977*
X34179Y21977*
X34179Y21977*
X34179Y21976*
X34179Y21975*
X34179Y21975*
X34179Y21973*
X34178Y21972*
X34178Y21971*
X34177Y2197*
X34177Y21969*
X34176Y21969*
X34176Y21969*
X34176Y21968*
X34176Y21968*
X34176Y21968*
X34175Y21968*
X34175Y21967*
X34174Y21967*
X34173Y21966*
X34173Y21966*
X34172Y21965*
X34171Y21965*
X3417Y21965*
X34169Y21964*
X34168Y21964*
X34167Y21964*
X34166Y21964*
X34165*
X34165Y21964*
X34164Y21964*
X34164Y21964*
X34163Y21964*
X34163Y21964*
X34161Y21965*
X3416Y21965*
X34159Y21965*
X34158Y21966*
X34158Y21966*
X34157Y21967*
X34157Y21967*
X34157Y21967*
X34157Y21967*
X34156Y21967*
X34156Y21968*
X34156Y21968*
X34155Y21968*
X34155Y21969*
X34155Y21969*
X34154Y2197*
X34154Y21972*
X34153Y21973*
X34153Y21974*
X34153Y21975*
X34158Y21975*
Y21975*
Y21975*
X34158Y21975*
X34158Y21975*
X34158Y21974*
X34159Y21973*
X34159Y21972*
X34159Y21971*
X3416Y2197*
X34161Y2197*
X34161Y2197*
X34161Y21969*
X34162Y21969*
X34162Y21969*
X34163Y21968*
X34164Y21968*
X34165Y21968*
X34166Y21968*
X34166*
X34166Y21968*
X34167Y21968*
X34168Y21968*
X34169Y21968*
X3417Y21969*
X34171Y2197*
X34171Y2197*
X34172Y2197*
X34172Y21971*
X34172Y21971*
X34172Y21971*
X34172Y21971*
X34173Y21972*
X34173Y21972*
X34173Y21973*
X34174Y21975*
X34174Y21976*
X34174Y21977*
Y21978*
Y21978*
Y21978*
Y21978*
X34174Y21978*
Y21979*
X34174Y21979*
X34174Y2198*
X34174Y21981*
X34173Y21982*
X34173Y21983*
X34172Y21984*
Y21984*
X34172Y21984*
X34171Y21984*
X34171Y21985*
X3417Y21985*
X34169Y21986*
X34168Y21986*
X34167Y21986*
X34166Y21987*
X34165*
X34165Y21986*
X34164Y21986*
X34164Y21986*
X34163Y21986*
X34162Y21986*
X34161Y21985*
X34161Y21985*
X34161Y21985*
X34161Y21985*
X3416Y21985*
X3416Y21984*
X34159Y21984*
X34159Y21983*
X34158Y21983*
X34154Y21983*
X34158Y22004*
X34177*
Y21999*
G37*
G36*
X35699Y22205D02*
X35699Y22205D01*
X35698Y22204*
X35698Y22204*
X35698Y22204*
X35698Y22203*
X35697Y22202*
X35696Y222*
X35696Y22199*
X35695Y22198*
X35695Y22197*
X35694Y22197*
Y22197*
X35694Y22197*
X35694Y22196*
X35694Y22196*
X35694Y22196*
X35694Y22195*
X35694Y22195*
X35693Y22194*
X35693Y22193*
X35693Y22192*
X35692Y22191*
X35692Y22189*
Y22189*
X35692Y22189*
X35692Y22188*
X35692Y22188*
X35691Y22188*
X35691Y22187*
X35691Y22187*
X35691Y22186*
X35691Y22185*
X35691Y22184*
X35691Y22183*
X35691Y22181*
X35691Y22179*
Y22179*
Y22179*
Y22179*
Y22178*
X35691Y22178*
Y22178*
X35691Y22177*
Y22177*
X35691Y22175*
X35691Y22174*
X35691Y22172*
X35692Y22171*
X35692Y22169*
X35693Y22167*
X35693Y22165*
X35694Y22162*
X35695Y2216*
X35696Y22158*
X35697Y22155*
X35699Y22153*
X35695*
X35695Y22153*
X35695Y22153*
X35695Y22153*
X35695Y22154*
X35694Y22154*
X35694Y22155*
X35693Y22155*
X35693Y22156*
X35692Y22157*
X35692Y22158*
X35691Y22159*
X35691Y2216*
X3569Y22161*
X35689Y22162*
X35688Y22165*
X35688Y22165*
X35688Y22165*
X35688Y22165*
X35688Y22166*
X35688Y22167*
X35688Y22167*
X35687Y22168*
X35687Y22169*
X35687Y2217*
X35687Y22171*
X35686Y22172*
X35686Y22174*
X35686Y22176*
X35686Y22177*
X35686Y22179*
Y22179*
Y22179*
Y22179*
X35686Y2218*
Y22181*
X35686Y22181*
X35686Y22182*
X35686Y22183*
X35686Y22184*
X35686Y22185*
X35687Y22187*
X35687Y22189*
X35688Y22191*
X35688Y22191*
X35688Y22191*
X35688Y22192*
X35688Y22192*
X35688Y22193*
X35689Y22194*
X35689Y22195*
X3569Y22196*
X3569Y22196*
X35691Y22198*
X35691Y22199*
X35692Y222*
X35693Y22201*
X35693Y22202*
X35694Y22204*
X35695Y22205*
X35699*
X35699Y22205*
G37*
G36*
X35908Y222D02*
X35885D01*
Y22187*
X35907*
Y22183*
X35885*
Y22169*
X35909*
Y22165*
X3588*
Y22204*
X35908*
Y222*
G37*
G36*
X34358Y22D02*
X34335D01*
Y21987*
X34357*
Y21983*
X34335*
Y21969*
X34359*
Y21965*
X3433*
Y22004*
X34358*
Y22*
G37*
G36*
X35753Y22165D02*
X35747D01*
X35732Y22204*
X35738*
X35748Y22175*
Y22175*
X35748Y22175*
X35748Y22175*
X35748Y22175*
X35748Y22174*
X35748Y22174*
X35749Y22173*
X35749Y22172*
X35749Y22171*
X3575Y22169*
Y22169*
X3575Y22169*
X3575Y22169*
X3575Y22169*
X3575Y2217*
X35751Y22171*
X35751Y22172*
X35751Y22173*
X35752Y22174*
X35752Y22175*
X35763Y22204*
X35768*
X35753Y22165*
G37*
G36*
X35727Y22199D02*
X35712D01*
X35709Y22188*
X3571Y22188*
X3571Y22188*
X3571Y22189*
X3571Y22189*
X3571Y22189*
X35711Y22189*
X35712Y2219*
X35713Y2219*
X35714Y2219*
X35716Y22191*
X35716Y22191*
X35717*
X35718Y22191*
X35718Y22191*
X35719Y22191*
X35719Y22191*
X3572Y2219*
X35721Y2219*
X35722Y2219*
X35723Y22189*
X35724Y22189*
X35724Y22188*
X35725Y22188*
X35726Y22187*
X35726Y22187*
X35726Y22187*
X35726Y22187*
X35726Y22187*
X35727Y22186*
X35727Y22186*
X35727Y22185*
X35728Y22185*
X35728Y22184*
X35728Y22183*
X35729Y22183*
X35729Y22182*
X35729Y22181*
X35729Y2218*
X35729Y22179*
X35729Y22178*
Y22178*
Y22178*
Y22177*
X35729Y22177*
X35729Y22177*
X35729Y22176*
X35729Y22175*
X35729Y22175*
X35729Y22173*
X35728Y22172*
X35728Y22171*
X35727Y2217*
X35727Y22169*
X35726Y22169*
X35726Y22169*
X35726Y22168*
X35726Y22168*
X35726Y22168*
X35725Y22168*
X35725Y22167*
X35724Y22167*
X35723Y22166*
X35723Y22166*
X35722Y22165*
X35721Y22165*
X3572Y22165*
X35719Y22164*
X35718Y22164*
X35717Y22164*
X35716Y22164*
X35715*
X35715Y22164*
X35714Y22164*
X35714Y22164*
X35713Y22164*
X35713Y22164*
X35711Y22165*
X3571Y22165*
X35709Y22165*
X35708Y22166*
X35708Y22166*
X35707Y22167*
X35707Y22167*
X35707Y22167*
X35707Y22167*
X35706Y22167*
X35706Y22168*
X35706Y22168*
X35705Y22168*
X35705Y22169*
X35705Y22169*
X35704Y2217*
X35704Y22172*
X35703Y22173*
X35703Y22174*
X35703Y22175*
X35708Y22175*
Y22175*
Y22175*
X35708Y22175*
X35708Y22175*
X35708Y22174*
X35709Y22173*
X35709Y22172*
X35709Y22171*
X3571Y2217*
X35711Y2217*
X35711Y2217*
X35711Y22169*
X35712Y22169*
X35712Y22169*
X35713Y22168*
X35714Y22168*
X35715Y22168*
X35716Y22168*
X35716*
X35716Y22168*
X35717Y22168*
X35718Y22168*
X35719Y22168*
X3572Y22169*
X35721Y2217*
X35721Y2217*
X35722Y2217*
X35722Y22171*
X35722Y22171*
X35722Y22171*
X35722Y22171*
X35723Y22172*
X35723Y22172*
X35723Y22173*
X35724Y22175*
X35724Y22176*
X35724Y22177*
Y22178*
Y22178*
Y22178*
Y22178*
X35724Y22178*
Y22179*
X35724Y22179*
X35724Y2218*
X35724Y22181*
X35723Y22182*
X35723Y22183*
X35722Y22184*
Y22184*
X35722Y22184*
X35721Y22184*
X35721Y22185*
X3572Y22185*
X35719Y22186*
X35718Y22186*
X35717Y22186*
X35716Y22187*
X35715*
X35715Y22186*
X35714Y22186*
X35714Y22186*
X35713Y22186*
X35712Y22186*
X35711Y22185*
X35711Y22185*
X35711Y22185*
X35711Y22185*
X3571Y22185*
X3571Y22184*
X35709Y22184*
X35709Y22183*
X35708Y22183*
X35704Y22183*
X35708Y22204*
X35727*
Y22199*
G37*
G36*
X35776Y22205D02*
X35776Y22205D01*
X35776Y22204*
X35776Y22204*
X35777Y22203*
X35777Y22202*
X35778Y22202*
X35778Y22201*
X35779Y222*
X3578Y22199*
X3578Y22197*
X35781Y22196*
X35782Y22194*
X35783Y22192*
X35783Y22191*
Y22191*
X35783Y22191*
X35783Y22191*
X35783Y2219*
X35784Y2219*
X35784Y22189*
X35784Y22188*
X35784Y22187*
X35784Y22187*
X35784Y22186*
X35785Y22185*
X35785Y22184*
X35785Y22181*
X35785Y22179*
Y22179*
Y22179*
Y22178*
X35785Y22178*
Y22177*
X35785Y22176*
X35785Y22175*
X35785Y22174*
X35785Y22173*
X35784Y22172*
X35784Y2217*
X35784Y22169*
X35783Y22167*
X35783Y22166*
X35782Y22165*
X35782Y22165*
X35782Y22164*
X35782Y22164*
X35782Y22164*
X35782Y22163*
X35781Y22162*
X35781Y22162*
X3578Y22161*
X3578Y2216*
X35779Y22159*
X35778Y22157*
X35777Y22155*
X35776Y22153*
X35772*
Y22153*
X35772Y22153*
X35772Y22153*
X35772Y22153*
X35773Y22154*
X35773Y22154*
X35773Y22155*
X35773Y22155*
X35774Y22156*
X35775Y22158*
X35775Y22159*
X35776Y22161*
X35777Y22163*
X35778Y22165*
X35778Y22167*
X35779Y22169*
X35779Y22172*
X3578Y22174*
X3578Y22176*
X3578Y22179*
Y22179*
Y22179*
Y22179*
Y2218*
X3578Y2218*
Y22181*
X3578Y22181*
X3578Y22182*
X3578Y22183*
X3578Y22184*
X3578Y22185*
X35779Y22187*
X35779Y22189*
Y22189*
X35779Y22189*
X35779Y22189*
X35779Y2219*
X35779Y2219*
X35779Y2219*
X35778Y22191*
X35778Y22193*
X35777Y22194*
X35777Y22195*
X35776Y22197*
Y22197*
X35776Y22197*
X35776Y22197*
X35776Y22197*
X35776Y22198*
X35776Y22198*
X35776Y22198*
X35775Y22199*
X35775Y22199*
X35775Y222*
X35774Y222*
X35774Y22201*
X35774Y22202*
X35773Y22203*
X35773Y22204*
X35772Y22205*
X35776*
X35776Y22205*
G37*
G36*
X35649Y24205D02*
X3565D01*
X3565Y24205*
X35651Y24205*
X35652Y24205*
X35653Y24204*
X35655Y24204*
X35657Y24203*
X35658Y24203*
X35658Y24202*
X35658Y24202*
X35659Y24202*
X35659Y24202*
X35659Y24202*
X3566Y24202*
X3566Y24201*
X35661Y242*
X35662Y24199*
X35663Y24198*
X35664Y24197*
X35665Y24195*
Y24195*
X35665Y24195*
X35665Y24194*
X35665Y24194*
X35666Y24194*
X35666Y24193*
X35666Y24193*
X35666Y24192*
X35667Y24191*
X35667Y2419*
X35667Y24189*
X35667Y24188*
X35667Y24186*
X35668Y24184*
Y24184*
Y24184*
Y24184*
X35667Y24183*
Y24183*
X35667Y24182*
X35667Y24181*
X35667Y24181*
X35667Y24179*
X35666Y24177*
X35666Y24175*
X35665Y24174*
X35665Y24173*
Y24173*
X35665Y24173*
X35665Y24173*
X35665Y24173*
X35664Y24172*
X35664Y24172*
X35663Y24171*
X35662Y2417*
X35661Y24168*
X3566Y24167*
X35658Y24166*
X35658*
X35658Y24166*
X35658Y24166*
X35657Y24166*
X35657Y24166*
X35656Y24165*
X35656Y24165*
X35655Y24165*
X35655Y24165*
X35654Y24165*
X35652Y24164*
X3565Y24164*
X35649Y24164*
X35648*
X35648Y24164*
X35647*
X35646Y24164*
X35646Y24164*
X35645Y24164*
X35644Y24165*
X35642Y24165*
X3564Y24166*
X35639Y24166*
X35638Y24167*
X35638Y24167*
X35638Y24167*
X35638Y24167*
X35638Y24167*
X35637Y24167*
X35637Y24168*
X35636Y24168*
X35635Y24169*
X35634Y24171*
X35633Y24172*
X35632Y24174*
Y24174*
X35632Y24174*
X35632Y24174*
X35631Y24175*
X35631Y24175*
X35631Y24176*
X35631Y24176*
X35631Y24177*
X3563Y24178*
X3563Y24178*
X3563Y2418*
X3563Y24182*
X3563Y24184*
Y24184*
Y24184*
Y24184*
X3563Y24185*
Y24185*
X3563Y24186*
X3563Y24187*
X3563Y24188*
X3563Y24189*
X3563Y24191*
X35631Y24192*
X35631Y24193*
X35632Y24195*
X35632Y24196*
X35633Y24197*
X35634Y24198*
X35635Y24199*
X35635Y24199*
X35635Y242*
X35635Y242*
X35636Y242*
X35636Y24201*
X35637Y24201*
X35638Y24202*
X35639Y24202*
X35639Y24203*
X3564Y24203*
X35642Y24204*
X35643Y24204*
X35644Y24204*
X35646Y24205*
X35647Y24205*
X35649Y24205*
X35649*
X35649Y24205*
G37*
G36*
X355D02*
X35501D01*
X35502Y24205*
X35503Y24205*
X35504Y24204*
X35506Y24204*
X35507Y24203*
X35507*
X35507Y24203*
X35508Y24203*
X35508Y24203*
X35508Y24203*
X35509Y24203*
X3551Y24202*
X35511Y24201*
X35512Y242*
X35513Y242*
X35513Y24199*
X35513Y24199*
X35513Y24199*
X35514Y24198*
X35514Y24197*
X35515Y24196*
X35515Y24195*
X35516Y24193*
X35511Y24192*
Y24192*
X35511Y24192*
X35511Y24192*
X35511Y24192*
X35511Y24193*
X3551Y24194*
X3551Y24194*
X3551Y24195*
X35509Y24196*
X35509Y24197*
X35509Y24197*
X35508Y24197*
X35508Y24197*
X35508Y24198*
X35507Y24198*
X35506Y24198*
X35506Y24199*
X35505Y24199*
X35505Y24199*
X35504Y242*
X35504Y242*
X35503Y242*
X35502Y242*
X35502Y242*
X35501Y242*
X35499Y242*
X35499*
X35499Y242*
X35498*
X35497Y242*
X35496Y242*
X35495Y242*
X35494Y242*
X35493Y24199*
X35493Y24199*
X35493Y24199*
X35492Y24199*
X35492Y24199*
X35491Y24198*
X3549Y24198*
X3549Y24197*
X35489Y24196*
X35489Y24196*
X35489Y24196*
X35488Y24196*
X35488Y24195*
X35488Y24195*
X35487Y24194*
X35487Y24193*
X35486Y24192*
Y24192*
X35486Y24192*
X35486Y24192*
X35486Y24192*
X35486Y24191*
X35486Y24191*
X35486Y24191*
X35486Y2419*
X35485Y24189*
X35485Y24188*
X35485Y24186*
X35485Y24184*
Y24184*
Y24184*
Y24184*
X35485Y24184*
Y24183*
X35485Y24183*
X35485Y24182*
X35485Y24181*
X35485Y2418*
X35486Y24178*
X35486Y24177*
X35487Y24176*
Y24175*
X35487Y24175*
X35487Y24175*
X35487Y24175*
X35487Y24174*
X35488Y24174*
X35489Y24173*
X3549Y24172*
X35491Y24171*
X35492Y2417*
X35492*
X35492Y2417*
X35492Y2417*
X35493Y2417*
X35493Y2417*
X35493Y2417*
X35494Y24169*
X35495Y24169*
X35497Y24169*
X35498Y24169*
X35499Y24169*
X355*
X355Y24169*
X35501*
X35502Y24169*
X35503Y24169*
X35504Y24169*
X35505Y24169*
X35506Y2417*
X35506*
X35506Y2417*
X35506Y2417*
X35507Y2417*
X35507Y2417*
X35508Y24171*
X35509Y24171*
X3551Y24172*
X3551Y24172*
X35511Y24173*
Y2418*
X35499*
Y24185*
X35516*
Y2417*
X35516Y2417*
X35516Y2417*
X35516Y2417*
X35516Y24169*
X35515Y24169*
X35515Y24169*
X35514Y24169*
X35514Y24168*
X35513Y24168*
X35511Y24167*
X3551Y24166*
X35508Y24165*
X35508*
X35508Y24165*
X35508Y24165*
X35508Y24165*
X35507Y24165*
X35507Y24165*
X35506Y24165*
X35506Y24165*
X35504Y24164*
X35503Y24164*
X35501Y24164*
X355Y24164*
X35499*
X35499Y24164*
X35498*
X35498Y24164*
X35497Y24164*
X35496Y24164*
X35495Y24164*
X35493Y24165*
X35491Y24165*
X3549Y24166*
X35489Y24166*
X35489Y24166*
X35489Y24166*
X35489Y24167*
X35488Y24167*
X35488Y24167*
X35488Y24167*
X35486Y24168*
X35485Y24169*
X35484Y2417*
X35483Y24172*
X35482Y24174*
Y24174*
X35482Y24174*
X35482Y24174*
X35482Y24174*
X35481Y24175*
X35481Y24175*
X35481Y24176*
X35481Y24177*
X3548Y24177*
X3548Y24178*
X3548Y24179*
X3548Y2418*
X3548Y24182*
X3548Y24184*
Y24184*
Y24184*
Y24185*
X3548Y24185*
Y24186*
X3548Y24186*
X3548Y24187*
X3548Y24188*
X3548Y24188*
X3548Y24189*
X35481Y24191*
X35481Y24193*
X35482Y24195*
X35482Y24195*
X35482Y24195*
X35482Y24195*
X35482Y24196*
X35483Y24196*
X35483Y24197*
X35484Y24198*
X35485Y24199*
X35486Y242*
X35487Y24201*
X35488Y24202*
X35489Y24202*
X35489Y24203*
X35489Y24203*
X35489Y24203*
X3549Y24203*
X3549Y24203*
X35491Y24203*
X35491Y24203*
X35492Y24204*
X35493Y24204*
X35493Y24204*
X35494Y24204*
X35495Y24205*
X35497Y24205*
X35498Y24205*
X355*
X355Y24205*
G37*
G36*
X35555Y24165D02*
X3555D01*
X35529Y24196*
Y24165*
X35524*
Y24204*
X35529*
X3555Y24173*
Y24204*
X35555*
Y24165*
G37*
G36*
X35387Y24204D02*
X35388Y24204D01*
X35389Y24204*
X3539Y24204*
X35391Y24204*
X35391*
X35391Y24204*
X35392*
X35392Y24203*
X35393Y24203*
X35393Y24203*
X35394Y24203*
X35395Y24202*
X35396Y24202*
X35397Y24201*
X35397Y24201*
X35397Y24201*
X35397Y242*
X35398Y242*
X35398Y242*
X35399Y24199*
X354Y24198*
X354Y24197*
X35401Y24196*
X35402Y24194*
Y24194*
X35402Y24194*
X35402Y24194*
X35402Y24193*
X35402Y24193*
X35402Y24192*
X35402Y24192*
X35403Y24191*
X35403Y24191*
X35403Y2419*
X35403Y24188*
X35403Y24186*
X35403Y24185*
Y24184*
Y24184*
Y24184*
Y24184*
X35403Y24183*
Y24183*
X35403Y24182*
X35403Y24181*
X35403Y24179*
X35403Y24178*
X35402Y24177*
Y24176*
X35402Y24176*
X35402Y24176*
X35402Y24176*
X35402Y24175*
X35402Y24174*
X35401Y24174*
X35401Y24173*
X354Y24172*
X354Y24171*
X354Y24171*
X35399Y2417*
X35399Y2417*
X35399Y24169*
X35398Y24169*
X35397Y24168*
X35397Y24168*
X35396Y24167*
X35396Y24167*
X35396Y24167*
X35395Y24167*
X35395Y24166*
X35394Y24166*
X35393Y24166*
X35392Y24165*
X35391Y24165*
X35391*
X35391Y24165*
X35391Y24165*
X3539Y24165*
X35389Y24165*
X35389Y24165*
X35387Y24165*
X35386Y24165*
X35385Y24165*
X35371*
Y24204*
X35386*
X35387Y24204*
G37*
G36*
X3535Y24165D02*
X35345D01*
X35329Y24204*
X35335*
X35346Y24175*
Y24175*
X35346Y24175*
X35346Y24175*
X35346Y24175*
X35346Y24174*
X35346Y24174*
X35346Y24173*
X35347Y24172*
X35347Y24171*
X35348Y24169*
Y24169*
X35348Y24169*
X35348Y24169*
X35348Y24169*
X35348Y2417*
X35348Y24171*
X35349Y24172*
X35349Y24173*
X35349Y24174*
X3535Y24175*
X35361Y24204*
X35366*
X3535Y24165*
G37*
G36*
X35427Y24204D02*
X35428Y24204D01*
X35429Y24204*
X3543Y24204*
X35431Y24204*
X35431*
X35432Y24204*
X35432*
X35432Y24203*
X35433Y24203*
X35433Y24203*
X35434Y24203*
X35435Y24202*
X35436Y24202*
X35437Y24201*
X35437Y24201*
X35437Y24201*
X35437Y242*
X35438Y242*
X35438Y242*
X35439Y24199*
X3544Y24198*
X35441Y24197*
X35441Y24196*
X35442Y24194*
Y24194*
X35442Y24194*
X35442Y24194*
X35442Y24193*
X35442Y24193*
X35442Y24192*
X35443Y24192*
X35443Y24191*
X35443Y24191*
X35443Y2419*
X35443Y24188*
X35443Y24186*
X35444Y24185*
Y24184*
Y24184*
Y24184*
Y24184*
X35443Y24183*
Y24183*
X35443Y24182*
X35443Y24181*
X35443Y24179*
X35443Y24178*
X35442Y24177*
Y24176*
X35442Y24176*
X35442Y24176*
X35442Y24176*
X35442Y24175*
X35442Y24174*
X35441Y24174*
X35441Y24173*
X3544Y24172*
X3544Y24171*
X3544Y24171*
X35439Y2417*
X35439Y2417*
X35439Y24169*
X35438Y24169*
X35437Y24168*
X35437Y24168*
X35436Y24167*
X35436Y24167*
X35436Y24167*
X35435Y24167*
X35435Y24166*
X35434Y24166*
X35433Y24166*
X35432Y24165*
X35431Y24165*
X35431*
X35431Y24165*
X35431Y24165*
X3543Y24165*
X35429Y24165*
X35429Y24165*
X35427Y24165*
X35426Y24165*
X35425Y24165*
X35411*
Y24204*
X35426*
X35427Y24204*
G37*
G36*
X35706Y24181D02*
Y24181D01*
Y24181*
Y24181*
Y2418*
X35706Y2418*
Y24179*
X35705Y24179*
X35705Y24178*
X35705Y24176*
X35705Y24175*
X35705Y24173*
X35704Y24172*
X35704Y24172*
Y24172*
X35704Y24172*
X35704Y24171*
X35704Y24171*
X35704Y2417*
X35703Y2417*
X35702Y24169*
X35702Y24168*
X35701Y24167*
X35699Y24166*
X35699*
X35699Y24166*
X35699Y24166*
X35699Y24166*
X35698Y24165*
X35698Y24165*
X35697Y24165*
X35697Y24165*
X35696Y24165*
X35695Y24165*
X35695Y24164*
X35694Y24164*
X35693Y24164*
X35692Y24164*
X3569Y24164*
X35689*
X35689Y24164*
X35689*
X35688Y24164*
X35687Y24164*
X35687Y24164*
X35685Y24164*
X35684Y24165*
X35682Y24165*
X35681Y24166*
X35681*
X35681Y24166*
X35681Y24166*
X3568Y24166*
X3568Y24167*
X35679Y24167*
X35678Y24168*
X35677Y24169*
X35676Y2417*
X35676Y24171*
Y24171*
X35676Y24171*
X35676Y24172*
X35676Y24172*
X35675Y24172*
X35675Y24173*
X35675Y24173*
X35675Y24174*
X35675Y24175*
X35675Y24175*
X35675Y24176*
X35675Y24177*
X35674Y24178*
X35674Y24179*
X35674Y2418*
Y24181*
Y24204*
X3568*
Y24181*
Y24181*
Y24181*
Y24181*
Y2418*
X3568Y2418*
Y24179*
X3568Y24178*
X3568Y24177*
X3568Y24176*
X3568Y24175*
X3568Y24174*
X35681Y24174*
X35681Y24174*
X35681Y24173*
X35681Y24173*
X35681Y24172*
X35682Y24172*
X35682Y24171*
X35683Y2417*
X35684Y2417*
X35684Y2417*
X35684Y2417*
X35685Y24169*
X35685Y24169*
X35686Y24169*
X35687Y24169*
X35688Y24169*
X3569Y24169*
X3569*
X3569Y24169*
X35691*
X35691Y24169*
X35693Y24169*
X35694Y24169*
X35695Y2417*
X35697Y2417*
X35697Y24171*
X35698Y24171*
X35698Y24171*
X35698Y24171*
X35698Y24171*
X35698Y24172*
X35698Y24172*
X35699Y24172*
X35699Y24173*
X35699Y24173*
X35699Y24174*
X35699Y24175*
X357Y24176*
X357Y24177*
X357Y24178*
X357Y24179*
X357Y2418*
Y24181*
Y24204*
X35706*
Y24181*
G37*
G36*
X35743Y242D02*
X3573D01*
Y24165*
X35724*
Y242*
X35711*
Y24204*
X35743*
Y242*
G37*
G36*
X3558Y24204D02*
X35582Y24204D01*
X35583Y24204*
X35584Y24204*
X35585Y24204*
X35585*
X35585Y24204*
X35585*
X35585Y24203*
X35586Y24203*
X35587Y24203*
X35588Y24203*
X35589Y24202*
X3559Y24202*
X35591Y24201*
X35591Y24201*
X35591Y24201*
X35591Y242*
X35591Y242*
X35592Y242*
X35592Y24199*
X35593Y24198*
X35594Y24197*
X35595Y24196*
X35595Y24194*
Y24194*
X35595Y24194*
X35596Y24194*
X35596Y24193*
X35596Y24193*
X35596Y24192*
X35596Y24192*
X35596Y24191*
X35596Y24191*
X35596Y2419*
X35597Y24188*
X35597Y24186*
X35597Y24185*
Y24184*
Y24184*
Y24184*
Y24184*
X35597Y24183*
Y24183*
X35597Y24182*
X35597Y24181*
X35596Y24179*
X35596Y24178*
X35596Y24177*
Y24176*
X35596Y24176*
X35596Y24176*
X35596Y24176*
X35595Y24175*
X35595Y24174*
X35595Y24174*
X35594Y24173*
X35594Y24172*
X35593Y24171*
X35593Y24171*
X35593Y2417*
X35593Y2417*
X35592Y24169*
X35592Y24169*
X35591Y24168*
X3559Y24168*
X3559Y24167*
X35589Y24167*
X35589Y24167*
X35589Y24167*
X35588Y24166*
X35588Y24166*
X35587Y24166*
X35586Y24165*
X35585Y24165*
X35585*
X35584Y24165*
X35584Y24165*
X35584Y24165*
X35583Y24165*
X35582Y24165*
X35581Y24165*
X3558Y24165*
X35578Y24165*
X35564*
Y24204*
X35579*
X3558Y24204*
G37*
%LNmergedpcbs-2*%
%LPC*%
G36*
X35649Y242D02*
X35648D01*
X35648Y242*
X35647Y242*
X35647Y242*
X35646Y242*
X35645Y242*
X35644Y24199*
X35643Y24199*
X35642Y24199*
X35641Y24198*
X3564Y24198*
X3564Y24197*
X35639Y24197*
X35639Y24196*
X35639Y24196*
X35639Y24196*
X35638Y24196*
X35638Y24195*
X35638Y24195*
X35637Y24194*
X35637Y24193*
X35637Y24193*
X35636Y24192*
X35636Y24191*
X35636Y2419*
X35635Y24188*
X35635Y24187*
X35635Y24185*
X35635Y24184*
Y24184*
Y24183*
Y24183*
X35635Y24183*
X35635Y24182*
X35635Y24181*
X35635Y2418*
X35635Y2418*
X35636Y24178*
X35636Y24177*
X35637Y24176*
X35637Y24175*
X35637Y24174*
X35638Y24173*
X35639Y24172*
X35639Y24172*
X35639Y24172*
X35639Y24172*
X35639Y24172*
X3564Y24171*
X3564Y24171*
X35641Y24171*
X35641Y2417*
X35642Y2417*
X35643Y2417*
X35644Y24169*
X35644Y24169*
X35645Y24169*
X35646Y24168*
X35647Y24168*
X35648Y24168*
X35649*
X35649Y24168*
X35649*
X3565Y24168*
X35651Y24169*
X35651Y24169*
X35652Y24169*
X35653Y24169*
X35653Y24169*
X35654Y2417*
X35655Y2417*
X35656Y24171*
X35657Y24171*
X35658Y24172*
X35658Y24172*
X35658Y24172*
X35658Y24173*
X35659Y24173*
X35659Y24173*
X35659Y24174*
X35659Y24174*
X3566Y24175*
X3566Y24175*
X35661Y24176*
X35661Y24177*
X35661Y24178*
X35662Y24179*
X35662Y2418*
X35662Y24182*
X35662Y24183*
X35662Y24184*
Y24184*
Y24185*
Y24185*
Y24185*
X35662Y24186*
Y24186*
X35662Y24187*
X35662Y24187*
X35662Y24188*
X35661Y2419*
X35661Y24191*
X3566Y24193*
Y24193*
X3566Y24193*
X3566Y24193*
X3566Y24193*
X3566Y24194*
X35659Y24195*
X35659Y24196*
X35658Y24197*
X35657Y24198*
X35656Y24198*
X35656*
X35656Y24198*
X35655Y24199*
X35655Y24199*
X35655Y24199*
X35654Y24199*
X35654Y24199*
X35653Y242*
X35651Y242*
X3565Y242*
X35649Y242*
G37*
G36*
X35385Y242D02*
X35376D01*
Y24169*
X35385*
X35386Y24169*
X35387Y24169*
X35388Y24169*
X35389Y24169*
X3539Y2417*
X3539Y2417*
X35391Y2417*
X35391Y2417*
X35391Y2417*
X35392Y2417*
X35392Y24171*
X35393Y24171*
X35394Y24172*
X35394Y24172*
X35394Y24172*
X35394Y24172*
X35395Y24173*
X35395Y24173*
X35396Y24174*
X35396Y24175*
X35397Y24176*
X35397Y24177*
Y24177*
X35397Y24177*
X35397Y24177*
X35397Y24178*
X35397Y24178*
X35397Y24178*
X35397Y24179*
X35398Y24179*
X35398Y2418*
X35398Y24182*
X35398Y24183*
X35398Y24185*
Y24185*
Y24185*
Y24185*
X35398Y24186*
Y24186*
X35398Y24187*
X35398Y24187*
X35398Y24188*
X35398Y2419*
X35397Y24191*
X35397Y24193*
X35396Y24194*
X35396Y24194*
Y24194*
X35396Y24194*
X35396Y24195*
X35396Y24195*
X35395Y24195*
X35395Y24196*
X35394Y24197*
X35393Y24198*
X35392Y24198*
X35391Y24199*
X35391Y24199*
X35391Y24199*
X3539Y24199*
X35389Y24199*
X35388Y24199*
X35387Y24199*
X35387Y24199*
X35386*
X35385Y242*
G37*
G36*
X35425D02*
X35416D01*
Y24169*
X35425*
X35426Y24169*
X35427Y24169*
X35428Y24169*
X35429Y24169*
X3543Y2417*
X35431Y2417*
X35431Y2417*
X35431Y2417*
X35431Y2417*
X35432Y2417*
X35432Y24171*
X35433Y24171*
X35434Y24172*
X35434Y24172*
X35434Y24172*
X35434Y24172*
X35435Y24173*
X35435Y24173*
X35436Y24174*
X35436Y24175*
X35437Y24176*
X35437Y24177*
Y24177*
X35437Y24177*
X35437Y24177*
X35437Y24178*
X35437Y24178*
X35437Y24178*
X35437Y24179*
X35438Y24179*
X35438Y2418*
X35438Y24182*
X35438Y24183*
X35438Y24185*
Y24185*
Y24185*
Y24185*
X35438Y24186*
Y24186*
X35438Y24187*
X35438Y24187*
X35438Y24188*
X35438Y2419*
X35437Y24191*
X35437Y24193*
X35436Y24194*
X35436Y24194*
Y24194*
X35436Y24194*
X35436Y24195*
X35436Y24195*
X35435Y24195*
X35435Y24196*
X35434Y24197*
X35433Y24198*
X35432Y24198*
X35431Y24199*
X35431Y24199*
X35431Y24199*
X3543Y24199*
X35429Y24199*
X35428Y24199*
X35427Y24199*
X35427Y24199*
X35426*
X35425Y242*
G37*
G36*
X35579D02*
X35569D01*
Y24169*
X35579*
X35579Y24169*
X3558Y24169*
X35581Y24169*
X35582Y24169*
X35583Y2417*
X35584Y2417*
X35584Y2417*
X35584Y2417*
X35585Y2417*
X35585Y2417*
X35586Y24171*
X35586Y24171*
X35587Y24172*
X35588Y24172*
X35588Y24172*
X35588Y24172*
X35588Y24173*
X35589Y24173*
X35589Y24174*
X3559Y24175*
X3559Y24176*
X3559Y24177*
Y24177*
X35591Y24177*
X35591Y24177*
X35591Y24178*
X35591Y24178*
X35591Y24178*
X35591Y24179*
X35591Y24179*
X35591Y2418*
X35591Y24182*
X35591Y24183*
X35592Y24185*
Y24185*
Y24185*
Y24185*
X35591Y24186*
Y24186*
X35591Y24187*
X35591Y24187*
X35591Y24188*
X35591Y2419*
X35591Y24191*
X3559Y24193*
X3559Y24194*
X35589Y24194*
Y24194*
X35589Y24194*
X35589Y24195*
X35589Y24195*
X35589Y24195*
X35588Y24196*
X35587Y24197*
X35586Y24198*
X35586Y24198*
X35584Y24199*
X35584Y24199*
X35584Y24199*
X35584Y24199*
X35583Y24199*
X35582Y24199*
X35581Y24199*
X3558Y24199*
X35579*
X35579Y242*
G37*
M02*