%FSTAX23Y23*%
%MOIN*%
%SFA1B1*%

%IPPOS*%
%LNmergedpcbs-1*%
%LPD*%
G36*
X41244Y25776D02*
X41189D01*
Y25799*
X41244*
Y25776*
G37*
G36*
X38466Y25757D02*
X38443D01*
Y25812*
X38466*
Y25757*
G37*
G36*
X35254Y2658D02*
X35231D01*
Y26635*
X35254*
Y2658*
G37*
G36*
X38954D02*
X38931D01*
Y26635*
X38954*
Y2658*
G37*
G36*
X37104D02*
X37081D01*
Y26635*
X37104*
Y2658*
G37*
G36*
X4099Y25667D02*
X40959D01*
Y25682*
X4099*
Y25667*
G37*
G36*
X38966Y25607D02*
X38943D01*
Y25662*
X38966*
Y25607*
G37*
G36*
X40252Y25753D02*
X40197D01*
Y25776*
X40252*
Y25753*
G37*
G36*
X36616Y25757D02*
X36593D01*
Y25812*
X36616*
Y25757*
G37*
G36*
X34766D02*
X34743D01*
Y25812*
X34766*
Y25757*
G37*
G36*
X34315Y26632D02*
X34284D01*
Y26647*
X34315*
Y26632*
G37*
G36*
X38631Y26822D02*
X38608D01*
Y26877*
X38631*
Y26822*
G37*
G36*
X36781D02*
X36758D01*
Y26877*
X36781*
Y26822*
G37*
G36*
X35137Y26834D02*
X35122D01*
Y26865*
X35137*
Y26834*
G37*
G36*
X38837D02*
X38822D01*
Y26865*
X38837*
Y26834*
G37*
G36*
X36987D02*
X36972D01*
Y26865*
X36987*
Y26834*
G37*
G36*
X38015Y26632D02*
X37984D01*
Y26647*
X38015*
Y26632*
G37*
G36*
X36165D02*
X36134D01*
Y26647*
X36165*
Y26632*
G37*
G36*
X41192Y26679D02*
X41177D01*
Y2671*
X41192*
Y26679*
G37*
G36*
X34931Y26822D02*
X34908D01*
Y26877*
X34931*
Y26822*
G37*
G36*
X40702Y26753D02*
X40647D01*
Y26776*
X40702*
Y26753*
G37*
G36*
X41192Y24829D02*
X41177D01*
Y2486*
X41192*
Y24829*
G37*
G36*
X3805Y24667D02*
X38019D01*
Y24682*
X3805*
Y24667*
G37*
G36*
X34966Y24857D02*
X34943D01*
Y24912*
X34966*
Y24857*
G37*
G36*
X38666D02*
X38643D01*
Y24912*
X38666*
Y24857*
G37*
G36*
X36816D02*
X36793D01*
Y24912*
X36816*
Y24857*
G37*
G36*
X37139Y24615D02*
X37116D01*
Y2467*
X37139*
Y24615*
G37*
G36*
X35289D02*
X35266D01*
Y2467*
X35289*
Y24615*
G37*
G36*
X38989D02*
X38966D01*
Y2467*
X38989*
Y24615*
G37*
G36*
X362Y24667D02*
X36169D01*
Y24682*
X362*
Y24667*
G37*
G36*
X3435D02*
X34319D01*
Y24682*
X3435*
Y24667*
G37*
G36*
X35172Y24869D02*
X35157D01*
Y249*
X35172*
Y24869*
G37*
G36*
X40102Y25253D02*
X40047D01*
Y25276*
X40102*
Y25253*
G37*
G36*
X38116Y25157D02*
X38093D01*
Y25212*
X38116*
Y25157*
G37*
G36*
X41002Y25453D02*
X40947D01*
Y25476*
X41002*
Y25453*
G37*
G36*
X37116Y25607D02*
X37093D01*
Y25662*
X37116*
Y25607*
G37*
G36*
X35266D02*
X35243D01*
Y25662*
X35266*
Y25607*
G37*
G36*
X38872Y24869D02*
X38857D01*
Y249*
X38872*
Y24869*
G37*
G36*
X37022D02*
X37007D01*
Y249*
X37022*
Y24869*
G37*
G36*
X40702Y24903D02*
X40647D01*
Y24926*
X40702*
Y24903*
G37*
G36*
X36266Y25157D02*
X36243D01*
Y25212*
X36266*
Y25157*
G37*
G36*
X34416D02*
X34393D01*
Y25212*
X34416*
Y25157*
G37*
G36*
X38817Y28759D02*
X38802D01*
Y2879*
X38817*
Y28759*
G37*
G36*
X36967D02*
X36952D01*
Y2879*
X36967*
Y28759*
G37*
G36*
X40102Y28953D02*
X40047D01*
Y28976*
X40102*
Y28953*
G37*
G36*
X36211Y29047D02*
X36188D01*
Y29102*
X36211*
Y29047*
G37*
G36*
X34361D02*
X34338D01*
Y29102*
X34361*
Y29047*
G37*
G36*
X34911Y28747D02*
X34888D01*
Y28802*
X34911*
Y28747*
G37*
G36*
X40702Y28603D02*
X40647D01*
Y28626*
X40702*
Y28603*
G37*
G36*
X36761Y28747D02*
X36738D01*
Y28802*
X36761*
Y28747*
G37*
G36*
X35117Y28759D02*
X35102D01*
Y2879*
X35117*
Y28759*
G37*
G36*
X38611Y28747D02*
X38588D01*
Y28802*
X38611*
Y28747*
G37*
G36*
X38061Y29047D02*
X38038D01*
Y29102*
X38061*
Y29047*
G37*
G36*
X38911Y29497D02*
X38888D01*
Y29552*
X38911*
Y29497*
G37*
G36*
X37061D02*
X37038D01*
Y29552*
X37061*
Y29497*
G37*
G36*
X34711Y29647D02*
X34688D01*
Y29702*
X34711*
Y29647*
G37*
G36*
X38411D02*
X38388D01*
Y29702*
X38411*
Y29647*
G37*
G36*
X36561D02*
X36538D01*
Y29702*
X36561*
Y29647*
G37*
G36*
X4099Y29367D02*
X40959D01*
Y29382*
X4099*
Y29367*
G37*
G36*
X41002Y29153D02*
X40947D01*
Y29176*
X41002*
Y29153*
G37*
G36*
X40252Y29453D02*
X40197D01*
Y29476*
X40252*
Y29453*
G37*
G36*
X35211Y29497D02*
X35188D01*
Y29552*
X35211*
Y29497*
G37*
G36*
X41244Y29476D02*
X41189D01*
Y29499*
X41244*
Y29476*
G37*
G36*
X35231Y27572D02*
X35208D01*
Y27627*
X35231*
Y27572*
G37*
G36*
X4099Y27517D02*
X40959D01*
Y27532*
X4099*
Y27517*
G37*
G36*
X37081Y27572D02*
X37058D01*
Y27627*
X37081*
Y27572*
G37*
G36*
X40252Y27603D02*
X40197D01*
Y27626*
X40252*
Y27603*
G37*
G36*
X38931Y27572D02*
X38908D01*
Y27627*
X38931*
Y27572*
G37*
G36*
X34381Y27122D02*
X34358D01*
Y27177*
X34381*
Y27122*
G37*
G36*
X40102Y27103D02*
X40047D01*
Y27126*
X40102*
Y27103*
G37*
G36*
X36231Y27122D02*
X36208D01*
Y27177*
X36231*
Y27122*
G37*
G36*
X41002Y27303D02*
X40947D01*
Y27326*
X41002*
Y27303*
G37*
G36*
X38081Y27122D02*
X38058D01*
Y27177*
X38081*
Y27122*
G37*
G36*
X41244Y27626D02*
X41189D01*
Y27649*
X41244*
Y27626*
G37*
G36*
X41192Y28529D02*
X41177D01*
Y2856*
X41192*
Y28529*
G37*
G36*
X38934Y28505D02*
X38911D01*
Y2856*
X38934*
Y28505*
G37*
G36*
X34295Y28557D02*
X34264D01*
Y28572*
X34295*
Y28557*
G37*
G36*
X37995D02*
X37964D01*
Y28572*
X37995*
Y28557*
G37*
G36*
X36145D02*
X36114D01*
Y28572*
X36145*
Y28557*
G37*
G36*
X36581Y27722D02*
X36558D01*
Y27777*
X36581*
Y27722*
G37*
G36*
X34731D02*
X34708D01*
Y27777*
X34731*
Y27722*
G37*
G36*
X38431D02*
X38408D01*
Y27777*
X38431*
Y27722*
G37*
G36*
X37084Y28505D02*
X37061D01*
Y2856*
X37084*
Y28505*
G37*
G36*
X35234D02*
X35211D01*
Y2856*
X35234*
Y28505*
G37*
M02*