%FSTAX23Y23*%
%MOIN*%
%SFA1B1*%

%IPPOS*%
%ADD31C,0.010000*%
%ADD41C,0.000000*%
%ADD70C,0.002008*%
%LNmergedpcbs-1*%
%LPD*%
G54D31*
X416Y2173D02*
Y3024D01*
X41595Y30225D02*
X41605Y30235D01*
X33735D02*
X41605D01*
X3373Y3023D02*
X33735Y30235D01*
X3373Y21725D02*
Y3023D01*
Y21725D02*
X41595D01*
G54D41*
X3755Y28325D02*
Y28475D01*
Y28325D02*
X3775D01*
X393D02*
X394D01*
Y28475*
Y29975D02*
Y30175D01*
X3935D02*
X394D01*
X392D02*
X3935D01*
X3755D02*
X378D01*
X3755Y29925D02*
Y30175D01*
X3775Y28325D02*
X378D01*
X392D02*
X393D01*
X3755Y28475D02*
Y29925D01*
X3775Y30175D02*
X378D01*
X392*
X394Y28475D02*
Y29975D01*
X378Y28325D02*
X392D01*
X3775D02*
X378D01*
X357D02*
Y28475D01*
Y28325D02*
X359D01*
X3745D02*
X3755D01*
Y28475*
Y29975D02*
Y30175D01*
X375D02*
X3755D01*
X3735D02*
X375D01*
X357D02*
X3595D01*
X357Y29925D02*
Y30175D01*
X359Y28325D02*
X3595D01*
X3735D02*
X3745D01*
X357Y28475D02*
Y29925D01*
X359Y30175D02*
X3595D01*
X3735*
X3755Y28475D02*
Y29975D01*
X3595Y28325D02*
X3735D01*
X359D02*
X3595D01*
X3385D02*
Y28475D01*
Y28325D02*
X3405D01*
X356D02*
X357D01*
Y28475*
Y29975D02*
Y30175D01*
X3565D02*
X357D01*
X355D02*
X3565D01*
X3385D02*
X341D01*
X3385Y29925D02*
Y30175D01*
X3405Y28325D02*
X341D01*
X355D02*
X356D01*
X3385Y28475D02*
Y29925D01*
X3405Y30175D02*
X341D01*
X355*
X357Y28475D02*
Y29975D01*
X341Y28325D02*
X355D01*
X3405D02*
X341D01*
X41035Y22003D02*
X41231Y22002D01*
X4123Y22098D02*
X4123Y22D01*
X4123Y23594D02*
Y24032D01*
X41162Y241D02*
X4123Y24032D01*
X41275Y28115D02*
X41425D01*
Y28315*
Y29865D02*
Y29965D01*
X41275D02*
X41425D01*
X39575D02*
X39775D01*
X39575Y29915D02*
Y29965D01*
Y29765D02*
Y29915D01*
Y28115D02*
Y28365D01*
Y28115D02*
X39825D01*
X41425Y28315D02*
Y28365D01*
Y29765D02*
Y29865D01*
X39825Y28115D02*
X41275D01*
X39575Y28315D02*
Y28365D01*
Y29765*
X39775Y29965D02*
X41275D01*
X41425Y28365D02*
Y29765D01*
Y28315D02*
Y28365D01*
X41275Y26265D02*
X41425D01*
Y26465*
Y28015D02*
Y28115D01*
X41275D02*
X41425D01*
X39575D02*
X39775D01*
X39575Y28065D02*
Y28115D01*
Y27915D02*
Y28065D01*
Y26265D02*
Y26515D01*
Y26265D02*
X39825D01*
X41425Y26465D02*
Y26515D01*
Y27915D02*
Y28015D01*
X39825Y26265D02*
X41275D01*
X39575Y26465D02*
Y26515D01*
Y27915*
X39775Y28115D02*
X41275D01*
X41425Y26515D02*
Y27915D01*
Y26465D02*
Y26515D01*
X41275Y24415D02*
X41425D01*
Y24615*
Y26165D02*
Y26265D01*
X41275D02*
X41425D01*
X39575D02*
X39775D01*
X39575Y26215D02*
Y26265D01*
Y26065D02*
Y26215D01*
Y24415D02*
Y24665D01*
Y24415D02*
X39825D01*
X41425Y24615D02*
Y24665D01*
Y26065D02*
Y26165D01*
X39825Y24415D02*
X41275D01*
X39575Y24615D02*
Y24665D01*
Y26065*
X39775Y26265D02*
X41275D01*
X41425Y24665D02*
Y26065D01*
Y24615D02*
Y24665D01*
X3757Y264D02*
Y2655D01*
Y264D02*
X3777D01*
X3932D02*
X3942D01*
Y2655*
Y2805D02*
Y2825D01*
X3937D02*
X3942D01*
X3922D02*
X3937D01*
X3757D02*
X3782D01*
X3757Y28D02*
Y2825D01*
X3777Y264D02*
X3782D01*
X3922D02*
X3932D01*
X3757Y2655D02*
Y28D01*
X3777Y2825D02*
X3782D01*
X3922*
X3942Y2655D02*
Y2805D01*
X3782Y264D02*
X3922D01*
X3777D02*
X3782D01*
X3572D02*
Y2655D01*
Y264D02*
X3592D01*
X3747D02*
X3757D01*
Y2655*
Y2805D02*
Y2825D01*
X3752D02*
X3757D01*
X3737D02*
X3752D01*
X3572D02*
X3597D01*
X3572Y28D02*
Y2825D01*
X3592Y264D02*
X3597D01*
X3737D02*
X3747D01*
X3572Y2655D02*
Y28D01*
X3592Y2825D02*
X3597D01*
X3737*
X3757Y2655D02*
Y2805D01*
X3597Y264D02*
X3737D01*
X3592D02*
X3597D01*
X3387D02*
Y2655D01*
Y264D02*
X3407D01*
X3562D02*
X3572D01*
Y2655*
Y2805D02*
Y2825D01*
X3567D02*
X3572D01*
X3552D02*
X3567D01*
X3387D02*
X3412D01*
X3387Y28D02*
Y2825D01*
X3407Y264D02*
X3412D01*
X3552D02*
X3562D01*
X3387Y2655D02*
Y28D01*
X3407Y2825D02*
X3412D01*
X3552*
X3572Y2655D02*
Y2805D01*
X3412Y264D02*
X3552D01*
X3407D02*
X3412D01*
X37605Y24435D02*
Y24585D01*
Y24435D02*
X37805D01*
X39355D02*
X39455D01*
Y24585*
Y26085D02*
Y26285D01*
X39405D02*
X39455D01*
X39255D02*
X39405D01*
X37605D02*
X37855D01*
X37605Y26035D02*
Y26285D01*
X37805Y24435D02*
X37855D01*
X39255D02*
X39355D01*
X37605Y24585D02*
Y26035D01*
X37805Y26285D02*
X37855D01*
X39255*
X39455Y24585D02*
Y26085D01*
X37855Y24435D02*
X39255D01*
X37805D02*
X37855D01*
X35755D02*
Y24585D01*
Y24435D02*
X35955D01*
X37505D02*
X37605D01*
Y24585*
Y26085D02*
Y26285D01*
X37555D02*
X37605D01*
X37405D02*
X37555D01*
X35755D02*
X36005D01*
X35755Y26035D02*
Y26285D01*
X35955Y24435D02*
X36005D01*
X37405D02*
X37505D01*
X35755Y24585D02*
Y26035D01*
X35955Y26285D02*
X36005D01*
X37405*
X37605Y24585D02*
Y26085D01*
X36005Y24435D02*
X37405D01*
X35955D02*
X36005D01*
X33905D02*
Y24585D01*
Y24435D02*
X34105D01*
X35655D02*
X35755D01*
Y24585*
Y26085D02*
Y26285D01*
X35705D02*
X35755D01*
X35555D02*
X35705D01*
X33905D02*
X34155D01*
X33905Y26035D02*
Y26285D01*
X34105Y24435D02*
X34155D01*
X35555D02*
X35655D01*
X33905Y24585D02*
Y26035D01*
X34105Y26285D02*
X34155D01*
X35555*
X35755Y24585D02*
Y26085D01*
X34155Y24435D02*
X35555D01*
X34105D02*
X34155D01*
G54D70*
X3893Y29175D02*
X3897D01*
X3895Y29155D02*
Y29195D01*
X3893Y29075D02*
X3897D01*
X3895Y29055D02*
Y29095D01*
X3778Y29775D02*
X3782D01*
X378Y29755D02*
Y29795D01*
X3788Y29775D02*
X3792D01*
X379Y29755D02*
Y29795D01*
X39217Y28869D02*
X39253D01*
X39235Y28852D02*
Y28887D01*
X3895Y28869D02*
X38985D01*
X38967Y28852D02*
Y28887D01*
X37777Y29315D02*
X37802D01*
X3779Y29302D02*
Y29327D01*
X37877Y29215D02*
X37902D01*
X3789Y29202D02*
Y29227D01*
X37677Y29215D02*
X37702D01*
X3769Y29202D02*
Y29227D01*
X39137Y29225D02*
X39162D01*
X3915Y29212D02*
Y29237D01*
X39237Y29125D02*
X39262D01*
X3925Y29112D02*
Y29137D01*
X39037Y29125D02*
X39062D01*
X3905Y29112D02*
Y29137D01*
X39137Y29625D02*
X39162D01*
X3915Y29612D02*
Y29637D01*
X39237Y29525D02*
X39262D01*
X3925Y29512D02*
Y29537D01*
X39037Y29525D02*
X39062D01*
X3905Y29512D02*
Y29537D01*
X38162Y29994D02*
X38198D01*
X3818Y29977D02*
Y30012D01*
X37895Y29994D02*
X3793D01*
X37912Y29977D02*
Y30012D01*
X3708Y29175D02*
X3712D01*
X371Y29155D02*
Y29195D01*
X3708Y29075D02*
X3712D01*
X371Y29055D02*
Y29095D01*
X3593Y29775D02*
X3597D01*
X3595Y29755D02*
Y29795D01*
X3603Y29775D02*
X3607D01*
X3605Y29755D02*
Y29795D01*
X37367Y28869D02*
X37403D01*
X37385Y28852D02*
Y28887D01*
X371Y28869D02*
X37135D01*
X37117Y28852D02*
Y28887D01*
X35927Y29315D02*
X35952D01*
X3594Y29302D02*
Y29327D01*
X36027Y29215D02*
X36052D01*
X3604Y29202D02*
Y29227D01*
X35827Y29215D02*
X35852D01*
X3584Y29202D02*
Y29227D01*
X37287Y29225D02*
X37312D01*
X373Y29212D02*
Y29237D01*
X37387Y29125D02*
X37412D01*
X374Y29112D02*
Y29137D01*
X37187Y29125D02*
X37212D01*
X372Y29112D02*
Y29137D01*
X37287Y29625D02*
X37312D01*
X373Y29612D02*
Y29637D01*
X37387Y29525D02*
X37412D01*
X374Y29512D02*
Y29537D01*
X37187Y29525D02*
X37212D01*
X372Y29512D02*
Y29537D01*
X36312Y29994D02*
X36348D01*
X3633Y29977D02*
Y30012D01*
X36045Y29994D02*
X3608D01*
X36062Y29977D02*
Y30012D01*
X3523Y29175D02*
X3527D01*
X3525Y29155D02*
Y29195D01*
X3523Y29075D02*
X3527D01*
X3525Y29055D02*
Y29095D01*
X3408Y29775D02*
X3412D01*
X341Y29755D02*
Y29795D01*
X3418Y29775D02*
X3422D01*
X342Y29755D02*
Y29795D01*
X35517Y28869D02*
X35553D01*
X35535Y28852D02*
Y28887D01*
X3525Y28869D02*
X35285D01*
X35267Y28852D02*
Y28887D01*
X34077Y29315D02*
X34102D01*
X3409Y29302D02*
Y29327D01*
X34177Y29215D02*
X34202D01*
X3419Y29202D02*
Y29227D01*
X33977Y29215D02*
X34002D01*
X3399Y29202D02*
Y29227D01*
X35437Y29225D02*
X35462D01*
X3545Y29212D02*
Y29237D01*
X35537Y29125D02*
X35562D01*
X3555Y29112D02*
Y29137D01*
X35337Y29125D02*
X35362D01*
X3535Y29112D02*
Y29137D01*
X35437Y29625D02*
X35462D01*
X3545Y29612D02*
Y29637D01*
X35537Y29525D02*
X35562D01*
X3555Y29512D02*
Y29537D01*
X35337Y29525D02*
X35362D01*
X3535Y29512D02*
Y29537D01*
X34462Y29994D02*
X34498D01*
X3448Y29977D02*
Y30012D01*
X34195Y29994D02*
X3423D01*
X34212Y29977D02*
Y30012D01*
X37606Y30025D02*
X37793D01*
X377Y29931D02*
Y30118D01*
X39156Y30025D02*
X39343D01*
X3925Y29931D02*
Y30118D01*
X39156Y28475D02*
X39343D01*
X3925Y28381D02*
Y28568D01*
X37606Y28475D02*
X37793D01*
X377Y28381D02*
Y28568D01*
X35756Y30025D02*
X35943D01*
X3585Y29931D02*
Y30118D01*
X37306Y30025D02*
X37493D01*
X374Y29931D02*
Y30118D01*
X37306Y28475D02*
X37493D01*
X374Y28381D02*
Y28568D01*
X35756Y28475D02*
X35943D01*
X3585Y28381D02*
Y28568D01*
X33906Y30025D02*
X34093D01*
X34Y29931D02*
Y30118D01*
X35456Y30025D02*
X35643D01*
X3555Y29931D02*
Y30118D01*
X35456Y28475D02*
X35643D01*
X3555Y28381D02*
Y28568D01*
X33906Y28475D02*
X34093D01*
X34Y28381D02*
Y28568D01*
X40304Y2331D02*
X40335D01*
X40319Y23294D02*
Y23325D01*
X40109Y2242D02*
X4014D01*
X40124Y22404D02*
Y22435D01*
X40104Y2259D02*
X40135D01*
X40119Y22574D02*
Y22605D01*
X39959Y23325D02*
X3999D01*
X39974Y23309D02*
Y2334D01*
X39704Y23495D02*
X39735D01*
X39719Y23479D02*
Y2351D01*
X40524Y2258D02*
X40555D01*
X40539Y22564D02*
Y22595D01*
X39739Y22135D02*
X39779D01*
X39759Y22115D02*
Y22155D01*
X39639Y22135D02*
X39679D01*
X39659Y22115D02*
Y22155D01*
X39539Y22135D02*
X39579D01*
X39559Y22115D02*
Y22155D01*
X40323Y23405D02*
X40355D01*
X40339Y23389D02*
Y23421D01*
X40423Y23405D02*
X40455D01*
X40439Y23389D02*
Y23421D01*
X40219Y2354D02*
X40259D01*
X40239Y2352D02*
Y2356D01*
X40319Y2354D02*
X40359D01*
X40339Y2352D02*
Y2356D01*
X40419Y2354D02*
X40459D01*
X40439Y2352D02*
Y2356D01*
X40313Y2246D02*
X40345D01*
X40329Y22444D02*
Y22476D01*
X40413Y2246D02*
X40445D01*
X40429Y22444D02*
Y22476D01*
X40209Y2259D02*
X40249D01*
X40229Y2257D02*
Y2261D01*
X40309Y2259D02*
X40349D01*
X40329Y2257D02*
Y2261D01*
X40409Y2259D02*
X40449D01*
X40429Y2257D02*
Y2261D01*
X39488Y235D02*
X3952D01*
X39504Y23484D02*
Y23516D01*
X39588Y235D02*
X3962D01*
X39604Y23484D02*
Y23516D01*
X39384Y23635D02*
X39424D01*
X39404Y23615D02*
Y23655D01*
X39484Y23635D02*
X39524D01*
X39504Y23615D02*
Y23655D01*
X39584Y23635D02*
X39624D01*
X39604Y23615D02*
Y23655D01*
X39483Y2287D02*
X39515D01*
X39499Y22854D02*
Y22886D01*
X39583Y2287D02*
X39615D01*
X39599Y22854D02*
Y22886D01*
X39379Y23005D02*
X39419D01*
X39399Y22985D02*
Y23025D01*
X39479Y23005D02*
X39519D01*
X39499Y22985D02*
Y23025D01*
X39579Y23005D02*
X39619D01*
X39599Y22985D02*
Y23025D01*
X39478Y2231D02*
X3951D01*
X39494Y22294D02*
Y22326D01*
X39578Y2231D02*
X3961D01*
X39594Y22294D02*
Y22326D01*
X39374Y2245D02*
X39414D01*
X39394Y2243D02*
Y2247D01*
X39474Y2245D02*
X39514D01*
X39494Y2243D02*
Y2247D01*
X39574Y2245D02*
X39614D01*
X39594Y2243D02*
Y2247D01*
X39878Y23495D02*
X3991D01*
X39894Y23479D02*
Y23511D01*
X39978Y23495D02*
X4001D01*
X39994Y23479D02*
Y23511D01*
X39779Y23625D02*
X39819D01*
X39799Y23605D02*
Y23645D01*
X39879Y23625D02*
X39919D01*
X39899Y23605D02*
Y23645D01*
X39979Y23625D02*
X40019D01*
X39999Y23605D02*
Y23645D01*
X39883Y22465D02*
X39915D01*
X39899Y22449D02*
Y22481D01*
X39983Y22465D02*
X40015D01*
X39999Y22449D02*
Y22481D01*
X39779Y226D02*
X39819D01*
X39799Y2258D02*
Y2262D01*
X39879Y226D02*
X39919D01*
X39899Y2258D02*
Y2262D01*
X39979Y226D02*
X40019D01*
X39999Y2258D02*
Y2262D01*
X39053Y23575D02*
X39085D01*
X39069Y23559D02*
Y23591D01*
X39153Y23575D02*
X39185D01*
X39169Y23559D02*
Y23591D01*
X39149Y23725D02*
X39189D01*
X39169Y23705D02*
Y23745D01*
X39049Y23725D02*
X39089D01*
X39069Y23705D02*
Y23745D01*
X39083Y233D02*
X39115D01*
X39099Y23284D02*
Y23316D01*
X39183Y233D02*
X39215D01*
X39199Y23284D02*
Y23316D01*
X39239Y23435D02*
X39279D01*
X39259Y23415D02*
Y23455D01*
X39139Y23435D02*
X39179D01*
X39159Y23415D02*
Y23455D01*
X39039Y23435D02*
X39079D01*
X39059Y23415D02*
Y23455D01*
X39093Y22915D02*
X39125D01*
X39109Y22899D02*
Y22931D01*
X39193Y22915D02*
X39225D01*
X39209Y22899D02*
Y22931D01*
X39244Y2305D02*
X39284D01*
X39264Y2303D02*
Y2307D01*
X39144Y2305D02*
X39184D01*
X39164Y2303D02*
Y2307D01*
X39044Y2305D02*
X39084D01*
X39064Y2303D02*
Y2307D01*
X39093Y22625D02*
X39125D01*
X39109Y22609D02*
Y22641D01*
X39193Y22625D02*
X39225D01*
X39209Y22609D02*
Y22641D01*
X39234Y22765D02*
X39274D01*
X39254Y22745D02*
Y22785D01*
X39134Y22765D02*
X39174D01*
X39154Y22745D02*
Y22785D01*
X39034Y22765D02*
X39074D01*
X39054Y22745D02*
Y22785D01*
X39093Y22105D02*
X39125D01*
X39109Y22089D02*
Y22121D01*
X39193Y22105D02*
X39225D01*
X39209Y22089D02*
Y22121D01*
X39239Y2224D02*
X39279D01*
X39259Y2222D02*
Y2226D01*
X39139Y2224D02*
X39179D01*
X39159Y2222D02*
Y2226D01*
X39039Y2224D02*
X39079D01*
X39059Y2222D02*
Y2226D01*
X41118Y2225D02*
X4115D01*
X41134Y22234D02*
Y22266D01*
X41118Y2245D02*
X4115D01*
X41134Y22434D02*
Y22466D01*
X41069Y23D02*
X41109D01*
X41089Y2298D02*
Y2302D01*
X41069Y231D02*
X41109D01*
X41089Y2308D02*
Y2312D01*
X41069Y232D02*
X41109D01*
X41089Y2318D02*
Y2322D01*
X41069Y233D02*
X41109D01*
X41089Y2328D02*
Y2332D01*
X41069Y234D02*
X41109D01*
X41089Y2338D02*
Y2342D01*
X41069Y235D02*
X41109D01*
X41089Y2348D02*
Y2352D01*
X41069Y236D02*
X41109D01*
X41089Y2358D02*
Y2362D01*
X41069Y237D02*
X41109D01*
X41089Y2368D02*
Y2372D01*
X40669Y22905D02*
X40709D01*
X40689Y22885D02*
Y22925D01*
X40669Y23005D02*
X40709D01*
X40689Y22985D02*
Y23025D01*
X40669Y23105D02*
X40709D01*
X40689Y23085D02*
Y23125D01*
X40669Y23205D02*
X40709D01*
X40689Y23185D02*
Y23225D01*
X40669Y23305D02*
X40709D01*
X40689Y23285D02*
Y23325D01*
X40669Y23405D02*
X40709D01*
X40689Y23385D02*
Y23425D01*
X40669Y23505D02*
X40709D01*
X40689Y23485D02*
Y23525D01*
X40669Y23605D02*
X40709D01*
X40689Y23585D02*
Y23625D01*
X40202Y23011D02*
X40242D01*
X40222Y22991D02*
Y23031D01*
X40202Y23189D02*
X40242D01*
X40222Y23169D02*
Y23209D01*
X39946Y23011D02*
X39986D01*
X39966Y22991D02*
Y23031D01*
X39946Y23189D02*
X39986D01*
X39966Y23169D02*
Y23209D01*
X39993Y2292D02*
X40025D01*
X40009Y22904D02*
Y22936D01*
X40193Y2292D02*
X40225D01*
X40209Y22904D02*
Y22936D01*
X39234Y2393D02*
X39265D01*
X39249Y23914D02*
Y23945D01*
X41018Y2225D02*
X4105D01*
X41034Y22234D02*
Y22266D01*
X41018Y2245D02*
X4105D01*
X41034Y22434D02*
Y22466D01*
X40918Y2225D02*
X4095D01*
X40934Y22234D02*
Y22266D01*
X40918Y2245D02*
X4095D01*
X40934Y22434D02*
Y22466D01*
X40818Y2225D02*
X4085D01*
X40834Y22234D02*
Y22266D01*
X40818Y2245D02*
X4085D01*
X40834Y22434D02*
Y22466D01*
X40718Y2225D02*
X4075D01*
X40734Y22234D02*
Y22266D01*
X40718Y2245D02*
X4075D01*
X40734Y22434D02*
Y22466D01*
X40613Y2225D02*
X40645D01*
X40629Y22234D02*
Y22266D01*
X40613Y2245D02*
X40645D01*
X40629Y22434D02*
Y22466D01*
X40614Y2256D02*
X40654D01*
X40634Y2254D02*
Y2258D01*
X40714Y2256D02*
X40754D01*
X40734Y2254D02*
Y2258D01*
X40814Y2256D02*
X40854D01*
X40834Y2254D02*
Y2258D01*
X40914Y2256D02*
X40954D01*
X40934Y2254D02*
Y2258D01*
X41014Y2256D02*
X41054D01*
X41034Y2254D02*
Y2258D01*
X41114Y2256D02*
X41154D01*
X41134Y2254D02*
Y2258D01*
X40609Y221D02*
X40649D01*
X40629Y2208D02*
Y2212D01*
X40709Y221D02*
X40749D01*
X40729Y2208D02*
Y2212D01*
X40809Y221D02*
X40849D01*
X40829Y2208D02*
Y2212D01*
X40909Y221D02*
X40949D01*
X40929Y2208D02*
Y2212D01*
X41009Y221D02*
X41049D01*
X41029Y2208D02*
Y2212D01*
X41109Y221D02*
X41149D01*
X41129Y2208D02*
Y2212D01*
X40404Y2225D02*
X40444D01*
X40424Y2223D02*
Y2227D01*
X40304Y2225D02*
X40344D01*
X40324Y2223D02*
Y2227D01*
X40204Y2225D02*
X40244D01*
X40224Y2223D02*
Y2227D01*
X40104Y2225D02*
X40144D01*
X40124Y2223D02*
Y2227D01*
X40004Y2225D02*
X40044D01*
X40024Y2223D02*
Y2227D01*
X39904Y2225D02*
X39944D01*
X39924Y2223D02*
Y2227D01*
X40404Y22105D02*
X40444D01*
X40424Y22085D02*
Y22125D01*
X40304Y22105D02*
X40344D01*
X40324Y22085D02*
Y22125D01*
X40204Y22105D02*
X40244D01*
X40224Y22085D02*
Y22125D01*
X40104Y22105D02*
X40144D01*
X40124Y22085D02*
Y22125D01*
X40004Y22105D02*
X40044D01*
X40024Y22085D02*
Y22125D01*
X39904Y22105D02*
X39944D01*
X39924Y22085D02*
Y22125D01*
X41104Y24D02*
X41144D01*
X41124Y2398D02*
Y2402D01*
X41004Y24D02*
X41044D01*
X41024Y2398D02*
Y2402D01*
X40904Y24D02*
X40944D01*
X40924Y2398D02*
Y2402D01*
X40804Y24D02*
X40844D01*
X40824Y2398D02*
Y2402D01*
X40704Y24D02*
X40744D01*
X40724Y2398D02*
Y2402D01*
X40604Y24D02*
X40644D01*
X40624Y2398D02*
Y2402D01*
X40504Y24D02*
X40544D01*
X40524Y2398D02*
Y2402D01*
X40404Y24D02*
X40444D01*
X40424Y2398D02*
Y2402D01*
X41104Y2385D02*
X41144D01*
X41124Y2383D02*
Y2387D01*
X41004Y2385D02*
X41044D01*
X41024Y2383D02*
Y2387D01*
X40904Y2385D02*
X40944D01*
X40924Y2383D02*
Y2387D01*
X40804Y2385D02*
X40844D01*
X40824Y2383D02*
Y2387D01*
X40704Y2385D02*
X40744D01*
X40724Y2383D02*
Y2387D01*
X40604Y2385D02*
X40644D01*
X40624Y2383D02*
Y2387D01*
X40504Y2385D02*
X40544D01*
X40524Y2383D02*
Y2387D01*
X40404Y2385D02*
X40444D01*
X40424Y2383D02*
Y2387D01*
X39549Y24D02*
X39589D01*
X39569Y2398D02*
Y2402D01*
X39649Y24D02*
X39689D01*
X39669Y2398D02*
Y2402D01*
X39749Y24D02*
X39789D01*
X39769Y2398D02*
Y2402D01*
X39849Y24D02*
X39889D01*
X39869Y2398D02*
Y2402D01*
X39949Y24D02*
X39989D01*
X39969Y2398D02*
Y2402D01*
X40049Y24D02*
X40089D01*
X40069Y2398D02*
Y2402D01*
X40149Y24D02*
X40189D01*
X40169Y2398D02*
Y2402D01*
X40249Y24D02*
X40289D01*
X40269Y2398D02*
Y2402D01*
X39549Y2385D02*
X39589D01*
X39569Y2383D02*
Y2387D01*
X39649Y2385D02*
X39689D01*
X39669Y2383D02*
Y2387D01*
X39749Y2385D02*
X39789D01*
X39769Y2383D02*
Y2387D01*
X39849Y2385D02*
X39889D01*
X39869Y2383D02*
Y2387D01*
X39949Y2385D02*
X39989D01*
X39969Y2383D02*
Y2387D01*
X40049Y2385D02*
X40089D01*
X40069Y2383D02*
Y2387D01*
X40149Y2385D02*
X40189D01*
X40169Y2383D02*
Y2387D01*
X40249Y2385D02*
X40289D01*
X40269Y2383D02*
Y2387D01*
X40333Y22992D02*
X40365D01*
X40349Y22976D02*
Y23008D01*
X40333Y23192D02*
X40365D01*
X40349Y23176D02*
Y23208D01*
X41206Y22248D02*
X41293D01*
X4125Y22205D02*
Y22291D01*
X38681Y23993D02*
X38768D01*
X38725Y2395D02*
Y24036D01*
X38676Y22078D02*
X38763D01*
X3872Y22035D02*
Y22121D01*
X39376Y22118D02*
X39463D01*
X3942Y22075D02*
Y22161D01*
X39346Y23998D02*
X39433D01*
X3939Y23955D02*
Y24041D01*
X41216Y23383D02*
X41303D01*
X4126Y2334D02*
Y23426D01*
X38215Y23375D02*
X38255D01*
X38235Y23355D02*
Y23395D01*
X38215Y23475D02*
X38255D01*
X38235Y23455D02*
Y23495D01*
X38215Y23575D02*
X38255D01*
X38235Y23555D02*
Y23595D01*
X3774Y24125D02*
X3778D01*
X3776Y24105D02*
Y24145D01*
X3784Y24125D02*
X3788D01*
X3786Y24105D02*
Y24145D01*
X3794Y24125D02*
X3798D01*
X3796Y24105D02*
Y24145D01*
X3634Y236D02*
X3638D01*
X3636Y2358D02*
Y2362D01*
X3634Y235D02*
X3638D01*
X3636Y2348D02*
Y2352D01*
X3634Y234D02*
X3638D01*
X3636Y2338D02*
Y2342D01*
X37915Y22075D02*
X37955D01*
X37935Y22055D02*
Y22095D01*
X38015Y22075D02*
X38055D01*
X38035Y22055D02*
Y22095D01*
X38115Y22075D02*
X38155D01*
X38135Y22055D02*
Y22095D01*
X36627Y24125D02*
X36667D01*
X36647Y24105D02*
Y24145D01*
X36727Y24125D02*
X36767D01*
X36747Y24105D02*
Y24145D01*
X36827Y24125D02*
X36867D01*
X36847Y24105D02*
Y24145D01*
X36927Y24125D02*
X36967D01*
X36947Y24105D02*
Y24145D01*
X37027Y24125D02*
X37067D01*
X37047Y24105D02*
Y24145D01*
X37127Y24125D02*
X37167D01*
X37147Y24105D02*
Y24145D01*
X37227Y24125D02*
X37267D01*
X37247Y24105D02*
Y24145D01*
X37327Y24125D02*
X37367D01*
X37347Y24105D02*
Y24145D01*
X37427Y24125D02*
X37467D01*
X37447Y24105D02*
Y24145D01*
X37527Y24125D02*
X37567D01*
X37547Y24105D02*
Y24145D01*
X37194Y23875D02*
X37225D01*
X3721Y23859D02*
Y2389D01*
X37194Y23775D02*
X37225D01*
X3721Y23759D02*
Y2379D01*
X37494Y23775D02*
X37525D01*
X3751Y23759D02*
Y2379D01*
X37494Y23875D02*
X37525D01*
X3751Y23859D02*
Y2389D01*
X37194Y23675D02*
X37225D01*
X3721Y23659D02*
Y2369D01*
X37194Y23575D02*
X37225D01*
X3721Y23559D02*
Y2359D01*
X37494Y23675D02*
X37525D01*
X3751Y23659D02*
Y2369D01*
X37494Y23575D02*
X37525D01*
X3751Y23559D02*
Y2359D01*
X37194Y22675D02*
X37225D01*
X3721Y22659D02*
Y2269D01*
X37194Y22575D02*
X37225D01*
X3721Y22559D02*
Y2259D01*
X37494Y22575D02*
X37525D01*
X3751Y22559D02*
Y2259D01*
X37494Y22675D02*
X37525D01*
X3751Y22659D02*
Y2269D01*
X37194Y22475D02*
X37225D01*
X3721Y22459D02*
Y2249D01*
X37194Y22375D02*
X37225D01*
X3721Y22359D02*
Y2239D01*
X37494Y22475D02*
X37525D01*
X3751Y22459D02*
Y2249D01*
X37494Y22375D02*
X37525D01*
X3751Y22359D02*
Y2239D01*
X37179Y2325D02*
X3721D01*
X37195Y23234D02*
Y23265D01*
X37179Y2315D02*
X3721D01*
X37195Y23134D02*
Y23165D01*
X37179Y2305D02*
X3721D01*
X37195Y23034D02*
Y23065D01*
X37179Y2295D02*
X3721D01*
X37195Y22934D02*
Y22965D01*
X37509Y2295D02*
X3754D01*
X37525Y22934D02*
Y22965D01*
X37509Y2305D02*
X3754D01*
X37525Y23034D02*
Y23065D01*
X37509Y2315D02*
X3754D01*
X37525Y23134D02*
Y23165D01*
X37507Y2325D02*
X37542D01*
X37525Y23232D02*
Y23267D01*
X36942Y23225D02*
X36977D01*
X3696Y23207D02*
Y23242D01*
X36642Y23225D02*
X36677D01*
X3666Y23207D02*
Y23242D01*
X37992Y2345D02*
X38027D01*
X3801Y23432D02*
Y23467D01*
X37692Y2345D02*
X37727D01*
X3771Y23432D02*
Y23467D01*
X36942Y2345D02*
X36977D01*
X3696Y23432D02*
Y23467D01*
X36642Y2345D02*
X36677D01*
X3666Y23432D02*
Y23467D01*
X37704Y23225D02*
X3774D01*
X37722Y23207D02*
Y23242D01*
X38004Y23225D02*
X3804D01*
X38022Y23207D02*
Y23242D01*
X36642Y23012D02*
X36677D01*
X3666Y22994D02*
Y2303D01*
X36942Y23012D02*
X36977D01*
X3696Y22994D02*
Y2303D01*
X37704Y22512D02*
X3774D01*
X37722Y22494D02*
Y2253D01*
X38004Y22512D02*
X3804D01*
X38022Y22494D02*
Y2253D01*
X36642Y223D02*
X36677D01*
X3666Y22282D02*
Y22317D01*
X36942Y223D02*
X36977D01*
X3696Y22282D02*
Y22317D01*
X37704Y223D02*
X3774D01*
X37722Y22282D02*
Y22317D01*
X38004Y223D02*
X3804D01*
X38022Y22282D02*
Y22317D01*
X37692Y22987D02*
X37727D01*
X3771Y22969D02*
Y23005D01*
X37992Y22987D02*
X38027D01*
X3801Y22969D02*
Y23005D01*
X36942Y239D02*
X36977D01*
X3696Y23882D02*
Y23917D01*
X36642Y239D02*
X36677D01*
X3666Y23882D02*
Y23917D01*
X36642Y22537D02*
X36677D01*
X3666Y22519D02*
Y22555D01*
X36942Y22537D02*
X36977D01*
X3696Y22519D02*
Y22555D01*
X36642Y22775D02*
X36677D01*
X3666Y22757D02*
Y22792D01*
X36942Y22775D02*
X36977D01*
X3696Y22757D02*
Y22792D01*
X36642Y23662D02*
X36677D01*
X3666Y23644D02*
Y2368D01*
X36942Y23662D02*
X36977D01*
X3696Y23644D02*
Y2368D01*
X37704Y22762D02*
X3774D01*
X37722Y22744D02*
Y2278D01*
X38004Y22762D02*
X3804D01*
X38022Y22744D02*
Y2278D01*
X3634Y22887D02*
X3638D01*
X3636Y22867D02*
Y22907D01*
X3634Y22787D02*
X3638D01*
X3636Y22767D02*
Y22807D01*
X38215Y2305D02*
X38255D01*
X38235Y2303D02*
Y2307D01*
X38215Y2295D02*
X38255D01*
X38235Y2293D02*
Y2297D01*
X3634Y22362D02*
X3638D01*
X3636Y22342D02*
Y22382D01*
X3634Y22462D02*
X3638D01*
X3636Y22442D02*
Y22482D01*
X3634Y22562D02*
X3638D01*
X3636Y22542D02*
Y22582D01*
X38215Y22425D02*
X38255D01*
X38235Y22405D02*
Y22445D01*
X38215Y22525D02*
X38255D01*
X38235Y22505D02*
Y22545D01*
X38215Y22625D02*
X38255D01*
X38235Y22605D02*
Y22645D01*
X3699Y22075D02*
X3703D01*
X3701Y22055D02*
Y22095D01*
X3689Y22075D02*
X3693D01*
X3691Y22055D02*
Y22095D01*
X3679Y22075D02*
X3683D01*
X3681Y22055D02*
Y22095D01*
X3724Y22075D02*
X3728D01*
X3726Y22055D02*
Y22095D01*
X3734Y22075D02*
X3738D01*
X3736Y22055D02*
Y22095D01*
X3744Y22075D02*
X3748D01*
X3746Y22055D02*
Y22095D01*
X3634Y23175D02*
X3638D01*
X3636Y23155D02*
Y23195D01*
X3634Y23075D02*
X3638D01*
X3636Y23055D02*
Y23095D01*
X37895Y2365D02*
X37935D01*
X37915Y2363D02*
Y2367D01*
X37785Y2365D02*
X37825D01*
X37805Y2363D02*
Y2367D01*
X37895Y239D02*
X37935D01*
X37915Y2388D02*
Y2392D01*
X37785Y239D02*
X37825D01*
X37805Y2388D02*
Y2392D01*
X38197Y24075D02*
X38322D01*
X3826Y24012D02*
Y24137D01*
X36297Y24125D02*
X36422D01*
X3636Y24062D02*
Y24187D01*
X36497Y22075D02*
X36622D01*
X3656Y22012D02*
Y22137D01*
X37597Y22075D02*
X37722D01*
X3766Y22012D02*
Y22137D01*
X34504Y23505D02*
X34535D01*
X3452Y23489D02*
Y2352D01*
X34504Y23205D02*
X34535D01*
X3452Y23189D02*
Y2322D01*
X34654Y23605D02*
X34685D01*
X3467Y23589D02*
Y2362D01*
X34954Y23605D02*
X34985D01*
X3497Y23589D02*
Y2362D01*
X35154Y23105D02*
X35185D01*
X3517Y23089D02*
Y2312D01*
X35154Y23405D02*
X35185D01*
X3517Y23389D02*
Y2342D01*
X34454Y22905D02*
X34485D01*
X3447Y22889D02*
Y2292D01*
X34454Y22605D02*
X34485D01*
X3447Y22589D02*
Y2262D01*
X34304Y22505D02*
X34335D01*
X3432Y22489D02*
Y2252D01*
X34304Y22805D02*
X34335D01*
X3432Y22789D02*
Y2282D01*
X34654Y22305D02*
X34685D01*
X3467Y22289D02*
Y2232D01*
X34954Y22305D02*
X34985D01*
X3497Y22289D02*
Y2232D01*
X35054Y22955D02*
X35085D01*
X3507Y22939D02*
Y2297D01*
X34754Y22955D02*
X34785D01*
X3477Y22939D02*
Y2297D01*
X35354Y22755D02*
X35385D01*
X3537Y22739D02*
Y2277D01*
X35354Y22455D02*
X35385D01*
X3537Y22439D02*
Y2247D01*
X34254Y24005D02*
X34285D01*
X3427Y23989D02*
Y2402D01*
X34554Y24005D02*
X34585D01*
X3457Y23989D02*
Y2402D01*
X35554Y22405D02*
X35585D01*
X3557Y22389D02*
Y2242D01*
X35554Y22705D02*
X35585D01*
X3557Y22689D02*
Y2272D01*
X34954Y23855D02*
X34985D01*
X3497Y23839D02*
Y2387D01*
X34654Y23855D02*
X34685D01*
X3467Y23839D02*
Y2387D01*
X34254Y23555D02*
X34285D01*
X3427Y23539D02*
Y2357D01*
X34254Y23255D02*
X34285D01*
X3427Y23239D02*
Y2327D01*
X35504Y23905D02*
X35535D01*
X3552Y23889D02*
Y2392D01*
X35204Y23905D02*
X35235D01*
X3522Y23889D02*
Y2392D01*
X3535Y24105D02*
X3539D01*
X3537Y24085D02*
Y24125D01*
X3545Y24105D02*
X3549D01*
X3547Y24085D02*
Y24125D01*
X3555Y24105D02*
X3559D01*
X3557Y24085D02*
Y24125D01*
X3415Y22105D02*
X3419D01*
X3417Y22085D02*
Y22125D01*
X3425Y22105D02*
X3429D01*
X3427Y22085D02*
Y22125D01*
X357Y22105D02*
X3574D01*
X3572Y22085D02*
Y22125D01*
X358Y22105D02*
X3584D01*
X3582Y22085D02*
Y22125D01*
X35654Y23005D02*
X35685D01*
X3567Y22989D02*
Y2302D01*
X35654Y23105D02*
X35685D01*
X3567Y23089D02*
Y2312D01*
X35354Y23105D02*
X35385D01*
X3537Y23089D02*
Y2312D01*
X35354Y23005D02*
X35385D01*
X3537Y22989D02*
Y2302D01*
X35654Y23205D02*
X35685D01*
X3567Y23189D02*
Y2322D01*
X35654Y23305D02*
X35685D01*
X3567Y23289D02*
Y2332D01*
X35354Y23205D02*
X35385D01*
X3537Y23189D02*
Y2322D01*
X35354Y23305D02*
X35385D01*
X3537Y23289D02*
Y2332D01*
X34754Y22655D02*
X34785D01*
X3477Y22639D02*
Y2267D01*
X34854Y22655D02*
X34885D01*
X3487Y22639D02*
Y2267D01*
X35154Y23655D02*
X35185D01*
X3517Y23639D02*
Y2367D01*
X35254Y23655D02*
X35285D01*
X3527Y23639D02*
Y2367D01*
X34854Y23355D02*
X34885D01*
X3487Y23339D02*
Y2337D01*
X34754Y23355D02*
X34785D01*
X3477Y23339D02*
Y2337D01*
X35304Y22255D02*
X35335D01*
X3532Y22239D02*
Y2227D01*
X35204Y22255D02*
X35235D01*
X3522Y22239D02*
Y2227D01*
X35654Y23855D02*
X35685D01*
X3567Y23839D02*
Y2387D01*
X35654Y23655D02*
X35685D01*
X3567Y23639D02*
Y2367D01*
X359Y22905D02*
X3594D01*
X3592Y22885D02*
Y22925D01*
X359Y23005D02*
X3594D01*
X3592Y22985D02*
Y23025D01*
X359Y23105D02*
X3594D01*
X3592Y23085D02*
Y23125D01*
X359Y23205D02*
X3594D01*
X3592Y23185D02*
Y23225D01*
X359Y23305D02*
X3594D01*
X3592Y23285D02*
Y23325D01*
X359Y23405D02*
X3594D01*
X3592Y23385D02*
Y23425D01*
X359Y23605D02*
X3594D01*
X3592Y23585D02*
Y23625D01*
X359Y23705D02*
X3594D01*
X3592Y23685D02*
Y23725D01*
X359Y23805D02*
X3594D01*
X3592Y23785D02*
Y23825D01*
X359Y23905D02*
X3594D01*
X3592Y23885D02*
Y23925D01*
X359Y24005D02*
X3594D01*
X3592Y23985D02*
Y24025D01*
X359Y24105D02*
X3594D01*
X3592Y24085D02*
Y24125D01*
X34Y24105D02*
X3404D01*
X3402Y24085D02*
Y24125D01*
X34Y24005D02*
X3404D01*
X3402Y23985D02*
Y24025D01*
X34Y23905D02*
X3404D01*
X3402Y23885D02*
Y23925D01*
X34Y23805D02*
X3404D01*
X3402Y23785D02*
Y23825D01*
X34Y23705D02*
X3404D01*
X3402Y23685D02*
Y23725D01*
X34Y23605D02*
X3404D01*
X3402Y23585D02*
Y23625D01*
X34Y23505D02*
X3404D01*
X3402Y23485D02*
Y23525D01*
X34Y23405D02*
X3404D01*
X3402Y23385D02*
Y23425D01*
X34Y23255D02*
X3404D01*
X3402Y23235D02*
Y23275D01*
X34Y23155D02*
X3404D01*
X3402Y23135D02*
Y23175D01*
X34Y23055D02*
X3404D01*
X3402Y23035D02*
Y23075D01*
X34Y22955D02*
X3404D01*
X3402Y22935D02*
Y22975D01*
X34Y22855D02*
X3404D01*
X3402Y22835D02*
Y22875D01*
X34Y22755D02*
X3404D01*
X3402Y22735D02*
Y22775D01*
X34Y22655D02*
X3404D01*
X3402Y22635D02*
Y22675D01*
X34Y22555D02*
X3404D01*
X3402Y22535D02*
Y22575D01*
X34Y22455D02*
X3404D01*
X3402Y22435D02*
Y22475D01*
X34Y22355D02*
X3404D01*
X3402Y22335D02*
Y22375D01*
X359Y22805D02*
X3594D01*
X3592Y22785D02*
Y22825D01*
X359Y22705D02*
X3594D01*
X3592Y22685D02*
Y22725D01*
X40555Y29515D02*
X40595D01*
X40575Y29495D02*
Y29535D01*
X40655Y29515D02*
X40695D01*
X40675Y29495D02*
Y29535D01*
X39955Y28365D02*
X39995D01*
X39975Y28345D02*
Y28385D01*
X39955Y28465D02*
X39995D01*
X39975Y28445D02*
Y28485D01*
X40862Y298D02*
X40897D01*
X4088Y29782D02*
Y29818D01*
X40862Y29532D02*
X40897D01*
X4088Y29515D02*
Y2955D01*
X40422Y28355D02*
X40447D01*
X40435Y28342D02*
Y28367D01*
X40522Y28455D02*
X40547D01*
X40535Y28442D02*
Y28467D01*
X40522Y28255D02*
X40547D01*
X40535Y28242D02*
Y28267D01*
X40512Y29715D02*
X40537D01*
X40525Y29702D02*
Y29727D01*
X40612Y29815D02*
X40637D01*
X40625Y29802D02*
Y29827D01*
X40612Y29615D02*
X40637D01*
X40625Y29602D02*
Y29627D01*
X40112Y29715D02*
X40137D01*
X40125Y29702D02*
Y29727D01*
X40212Y29815D02*
X40237D01*
X40225Y29802D02*
Y29827D01*
X40212Y29615D02*
X40237D01*
X40225Y29602D02*
Y29627D01*
X39737Y28745D02*
X39772D01*
X39755Y28727D02*
Y28763D01*
X39737Y28477D02*
X39772D01*
X39755Y2846D02*
Y28495D01*
X40555Y27665D02*
X40595D01*
X40575Y27645D02*
Y27685D01*
X40655Y27665D02*
X40695D01*
X40675Y27645D02*
Y27685D01*
X39955Y26515D02*
X39995D01*
X39975Y26495D02*
Y26535D01*
X39955Y26615D02*
X39995D01*
X39975Y26595D02*
Y26635D01*
X40862Y2795D02*
X40897D01*
X4088Y27932D02*
Y27968D01*
X40862Y27682D02*
X40897D01*
X4088Y27665D02*
Y277D01*
X40422Y26505D02*
X40447D01*
X40435Y26492D02*
Y26517D01*
X40522Y26605D02*
X40547D01*
X40535Y26592D02*
Y26617D01*
X40522Y26405D02*
X40547D01*
X40535Y26392D02*
Y26417D01*
X40512Y27865D02*
X40537D01*
X40525Y27852D02*
Y27877D01*
X40612Y27965D02*
X40637D01*
X40625Y27952D02*
Y27977D01*
X40612Y27765D02*
X40637D01*
X40625Y27752D02*
Y27777D01*
X40112Y27865D02*
X40137D01*
X40125Y27852D02*
Y27877D01*
X40212Y27965D02*
X40237D01*
X40225Y27952D02*
Y27977D01*
X40212Y27765D02*
X40237D01*
X40225Y27752D02*
Y27777D01*
X39737Y26895D02*
X39772D01*
X39755Y26877D02*
Y26913D01*
X39737Y26627D02*
X39772D01*
X39755Y2661D02*
Y26645D01*
X40555Y25815D02*
X40595D01*
X40575Y25795D02*
Y25835D01*
X40655Y25815D02*
X40695D01*
X40675Y25795D02*
Y25835D01*
X39955Y24665D02*
X39995D01*
X39975Y24645D02*
Y24685D01*
X39955Y24765D02*
X39995D01*
X39975Y24745D02*
Y24785D01*
X40862Y261D02*
X40897D01*
X4088Y26082D02*
Y26118D01*
X40862Y25832D02*
X40897D01*
X4088Y25815D02*
Y2585D01*
X40422Y24655D02*
X40447D01*
X40435Y24642D02*
Y24667D01*
X40522Y24755D02*
X40547D01*
X40535Y24742D02*
Y24767D01*
X40522Y24555D02*
X40547D01*
X40535Y24542D02*
Y24567D01*
X40512Y26015D02*
X40537D01*
X40525Y26002D02*
Y26027D01*
X40612Y26115D02*
X40637D01*
X40625Y26102D02*
Y26127D01*
X40612Y25915D02*
X40637D01*
X40625Y25902D02*
Y25927D01*
X40112Y26015D02*
X40137D01*
X40125Y26002D02*
Y26027D01*
X40212Y26115D02*
X40237D01*
X40225Y26102D02*
Y26127D01*
X40212Y25915D02*
X40237D01*
X40225Y25902D02*
Y25927D01*
X39737Y25045D02*
X39772D01*
X39755Y25027D02*
Y25063D01*
X39737Y24777D02*
X39772D01*
X39755Y2476D02*
Y24795D01*
X39631Y28265D02*
X39818D01*
X39725Y28171D02*
Y28358D01*
X39631Y29815D02*
X39818D01*
X39725Y29721D02*
Y29908D01*
X41181Y29815D02*
X41368D01*
X41275Y29721D02*
Y29908D01*
X41181Y28265D02*
X41368D01*
X41275Y28171D02*
Y28358D01*
X39631Y26415D02*
X39818D01*
X39725Y26321D02*
Y26508D01*
X39631Y27965D02*
X39818D01*
X39725Y27871D02*
Y28058D01*
X41181Y27965D02*
X41368D01*
X41275Y27871D02*
Y28058D01*
X41181Y26415D02*
X41368D01*
X41275Y26321D02*
Y26508D01*
X39631Y24565D02*
X39818D01*
X39725Y24471D02*
Y24658D01*
X39631Y26115D02*
X39818D01*
X39725Y26021D02*
Y26208D01*
X41181Y26115D02*
X41368D01*
X41275Y26021D02*
Y26208D01*
X41181Y24565D02*
X41368D01*
X41275Y24471D02*
Y24658D01*
X3895Y2725D02*
X3899D01*
X3897Y2723D02*
Y2727D01*
X3895Y2715D02*
X3899D01*
X3897Y2713D02*
Y2717D01*
X378Y2785D02*
X3784D01*
X3782Y2783D02*
Y2787D01*
X379Y2785D02*
X3794D01*
X3792Y2783D02*
Y2787D01*
X39237Y26944D02*
X39273D01*
X39255Y26927D02*
Y26962D01*
X3897Y26944D02*
X39005D01*
X38987Y26927D02*
Y26962D01*
X37797Y2739D02*
X37822D01*
X3781Y27377D02*
Y27402D01*
X37897Y2729D02*
X37922D01*
X3791Y27277D02*
Y27302D01*
X37697Y2729D02*
X37722D01*
X3771Y27277D02*
Y27302D01*
X39157Y273D02*
X39182D01*
X3917Y27287D02*
Y27312D01*
X39257Y272D02*
X39282D01*
X3927Y27187D02*
Y27212D01*
X39057Y272D02*
X39082D01*
X3907Y27187D02*
Y27212D01*
X39157Y277D02*
X39182D01*
X3917Y27687D02*
Y27712D01*
X39257Y276D02*
X39282D01*
X3927Y27587D02*
Y27612D01*
X39057Y276D02*
X39082D01*
X3907Y27587D02*
Y27612D01*
X38182Y28069D02*
X38218D01*
X382Y28052D02*
Y28087D01*
X37915Y28069D02*
X3795D01*
X37932Y28052D02*
Y28087D01*
X371Y2725D02*
X3714D01*
X3712Y2723D02*
Y2727D01*
X371Y2715D02*
X3714D01*
X3712Y2713D02*
Y2717D01*
X3595Y2785D02*
X3599D01*
X3597Y2783D02*
Y2787D01*
X3605Y2785D02*
X3609D01*
X3607Y2783D02*
Y2787D01*
X37387Y26944D02*
X37423D01*
X37405Y26927D02*
Y26962D01*
X3712Y26944D02*
X37155D01*
X37137Y26927D02*
Y26962D01*
X35947Y2739D02*
X35972D01*
X3596Y27377D02*
Y27402D01*
X36047Y2729D02*
X36072D01*
X3606Y27277D02*
Y27302D01*
X35847Y2729D02*
X35872D01*
X3586Y27277D02*
Y27302D01*
X37307Y273D02*
X37332D01*
X3732Y27287D02*
Y27312D01*
X37407Y272D02*
X37432D01*
X3742Y27187D02*
Y27212D01*
X37207Y272D02*
X37232D01*
X3722Y27187D02*
Y27212D01*
X37307Y277D02*
X37332D01*
X3732Y27687D02*
Y27712D01*
X37407Y276D02*
X37432D01*
X3742Y27587D02*
Y27612D01*
X37207Y276D02*
X37232D01*
X3722Y27587D02*
Y27612D01*
X36332Y28069D02*
X36368D01*
X3635Y28052D02*
Y28087D01*
X36065Y28069D02*
X361D01*
X36082Y28052D02*
Y28087D01*
X3525Y2725D02*
X3529D01*
X3527Y2723D02*
Y2727D01*
X3525Y2715D02*
X3529D01*
X3527Y2713D02*
Y2717D01*
X341Y2785D02*
X3414D01*
X3412Y2783D02*
Y2787D01*
X342Y2785D02*
X3424D01*
X3422Y2783D02*
Y2787D01*
X35537Y26944D02*
X35573D01*
X35555Y26927D02*
Y26962D01*
X3527Y26944D02*
X35305D01*
X35287Y26927D02*
Y26962D01*
X34097Y2739D02*
X34122D01*
X3411Y27377D02*
Y27402D01*
X34197Y2729D02*
X34222D01*
X3421Y27277D02*
Y27302D01*
X33997Y2729D02*
X34022D01*
X3401Y27277D02*
Y27302D01*
X35457Y273D02*
X35482D01*
X3547Y27287D02*
Y27312D01*
X35557Y272D02*
X35582D01*
X3557Y27187D02*
Y27212D01*
X35357Y272D02*
X35382D01*
X3537Y27187D02*
Y27212D01*
X35457Y277D02*
X35482D01*
X3547Y27687D02*
Y27712D01*
X35557Y276D02*
X35582D01*
X3557Y27587D02*
Y27612D01*
X35357Y276D02*
X35382D01*
X3537Y27587D02*
Y27612D01*
X34482Y28069D02*
X34518D01*
X345Y28052D02*
Y28087D01*
X34215Y28069D02*
X3425D01*
X34232Y28052D02*
Y28087D01*
X37626Y281D02*
X37813D01*
X3772Y28006D02*
Y28193D01*
X39176Y281D02*
X39363D01*
X3927Y28006D02*
Y28193D01*
X39176Y2655D02*
X39363D01*
X3927Y26456D02*
Y26643D01*
X37626Y2655D02*
X37813D01*
X3772Y26456D02*
Y26643D01*
X35776Y281D02*
X35963D01*
X3587Y28006D02*
Y28193D01*
X37326Y281D02*
X37513D01*
X3742Y28006D02*
Y28193D01*
X37326Y2655D02*
X37513D01*
X3742Y26456D02*
Y26643D01*
X35776Y2655D02*
X35963D01*
X3587Y26456D02*
Y26643D01*
X33926Y281D02*
X34113D01*
X3402Y28006D02*
Y28193D01*
X35476Y281D02*
X35663D01*
X3557Y28006D02*
Y28193D01*
X35476Y2655D02*
X35663D01*
X3557Y26456D02*
Y26643D01*
X33926Y2655D02*
X34113D01*
X3402Y26456D02*
Y26643D01*
X38985Y25285D02*
X39025D01*
X39005Y25265D02*
Y25305D01*
X38985Y25185D02*
X39025D01*
X39005Y25165D02*
Y25205D01*
X37835Y25885D02*
X37875D01*
X37855Y25865D02*
Y25905D01*
X37935Y25885D02*
X37975D01*
X37955Y25865D02*
Y25905D01*
X39272Y24979D02*
X39308D01*
X3929Y24962D02*
Y24997D01*
X39005Y24979D02*
X3904D01*
X39022Y24962D02*
Y24997D01*
X37832Y25425D02*
X37857D01*
X37845Y25412D02*
Y25437D01*
X37932Y25325D02*
X37957D01*
X37945Y25312D02*
Y25337D01*
X37732Y25325D02*
X37757D01*
X37745Y25312D02*
Y25337D01*
X39192Y25335D02*
X39217D01*
X39205Y25322D02*
Y25347D01*
X39292Y25235D02*
X39317D01*
X39305Y25222D02*
Y25247D01*
X39092Y25235D02*
X39117D01*
X39105Y25222D02*
Y25247D01*
X39192Y25735D02*
X39217D01*
X39205Y25722D02*
Y25747D01*
X39292Y25635D02*
X39317D01*
X39305Y25622D02*
Y25647D01*
X39092Y25635D02*
X39117D01*
X39105Y25622D02*
Y25647D01*
X38217Y26104D02*
X38253D01*
X38235Y26087D02*
Y26122D01*
X3795Y26104D02*
X37985D01*
X37967Y26087D02*
Y26122D01*
X37135Y25285D02*
X37175D01*
X37155Y25265D02*
Y25305D01*
X37135Y25185D02*
X37175D01*
X37155Y25165D02*
Y25205D01*
X35985Y25885D02*
X36025D01*
X36005Y25865D02*
Y25905D01*
X36085Y25885D02*
X36125D01*
X36105Y25865D02*
Y25905D01*
X37422Y24979D02*
X37458D01*
X3744Y24962D02*
Y24997D01*
X37155Y24979D02*
X3719D01*
X37172Y24962D02*
Y24997D01*
X35982Y25425D02*
X36007D01*
X35995Y25412D02*
Y25437D01*
X36082Y25325D02*
X36107D01*
X36095Y25312D02*
Y25337D01*
X35882Y25325D02*
X35907D01*
X35895Y25312D02*
Y25337D01*
X37342Y25335D02*
X37367D01*
X37355Y25322D02*
Y25347D01*
X37442Y25235D02*
X37467D01*
X37455Y25222D02*
Y25247D01*
X37242Y25235D02*
X37267D01*
X37255Y25222D02*
Y25247D01*
X37342Y25735D02*
X37367D01*
X37355Y25722D02*
Y25747D01*
X37442Y25635D02*
X37467D01*
X37455Y25622D02*
Y25647D01*
X37242Y25635D02*
X37267D01*
X37255Y25622D02*
Y25647D01*
X36367Y26104D02*
X36403D01*
X36385Y26087D02*
Y26122D01*
X361Y26104D02*
X36135D01*
X36117Y26087D02*
Y26122D01*
X35285Y25285D02*
X35325D01*
X35305Y25265D02*
Y25305D01*
X35285Y25185D02*
X35325D01*
X35305Y25165D02*
Y25205D01*
X34135Y25885D02*
X34175D01*
X34155Y25865D02*
Y25905D01*
X34235Y25885D02*
X34275D01*
X34255Y25865D02*
Y25905D01*
X35572Y24979D02*
X35608D01*
X3559Y24962D02*
Y24997D01*
X35305Y24979D02*
X3534D01*
X35322Y24962D02*
Y24997D01*
X34132Y25425D02*
X34157D01*
X34145Y25412D02*
Y25437D01*
X34232Y25325D02*
X34257D01*
X34245Y25312D02*
Y25337D01*
X34032Y25325D02*
X34057D01*
X34045Y25312D02*
Y25337D01*
X35492Y25335D02*
X35517D01*
X35505Y25322D02*
Y25347D01*
X35592Y25235D02*
X35617D01*
X35605Y25222D02*
Y25247D01*
X35392Y25235D02*
X35417D01*
X35405Y25222D02*
Y25247D01*
X35492Y25735D02*
X35517D01*
X35505Y25722D02*
Y25747D01*
X35592Y25635D02*
X35617D01*
X35605Y25622D02*
Y25647D01*
X35392Y25635D02*
X35417D01*
X35405Y25622D02*
Y25647D01*
X34517Y26104D02*
X34553D01*
X34535Y26087D02*
Y26122D01*
X3425Y26104D02*
X34285D01*
X34267Y26087D02*
Y26122D01*
X37661Y26135D02*
X37848D01*
X37755Y26041D02*
Y26228D01*
X39211Y26135D02*
X39398D01*
X39305Y26041D02*
Y26228D01*
X39211Y24585D02*
X39398D01*
X39305Y24491D02*
Y24678D01*
X37661Y24585D02*
X37848D01*
X37755Y24491D02*
Y24678D01*
X35811Y26135D02*
X35998D01*
X35905Y26041D02*
Y26228D01*
X37361Y26135D02*
X37548D01*
X37455Y26041D02*
Y26228D01*
X37361Y24585D02*
X37548D01*
X37455Y24491D02*
Y24678D01*
X35811Y24585D02*
X35998D01*
X35905Y24491D02*
Y24678D01*
X33961Y26135D02*
X34148D01*
X34055Y26041D02*
Y26228D01*
X35511Y26135D02*
X35698D01*
X35605Y26041D02*
Y26228D01*
X35511Y24585D02*
X35698D01*
X35605Y24491D02*
Y24678D01*
X33961Y24585D02*
X34148D01*
X34055Y24491D02*
Y24678D01*
X38125Y30064D02*
X38151D01*
X38138Y30051D02*
Y30077D01*
X38246Y29974D02*
X38271D01*
X38258Y29961D02*
Y29987D01*
X38037Y29825D02*
X38062D01*
X3805Y29812D02*
Y29837D01*
X38037Y28725D02*
X38062D01*
X3805Y28712D02*
Y28737D01*
X38887Y28675D02*
X38912D01*
X389Y28662D02*
Y28687D01*
X38787Y29775D02*
X38812D01*
X388Y29762D02*
Y29787D01*
X38351Y29852D02*
X38376D01*
X38364Y2984D02*
Y29865D01*
X38423Y2883D02*
X38448D01*
X38436Y28817D02*
Y28842D01*
X37687Y28975D02*
X37712D01*
X377Y28962D02*
Y28987D01*
X38287Y29075D02*
X38312D01*
X383Y29062D02*
Y29087D01*
X38787Y29125D02*
X38812D01*
X388Y29112D02*
Y29137D01*
X38087Y28975D02*
X38112D01*
X381Y28962D02*
Y28987D01*
X38637Y28675D02*
X38662D01*
X3865Y28662D02*
Y28687D01*
X38837Y28625D02*
X38862D01*
X3885Y28612D02*
Y28637D01*
X36275Y30064D02*
X36301D01*
X36288Y30051D02*
Y30077D01*
X36396Y29974D02*
X36421D01*
X36408Y29961D02*
Y29987D01*
X36187Y29825D02*
X36212D01*
X362Y29812D02*
Y29837D01*
X36187Y28725D02*
X36212D01*
X362Y28712D02*
Y28737D01*
X37037Y28675D02*
X37062D01*
X3705Y28662D02*
Y28687D01*
X36937Y29775D02*
X36962D01*
X3695Y29762D02*
Y29787D01*
X36501Y29852D02*
X36526D01*
X36514Y2984D02*
Y29865D01*
X36573Y2883D02*
X36598D01*
X36586Y28817D02*
Y28842D01*
X35837Y28975D02*
X35862D01*
X3585Y28962D02*
Y28987D01*
X36437Y29075D02*
X36462D01*
X3645Y29062D02*
Y29087D01*
X36937Y29125D02*
X36962D01*
X3695Y29112D02*
Y29137D01*
X36237Y28975D02*
X36262D01*
X3625Y28962D02*
Y28987D01*
X36787Y28675D02*
X36812D01*
X368Y28662D02*
Y28687D01*
X36987Y28625D02*
X37012D01*
X37Y28612D02*
Y28637D01*
X34425Y30064D02*
X34451D01*
X34438Y30051D02*
Y30077D01*
X34546Y29974D02*
X34571D01*
X34558Y29961D02*
Y29987D01*
X34337Y29825D02*
X34362D01*
X3435Y29812D02*
Y29837D01*
X34337Y28725D02*
X34362D01*
X3435Y28712D02*
Y28737D01*
X35187Y28675D02*
X35212D01*
X352Y28662D02*
Y28687D01*
X35087Y29775D02*
X35112D01*
X351Y29762D02*
Y29787D01*
X34651Y29852D02*
X34676D01*
X34664Y2984D02*
Y29865D01*
X34723Y2883D02*
X34748D01*
X34736Y28817D02*
Y28842D01*
X33987Y28975D02*
X34012D01*
X34Y28962D02*
Y28987D01*
X34587Y29075D02*
X34612D01*
X346Y29062D02*
Y29087D01*
X35087Y29125D02*
X35112D01*
X351Y29112D02*
Y29137D01*
X34387Y28975D02*
X34412D01*
X344Y28962D02*
Y28987D01*
X34937Y28675D02*
X34962D01*
X3495Y28662D02*
Y28687D01*
X35137Y28625D02*
X35162D01*
X3515Y28612D02*
Y28637D01*
X38872Y23738D02*
X38907D01*
X3889Y2372D02*
Y23756D01*
X38672Y23738D02*
X38707D01*
X3869Y2372D02*
Y23756D01*
X38772Y23738D02*
X38807D01*
X3879Y2372D02*
Y23756D01*
X38872Y23833D02*
X38907D01*
X3889Y23815D02*
Y23851D01*
X38672Y23833D02*
X38707D01*
X3869Y23815D02*
Y23851D01*
X38772Y23833D02*
X38807D01*
X3879Y23815D02*
Y23851D01*
X38872Y23933D02*
X38907D01*
X3889Y23915D02*
Y23951D01*
X38872Y24033D02*
X38907D01*
X3889Y24015D02*
Y24051D01*
X38972Y23933D02*
X39007D01*
X3899Y23915D02*
Y23951D01*
X39072Y23933D02*
X39107D01*
X3909Y23915D02*
Y23951D01*
X38972Y24033D02*
X39007D01*
X3899Y24015D02*
Y24051D01*
X39072Y24033D02*
X39107D01*
X3909Y24015D02*
Y24051D01*
X37875Y22465D02*
X37895D01*
X37885Y22455D02*
Y22475D01*
X37785Y22555D02*
X37805D01*
X37795Y22545D02*
Y22565D01*
X3741Y23035D02*
X3743D01*
X3742Y23025D02*
Y23045D01*
X38115Y2368D02*
X38135D01*
X38125Y2367D02*
Y2369D01*
X381Y2293D02*
X3812D01*
X3811Y2292D02*
Y2294D01*
X37575Y2236D02*
X37595D01*
X37585Y2235D02*
Y2237D01*
X3771Y2338D02*
X3773D01*
X3772Y2337D02*
Y2339D01*
X3711Y2284D02*
X3713D01*
X3712Y2283D02*
Y2285D01*
X36765Y22885D02*
X36785D01*
X36775Y22875D02*
Y22895D01*
X3702Y2275D02*
X3704D01*
X3703Y2274D02*
Y2276D01*
X3758Y22525D02*
X376D01*
X3759Y22515D02*
Y22535D01*
X37965Y22375D02*
X37985D01*
X37975Y22365D02*
Y22385D01*
X38145Y2245D02*
X38165D01*
X38155Y2244D02*
Y2246D01*
X37605Y2281D02*
X37625D01*
X37615Y228D02*
Y2282D01*
X3735Y2254D02*
X3737D01*
X3736Y2253D02*
Y2255D01*
X3738Y2242D02*
X374D01*
X3739Y2241D02*
Y2243D01*
X3732Y22255D02*
X3734D01*
X3733Y22245D02*
Y22265D01*
X36885Y23845D02*
X36905D01*
X36895Y23835D02*
Y23855D01*
X37037Y24015D02*
X37057D01*
X37047Y24005D02*
Y24025D01*
X3684Y235D02*
X3686D01*
X3685Y2349D02*
Y2351D01*
X36765Y23845D02*
X36785D01*
X36775Y23835D02*
Y23855D01*
X3759Y23485D02*
X3761D01*
X376Y23475D02*
Y23495D01*
X3672Y23725D02*
X3674D01*
X3673Y23715D02*
Y23735D01*
X3702Y2311D02*
X3704D01*
X3703Y231D02*
Y2312D01*
X36555Y23665D02*
X36575D01*
X36565Y23655D02*
Y23675D01*
X39672Y28703D02*
X39698D01*
X39685Y2869D02*
Y28716D01*
X39762Y28823D02*
X39788D01*
X39775Y28811D02*
Y28836D01*
X39912Y28615D02*
X39937D01*
X39925Y28602D02*
Y28627D01*
X41012Y28615D02*
X41037D01*
X41025Y28602D02*
Y28627D01*
X41062Y29465D02*
X41087D01*
X41075Y29452D02*
Y29477D01*
X39962Y29365D02*
X39987D01*
X39975Y29352D02*
Y29377D01*
X39884Y28929D02*
X39909D01*
X39897Y28916D02*
Y28941D01*
X40907Y29001D02*
X40932D01*
X4092Y28988D02*
Y29013D01*
X40762Y28265D02*
X40787D01*
X40775Y28252D02*
Y28277D01*
X40662Y28865D02*
X40687D01*
X40675Y28852D02*
Y28877D01*
X40612Y29365D02*
X40637D01*
X40625Y29352D02*
Y29377D01*
X40762Y28665D02*
X40787D01*
X40775Y28652D02*
Y28677D01*
X41062Y29215D02*
X41087D01*
X41075Y29202D02*
Y29227D01*
X41112Y29415D02*
X41137D01*
X41125Y29402D02*
Y29427D01*
X39672Y26853D02*
X39698D01*
X39685Y2684D02*
Y26866D01*
X39762Y26973D02*
X39788D01*
X39775Y26961D02*
Y26986D01*
X39912Y26765D02*
X39937D01*
X39925Y26752D02*
Y26777D01*
X41012Y26765D02*
X41037D01*
X41025Y26752D02*
Y26777D01*
X41062Y27615D02*
X41087D01*
X41075Y27602D02*
Y27627D01*
X39962Y27515D02*
X39987D01*
X39975Y27502D02*
Y27527D01*
X39884Y27079D02*
X39909D01*
X39897Y27066D02*
Y27091D01*
X40907Y27151D02*
X40932D01*
X4092Y27138D02*
Y27163D01*
X40762Y26415D02*
X40787D01*
X40775Y26402D02*
Y26427D01*
X40662Y27015D02*
X40687D01*
X40675Y27002D02*
Y27027D01*
X40612Y27515D02*
X40637D01*
X40625Y27502D02*
Y27527D01*
X40762Y26815D02*
X40787D01*
X40775Y26802D02*
Y26827D01*
X41062Y27365D02*
X41087D01*
X41075Y27352D02*
Y27377D01*
X41112Y27565D02*
X41137D01*
X41125Y27552D02*
Y27577D01*
X39672Y25003D02*
X39698D01*
X39685Y2499D02*
Y25016D01*
X39762Y25123D02*
X39788D01*
X39775Y25111D02*
Y25136D01*
X39912Y24915D02*
X39937D01*
X39925Y24902D02*
Y24927D01*
X41012Y24915D02*
X41037D01*
X41025Y24902D02*
Y24927D01*
X41062Y25765D02*
X41087D01*
X41075Y25752D02*
Y25777D01*
X39962Y25665D02*
X39987D01*
X39975Y25652D02*
Y25677D01*
X39884Y25229D02*
X39909D01*
X39897Y25216D02*
Y25241D01*
X40907Y25301D02*
X40932D01*
X4092Y25288D02*
Y25313D01*
X40762Y24565D02*
X40787D01*
X40775Y24552D02*
Y24577D01*
X40662Y25165D02*
X40687D01*
X40675Y25152D02*
Y25177D01*
X40612Y25665D02*
X40637D01*
X40625Y25652D02*
Y25677D01*
X40762Y24965D02*
X40787D01*
X40775Y24952D02*
Y24977D01*
X41062Y25515D02*
X41087D01*
X41075Y25502D02*
Y25527D01*
X41112Y25715D02*
X41137D01*
X41125Y25702D02*
Y25727D01*
X38145Y28139D02*
X38171D01*
X38158Y28126D02*
Y28152D01*
X38266Y28049D02*
X38291D01*
X38278Y28036D02*
Y28062D01*
X38057Y279D02*
X38082D01*
X3807Y27887D02*
Y27912D01*
X38057Y268D02*
X38082D01*
X3807Y26787D02*
Y26812D01*
X38907Y2675D02*
X38932D01*
X3892Y26737D02*
Y26762D01*
X38807Y2785D02*
X38832D01*
X3882Y27837D02*
Y27862D01*
X38371Y27927D02*
X38396D01*
X38384Y27915D02*
Y2794D01*
X38443Y26905D02*
X38468D01*
X38456Y26892D02*
Y26917D01*
X37707Y2705D02*
X37732D01*
X3772Y27037D02*
Y27062D01*
X38307Y2715D02*
X38332D01*
X3832Y27137D02*
Y27162D01*
X38807Y272D02*
X38832D01*
X3882Y27187D02*
Y27212D01*
X38107Y2705D02*
X38132D01*
X3812Y27037D02*
Y27062D01*
X38657Y2675D02*
X38682D01*
X3867Y26737D02*
Y26762D01*
X38857Y267D02*
X38882D01*
X3887Y26687D02*
Y26712D01*
X36295Y28139D02*
X36321D01*
X36308Y28126D02*
Y28152D01*
X36416Y28049D02*
X36441D01*
X36428Y28036D02*
Y28062D01*
X36207Y279D02*
X36232D01*
X3622Y27887D02*
Y27912D01*
X36207Y268D02*
X36232D01*
X3622Y26787D02*
Y26812D01*
X37057Y2675D02*
X37082D01*
X3707Y26737D02*
Y26762D01*
X36957Y2785D02*
X36982D01*
X3697Y27837D02*
Y27862D01*
X36521Y27927D02*
X36546D01*
X36534Y27915D02*
Y2794D01*
X36593Y26905D02*
X36618D01*
X36606Y26892D02*
Y26917D01*
X35857Y2705D02*
X35882D01*
X3587Y27037D02*
Y27062D01*
X36457Y2715D02*
X36482D01*
X3647Y27137D02*
Y27162D01*
X36957Y272D02*
X36982D01*
X3697Y27187D02*
Y27212D01*
X36257Y2705D02*
X36282D01*
X3627Y27037D02*
Y27062D01*
X36807Y2675D02*
X36832D01*
X3682Y26737D02*
Y26762D01*
X37007Y267D02*
X37032D01*
X3702Y26687D02*
Y26712D01*
X34445Y28139D02*
X34471D01*
X34458Y28126D02*
Y28152D01*
X34566Y28049D02*
X34591D01*
X34578Y28036D02*
Y28062D01*
X34357Y279D02*
X34382D01*
X3437Y27887D02*
Y27912D01*
X34357Y268D02*
X34382D01*
X3437Y26787D02*
Y26812D01*
X35207Y2675D02*
X35232D01*
X3522Y26737D02*
Y26762D01*
X35107Y2785D02*
X35132D01*
X3512Y27837D02*
Y27862D01*
X34671Y27927D02*
X34696D01*
X34684Y27915D02*
Y2794D01*
X34743Y26905D02*
X34768D01*
X34756Y26892D02*
Y26917D01*
X34007Y2705D02*
X34032D01*
X3402Y27037D02*
Y27062D01*
X34607Y2715D02*
X34632D01*
X3462Y27137D02*
Y27162D01*
X35107Y272D02*
X35132D01*
X3512Y27187D02*
Y27212D01*
X34407Y2705D02*
X34432D01*
X3442Y27037D02*
Y27062D01*
X34957Y2675D02*
X34982D01*
X3497Y26737D02*
Y26762D01*
X35157Y267D02*
X35182D01*
X3517Y26687D02*
Y26712D01*
X3818Y26174D02*
X38206D01*
X38193Y26161D02*
Y26187D01*
X38301Y26084D02*
X38326D01*
X38313Y26071D02*
Y26097D01*
X38092Y25935D02*
X38117D01*
X38105Y25922D02*
Y25947D01*
X38092Y24835D02*
X38117D01*
X38105Y24822D02*
Y24847D01*
X38942Y24785D02*
X38967D01*
X38955Y24772D02*
Y24797D01*
X38842Y25885D02*
X38867D01*
X38855Y25872D02*
Y25897D01*
X38406Y25962D02*
X38431D01*
X38419Y2595D02*
Y25975D01*
X38478Y2494D02*
X38503D01*
X38491Y24927D02*
Y24952D01*
X37742Y25085D02*
X37767D01*
X37755Y25072D02*
Y25097D01*
X38342Y25185D02*
X38367D01*
X38355Y25172D02*
Y25197D01*
X38842Y25235D02*
X38867D01*
X38855Y25222D02*
Y25247D01*
X38142Y25085D02*
X38167D01*
X38155Y25072D02*
Y25097D01*
X38692Y24785D02*
X38717D01*
X38705Y24772D02*
Y24797D01*
X38892Y24735D02*
X38917D01*
X38905Y24722D02*
Y24747D01*
X3633Y26174D02*
X36356D01*
X36343Y26161D02*
Y26187D01*
X36451Y26084D02*
X36476D01*
X36463Y26071D02*
Y26097D01*
X36242Y25935D02*
X36267D01*
X36255Y25922D02*
Y25947D01*
X36242Y24835D02*
X36267D01*
X36255Y24822D02*
Y24847D01*
X37092Y24785D02*
X37117D01*
X37105Y24772D02*
Y24797D01*
X36992Y25885D02*
X37017D01*
X37005Y25872D02*
Y25897D01*
X36556Y25962D02*
X36581D01*
X36569Y2595D02*
Y25975D01*
X36628Y2494D02*
X36653D01*
X36641Y24927D02*
Y24952D01*
X35892Y25085D02*
X35917D01*
X35905Y25072D02*
Y25097D01*
X36492Y25185D02*
X36517D01*
X36505Y25172D02*
Y25197D01*
X36992Y25235D02*
X37017D01*
X37005Y25222D02*
Y25247D01*
X36292Y25085D02*
X36317D01*
X36305Y25072D02*
Y25097D01*
X36842Y24785D02*
X36867D01*
X36855Y24772D02*
Y24797D01*
X37042Y24735D02*
X37067D01*
X37055Y24722D02*
Y24747D01*
X3448Y26174D02*
X34506D01*
X34493Y26161D02*
Y26187D01*
X34601Y26084D02*
X34626D01*
X34613Y26071D02*
Y26097D01*
X34392Y25935D02*
X34417D01*
X34405Y25922D02*
Y25947D01*
X34392Y24835D02*
X34417D01*
X34405Y24822D02*
Y24847D01*
X35242Y24785D02*
X35267D01*
X35255Y24772D02*
Y24797D01*
X35142Y25885D02*
X35167D01*
X35155Y25872D02*
Y25897D01*
X34706Y25962D02*
X34731D01*
X34719Y2595D02*
Y25975D01*
X34778Y2494D02*
X34803D01*
X34791Y24927D02*
Y24952D01*
X34042Y25085D02*
X34067D01*
X34055Y25072D02*
Y25097D01*
X34642Y25185D02*
X34667D01*
X34655Y25172D02*
Y25197D01*
X35142Y25235D02*
X35167D01*
X35155Y25222D02*
Y25247D01*
X34442Y25085D02*
X34467D01*
X34455Y25072D02*
Y25097D01*
X34992Y24785D02*
X35017D01*
X35005Y24772D02*
Y24797D01*
X35192Y24735D02*
X35217D01*
X35205Y24722D02*
Y24747D01*
M02*