G04 Layer_Physical_Order=2*
G04 Layer_Color=16711680*
%FSLAX42Y42*%
%MOMM*%
G71*
G01*
G75*
%ADD11R,7.26X4.00*%
%ADD12R,19.16X4.00*%
%ADD13C,4.00*%
%ADD14C,1.27*%
%ADD15R,3.00X2.10*%
%ADD16R,1.60X0.80*%
%ADD17C,0.25*%
G36*
X7573Y5727D02*
X7567Y5715D01*
X7544Y5722D01*
X7500Y5726D01*
X7456Y5722D01*
X7413Y5709D01*
X7374Y5688D01*
X7340Y5660D01*
X7312Y5626D01*
X7291Y5587D01*
X7278Y5544D01*
X7274Y5500D01*
X7278Y5456D01*
X7291Y5413D01*
X7312Y5374D01*
X7340Y5340D01*
X7374Y5312D01*
X7413Y5291D01*
X7456Y5278D01*
X7500Y5274D01*
X7544Y5278D01*
X7587Y5291D01*
X7626Y5312D01*
X7660Y5340D01*
X7688Y5374D01*
X7709Y5413D01*
X7722Y5456D01*
X7726Y5500D01*
X7722Y5544D01*
X7715Y5567D01*
X7727Y5573D01*
X7850Y5450D01*
Y500D01*
X7787Y437D01*
X7776Y443D01*
X7776Y450D01*
X7772Y494D01*
X7759Y537D01*
X7738Y576D01*
X7710Y610D01*
X7676Y638D01*
X7637Y659D01*
X7594Y672D01*
X7550Y676D01*
X7506Y672D01*
X7463Y659D01*
X7424Y638D01*
X7390Y610D01*
X7362Y576D01*
X7341Y537D01*
X7328Y494D01*
X7324Y450D01*
X7328Y406D01*
X7341Y363D01*
X7362Y324D01*
X7390Y290D01*
X7424Y262D01*
X7463Y241D01*
X7506Y228D01*
X7550Y224D01*
X7557Y224D01*
X7563Y213D01*
X7450Y100D01*
X500D01*
X100Y500D01*
Y5450D01*
X500Y5850D01*
X7450D01*
X7573Y5727D01*
D02*
G37*
%LPC*%
G36*
X935Y3050D02*
X585D01*
Y2790D01*
X935D01*
Y3050D01*
D02*
G37*
G36*
X1037Y3162D02*
X945D01*
Y3110D01*
X1037D01*
Y3162D01*
D02*
G37*
G36*
X500Y726D02*
X456Y722D01*
X413Y709D01*
X374Y688D01*
X340Y660D01*
X312Y626D01*
X291Y587D01*
X278Y544D01*
X274Y500D01*
X278Y456D01*
X291Y413D01*
X312Y374D01*
X340Y340D01*
X374Y312D01*
X413Y291D01*
X456Y278D01*
X500Y274D01*
X544Y278D01*
X587Y291D01*
X626Y312D01*
X660Y340D01*
X688Y374D01*
X709Y413D01*
X722Y456D01*
X726Y500D01*
X722Y544D01*
X709Y587D01*
X688Y626D01*
X660Y660D01*
X626Y688D01*
X587Y709D01*
X544Y722D01*
X500Y726D01*
D02*
G37*
G36*
X1155Y3537D02*
X1050D01*
X945D01*
Y3485D01*
Y3360D01*
Y3235D01*
Y3188D01*
X1050D01*
X1155D01*
Y3261D01*
X1320D01*
X1322Y3255D01*
X1337Y3237D01*
X1355Y3222D01*
X1377Y3213D01*
X1400Y3210D01*
X1423Y3213D01*
X1445Y3222D01*
X1463Y3237D01*
X1478Y3255D01*
X1487Y3277D01*
X1490Y3300D01*
X1487Y3323D01*
X1478Y3345D01*
X1463Y3363D01*
X1450Y3373D01*
X1455Y3386D01*
X1609D01*
X2281Y2714D01*
Y1080D01*
X1931D01*
Y629D01*
X2708D01*
Y815D01*
X5378D01*
Y629D01*
X7345D01*
Y1080D01*
X5378D01*
Y893D01*
X2708D01*
Y1080D01*
X2358D01*
Y2731D01*
X2355Y2745D01*
X2347Y2758D01*
X1652Y3452D01*
X1640Y3461D01*
X1625Y3464D01*
X1155D01*
Y3485D01*
Y3537D01*
D02*
G37*
G36*
Y3162D02*
X1063D01*
Y3110D01*
X1155D01*
Y3162D01*
D02*
G37*
G36*
X935Y3935D02*
X585D01*
Y3675D01*
X935D01*
Y3935D01*
D02*
G37*
G36*
X500Y5676D02*
X456Y5672D01*
X413Y5659D01*
X374Y5638D01*
X340Y5610D01*
X312Y5576D01*
X291Y5537D01*
X278Y5494D01*
X274Y5450D01*
X278Y5406D01*
X291Y5363D01*
X312Y5324D01*
X340Y5290D01*
X374Y5262D01*
X413Y5241D01*
X456Y5228D01*
X500Y5224D01*
X544Y5228D01*
X587Y5241D01*
X626Y5262D01*
X660Y5290D01*
X688Y5324D01*
X709Y5363D01*
X722Y5406D01*
X726Y5450D01*
X722Y5494D01*
X709Y5537D01*
X688Y5576D01*
X660Y5610D01*
X626Y5638D01*
X587Y5659D01*
X544Y5672D01*
X500Y5676D01*
D02*
G37*
G36*
X1037Y3615D02*
X945D01*
Y3563D01*
X1037D01*
Y3615D01*
D02*
G37*
G36*
X1155D02*
X1063D01*
Y3563D01*
X1155D01*
Y3615D01*
D02*
G37*
%LPD*%
D11*
X2319Y854D02*
D03*
D12*
X6361D02*
D03*
D13*
X500Y500D02*
D03*
X7550Y450D02*
D03*
X7500Y5500D02*
D03*
X500Y5450D02*
D03*
D14*
X1400Y3300D02*
D03*
D15*
X760Y3805D02*
D03*
Y2920D02*
D03*
D16*
X1050Y3550D02*
D03*
Y3425D02*
D03*
Y3300D02*
D03*
Y3175D02*
D03*
D17*
X7500Y0D02*
X8000Y500D01*
X7500Y6000D02*
X8000Y5500D01*
X0Y500D02*
X500Y0D01*
X0Y5500D02*
X500Y6000D01*
X1050Y3300D02*
X1400D01*
X1050Y3425D02*
X1625D01*
X2319Y2731D01*
Y854D02*
Y2731D01*
Y854D02*
X6361D01*
M02*
