G04 Layer_Color=8388736*
%FSLAX42Y42*%
%MOMM*%
G71*
G01*
G75*
%ADD18C,1.73*%
%ADD19R,7.46X4.20*%
%ADD20R,19.36X4.20*%
%ADD21C,4.20*%
%ADD22C,1.47*%
G36*
X7494Y5185D02*
X7496Y5185D01*
X7497Y5184D01*
X7498Y5184D01*
X7499Y5183D01*
X7500Y5182D01*
X7501Y5181D01*
X7502Y5180D01*
X7503Y5179D01*
X7503Y5178D01*
X7503Y5176D01*
X7503Y5175D01*
Y1207D01*
X7503Y1206D01*
X7503Y1204D01*
X7503Y1203D01*
X7502Y1202D01*
X7501Y1201D01*
X7500Y1200D01*
X7499Y1199D01*
X7498Y1198D01*
X7497Y1197D01*
X7496Y1197D01*
X7494Y1197D01*
X7493Y1197D01*
X1307D01*
X1307Y1197D01*
X1306Y1196D01*
X1305Y1196D01*
X1303Y1195D01*
X1302Y1195D01*
X1301Y1195D01*
X1299Y1196D01*
X1298Y1196D01*
X1297Y1197D01*
X1296Y1197D01*
X1295Y1198D01*
X584Y1909D01*
X583Y1910D01*
X582Y1911D01*
X581Y1913D01*
X581Y1914D01*
X581Y1915D01*
X581Y1917D01*
Y1917D01*
X581Y5175D01*
Y5175D01*
D01*
X581Y5176D01*
X581Y5178D01*
X581Y5179D01*
X582Y5180D01*
X583Y5181D01*
X584Y5182D01*
X585Y5183D01*
X586Y5184D01*
X587Y5184D01*
X588Y5185D01*
X589Y5185D01*
X591Y5185D01*
D01*
X591D01*
X7493D01*
X7494Y5185D01*
D02*
G37*
D18*
X4000Y3250D02*
D03*
D19*
X2319Y854D02*
D03*
D20*
X6361D02*
D03*
D21*
X500Y500D02*
D03*
X7550Y450D02*
D03*
X7500Y5500D02*
D03*
X500Y5450D02*
D03*
D22*
X1400Y3300D02*
D03*
M02*
